<?xml version="1.0" encoding="UTF-8"?>
<svg viewBox="0 0 261.1734 396.77011" xmlns="http://www.w3.org/2000/svg">
 <g transform="translate(-175.8 -288.75)">
  <path d="m338.78 288.75c-4.2418 0.01719-8.4219 2.5058-9.5 5.75-6.7834 0.02906-14.646 3.4958-19.5 6.1562-3.5901 1.9677-6.144 5.8139-9.25 7.2812-20.476 9.6734-16.204 22.754-22.312 34.781-1.2596 2.4801-0.87876 6.6772-2.5 8.9375-3.3981 4.7375-18.967 16.566-21.781 21.406-0.46329 0.79677 1.2586 2.166 2.1562 2.375 5.433 1.2649 12 1.2913 16.75 0.5 0.75981 1.5845-2.8324 4.3408-3.3125 6.0312-1.1477 4.0407 2.2228 9.7992 1.1875 12.531-1.8867 0.16651-7.5265-0.00745-10-0.03125-5.0639-0.04872-11.715-3.6538-15-1.0312-1.6451 1.3133-0.22578 5.3629-1.7812 6.7812-0.48158 0.43911-1.7107-0.13193-2.1562 0.34375-1.4721 1.5718-1.2421 5.7173-0.71875 7.1562 0.6602 1.8152 4.5362 2.1979 5.4375 3.9062 0.77611 1.4711 0.67166 2.784-0.78125 3.5938-6.8338 3.8085-21.274 28.752-28.656 42.062-9.13 16.462-19.123 39.305-24.906 57.219-6.7235 20.825-25.083 107.52-11.438 124.62 45.031 56.455 119.12 54.893 186.79 29.674 10.816-4.031 1.7904-68.415 18.476-90.769 4.957-6.6407 12.292-18.18 17.72-27.277 2.1098 0.16564 2.332-0.35752 2.5638-1.1938 0.43587-1.5727-0.22822-1.2402-0.61231-2.7787 6.2003-8.0224 12.532-25.369 13.812-37.281 0.41903-3.8982-2.1096-3.379-1.9688-5.3438 0.19573-2.7309 3.5624-4.9712 3.2188-7.6875-0.26625-2.1046-3.1946-2.8953-3.5625-5.1875 1.8885-2.1018 6.3489-7.1656 9.625-10.344 2.5038 0.38815 4.9435-3.8582 3.125-6.4375-3.9365-5.5835-10.492-9.7658-17.312-11.344h-0.03125c-0.86643-0.49739-1.5201-1.1846-1.9375-2.5-0.1087-0.34254 0.59689-0.68127 0.8125-0.96875 0.35937-0.47916 0.57781-1.4174 0.34375-1.9688-0.22644-0.53339-1.3429-0.54012-1.5938-1.0625-0.87304-1.8182-0.21149-5.6226 0.34375-8.0312 3.9157-0.84453 7.6822-2.892 10.469-5.5625 12.089-10.765 18.778-28.485 14.844-44.5-1.6621-6.6676-7.0761-12.58-14.188-12.719-0.47409-0.00922-0.94886 0.01902-1.4375 0.0625-13.03 1.4439-21.792 13.587-26.219 25-4.0136 10.792-5.3234 25.03 2.8125 34.062 2.6654 2.7957 6.0743 3.9939 9.5938 4.0625-1.0344 5.8569-5.692 9.7909-10.5 10.75-1.7111 0.34132-1.2584 2.4817-1 3.4688s1.2302 1.188 1.5312 1.9688c0.27061 0.70171 0.36406 1.5962 0.34375 2.5625-0.67822 0.57367-1.3666 1.1313-2.0625 1.7188-4.1257 3.4826-8.4736 11.061-11.812 15.656-3.286-1.7821-2.0075-4.0117-8.4062-5.6875l4.5625-12.812-2.6562-1.0625 1.4688-5.4375h2.375l0.71875-1.3125-2.375-1.2812 0.53125-1.9375 1.375-0.125c4.6308-16.208 6.0138-29.153-13.531-37.188 1.1805-1.5727 2.9088-2.9516 3.9375-4.5312 1.1465-1.7605 0.41047-5.7015 2.3125-6.5938 2.8796 1.2463 9.5135 5.0308 11.938-1.4062 2.863-7.6027-4.749-21.605-3.5625-29.656 0.58622-3.9777 3.6157-1.0064 4.6562-3.4062 0.66163-1.526-0.0444-4.5952 0.625-7.7812 5.0494 1.13 17.236 2.6826 23.094 3.0938 1.378 0.09671 2.6856-1.54 1.9688-2.1875-7.4953-6.77-16.877-16.23-21.594-19.906-0.46923-2.009 0.82317-5.4264-0.25-7.1562-4.0687-6.5585-6.4496-10.826-8.5312-22.812-0.73804-4.2498-20.048-15.283-31.906-18.969-0.47025-3.6777-5.4824-7.8783-10-8.2188-0.28235-0.02128-0.59221-0.0324-0.875-0.03125zm80.875 100.47c9.0601-0.0105 12.673 10.521 12.5 18.219-0.36342 14.091-6.4522 29.037-18.906 36.312-5.8875 3.72-14.052 1.1057-16.5-5.4062-5.3944-13.308-0.53555-28.883 7.625-39.719 3.8096-4.6195 8.91-9.2028 15.281-9.4062zm-0.09375 2.8125c-0.35318 0.00746-0.70002 0.04473-1.0625 0.09375-9.6572 1.5289-15.822 11.268-18.781 20.312-0.94286 3.0179-1.6384 6.3571-1.8438 9.7188 0.38422-3.4082 1.3428-6.7803 2.5312-9.7812 4.2911-10.904 18.435-25.681 28.781-14.062-2.0026-3.6584-5.4747-6.3685-9.625-6.2812zm-53.75 28.562c13.576 5.8277 16.548 15.047 8.375 33.375l1.4062 0.75-0.34375 1.9688h-2.4375l-0.0625 1.7812 2.0312 0.96875-0.90625 5.2812-2.8125-0.3125c-0.89286 18.571-6.338 11.398-6.2188 24.406 0.08377 9.1384 4.4488 14.142 7.4375 16.781-0.48809 0.62965-0.99543 1.2408-1.5625 1.7812-3.296 3.1414-6.1219 6.1578-8.125 7.8438-8.2926-12.506-23.884-33.294-33.312-45-1.8926-2.3497-1.9321-7.137 0.28125-9.1875 3.7381-1.0456 7.5549 2.834 8.2188 0.25 1.8464-7.1866-17.531-14.776-14.312-21.5 8.0401-1.3784 15.095 0.78178 21.344 0.71875s12.645-0.83076 13.938-2.7812c1.7318-2.6128 1.8674-5.9538 2.875-8.7812 0.51224-1.4373 2.4505-2.2387 2.9375-3.2188 0.76962-1.5488 0.76066-3.4476 1.25-5.125z" fill-rule="evenodd"/>
 </g>
</svg>
