<?xml version='1.0' encoding='utf-8'?>
<svg xmlns="http://www.w3.org/2000/svg" width="210mm" height="297mm" style="shape-rendering:geometricPrecision; text-rendering:geometricPrecision; image-rendering:optimizeQuality; fill-rule:evenodd; clip-rule:evenodd" viewBox="0 0 210 297"> <defs> <style type="text/css">  .fil2 {fill:#1F1A17} .fil0 {fill:red} .fil1 {fill:#FFDC00}  </style> </defs> <g id="Warstwa_x0020_1"> <metadata id="CorelCorpID_0Corel-Layer"/> <g id="_112527352"> <path id="_112528864" class="fil0" d="M108.622 79.7649l40.1259 66.5518 40.1909 66.5519c1.6231,2.727 -0.4546,6.3629 -3.6361,6.3629l-160.633 0c-3.1815,0 -5.2592,-3.6359 -3.5711,-6.3629l40.1259 -66.5519 40.1908 -66.5518c1.5583,-2.662 5.5839,-2.662 7.2071,0z"/> <polygon id="_112526824" class="fil1" points="104.986,88.8549 178.94,211.44 31.0328,211.44 "/> <path id="_112526944" class="fil2" d="M105.065 127.454c13.9,0 25.1723,2.4386 25.1723,5.4459 0,3.0072 -11.2723,5.4459 -25.1723,5.4459 -13.8998,0 -25.1721,-2.4387 -25.1721,-5.4459 0,-3.0073 11.2723,-5.4459 25.1721,-5.4459zm0.0001 -9.6816c6.4832,0 11.9077,4.3281 13.2714,10.1195 -3.8696,-0.5388 -8.4124,-0.8489 -13.2714,-0.8489 -4.859,0 -9.4018,0.3101 -13.2714,0.8489 1.3637,-5.7914 6.7882,-10.1195 13.2714,-10.1195zm11.1532 20.3993c-2.4595,3.3533 -6.5378,5.5474 -11.1532,5.5474 -4.6154,0 -8.6937,-2.1941 -11.1532,-5.5474 3.3713,0.3746 7.155,0.585 11.1532,0.585 3.9982,0 7.7819,-0.2104 11.1532,-0.585zm-16.9092 1.6755c0.7689,0 1.3925,0.3097 1.3925,0.6915 0,0.3818 -0.6236,0.6915 -1.3925,0.6915 -0.7688,0 -1.3924,-0.3097 -1.3924,-0.6915 0,-0.3818 0.6236,-0.6915 1.3924,-0.6915zm3.8866 0c0.7688,0 1.3924,0.3097 1.3924,0.6915 0,0.3818 -0.6236,0.6915 -1.3924,0.6915 -0.7689,0 -1.3924,-0.3097 -1.3924,-0.6915 0,-0.3818 0.6235,-0.6915 1.3924,-0.6915zm3.8979 0c0.7689,0 1.3924,0.3097 1.3924,0.6915 0,0.3818 -0.6235,0.6915 -1.3924,0.6915 -0.7688,0 -1.3924,-0.3097 -1.3924,-0.6915 0,-0.3818 0.6236,-0.6915 1.3924,-0.6915zm3.7048 0c0.7688,0 1.3924,0.3097 1.3924,0.6915 0,0.3818 -0.6236,0.6915 -1.3924,0.6915 -0.7689,0 -1.3924,-0.3097 -1.3924,-0.6915 0,-0.3818 0.6235,-0.6915 1.3924,-0.6915zm-15.4574 -15.3917c0.7689,0 1.3924,0.3096 1.3924,0.6914 0,0.3818 -0.6235,0.6915 -1.3924,0.6915 -0.7689,0 -1.3924,-0.3097 -1.3924,-0.6915 0,-0.3818 0.6235,-0.6914 1.3924,-0.6914zm3.8865 0c0.7689,0 1.3924,0.3096 1.3924,0.6914 0,0.3818 -0.6235,0.6915 -1.3924,0.6915 -0.7688,0 -1.3924,-0.3097 -1.3924,-0.6915 0,-0.3818 0.6236,-0.6914 1.3924,-0.6914zm3.898 0c0.7689,0 1.3924,0.3096 1.3924,0.6914 0,0.3818 -0.6235,0.6915 -1.3924,0.6915 -0.7689,0 -1.3924,-0.3097 -1.3924,-0.6915 0,-0.3818 0.6235,-0.6914 1.3924,-0.6914zm3.7047 0c0.7689,0 1.3924,0.3096 1.3924,0.6914 0,0.3818 -0.6235,0.6915 -1.3924,0.6915 -0.7688,0 -1.3924,-0.3097 -1.3924,-0.6915 0,-0.3818 0.6236,-0.6914 1.3924,-0.6914zm3.9955 -0.224c0.7688,0 1.3924,0.3097 1.3924,0.6914 0,0.3819 -0.6236,0.6916 -1.3924,0.6916 -0.7689,0 -1.3925,-0.3097 -1.3925,-0.6916 0,-0.3817 0.6236,-0.6914 1.3925,-0.6914zm3.7047 0c0.7689,0 1.3924,0.3097 1.3924,0.6914 0,0.3819 -0.6235,0.6916 -1.3924,0.6916 -0.7689,0 -1.3924,-0.3097 -1.3924,-0.6916 0,-0.3817 0.6235,-0.6914 1.3924,-0.6914zm-34.4618 70.5305c0.2348,-0.4862 -0.5041,-0.8449 -0.7352,-0.366l-0.7335 1.4708c-0.2347,0.4862 0.5041,0.8449 0.7352,0.3661l0.7335 -1.4709zm1.8339 -3.6773c0.2347,-0.4862 -0.5042,-0.8449 -0.7353,-0.366l-0.7335 1.4709c-0.2346,0.4861 0.5041,0.8448 0.7353,0.366l0.7335 -1.4709zm1.8338 -3.6773c0.2347,-0.4862 -0.5041,-0.8448 -0.7352,-0.366l-0.7336 1.4709c-0.2346,0.4861 0.5042,0.8449 0.7353,0.366l0.7335 -1.4709zm1.8338 -3.6773c0.2348,-0.4862 -0.5041,-0.8449 -0.7352,-0.3661l-0.7335 1.471c-0.2347,0.4861 0.5041,0.8449 0.7352,0.3661l0.7335 -1.471zm1.8339 -3.6775c0.2347,-0.4862 -0.5042,-0.8449 -0.7353,-0.366l-0.7335 1.4709c-0.2346,0.4862 0.5042,0.8449 0.7353,0.3661l0.7335 -1.471zm1.8339 -3.6774c0.2347,-0.4862 -0.5041,-0.8449 -0.7352,-0.3661l-0.7336 1.471c-0.2347,0.4861 0.5041,0.8449 0.7352,0.3661l0.7336 -1.471zm1.834 -3.6775c0.2347,-0.4862 -0.5041,-0.8449 -0.7353,-0.366l-0.7336 1.4709c-0.2346,0.4862 0.5042,0.8449 0.7353,0.3661l0.7336 -1.471zm1.834 -3.6774c0.2347,-0.4862 -0.5041,-0.8449 -0.7353,-0.3661l-0.7336 1.471c-0.2346,0.4861 0.5042,0.8449 0.7353,0.3661l0.7336 -1.471zm1.834 -3.6775c0.2347,-0.4862 -0.5041,-0.8449 -0.7353,-0.366l-0.7336 1.4709c-0.2346,0.4862 0.5042,0.8449 0.7353,0.3661l0.7336 -1.471zm1.834 -3.6774c0.2347,-0.4862 -0.5041,-0.8449 -0.7353,-0.3661l-0.7336 1.471c-0.2346,0.4861 0.5042,0.8449 0.7353,0.3661l0.7336 -1.471zm1.834 -3.6775c0.2347,-0.4862 -0.5041,-0.8448 -0.7353,-0.366l-0.7336 1.471c-0.2346,0.4861 0.5042,0.8448 0.7353,0.366l0.7336 -1.471zm1.834 -3.6774c0.2347,-0.4862 -0.5041,-0.8449 -0.7353,-0.3661l-0.7336 1.471c-0.2346,0.4861 0.5042,0.8449 0.7353,0.3661l0.7336 -1.471zm1.834 -3.6775c0.2347,-0.4862 -0.5041,-0.8448 -0.7353,-0.366l-0.7336 1.471c-0.2346,0.4861 0.5042,0.8448 0.7353,0.366l0.7336 -1.471zm1.834 -3.6774c0.2347,-0.4863 -0.5042,-0.8446 -0.7353,-0.3661l-0.7336 1.471c-0.2347,0.4862 0.5042,0.8448 0.7353,0.3661l0.7336 -1.471zm3.0484 1.2004c0.2527,0.4718 0.9724,0.0921 0.7255,-0.3853l-0.7328 -1.3785c1.2252,-0.4578 2.1106,-1.5477 2.201,-2.8415 -1.2931,0.3762 -2.6651,0.5793 -4.0869,0.5793 -0.9805,0 -1.9372,-0.0966 -2.861,-0.2798 0.2646,1.5714 1.7113,2.7734 3.4561,2.7734 0.1646,0 0.3268,-0.0108 0.4854,-0.0315 0.0081,0.0367 0.0214,0.0741 0.0412,0.1125l0.7715 1.4514zm1.9287 3.6286c0.2525,0.4715 0.9724,0.092 0.7255,-0.3853l-0.7715 -1.4515c-0.2526,-0.4716 -0.9723,-0.0919 -0.7255,0.3853l0.7715 1.4515zm1.9286 3.6285c0.2526,0.4715 0.9725,0.0921 0.7256,-0.3853l-0.7715 -1.4514c-0.2527,-0.4717 -0.9724,-0.092 -0.7256,0.3853l0.7715 1.4514zm1.9287 3.6285c0.2526,0.4716 0.9724,0.0921 0.7256,-0.3852l-0.7715 -1.4515c-0.2527,-0.4716 -0.9724,-0.0919 -0.7256,0.3853l0.7715 1.4514zm1.9288 3.6286c0.2526,0.4716 0.9724,0.092 0.7255,-0.3853l-0.7715 -1.4514c-0.2526,-0.4717 -0.9723,-0.092 -0.7255,0.3853l0.7715 1.4514zm1.9287 3.6285c0.2527,0.4717 0.9724,0.0919 0.7256,-0.3852l-0.7715 -1.4515c-0.2527,-0.4717 -0.9724,-0.092 -0.7256,0.3853l0.7715 1.4514zm1.9288 3.6286c0.2526,0.4717 0.9723,0.0919 0.7255,-0.3853l-0.7715 -1.4514c-0.2527,-0.4718 -0.9724,-0.0921 -0.7255,0.3853l0.7715 1.4514zm1.9288 3.6285c0.2526,0.4717 0.9723,0.0919 0.7255,-0.3853l-0.7715 -1.4514c-0.2527,-0.4717 -0.9724,-0.092 -0.7255,0.3853l0.7715 1.4514zm1.9287 3.6286c0.2527,0.4717 0.9724,0.0919 0.7256,-0.3853l-0.7715 -1.4514c-0.2528,-0.4718 -0.9725,-0.0921 -0.7256,0.3853l0.7715 1.4514zm1.9288 3.6285c0.2526,0.4717 0.9723,0.0919 0.7255,-0.3853l-0.7715 -1.4514c-0.2527,-0.4717 -0.9724,-0.092 -0.7255,0.3853l0.7715 1.4514zm1.9287 3.6286c0.2527,0.4717 0.9724,0.0919 0.7256,-0.3853l-0.7715 -1.4514c-0.2527,-0.4718 -0.9724,-0.0921 -0.7256,0.3853l0.7715 1.4514zm1.9288 3.6285c0.2526,0.4717 0.9723,0.0919 0.7255,-0.3853l-0.7715 -1.4514c-0.2527,-0.4717 -0.9724,-0.092 -0.7255,0.3853l0.7715 1.4514zm1.9288 3.6286c0.2526,0.4717 0.9723,0.0919 0.7255,-0.3853l-0.7715 -1.4514c-0.2527,-0.4718 -0.9724,-0.0921 -0.7255,0.3853l0.7715 1.4514zm1.9288 3.6287c0.2526,0.4717 0.9723,0.0919 0.7255,-0.3853l-0.7715 -1.4515c-0.2528,-0.4718 -0.9725,-0.092 -0.7256,0.3853l0.7716 1.4515zm-26.0471 -3.8999c-0.0202,0 -0.04,0.0013 -0.0595,0.0042 -0.019,-0.0028 -0.0388,-0.0041 -0.0587,-0.0041l-0.0684 0 -0.1862 0.0005 -0.1878 0.0008 -0.1856 0.0011 -0.187 0.0015 -0.1852 0.0017 -0.1864 0.0022 -0.1846 0.0023 -0.1857 0.0027 -0.0932 0.0016c-0.5346,0.0167 -0.5218,0.8186 0.0128,0.8186l0.0932 -0.0016 0.1826 -0.0027 0.1846 -0.0024 0.1831 -0.0021 0.1852 -0.0017 0.1839 -0.0015 0.1856 -0.0011 0.1845 -0.0008 0.1862 -0.0005 0.0684 0c0.0201,0 0.0402,-0.0016 0.0597,-0.0046 0.0191,0.0029 0.0385,0.0044 0.0585,0.0044l0.1865 0.0002 0.1863 0.0005 0.1844 0.0008 0.1856 0.0011 0.1839 0.0015 0.1852 0.0017 0.1832 0.0021 0.1845 0.0024 0.1592 0.0023c0.538,0 0.5397,-0.8186 0.0097,-0.8186l-0.1592 -0.0023 -0.1845 -0.0023 -0.1865 -0.0022 -0.1852 -0.0017 -0.187 -0.0015 -0.1856 -0.0011 -0.1877 -0.0008 -0.1863 -0.0005 -0.1865 -0.0001zm-29.2189 8.1167c-0.2346,0.4862 0.5042,0.8449 0.7353,0.3661l0.7335 -1.4709c0.0553,-0.1147 0.0563,-0.2222 0.0229,-0.3133l0.0026 -0.003 0.0397 -0.0442 0.0407 -0.0425 0.0418 -0.0439 0.0413 -0.0423 0.0149 -0.0149c0.3774,-0.3774 -0.2023,-0.9567 -0.5811,-0.578l-0.0149 0.015 -0.051 0.0519 -0.0481 0.0504 -0.0472 0.0522 -0.0461 0.0506 -0.0468 0.0524 -0.0439 0.0508 -0.043 0.0526 -0.0435 0.0528 -0.0408 0.0528 -0.0398 0.0529 -0.0404 0.0529 -0.0376 0.0548 -0.0382 0.0532 -0.0355 0.055 -0.0343 0.0534 -0.0334 0.0552 -0.0338 0.0552 -0.031 0.0553 -0.0302 0.0555 -0.0289 0.0555 -0.0294 0.0556 -0.0267 0.0574 -0.0255 0.0558 -0.0245 0.0575 -0.0234 0.0561 -0.0223 0.0577 -0.0195 0.0577 -0.0155 0.0446c-0.047,0.1458 -0.0169,0.2707 0.054,0.3626l-0.1504 0.3015zm57.1949 -0.5881c0.0947,0.1767 0.2547,0.2337 0.4051,0.2111 0.265,0.3184 0.873,0.0266 0.6934,-0.4225l-0.0093 -0.0246 -0.0235 -0.0561 -0.0245 -0.0575 -0.0255 -0.0558 -0.0267 -0.0574 -0.0294 -0.0556 -0.0289 -0.0555 -0.0302 -0.0555 -0.031 -0.0553 -0.0338 -0.0552 -0.0334 -0.0552 -0.0343 -0.0534 -0.0355 -0.055 -0.0382 -0.0532 -0.0376 -0.0548 -0.0404 -0.0529 -0.0397 -0.0529 -0.0409 -0.0528 -0.0435 -0.0528 -0.0429 -0.0526 -0.044 -0.0508 -0.0468 -0.0524 -0.0461 -0.0506 -0.0472 -0.0522 -0.0481 -0.0504 -0.051 -0.0519 -0.0502 -0.0502 -0.0514 -0.0501 -0.0074 -0.0071c-0.0148,-0.0136 -0.03,-0.0255 -0.0452,-0.0365l-0.0579 -0.1091c-0.2527,-0.4717 -0.9724,-0.092 -0.7256,0.3853l0.7716 1.4515zm-32.1864 -6.6259c0.5315,-0.0166 0.5048,-0.8353 -0.032,-0.8186l-0.1668 0.0068 -0.1805 0.0076 -0.1785 0.008 -0.1797 0.0082 -0.1778 0.0085 -0.1774 0.0088 -0.1786 0.0092 -0.1767 0.0094 -0.1778 0.0097 -0.0545 0.0031c-0.5364,0.0335 -0.4862,0.8517 0.0449,0.8186l0.0545 -0.0031 0.1746 -0.0097 0.1767 -0.0095 0.1754 -0.0091 0.1774 -0.0088 0.1777 -0.0085 0.1766 -0.0082 0.1786 -0.008 0.1771 -0.0077 0.1668 -0.0067zm-4.0838 0.2497c0.5374,-0.0503 0.4623,-0.8682 -0.0674,-0.8186l-0.081 0.0067 -0.1696 0.0143 -0.1708 0.0145 -0.1687 0.0164 -0.1698 0.0151 -0.1678 0.0154 -0.169 0.0157 -0.1669 0.0158 -0.1679 0.0162 -0.1659 0.0165 -0.0459 0.0047c-0.5308,0.0497 -0.4533,0.8654 0.0802,0.8155l0.0459 -0.0047 0.1659 -0.0165 0.1648 -0.0162 0.1669 -0.0159 0.1657 -0.0157 0.1678 -0.0154 0.1667 -0.0151 0.1687 -0.0132 0.1675 -0.0146 0.1696 -0.0143 0.081 -0.0066zm-4.0668 0.4291c0.5284,-0.066 0.4259,-0.8787 -0.106,-0.8122l-0.0931 0.0121 -0.1574 0.0209 -0.1583 0.0212 -0.1564 0.0213 -0.1574 0.0217 -0.1568 0.0219 -0.1547 0.0222 -0.1558 0.0224 -0.1536 0.0226 -0.1546 0.023 -0.1374 0.0209c-0.5313,0.083 -0.4052,0.8945 0.122,0.8122l0.1374 -0.021 0.1515 -0.0229 0.1536 -0.0226 0.1524 -0.0224 0.1548 -0.0222 0.1536 -0.0219 0.1542 -0.0217 0.1563 -0.0214 0.1553 -0.0212 0.1573 -0.0208 0.0931 -0.0121zm-4.0336 0.6427c0.5249,-0.0984 0.3731,-0.9046 -0.1542,-0.8058l-0.087 0.0165 -0.1418 0.0274 -0.1426 0.0276 -0.1421 0.0279 -0.1398 0.0297 -0.1408 0.0282 -0.1385 0.0286 -0.1395 0.0286 -0.1388 0.029 -0.1366 0.0292 -0.1376 0.0294 -0.1363 0.0312c-0.5224,0.1179 -0.3427,0.9165 0.1766,0.7993l0.1331 -0.0279 0.1343 -0.0293 0.1366 -0.0292 0.1357 -0.029 0.1362 -0.0287 0.1386 -0.0285 0.1376 -0.0283 0.1398 -0.0265 0.1388 -0.0279 0.1395 -0.0276 0.1418 -0.0274 0.087 -0.0165zm-3.9718 0.9122c0.5135,-0.1491 0.3005,-0.9237 -0.2183,-0.7898l-0.0464 0.0127 -0.1228 0.0338 -0.1206 0.0339 -0.1214 0.0341 -0.1207 0.036 -0.1199 0.0346 -0.1175 0.0348 -0.1184 0.0349 -0.1177 0.0367 -0.1169 0.0353 -0.1161 0.0355 -0.1154 0.0357 -0.113 0.0376 -0.1138 0.036 -0.012 0.0034c-0.5085,0.164 -0.2563,0.9446 0.2537,0.7801l0.0087 -0.0034 0.1106 -0.036 0.113 -0.0343 0.1121 -0.0357 0.113 -0.0355 0.1136 -0.0353 0.1146 -0.0335 0.1151 -0.035 0.1175 -0.0347 0.1168 -0.0346 0.1174 -0.0328 0.1183 -0.0341 0.1205 -0.0339 0.1196 -0.0338 0.0464 -0.0127zm-3.832 1.3101c0.4903,-0.2124 0.165,-0.9632 -0.3243,-0.7512l-0.0381 0.0164 -0.0941 0.0403 -0.0934 0.042 -0.0939 0.0406 -0.0916 0.0424 -0.0907 0.0409 -0.0897 0.0426 -0.0889 0.0412 -0.0897 0.043 -0.0872 0.0432 -0.0861 0.0416 -0.087 0.0435 -0.0845 0.0436 -0.0835 0.0421 -0.0842 0.044 -0.0818 0.044 -0.0808 0.0426 -0.0692 0.0377c-0.4661,0.2664 -0.0765,0.9717 0.3949,0.7192l0.0627 -0.0345 0.0777 -0.0425 0.0785 -0.041 0.0778 -0.0406 0.0804 -0.0422 0.0812 -0.0404 0.0805 -0.0402 0.0831 -0.0417 0.0839 -0.04 0.0832 -0.0397 0.0857 -0.0413 0.0866 -0.0394 0.0874 -0.041 0.0884 -0.0391 0.0875 -0.0406 0.0901 -0.0389 0.091 -0.0402 0.0381 -0.0164zm-3.7378 5.1988c-0.3355,-0.4195 -0.9731,0.0788 -0.6484,0.5009l0.032 0.0421 0.0408 0.0527 0.0435 0.0528 0.043 0.0526 0.0439 0.0509 0.0468 0.0523 0.0461 0.0506 0.0472 0.0522 0.0481 0.0504 0.051 0.0519 0.0502 0.0503 0.0514 0.05 0.0522 0.05 0.0534 0.0498 0.0544 0.0497 0.0554 0.0496 0.058 0.0494 0.0575 0.0478 0.0584 0.0492 0.0594 0.0492 0.0604 0.0473 0.0614 0.0488 0.0609 0.0472 0.0634 0.0486 0.0257 0.0182c0.4322,0.3159 0.9161,-0.346 0.4847,-0.6612l-0.0193 -0.0152 -0.0569 -0.0421 -0.0576 -0.0439 -0.055 -0.0424 -0.054 -0.0442 -0.053 -0.0428 -0.0521 -0.0428 -0.051 -0.0445 -0.0483 -0.043 -0.049 -0.0432 -0.048 -0.0433 -0.0469 -0.0434 -0.0459 -0.0435 -0.0449 -0.0437 -0.0438 -0.0438 -0.0413 -0.0422 -0.0418 -0.044 -0.0407 -0.0425 -0.0397 -0.0442 -0.0371 -0.0428 -0.0375 -0.0445 -0.0366 -0.0429 -0.034 -0.0431 -0.0344 -0.0432 -0.032 -0.0421zm3.1609 2.2485c-0.4772,-0.2304 -0.8311,0.5077 -0.3466,0.7416l0.0077 0.0037 0.0897 0.0425 0.0907 0.041 0.0916 0.0424 0.0939 0.0406 0.0934 0.042 0.0941 0.0402 0.095 0.0418 0.0958 0.0399 0.0967 0.0414 0.0976 0.0396 0.1001 0.041 0.0976 0.0393 0.1001 0.0407 0.1024 0.0389 0.1019 0.0387 0.0949 0.0374c0.505,0.1852 0.7883,-0.5842 0.289,-0.7673l-0.0918 -0.0341 -0.0986 -0.0387 -0.0961 -0.0389 -0.0969 -0.0376 -0.0976 -0.0393 -0.0935 -0.0377 -0.0945 -0.0396 -0.0934 -0.0382 -0.0927 -0.04 -0.0917 -0.0384 -0.091 -0.0403 -0.0901 -0.0389 -0.0875 -0.0406 -0.0884 -0.0391 -0.0874 -0.0409 -0.0866 -0.0395 -0.0078 -0.0036zm3.7937 1.3949c-0.513,-0.149 -0.7409,0.6376 -0.228,0.7865l0.093 0.0272 0.1207 0.036 0.1214 0.0341 0.1206 0.0339 0.1228 0.0338 0.1236 0.0336 0.1244 0.035 0.1251 0.0331 0.1242 0.0329 0.1264 0.0328 0.1274 0.0326 0.1263 0.034 0.1286 0.0321 0.0179 0.0042c0.5143,0.1326 0.7173,-0.6617 0.1958,-0.7963l-0.0146 -0.0041 -0.1255 -0.0321 -0.1264 -0.0308 -0.124 -0.0325 -0.1232 -0.0328 -0.1242 -0.0329 -0.1219 -0.0332 -0.1211 -0.0318 -0.1205 -0.0336 -0.1196 -0.0338 -0.1205 -0.0339 -0.1183 -0.0341 -0.1174 -0.0327 -0.093 -0.0272zm3.9576 0.9627c-0.5307,-0.0994 -0.6834,0.7078 -0.1606,0.8058l0.1223 0.0245 0.1421 0.0279 0.1426 0.0276 0.1418 0.0274 0.144 0.0271 0.1429 0.027 0.1453 0.0267 0.1457 0.0264 0.1448 0.0263 0.1472 0.0277 0.146 0.0258 0.0621 0.0105c0.5295,0.0827 0.6652,-0.7103 0.138,-0.8091l-0.0589 -0.0105 -0.146 -0.0258 -0.1439 -0.0243 -0.1448 -0.0263 -0.1426 -0.0265 -0.142 -0.0267 -0.1429 -0.027 -0.1407 -0.0271 -0.1418 -0.0273 -0.1395 -0.0277 -0.1388 -0.0278 -0.1223 -0.0246zm4.0257 0.6807c-0.5336,-0.0667 -0.6363,0.7463 -0.1091,0.8121l0.0752 0.0105 0.1564 0.0214 0.1583 0.0212 0.1574 0.0208 0.1596 0.0207 0.1585 0.0204 0.1606 0.0218 0.1595 0.0199 0.1616 0.0196 0.1605 0.0194 0.1307 0.0153c0.5278,0.0659 0.6279,-0.7486 0.0931,-0.8154l-0.1275 -0.0154 -0.1605 -0.0194 -0.1585 -0.0196 -0.1595 -0.0199 -0.1573 -0.0184 -0.1584 -0.0205 -0.1564 -0.0206 -0.1573 -0.0209 -0.1553 -0.0212 -0.1563 -0.0214 -0.0753 -0.0104zm4.0636 0.4615c-0.5295,-0.0495 -0.6044,0.7655 -0.0707,0.8155l0.0537 0.0048 0.1687 0.0163 0.1708 0.0146 0.1696 0.0143 0.1716 0.0139 0.1705 0.0138 0.1726 0.0134 0.1713 0.0131 0.1733 0.0129 0.1722 0.0126 0.0521 0.0036c0.5357,0.0335 0.5873,-0.7853 0.0546,-0.8186l-0.0488 -0.0036 -0.1722 -0.0126 -0.1702 -0.0129 -0.1714 -0.0131 -0.1692 -0.0134 -0.1705 -0.0137 -0.1685 -0.014 -0.1696 -0.0143 -0.1675 -0.0146 -0.1687 -0.0132 -0.0537 -0.0048zm4.0819 0.2754c-0.5384,-0.0168 -0.5653,0.802 -0.0353,0.8185l0.1199 0.0056 0.1785 0.0079 0.1805 0.0077 0.1792 0.0073 0.1812 0.007 0.18 0.0067 0.1819 0.0064 0.1806 0.0062 0.1811 0.0058 0.086 0.0026c0.5328,0.0166 0.5576,-0.8019 0.0225,-0.8185l-0.0829 -0.0027 -0.1811 -0.0058 -0.1806 -0.0062 -0.1786 -0.0064 -0.18 -0.0067 -0.178 -0.007 -0.1793 -0.0073 -0.1771 -0.0077 -0.1786 -0.0079 -0.1199 -0.0055zm4.0916 0.1094c-0.5354,0 -0.5358,0.8185 -0.0033,0.8185l0.0183 0.0001 0.1856 0.0011 0.1878 0.0008 0.1862 0.0005 0.1866 0.0002 0.1865 -0.0002 0.1863 -0.0005 0.1877 -0.0008 0.1856 -0.0011 0.138 -0.0011c0.5314,0 0.5303,-0.8186 -0.0064,-0.8186l-0.1349 0.0011 -0.1856 0.0011 -0.1844 0.0008 -0.1863 0.0005 -0.1865 0.0002 -0.1866 -0.0002 -0.1862 -0.0005 -0.1845 -0.0008 -0.1856 -0.0011 -0.0183 0zm4.0943 -0.05c-0.534,0.0167 -0.5082,0.8352 0.0257,0.8186l0.1474 -0.0047 0.1807 -0.0062 0.1818 -0.0064 0.18 -0.0067 0.1812 -0.007 0.1792 -0.0073 0.1805 -0.0077 0.1785 -0.0079 0.1797 -0.0083 0.0599 -0.0028c0.5343,-0.0334 0.4966,-0.8353 -0.0385,-0.8186l-0.0598 0.0029 -0.1766 0.0082 -0.1785 0.0079 -0.1772 0.0077 -0.1793 0.0073 -0.178 0.007 -0.18 0.0067 -0.1786 0.0064 -0.1806 0.0062 -0.1475 0.0047zm4.0875 -0.2131c-0.5317,0.0332 -0.479,0.8521 0.0579,0.8186l0.1047 -0.0077 0.1733 -0.0129 0.1714 -0.0131 0.1725 -0.0134 0.1705 -0.0138 0.1716 -0.0139 0.1696 -0.0143 0.1708 -0.0146 0.1687 -0.0163 0.1699 -0.0152 0.0032 -0.0003c0.5326,-0.0499 0.4571,-0.8652 -0.0738,-0.8154l-0.0032 0.0003 -0.1668 0.0151 -0.1686 0.0132 -0.1676 0.0146 -0.1696 0.0143 -0.1685 0.014 -0.1705 0.0137 -0.1692 0.0134 -0.1714 0.0131 -0.1702 0.0129 -0.1047 0.0077zm4.071 -0.3895c-0.5336,0.0666 -0.433,0.8816 0.0964,0.8154l0.0117 -0.0013 0.1605 -0.0194 0.1616 -0.0196 0.1595 -0.0199 0.1606 -0.0218 0.1585 -0.0204 0.1596 -0.0207 0.1574 -0.0208 0.1584 -0.0212 0.1563 -0.0214 0.1574 -0.0217 0.0381 -0.0052c0.5287,-0.0826 0.4168,-0.8787 -0.1156,-0.8122l-0.0349 0.0052 -0.1542 0.0217 -0.1563 0.0214 -0.1552 0.0212 -0.1574 0.0209 -0.1563 0.0206 -0.1585 0.0205 -0.1573 0.0184 -0.1595 0.0199 -0.1585 0.0196 -0.1605 0.0194 -0.0118 0.0014zm4.0429 -0.5932c-0.5265,0.0987 -0.3897,0.8919 0.1412,0.809l0.0902 -0.0158 0.1471 -0.0277 0.1448 -0.0263 0.1457 -0.0264 0.1453 -0.0267 0.1429 -0.027 0.144 -0.0271 0.1418 -0.0274 0.1426 -0.0276 0.1421 -0.0279 0.1398 -0.0296 0.0998 -0.02c0.5223,-0.1142 0.3626,-0.9013 -0.1637,-0.8026l-0.0967 0.0199 -0.1398 0.0266 -0.1388 0.0278 -0.1395 0.0277 -0.1418 0.0273 -0.1407 0.0271 -0.1429 0.027 -0.142 0.0267 -0.1426 0.0265 -0.1448 0.0263 -0.1438 0.0243 -0.0902 0.0159zm3.9883 -0.8474c-0.5201,0.1342 -0.3155,0.9298 0.2022,0.7962l0.0286 -0.0072 0.1264 -0.034 0.1273 -0.0326 0.1265 -0.0328 0.1241 -0.0329 0.1251 -0.0331 0.1244 -0.035 0.1236 -0.0336 0.1229 -0.0338 0.1205 -0.0339 0.1214 -0.0341 0.1207 -0.036 0.1199 -0.0346 0.0881 -0.0261c0.5122,-0.1486 0.2836,-0.9359 -0.2311,-0.7865l-0.0881 0.0261 -0.1168 0.0346 -0.1174 0.0327 -0.1183 0.0341 -0.1205 0.0339 -0.1196 0.0338 -0.1205 0.0336 -0.1211 0.0318 -0.1219 0.0332 -0.1242 0.0329 -0.1232 0.0328 -0.124 0.0325 -0.1263 0.0308 -0.0287 0.0072zm3.874 -1.2066c-0.4997,0.1998 -0.1972,0.961 0.2954,0.764l0.0832 -0.0322 0.1025 -0.0389 0.1 -0.0407 0.0976 -0.0393 0.1001 -0.041 0.0976 -0.0396 0.0967 -0.0414 0.0958 -0.0399 0.095 -0.0418 0.0941 -0.0402 0.0934 -0.042 0.094 -0.0406 0.0915 -0.0424 0.0907 -0.041 0.0897 -0.0425 0.0889 -0.0413 0.0304 -0.0147c0.4816,-0.2324 0.1254,-0.9709 -0.3563,-0.7384l-0.024 0.0115 -0.0857 0.0412 -0.0866 0.0395 -0.0873 0.0409 -0.0885 0.0391 -0.0875 0.0406 -0.0901 0.0389 -0.091 0.0403 -0.0917 0.0384 -0.0927 0.04 -0.0934 0.0382 -0.0945 0.0396 -0.0935 0.0377 -0.0976 0.0393 -0.0969 0.0376 -0.0961 0.0389 -0.0832 0.0322zm3.5248 -1.8447c-0.4194,0.3355 0.0788,0.9731 0.5009,0.6484l0.0475 -0.0365 0.0614 -0.0488 0.0604 -0.0473 0.0594 -0.0492 0.0585 -0.0492 0.0574 -0.0478 0.058 -0.0494 0.0554 -0.0496 0.0544 -0.0497 0.0534 -0.0498 0.0522 -0.05 0.0514 -0.05 0.0502 -0.0503 0.051 -0.0519 0.0481 -0.0504 0.0472 -0.0522 0.0461 -0.0506 0.0468 -0.0523 0.044 -0.0509 0.0429 -0.0526 0.0435 -0.0528 0.0409 -0.0527 0.0397 -0.053 0.0404 -0.0529 0.0327 -0.0478c0.3028,-0.4374 -0.3541,-0.9024 -0.671,-0.4688l-0.0263 0.035 -0.0306 0.0434 -0.0334 0.0432 -0.0344 0.0432 -0.034 0.0431 -0.0365 0.0429 -0.0376 0.0445 -0.0371 0.0428 -0.0397 0.0442 -0.0407 0.0425 -0.0418 0.044 -0.0412 0.0422 -0.0438 0.0438 -0.045 0.0437 -0.0459 0.0435 -0.0469 0.0434 -0.048 0.0433 -0.049 0.0432 -0.0483 0.043 -0.051 0.0445 -0.0521 0.0428 -0.053 0.0428 -0.054 0.0442 -0.055 0.0424 -0.0475 0.0365zm-1.3786 -5.5425c0.4702,0.2518 0.8567,-0.47 0.3853,-0.7225l-0.0413 -0.0222 -0.0818 -0.044 -0.0842 -0.044 -0.0835 -0.0421 -0.0845 -0.0436 -0.087 -0.0435 -0.0861 -0.0416 -0.0872 -0.0432 -0.0897 -0.043 -0.0889 -0.0412 -0.0897 -0.0426 -0.0907 -0.0409 -0.0915 -0.0424 -0.094 -0.0406 -0.0934 -0.042 -0.0941 -0.0403 -0.095 -0.0418 -0.055 -0.0226c-0.4976,-0.199 -0.8076,0.5423 -0.3179,0.7544l0.0519 0.0227 0.0917 0.0385 0.091 0.0402 0.0901 0.0389 0.0875 0.0406 0.0885 0.0391 0.0873 0.041 0.0866 0.0394 0.0857 0.0413 0.0832 0.0397 0.084 0.04 0.083 0.0417 0.0805 0.0402 0.0812 0.0404 0.0804 0.0422 0.0778 0.0406 0.0785 0.041 0.0413 0.0222zm-3.7288 -1.5259c0.5064,0.1633 0.757,-0.6158 0.2472,-0.7801l-0.01 -0.0032 -0.113 -0.0376 -0.1154 -0.0357 -0.1161 -0.0355 -0.1169 -0.0353 -0.1177 -0.0367 -0.1184 -0.0349 -0.1175 -0.0348 -0.1199 -0.0346 -0.1207 -0.036 -0.1214 -0.0341 -0.1205 -0.0339 -0.1229 -0.0338 -0.1236 -0.0336 -0.04 -0.012c-0.5212,-0.1345 -0.7276,0.6599 -0.2118,0.7929l0.0366 0.0089 0.1205 0.0336 0.1196 0.0338 0.1205 0.0339 0.1183 0.0341 0.1174 0.0328 0.1168 0.0346 0.1175 0.0347 0.1151 0.035 0.1146 0.0335 0.1136 0.0353 0.113 0.0355 0.1121 0.0357 0.113 0.0343 0.01 0.0032zm-3.9346 -1.0382c0.5224,0.1142 0.6976,-0.688 0.1734,-0.8026l-0.0192 -0.0042 -0.1376 -0.0294 -0.1366 -0.0292 -0.1388 -0.029 -0.1395 -0.0286 -0.1385 -0.0286 -0.1408 -0.0282 -0.1398 -0.0297 -0.1421 -0.0279 -0.1426 -0.0276 -0.1418 -0.0274 -0.144 -0.0271 -0.0608 -0.0115c-0.5256,-0.0985 -0.6766,0.7072 -0.1509,0.8058l0.0608 0.0115 0.1407 0.0271 0.1418 0.0274 0.1395 0.0276 0.1388 0.0279 0.1398 0.0265 0.1377 0.0283 0.1385 0.0285 0.1362 0.0287 0.1357 0.029 0.1366 0.0292 0.1343 0.0293 0.0192 0.0042zm-4.016 -0.7334c0.5272,0.0823 0.6533,-0.7292 0.1219,-0.8122l-0.0205 -0.0031 -0.1546 -0.023 -0.1536 -0.0226 -0.1558 -0.0224 -0.1547 -0.0222 -0.1568 -0.0219 -0.1574 -0.0217 -0.1563 -0.0213 -0.1584 -0.0212 -0.1574 -0.0209 -0.1596 -0.0206 -0.0523 -0.0069c-0.5303,-0.0662 -0.6322,0.7461 -0.1027,0.8122l0.0523 0.0068 0.1563 0.0207 0.1574 0.0208 0.1552 0.0212 0.1563 0.0214 0.1542 0.0217 0.1536 0.0219 0.1548 0.0222 0.1524 0.0224 0.1536 0.0226 0.1515 0.0229 0.0206 0.0032zm-4.0566 -0.5052c0.5335,0.05 0.611,-0.7657 0.0802,-0.8154l-0.0942 -0.0094 -0.1679 -0.0162 -0.1669 -0.0158 -0.169 -0.0157 -0.1677 -0.0154 -0.1699 -0.0151 -0.1687 -0.0164 -0.1708 -0.0145 -0.1696 -0.0143 -0.1716 -0.014 -0.0288 -0.0024c-0.5357,-0.0334 -0.5979,0.7686 -0.0642,0.8186l0.0287 0.0024 0.1685 0.0139 0.1696 0.0143 0.1676 0.0146 0.1686 0.0132 0.1668 0.0151 0.1677 0.0154 0.1657 0.0157 0.1669 0.0159 0.1648 0.0162 0.0942 0.0093zm-4.0777 -0.3133c0.5299,0.0331 0.5792,-0.7851 0.0417,-0.8186l-0.1126 -0.0062 -0.1767 -0.0094 -0.1787 -0.0092 -0.1774 -0.0088 -0.1778 -0.0085 -0.1797 -0.0082 -0.1785 -0.008 -0.1805 -0.0076 -0.1792 -0.0074 -0.1072 -0.0041c-0.5356,-0.0166 -0.5614,0.802 -0.0289,0.8186l0.104 0.0041 0.1793 0.0073 0.1772 0.0077 0.1785 0.008 0.1766 0.0082 0.1778 0.0085 0.1773 0.0088 0.1754 0.0091 0.1767 0.0095 0.1127 0.0062zm-7.3703 -16.462l-0.9059 -0.4999 -1.3941 -4.629 1.4102 -0.4135 1.1512 3.6933 0.7616 0.4058c-0.2355,-0.2187 -0.4007,-0.5152 -0.454,-0.8573 -0.1216,-0.8023 0.4364,-1.5648 1.2378,-1.6866 0.8082,-0.1266 1.5618,0.4269 1.6893,1.234 0.1151,0.8116 -0.4359,1.5623 -1.2384,1.685 -0.1941,0.0312 -0.3866,0.0227 -0.5665,-0.0194l4.5069 2.3997 1.3114 4.2583 -1.4943 0.4457 -1.0257 -3.3679 -1.7233 -0.9144 -1.2918 2.4158 -4.9069 1.4286 -1.9006 3.1108 -1.1807 -0.7427 2.1519 -3.6203 2.0181 -0.5993 -2.5427 -1.0715 -4.1022 1.2702 -0.4278 -1.4372 4.6447 -1.4239 3.0229 1.2882 1.2489 -2.3525z"/> </g> </g> </svg>