<?xml version="1.0" encoding="utf-8"?>
<!-- Generator: Adobe Illustrator 27.0.0, SVG Export Plug-In . SVG Version: 6.00 Build 0)  -->
<svg version="1.1" id="Layer_1" xmlns="http://www.w3.org/2000/svg" xmlns:xlink="http://www.w3.org/1999/xlink" x="0px" y="0px"
	 viewBox="0 0 100 100" style="enable-background:new 0 0 100 100;" xml:space="preserve">
<style type="text/css">
	.st0{fill:#F2F253;}
</style>
<g>
	<g>
		<path class="st0" d="M25.7,6.4c-1.3-0.5-1.8-0.6-1.8-0.6s-1.3-1.9-2.1-3.2c-0.8-1.3-0.9-2.3-1.3-2.3c-0.5-0.1-1.2,0.1-1.3,0.3
			c-0.2,0.1-0.7,1.1-1,1.1c-0.2,0.1-1.3,0.9-1.1,1.2s1.8,2.6,2.3,3.4c0.3,0.8,1,1.6,0.5,2.4c-0.5,0.7-0.6,3.3-1.1,5.4
			c-0.5,2.2-4.5,9.3-7.1,12.4s-5.5,5.4-9.3,7.4c-3.8,2.1-7,2.4-8,2.5c0,0-1.1,0.3-1.5,1.1c-0.4,0.7-0.5,1.2-0.2,1.9
			c0.4,0.7,0.3,1,0.4,1.3c0.1,0.4,0.6,0.7,0.9,0.7c0.3,0,2,1,2.2,1.1c0.3,0.2,5.1,2.5,9.9,1.4c4.9-1.1,8.1-1.6,12.7-5.2
			c4.4-3.6,6.3-6.2,8.4-8.8s4.1-6.5,4.1-10c0-3.4,0.2-7.6-1.6-9.9C28,8,27,6.9,25.7,6.4z M30.3,17.8c0.4,3.1-1.2,6.7-2.2,8.8
			c-1.1,2-4.1,5.8-7.4,8.9c-3.3,3.2-8.5,5.8-13.5,6.9C2.1,43.5-3.4,41.1-4,40.8c-0.7-0.3-0.6-1.2-0.3-1.6c0.3-0.4,2.1-0.3,4.6-0.9
			c2.5-0.5,5.2-2,9.3-4.6c4.1-2.6,8.1-7.5,8.2-7.6c0.1-0.1,0.8-0.9,0.2-1c-0.5-0.1-1.1,1.2-2.1,2.3c-1,1.1-2.8,2.4-4.1,3.5
			c-1.3,1.1-5.9,4.2-8.3,5.5c-2.4,1.3-7.3,2-7.7,2.1c-0.4,0.1-0.7-1.3-0.3-1.3c3.1-0.1,8.4-2.8,11.8-5c3.4-2.1,5.7-5.5,9.6-11.7
			c3.9-6.2,3.3-9.6,3.3-10.1c0-0.4,0.8-1.7,1.2-2.3c0.4-0.5-1-3.4-1.4-4c-0.4-0.6,0.7-0.5,1.3-0.5c0.6,0,1.1,2.1,1.5,2.7
			c0.4,0.7,1.1,0.2,2,0.6c0.9,0.3,2.2,1.5,3.5,2.9C29.8,11.3,29.9,14.7,30.3,17.8z M24.3,10.3c0.1,1-0.2,3.7-0.3,4.6
			c-0.2,0.9-1.3,4-2.1,5.6c-0.8,1.5-1.7,2.9-1.3,3c0.9,0.3,2.7-4.3,3.7-6.5c0.9-2.3,1.2-3.6,1.1-5.5c-0.2-1.8-0.3-3.5-1-3.4
			C23.9,8.3,24.3,9.3,24.3,10.3z"/>
	</g>
</g>
<g>
	<g>
		<path class="st0" d="M125.7,6.4c-1.3-0.5-1.8-0.6-1.8-0.6s-1.3-1.9-2.1-3.2c-0.8-1.3-0.9-2.3-1.3-2.3c-0.5-0.1-1.2,0.1-1.3,0.3
			c-0.2,0.1-0.7,1.1-1,1.1c-0.2,0.1-1.3,0.9-1.1,1.2c0.3,0.3,1.8,2.6,2.3,3.4c0.3,0.8,1,1.6,0.5,2.4c-0.5,0.7-0.6,3.3-1.1,5.4
			c-0.5,2.2-4.5,9.3-7.1,12.4c-2.6,3.1-5.5,5.4-9.3,7.4c-3.8,2.1-7,2.4-8,2.5c0,0-1.1,0.3-1.5,1.1c-0.4,0.7-0.5,1.2-0.2,1.9
			c0.4,0.7,0.3,1,0.4,1.3c0.1,0.4,0.6,0.7,0.9,0.7c0.3,0,2,1,2.2,1.1c0.3,0.2,5.1,2.5,9.9,1.4c4.9-1.1,8.1-1.6,12.7-5.2
			c4.4-3.6,6.3-6.2,8.4-8.8c2.1-2.6,4.1-6.5,4.1-10c0-3.4,0.2-7.6-1.6-9.9C128,8,127,6.9,125.7,6.4z M130.3,17.8
			c0.4,3.1-1.2,6.7-2.2,8.8c-1.1,2-4.1,5.8-7.4,8.9c-3.3,3.2-8.5,5.8-13.5,6.9c-4.9,1.1-10.5-1.2-11.1-1.6c-0.7-0.3-0.6-1.2-0.3-1.6
			c0.3-0.4,2.1-0.3,4.6-0.9c2.5-0.5,5.2-2,9.3-4.6c4.1-2.6,8.1-7.5,8.2-7.6c0.1-0.1,0.8-0.9,0.2-1c-0.5-0.1-1.1,1.2-2.1,2.3
			c-1,1.1-2.8,2.4-4.1,3.5c-1.3,1.1-5.9,4.2-8.3,5.5c-2.4,1.3-7.3,2-7.7,2.1c-0.4,0.1-0.7-1.3-0.3-1.3c3.1-0.1,8.4-2.8,11.8-5
			c3.4-2.1,5.7-5.5,9.6-11.7c3.9-6.2,3.3-9.6,3.3-10.1c0-0.4,0.8-1.7,1.2-2.3c0.4-0.5-1-3.4-1.4-4c-0.4-0.6,0.7-0.5,1.3-0.5
			c0.6,0,1.1,2.1,1.5,2.7c0.4,0.7,1.1,0.2,2,0.6c0.9,0.3,2.2,1.5,3.5,2.9C129.8,11.3,129.9,14.7,130.3,17.8z M124.3,10.3
			c0.1,1-0.2,3.7-0.3,4.6c-0.2,0.9-1.3,4-2.1,5.6c-0.8,1.5-1.7,2.9-1.3,3c0.9,0.3,2.7-4.3,3.7-6.5c0.9-2.3,1.2-3.6,1.1-5.5
			c-0.2-1.8-0.3-3.5-1-3.4C123.9,8.3,124.3,9.3,124.3,10.3z"/>
	</g>
</g>
<g>
	<g>
		<path class="st0" d="M49,6.7c-0.6,0.6-0.8,0.9-0.8,0.9S46.8,7.8,45.9,8c-0.9,0.1-1.5-0.1-1.7,0.2C44,8.4,44,8.8,44,9
			c0,0.1,0.4,0.7,0.4,0.8c0,0.1,0.1,1,0.4,0.9c0.2-0.1,2-0.3,2.6-0.4c0.6,0,1.2-0.1,1.5,0.3c0.3,0.4,1.7,1.2,2.8,2.1
			c1.1,0.8,4.2,5,5.3,7.3c1.1,2.3,1.7,4.5,1.9,7.2c0.2,2.7-0.4,4.7-0.7,5.2c0,0-0.1,0.7,0.3,1.2c0.3,0.4,0.6,0.6,1,0.6
			c0.5,0,0.6,0.1,0.9,0.1c0.2,0.1,0.6-0.2,0.6-0.4c0.1-0.2,1.1-0.9,1.2-1c0.2-0.1,2.7-2.3,3.4-5.3c0.6-3.1,1.2-5.1,0.3-8.6
			c-0.9-3.5-1.9-5.2-2.9-7.1s-2.7-4-4.6-4.9c-2-0.9-4.3-2.1-6.1-1.7C50.6,5.8,49.6,6.1,49,6.7z M56.8,7c1.9,0.6,3.6,2.4,4.4,3.6
			c0.9,1.1,2.3,3.8,3.2,6.6c1,2.7,1.1,6.4,0.5,9.5c-0.6,3.1-3.4,5.7-3.8,6c-0.4,0.3-0.8,0-1-0.3s0.4-1.3,0.7-2.9
			c0.3-1.6,0.2-3.5-0.2-6.6s-2.2-6.6-2.2-6.7c0-0.1-0.3-0.7-0.5-0.4c-0.2,0.3,0.4,0.9,0.8,1.8c0.4,0.8,0.6,2.2,0.9,3.3
			c0.3,1.1,0.9,4.5,1,6.2c0.1,1.7-0.8,4.7-0.8,5c0,0.3-1,0.1-0.8-0.2c0.8-1.8,0.5-5.5,0.2-8c-0.3-2.5-1.7-4.7-4.2-8.6
			c-2.5-3.8-4.7-4.4-4.9-4.5c-0.2-0.1-0.8-0.9-1-1.3c-0.2-0.3-2.2-0.3-2.6-0.2c-0.5,0.1-0.1-0.5,0-0.8c0.2-0.3,1.5-0.1,2-0.1
			c0.5,0,0.4-0.6,0.8-1c0.4-0.4,1.4-0.9,2.6-1.3C52.9,5.6,54.9,6.4,56.8,7z M50.9,8.5c0.6,0.2,2.1,1.1,2.6,1.4
			c0.5,0.4,2,1.8,2.7,2.7c0.7,0.9,1.2,1.7,1.4,1.5c0.4-0.4-1.8-2.7-2.8-3.8c-1.1-1.1-1.8-1.7-2.9-2c-1.1-0.4-2.1-0.7-2.2-0.3
			C49.6,8.2,50.3,8.3,50.9,8.5z"/>
	</g>
</g>
<g>
	<g>
		<path class="st0" d="M31.3,38.9c-0.9,0.9-1,2.7-1.2,4.2c-0.2,1.5,0.5,3.3,1.3,4.6c0.8,1.3,1.5,2.5,3.2,4.3c1.8,1.9,3.2,2.3,5.3,3
			c2.1,0.7,4.3,0,4.4-0.1c0.1,0,0.9-0.4,1-0.4c0.1,0,0.4-0.1,0.4-0.2c0-0.2,0.1-0.3,0.3-0.6c0.2-0.3,0.2-0.5,0-0.8
			c-0.1-0.4-0.6-0.6-0.6-0.6C45,52.3,43.6,52,42,50.9c-1.5-1.1-2.7-2.3-3.7-3.8c-1-1.5-2.3-4.8-2.4-5.8c-0.1-1,0-2.1-0.2-2.4
			s0.2-0.7,0.4-1c0.3-0.3,1-1.3,1.2-1.4c0.1-0.1-0.3-0.5-0.4-0.6c-0.1,0-0.3-0.5-0.4-0.5c-0.1-0.1-0.3-0.2-0.6-0.2
			c-0.2,0-0.3,0.4-0.7,0.9c-0.4,0.5-1.1,1.3-1.1,1.3s-0.2,0-0.8,0.1C32.7,37.7,32.2,38.1,31.3,38.9z M31.9,38.9
			c0.7-0.6,1.3-1,1.7-1.1s0.7,0.1,0.9-0.1c0.2-0.3,0.5-1.2,0.8-1.1s0.7,0,0.5,0.3c-0.2,0.2-1,1.4-0.8,1.7c0.2,0.3,0.4,0.9,0.4,1.1
			c0,0.2-0.5,1.7,0.9,4.6c1.4,3,2.2,4.5,3.6,5.7c1.4,1.1,3.5,2.6,4.9,2.8c0.2,0,0,0.7-0.2,0.6c-0.2-0.1-2.3-0.7-3.3-1.4
			c-1-0.7-2.8-2.3-3.3-2.9c-0.5-0.6-1.2-1.2-1.6-1.8c-0.4-0.6-0.6-1.1-0.8-1.1c-0.2,0,0,0.4,0.1,0.4c0.1,0.1,1.5,2.4,3.2,3.8
			c1.7,1.4,2.8,2.2,3.8,2.6c1.1,0.4,1.9,0.4,2,0.6c0.1,0.2,0.1,0.6-0.2,0.7c-0.3,0.1-2.9,0.8-5,0.1c-2.1-0.7-4.3-2.2-5.5-3.8
			c-1.3-1.5-2.4-3.4-2.8-4.3c-0.4-0.9-0.8-2.6-0.5-4C31,41,31.2,39.5,31.9,38.9z M33.8,38.3c-0.3-0.1-0.4,0.6-0.6,1.4
			c-0.2,0.8-0.1,1.4,0.2,2.5c0.3,1,0.8,3.2,1.2,3.1c0.2,0-0.1-0.7-0.4-1.4c-0.3-0.7-0.6-2.1-0.6-2.6c0-0.4,0-1.6,0.1-2
			C33.8,38.9,34,38.5,33.8,38.3z"/>
	</g>
</g>
<g>
	<g>
		<path class="st0" d="M14.8,79.1c-0.7-1-1-1.3-1-1.3s0.1-2,0.1-3.3c0.1-1.3,0.5-2.1,0.2-2.3c-0.3-0.3-0.9-0.5-1.1-0.5
			c-0.2-0.1-1,0.4-1.2,0.3c-0.2-0.1-1.4-0.1-1.3,0.3c0.1,0.4,0,2.8-0.1,3.6c-0.2,0.8-0.1,1.7-0.8,2c-0.7,0.3-2.1,2.1-3.6,3.3
			c-1.5,1.3-7.9,4.4-11.4,5.3c-3.5,0.9-6.7,1.1-10.4,0.6s-6.3-1.8-7-2.3c0,0-1-0.3-1.7,0.1c-0.6,0.3-1,0.6-1.1,1.3
			c-0.1,0.7-0.2,0.9-0.4,1.2c-0.1,0.3,0.1,0.8,0.3,1c0.2,0.2,0.9,1.7,1,1.9c0.1,0.3,2.4,4.3,6.4,6c4,1.7,6.6,3,11.7,2.7
			c5-0.4,7.7-1.2,10.5-2c2.8-0.8,6.2-2.6,8-5.1c1.8-2.5,4-5.4,3.9-7.9C15.7,81.5,15.5,80.1,14.8,79.1z M12.3,89.6
			C11,92,8.1,93.9,6.3,94.8c-1.8,0.9-5.9,2.1-9.9,2.6c-4,0.6-9.1-0.1-13.2-1.9c-4.1-1.7-6.9-6.2-7.2-6.8c-0.4-0.6,0.2-1.1,0.6-1.3
			c0.4-0.2,1.7,0.9,3.8,1.7s4.8,1.2,9.1,1.4c4.3,0.2,9.6-1.3,9.8-1.3c0.2,0,1-0.2,0.7-0.6c-0.3-0.3-1.3,0.3-2.7,0.6
			c-1.2,0.3-3.2,0.3-4.7,0.4c-1.5,0.1-6.4,0-8.7-0.3c-2.3-0.3-6.2-2.3-6.6-2.4s0.2-1.3,0.5-1.1c2.3,1.5,7.4,2.2,11,2.4
			s6.9-1,12.8-3.5c5.9-2.5,7.2-5.2,7.5-5.6c0.2-0.3,1.4-0.9,2.1-1c0.5-0.2,1-2.9,1-3.6c0-0.6,0.7,0,1.2,0.3s-0.2,2.1-0.3,2.7
			c-0.1,0.7,0.7,0.7,1.1,1.4c0.5,0.7,0.8,2.2,1,3.9C15.3,84.8,13.6,87.2,12.3,89.6z M11.9,81.2c-0.4,0.8-2,2.6-2.6,3.2
			c-0.7,0.6-3,2.2-4.4,3c-1.4,0.7-2.7,1.2-2.5,1.5C3,89.5,6.7,87.1,8.5,86c1.8-1.2,2.7-2,3.6-3.4s1.5-2.6,1-2.9
			C12.6,79.5,12.4,80.5,11.9,81.2z"/>
	</g>
</g>
<g>
	<g>
		<path class="st0" d="M63.9,71.8c1.2,0.3,2.9-0.4,4.3-1c1.4-0.6,2.7-2,3.4-3.3c0.7-1.3,1.4-2.5,2.2-4.9c0.7-2.5,0.4-3.9,0.1-6.1
			c-0.4-2.2-2.1-3.8-2.2-3.9c-0.1-0.1-0.7-0.6-0.8-0.7c-0.1-0.1-0.3-0.3-0.4-0.3c-0.2,0-0.3,0.1-0.6,0.1c-0.3,0-0.5,0.1-0.8,0.4
			c-0.3,0.3-0.2,0.8-0.2,0.8c0.1,0.4,0.5,1.8,0.3,3.7s-0.7,3.4-1.5,5c-0.8,1.6-3.1,4.4-3.9,5c-0.8,0.6-1.8,1.1-2,1.4
			c-0.2,0.3-0.7,0.2-1.1,0.2c-0.4-0.1-1.6-0.3-1.8-0.4c-0.2-0.1-0.3,0.5-0.3,0.6c0.1,0.1-0.3,0.5-0.3,0.6c0,0.1,0,0.4,0.1,0.6
			c0.1,0.2,0.5,0.1,1.2,0.2c0.6,0.1,1.7,0.3,1.7,0.3s0.1,0.2,0.5,0.7C62.1,71.1,62.7,71.4,63.9,71.8z M63.6,71.2
			c-0.8-0.3-1.5-0.7-1.8-1c-0.3-0.3-0.2-0.7-0.6-0.7c-0.3,0-1.3,0.1-1.4-0.2c-0.1-0.2-0.3-0.7,0-0.6c0.3,0.1,1.7,0.1,1.9-0.1
			c0.2-0.3,0.6-0.8,0.8-0.9c0.2-0.1,1.7-0.4,3.6-3c1.9-2.6,2.9-4.1,3.2-5.9c0.3-1.8,0.6-4.4,0.1-5.7c-0.1-0.2,0.6-0.3,0.6-0.1
			s0.5,2.3,0.4,3.5c-0.1,1.2-0.6,3.6-0.9,4.3c-0.2,0.7-0.5,1.7-0.8,2.3c-0.3,0.6-0.7,1-0.6,1.2c0.1,0.2,0.3-0.2,0.4-0.3
			c0-0.1,1.4-2.5,1.8-4.6s0.6-3.5,0.4-4.6c-0.2-1.1-0.5-1.9-0.4-2s0.5-0.4,0.7-0.2c0.3,0.2,2.1,2.1,2.5,4.3c0.4,2.2,0.1,4.8-0.6,6.7
			c-0.7,1.9-1.8,3.7-2.4,4.5c-0.7,0.8-1.9,2-3.2,2.4S64.4,71.6,63.6,71.2z M62.2,69.9c0.1,0.3,0.8,0.1,1.6-0.2s1.3-0.6,2.1-1.3
			c0.7-0.7,2.3-2.3,2.1-2.6c-0.1-0.1-0.5,0.4-1,1c-0.5,0.6-1.6,1.5-2,1.8c-0.3,0.2-1.4,0.8-1.8,0.9C62.7,69.6,62.2,69.6,62.2,69.9z"
			/>
	</g>
</g>
<g>
	<g>
		<path class="st0" d="M114.8,79.1c-0.7-1-1-1.3-1-1.3s0.1-2,0.1-3.3c0.1-1.3,0.5-2.1,0.2-2.3c-0.3-0.3-0.9-0.5-1.1-0.5
			c-0.2-0.1-1,0.4-1.2,0.3c-0.2-0.1-1.4-0.1-1.3,0.3c0.1,0.4,0,2.8-0.1,3.6c-0.2,0.8-0.1,1.7-0.8,2c-0.7,0.3-2.1,2.1-3.6,3.3
			c-1.5,1.3-7.9,4.4-11.4,5.3c-3.5,0.9-6.7,1.1-10.4,0.6s-6.3-1.8-7-2.3c0,0-1-0.3-1.7,0.1c-0.6,0.3-1,0.6-1.1,1.3
			c-0.1,0.7-0.2,0.9-0.4,1.2c-0.1,0.3,0.1,0.8,0.3,1c0.2,0.2,0.9,1.7,1,1.9c0.1,0.3,2.4,4.3,6.4,6c4,1.7,6.6,3,11.7,2.7
			c5-0.4,7.7-1.2,10.5-2c2.8-0.8,6.2-2.6,8-5.1c1.8-2.5,4-5.4,3.9-7.9C115.7,81.5,115.5,80.1,114.8,79.1z M112.3,89.6
			c-1.3,2.4-4.3,4.2-6.1,5.2c-1.8,0.9-5.9,2.1-9.9,2.6c-4,0.6-9.1-0.1-13.2-1.9c-4.1-1.7-6.9-6.2-7.2-6.8c-0.4-0.6,0.2-1.1,0.6-1.3
			c0.4-0.2,1.7,0.9,3.8,1.7s4.8,1.2,9.1,1.4c4.3,0.2,9.6-1.3,9.8-1.3c0.2,0,1-0.2,0.7-0.6c-0.3-0.3-1.3,0.3-2.7,0.6
			c-1.2,0.3-3.2,0.3-4.7,0.4c-1.5,0.1-6.4,0-8.7-0.3c-2.3-0.3-6.2-2.3-6.6-2.4s0.2-1.3,0.5-1.1c2.3,1.5,7.4,2.2,11,2.4
			s6.9-1,12.8-3.5c5.9-2.5,7.2-5.2,7.5-5.6c0.2-0.3,1.4-0.9,2.1-1c0.5-0.2,1-2.9,1-3.6c0-0.6,0.7,0,1.2,0.3s-0.2,2.1-0.3,2.7
			c-0.1,0.7,0.7,0.7,1.1,1.4c0.5,0.7,0.8,2.2,1,3.9C115.3,84.8,113.6,87.2,112.3,89.6z M111.9,81.2c-0.4,0.8-2,2.6-2.6,3.2
			c-0.7,0.6-3,2.2-4.4,3c-1.4,0.7-2.7,1.2-2.5,1.5c0.5,0.7,4.2-1.7,5.9-2.8c1.8-1.2,2.7-2,3.6-3.4c0.8-1.4,1.5-2.6,1-2.9
			C112.6,79.5,112.4,80.5,111.9,81.2z"/>
	</g>
</g>
</svg>
