<?xml version="1.0" encoding="utf-8"?>
<!-- Svg Vector Icons : http://www.onlinewebfonts.com/icon -->
<!DOCTYPE svg PUBLIC "-//W3C//DTD SVG 1.1//EN" "http://www.w3.org/Graphics/SVG/1.1/DTD/svg11.dtd">
<svg version="1.1" xmlns="http://www.w3.org/2000/svg" xmlns:xlink="http://www.w3.org/1999/xlink" x="0px" y="0px" viewBox="0 0 1000 1000" enable-background="new 0 0 1000 1000" xml:space="preserve">
<metadata> Svg Vector Icons : http://www.onlinewebfonts.com/icon </metadata>
<g><g><path d="M978.3,398c-12.7-25.5-19.1-34-19.1-34s8.5-46.7,14.8-76.5c6.4-29.7,19.1-46.7,12.8-53.1c-6.4-8.5-19.1-14.9-23.4-14.9c-4.2-2.1-25.5,6.4-29.7,2.1c-4.3-2.1-31.9-6.4-31.9,2.1c0,8.5-10.6,63.7-14.9,82.8c-6.4,17-8.5,38.3-25.5,42.5c-17,4.2-55.3,40.4-93.5,63.7c-38.3,25.5-197.6,74.3-280.4,82.8c-82.8,8.5-157.2,2.1-242.2-21.2c-85-23.3-138.1-63.7-152.9-76.5c0,0-21.2-10.6-38.3-4.2c-14.9,4.2-25.5,10.6-29.7,25.5c-4.3,14.9-8.5,19.1-12.8,25.5c-4.3,6.4,0,19.1,4.2,23.4c4.3,4.3,14.9,42.5,17,46.7c2.1,6.4,40.4,108.4,127.5,161.4c87.1,53.1,142.3,91.4,261.3,102c116.8,8.5,180.6-2.1,248.6-10.6c68-8.5,152.9-38.3,201.8-89.2c48.9-51,110.4-110.5,116.8-167.8C991.1,455.3,991.1,423.4,978.3,398z M884.9,631.6c-38.2,51-112.6,82.9-157.2,97.7c-44.6,14.9-142.3,27.6-235.8,25.5c-93.5,0-208.2-34-297.4-89.2C105.3,612.5,56.4,499.9,52.2,485c-6.4-14.9,8.5-25.5,19.1-27.6c10.6-2.1,36.1,25.5,80.7,53.1c44.6,27.6,106.2,44.6,203.9,63.7c97.7,19.1,225.1,4.3,229.4,4.3c4.2,0,23.3-2.1,17-10.7c-6.4-8.4-31.9,2.1-63.7,4.3c-29.7,2.1-74.4-4.3-110.4-6.4c-36.1-2.1-146.6-21.2-199.7-36.2C175.5,514.8,92.6,455.3,84.1,451c-8.5-4.3,8.5-29.8,14.9-23.4c46.7,42.5,163.6,76.5,244.3,93.5c80.7,17,161.4,0,308-36.1c144.5-36.1,184.8-95.6,191.2-102c6.3-6.4,36.1-14.9,51-17c12.7-2.1,33.9-63.7,36.1-78.6c2.1-14.9,17,2.1,25.5,10.6c8.5,8.5-12.7,46.7-17,61.6c-4.2,14.9,12.7,19.1,21.2,36.1c8.5,17,10.6,53.1,10.6,93.5C969.9,529.7,923.1,580.6,884.9,631.6z M904,436.2c-12.7,17-55.3,53.1-70.1,63.7c-17,10.6-76.5,40.4-110.5,53.1c-33.9,10.6-65.8,19.1-61.6,25.5c8.5,17,102-25.5,146.6-44.6c44.6-21.3,70.1-36.2,93.5-65.9c23.4-29.7,44.6-55.2,33.9-63.7C925.2,400.1,916.8,421.3,904,436.2z"/></g><g></g><g></g><g></g><g></g><g></g><g></g><g></g><g></g><g></g><g></g><g></g><g></g><g></g><g></g><g></g></g>
</svg>