<?xml version="1.0" encoding="utf-8"?>
<!-- Generator: Adobe Illustrator 27.0.0, SVG Export Plug-In . SVG Version: 6.00 Build 0)  -->
<svg version="1.1" id="Layer_1" xmlns="http://www.w3.org/2000/svg" xmlns:xlink="http://www.w3.org/1999/xlink" x="0px" y="0px"
	 viewBox="0 0 21 100" style="enable-background:new 0 0 21 100;" xml:space="preserve">
<style type="text/css">
	.st0{fill:url(#SVGID_1_);}
</style>
<linearGradient id="SVGID_1_" gradientUnits="userSpaceOnUse" x1="10.4907" y1="4.6787" x2="10.4907" y2="105.6007">
	<stop  offset="0" style="stop-color:#FFFFFF;stop-opacity:0"/>
	<stop  offset="0.1232" style="stop-color:#D0D0D0;stop-opacity:0.1232"/>
	<stop  offset="0.3035" style="stop-color:#929292;stop-opacity:0.3035"/>
	<stop  offset="0.4764" style="stop-color:#5E5E5E;stop-opacity:0.4764"/>
	<stop  offset="0.637" style="stop-color:#353535;stop-opacity:0.637"/>
	<stop  offset="0.7827" style="stop-color:#181818;stop-opacity:0.7827"/>
	<stop  offset="0.9085" style="stop-color:#060606;stop-opacity:0.9085"/>
	<stop  offset="1" style="stop-color:#000000"/>
</linearGradient>
<path class="st0" d="M5.6,93.9c0,3.1-2.5,5.6-5.6,5.6s-5.6-2.5-5.6-5.6s2.5-5.6,5.6-5.6S5.6,90.8,5.6,93.9z M0,74.4
	c-2.8,0-5,2.3-5,5s2.3,5,5,5s5-2.3,5-5S2.8,74.4,0,74.4z M0,61.4c-2.5,0-4.5,2-4.5,4.5c0,2.5,2,4.5,4.5,4.5s4.5-2,4.5-4.5
	C4.5,63.4,2.5,61.4,0,61.4z M0,49.4c-2.3,0-4.1,1.8-4.1,4.1s1.8,4.1,4.1,4.1s4.1-1.8,4.1-4.1S2.3,49.4,0,49.4z M0,38.1
	c-2,0-3.7,1.6-3.7,3.7c0,2,1.6,3.7,3.7,3.7s3.7-1.6,3.7-3.7C3.7,39.8,2,38.1,0,38.1z M0,27.6c-1.8,0-3.3,1.5-3.3,3.3
	c0,1.8,1.5,3.3,3.3,3.3s3.3-1.5,3.3-3.3C3.3,29.1,1.8,27.6,0,27.6z M0,17.7c-1.6,0-3,1.3-3,3s1.3,3,3,3s3-1.3,3-3S1.6,17.7,0,17.7z
	 M0,8.8c-1.5,0-2.7,1.2-2.7,2.7s1.2,2.7,2.7,2.7s2.7-1.2,2.7-2.7S1.5,8.8,0,8.8z M21,88.3c-3.1,0-5.6,2.5-5.6,5.6
	c0,3.1,2.5,5.6,5.6,5.6s5.6-2.5,5.6-5.6C26.6,90.8,24.1,88.3,21,88.3z M21,74.4c-2.8,0-5,2.3-5,5c0,2.8,2.3,5,5,5s5-2.3,5-5
	C26,76.6,23.8,74.4,21,74.4z M21,61.4c-2.5,0-4.5,2-4.5,4.5c0,2.5,2,4.5,4.5,4.5s4.5-2,4.5-4.5C25.5,63.4,23.5,61.4,21,61.4z
	 M21,49.4c-2.3,0-4.1,1.8-4.1,4.1c0,2.3,1.8,4.1,4.1,4.1s4.1-1.8,4.1-4.1C25.1,51.2,23.2,49.4,21,49.4z M21,38.1
	c-2,0-3.7,1.6-3.7,3.7s1.6,3.7,3.7,3.7s3.7-1.6,3.7-3.7S23,38.1,21,38.1z M21,27.6c-1.8,0-3.3,1.5-3.3,3.3s1.5,3.3,3.3,3.3
	s3.3-1.5,3.3-3.3S22.8,27.6,21,27.6z M21,17.8c-1.6,0-3,1.3-3,3s1.3,3,3,3s3-1.3,3-3S22.6,17.8,21,17.8z M21,8.8
	c-1.5,0-2.7,1.2-2.7,2.7s1.2,2.7,2.7,2.7s2.7-1.2,2.7-2.7S22.5,8.8,21,8.8z M10.7,80.2c-2.9,0-5.3,2.4-5.3,5.3s2.4,5.3,5.3,5.3
	s5.3-2.4,5.3-5.3S13.7,80.2,10.7,80.2z M10.7,66.9c-2.6,0-4.8,2.1-4.8,4.8s2.1,4.8,4.8,4.8s4.8-2.1,4.8-4.8S13.4,66.9,10.7,66.9z
	 M10.7,54.6c-2.4,0-4.3,1.9-4.3,4.3s1.9,4.3,4.3,4.3S15,61.3,15,59S13.1,54.6,10.7,54.6z M10.7,43.2c-2.1,0-3.9,1.7-3.9,3.9
	c0,2.1,1.7,3.9,3.9,3.9s3.9-1.7,3.9-3.9C14.6,44.9,12.9,43.2,10.7,43.2z M10.7,32.5c-1.9,0-3.5,1.6-3.5,3.5s1.6,3.5,3.5,3.5
	s3.5-1.6,3.5-3.5S12.7,32.5,10.7,32.5z M10.7,22.5c-1.7,0-3.1,1.4-3.1,3.1c0,1.7,1.4,3.1,3.1,3.1s3.1-1.4,3.1-3.1
	C13.9,23.9,12.5,22.5,10.7,22.5z M10.7,13.2c-1.6,0-2.8,1.3-2.8,2.8s1.3,2.8,2.8,2.8s2.8-1.3,2.8-2.8S12.3,13.2,10.7,13.2z
	 M10.7,4.7c-1.4,0-2.5,1.1-2.5,2.5s1.1,2.5,2.5,2.5s2.5-1.1,2.5-2.5S12.1,4.7,10.7,4.7z M10.5,94.4c-3.1,0-5.6,2.5-5.6,5.6
	s2.5,5.6,5.6,5.6s5.6-2.5,5.6-5.6S13.6,94.4,10.5,94.4z"/>
</svg>
