<?xml version="1.0" encoding="utf-8"?>
<!-- Generator: Adobe Illustrator 27.0.0, SVG Export Plug-In . SVG Version: 6.00 Build 0)  -->
<svg version="1.1" id="Layer_1" xmlns="http://www.w3.org/2000/svg" xmlns:xlink="http://www.w3.org/1999/xlink" x="0px" y="0px"
	 viewBox="0 0 8.4 73.1" style="enable-background:new 0 0 8.4 73.1;" xml:space="preserve">
<style type="text/css">
	.st0{fill:url(#SVGID_1_);}
</style>
<linearGradient id="SVGID_1_" gradientUnits="userSpaceOnUse" x1="4.1963" y1="34.9553" x2="4.1963" y2="75.3241">
	<stop  offset="0" style="stop-color:#FFFFFF;stop-opacity:0"/>
	<stop  offset="0.1232" style="stop-color:#D0D0D0;stop-opacity:0.1232"/>
	<stop  offset="0.3035" style="stop-color:#929292;stop-opacity:0.3035"/>
	<stop  offset="0.4764" style="stop-color:#5E5E5E;stop-opacity:0.4764"/>
	<stop  offset="0.637" style="stop-color:#353535;stop-opacity:0.637"/>
	<stop  offset="0.7827" style="stop-color:#181818;stop-opacity:0.7827"/>
	<stop  offset="0.9085" style="stop-color:#060606;stop-opacity:0.9085"/>
	<stop  offset="1" style="stop-color:#000000"/>
</linearGradient>
<path class="st0" d="M2.2,70.7c0,1.2-1,2.2-2.2,2.2s-2.2-1-2.2-2.2s1-2.2,2.2-2.2S2.2,69.4,2.2,70.7z M0,62.8c-1.1,0-2,0.9-2,2
	c0,1.1,0.9,2,2,2s2-0.9,2-2C2,63.7,1.1,62.8,0,62.8z M0,57.6c-1,0-1.8,0.8-1.8,1.8c0,1,0.8,1.8,1.8,1.8s1.8-0.8,1.8-1.8
	C1.8,58.5,1,57.6,0,57.6z M0,52.8c-0.9,0-1.6,0.7-1.6,1.6s0.7,1.6,1.6,1.6s1.6-0.7,1.6-1.6S0.9,52.8,0,52.8z M0,48.3
	c-0.8,0-1.5,0.7-1.5,1.5s0.7,1.5,1.5,1.5s1.5-0.7,1.5-1.5S0.8,48.3,0,48.3z M0,44.1c-0.7,0-1.3,0.6-1.3,1.3s0.6,1.3,1.3,1.3
	s1.3-0.6,1.3-1.3S0.7,44.1,0,44.1z M0,40.2c-0.7,0-1.2,0.5-1.2,1.2s0.5,1.2,1.2,1.2s1.2-0.5,1.2-1.2S0.7,40.2,0,40.2z M0,36.6
	c-0.6,0-1.1,0.5-1.1,1.1s0.5,1.1,1.1,1.1s1.1-0.5,1.1-1.1S0.6,36.6,0,36.6z M8.4,68.3c-1.2,0-2.2,1-2.2,2.2s1,2.2,2.2,2.2
	s2.2-1,2.2-2.2S9.6,68.3,8.4,68.3z M8.4,62.7c-1.1,0-2,0.9-2,2c0,1.1,0.9,2,2,2c1.1,0,2-0.9,2-2C10.4,63.6,9.5,62.7,8.4,62.7z
	 M8.4,57.5c-1,0-1.8,0.8-1.8,1.8s0.8,1.8,1.8,1.8c1,0,1.8-0.8,1.8-1.8S9.4,57.5,8.4,57.5z M8.4,52.7c-0.9,0-1.6,0.7-1.6,1.6
	c0,0.9,0.7,1.6,1.6,1.6c0.9,0,1.6-0.7,1.6-1.6C10,53.4,9.3,52.7,8.4,52.7z M8.4,48.2c-0.8,0-1.5,0.7-1.5,1.5s0.7,1.5,1.5,1.5
	s1.5-0.7,1.5-1.5S9.2,48.2,8.4,48.2z M8.4,44c-0.7,0-1.3,0.6-1.3,1.3s0.6,1.3,1.3,1.3c0.7,0,1.3-0.6,1.3-1.3S9.1,44,8.4,44z
	 M8.4,40.1c-0.7,0-1.2,0.5-1.2,1.2s0.5,1.2,1.2,1.2c0.7,0,1.2-0.5,1.2-1.2S9.1,40.1,8.4,40.1z M8.4,36.5c-0.6,0-1.1,0.5-1.1,1.1
	c0,0.6,0.5,1.1,1.1,1.1c0.6,0,1.1-0.5,1.1-1.1C9.5,37,9,36.5,8.4,36.5z M4.3,65.2c-1.2,0-2.1,1-2.1,2.1c0,1.2,1,2.1,2.1,2.1
	s2.1-1,2.1-2.1C6.4,66.1,5.5,65.2,4.3,65.2z M4.3,59.9c-1.1,0-1.9,0.9-1.9,1.9s0.9,1.9,1.9,1.9s1.9-0.9,1.9-1.9S5.4,59.9,4.3,59.9z
	 M4.3,54.9c-1,0-1.7,0.8-1.7,1.7s0.8,1.7,1.7,1.7S6,57.6,6,56.7S5.2,54.9,4.3,54.9z M4.3,50.4c-0.9,0-1.6,0.7-1.6,1.6
	c0,0.9,0.7,1.6,1.6,1.6s1.6-0.7,1.6-1.6C5.8,51.1,5.2,50.4,4.3,50.4z M4.3,46.1c-0.8,0-1.4,0.6-1.4,1.4c0,0.8,0.6,1.4,1.4,1.4
	s1.4-0.6,1.4-1.4C5.7,46.7,5.1,46.1,4.3,46.1z M4.3,42.1c-0.7,0-1.3,0.6-1.3,1.3s0.6,1.3,1.3,1.3s1.3-0.6,1.3-1.3S5,42.1,4.3,42.1z
	 M4.3,38.4c-0.6,0-1.1,0.5-1.1,1.1s0.5,1.1,1.1,1.1s1.1-0.5,1.1-1.1S4.9,38.4,4.3,38.4z M4.3,35c-0.6,0-1,0.5-1,1s0.5,1,1,1
	s1-0.5,1-1S4.9,35,4.3,35z M4.2,70.8c-1.2,0-2.2,1-2.2,2.2s1,2.2,2.2,2.2s2.2-1,2.2-2.2S5.4,70.8,4.2,70.8z"/>
</svg>
