<?xml version="1.0" encoding="utf-8"?>
<!-- Generator: Adobe Illustrator 27.0.0, SVG Export Plug-In . SVG Version: 6.00 Build 0)  -->
<svg version="1.1" xmlns="http://www.w3.org/2000/svg" xmlns:xlink="http://www.w3.org/1999/xlink" x="0px" y="0px"
	 viewBox="0 0 300 300" style="enable-background:new 0 0 300 300;" xml:space="preserve">
<style type="text/css">
	.st0{display:none;fill:#FFFFFE;}
	.st1{display:none;}
	.st2{display:inline;}
	.st3{display:none;fill:#FFFFFF;}
</style>
<g id="Layer_1">
	<g id="zMyCUn.tif">
		<g>
			<path class="st0" d="M4.8,201.7c0-36.6,0-73.2,0-109.8c96.5,0,193,0,289.5,0c0.8,0,1,0.2,1,1c0,36,0,71.9,0,107.9
				c0,0.8-0.2,1-1,1C197.7,201.7,101.3,201.7,4.8,201.7z"/>
			<path d="M293.3,146.7c-1-0.9-2.1-2-1.9-3.6c0.2-1.5,0-3.1,0.3-4.7c0.1-0.6-0.1-0.9-0.8-0.9c-1.3,0.1-2.7,0.1-4,0
				c-1.6-0.1-3.2-0.2-4.3-1.6c-2.3-3-4.3-6.1-6.3-9.3c-0.2-0.4-0.2-0.6,0.1-0.9c0.7-0.8,1.6-1.2,2.7-1.2c4,0,8,0,12.3,0
				c-1.1-0.9-2.1-1.8-3.1-2.6c-3.3-2.7-6.6-5.5-10-8.2c-4.1-3.3-8.2-6.5-12.3-9.8c-4.1-3.2-8.1-6.4-12.2-9.6c-0.6-0.5-1.3-0.6-2-0.8
				c-4.6-0.8-9.2-0.8-13.9-1c-4.1-0.2-8.3-0.2-12.4-0.2c-6.2,0-12.3-0.1-18.5,0.1c-5.3,0.2-10.6-0.1-15.9,0.2
				c-3.6,0.2-7.2,0-10.8,0.2c-3.2,0.2-6.3,0.1-9.5,0.2c-5.4,0.2-10.8,0.2-16.2,0.5c-4,0.2-8.1,0.3-12.1,0.3c-3,0-5.9,0.7-8.7,1.8
				c-6.4,2.5-12.4,5.8-18.3,9.2c-7.9,4.5-15.6,9.2-23.1,14.3c-2.8,1.9-5.6,3.6-9.2,3.7c-3.3,0.1-6.6,0.8-9.9,1.3
				c-4,0.6-8,1.1-11.9,1.7c-4.3,0.6-8.7,1.2-13,1.8c-4.7,0.7-9.4,1.4-14.1,2.1c-4.6,0.7-9.1,1.5-13.7,2.3c-1.2,0.2-2.5,0.5-3.3,1.7
				c-0.5,0.7-0.9,1.5-1.4,2.2c-0.4,0.7-0.3,0.9,0.5,0.9c3-0.1,6-0.1,9.1-0.1c1.3,0,1.5,0.2,1,1.4c-1.1,2.8-2.6,5.4-4.2,8
				c-0.7,1.2-1.7,1.8-3.1,1.7c-2.4-0.1-4.8-0.2-7.2-0.3c-0.3,0-0.7-0.2-0.8,0.4c-0.5,2.5-1.9,4.6-3.4,6.6c-0.6,0.8-0.4,1.8-0.2,2.6
				c0.1,0.6,1,0.2,1.5,0.4c0.4,0.1,0.8,0.2,1.2,0.2c0.5,0.1,0.7,0.4,0.7,0.9c0,2.1,0.2,4.1-0.2,6.2c-0.1,0.7-0.4,1.3-1.3,1.1
				c-0.9-0.2-1.1,0.3-0.9,1.1c0.7,3.3,1.6,6.5,2.9,9.6c0.5,1.1,1,2.3,2.2,2.9c5,2.6,10,4.8,15.9,4.5c2.2-0.1,1.8-0.2,1.9-1.8
				c0.4-5.2,1.2-10.3,2.7-15.4c2.1-6.8,5.2-13,10.6-17.8c2.9-2.5,6.1-4.4,9.7-5.6c5.9-1.9,11.9-2.1,18-1.1
				c5.4,0.9,10.2,3.1,14.4,6.7c4.4,3.8,7.3,8.7,9.2,14.1c2.1,5.8,2.6,11.8,2.4,17.9c0,1,0.1,1.3,1.2,1.3c36.2,0,72.4,0,108.6,0
				c2.7,0,5.4-0.2,8.2-0.4c0.5,0,0.6-0.3,0.7-0.7c0.2-1.7,0.4-3.4,0.6-5.1c1-7,2.9-13.7,6.6-19.8c3.7-6,8.8-10.5,15.7-12.7
				c5.8-1.9,11.8-2.1,17.8-1.2c5.4,0.8,10.2,2.9,14.3,6.4c5.3,4.5,8.6,10.3,10.4,17c1,3.5,1.6,7.1,1.6,10.7c0,0.4-0.1,0.7,0.6,0.5
				c3-0.8,5.8-1.9,8.5-3.5c0.6-0.4,0.9-0.9,1-1.6c0.4-2.8,0.4-5.6,0.6-8.3c0.2-4.2,0-8.4,0.4-12.5
				C295.1,149,294.5,147.9,293.3,146.7z M200.8,167.8c-11.1,0-22.2,0.1-33.3,0.1c-16.2,0.1-32.4,0.1-48.5,0.2c-1.5,0-1.4,0-1.6-1.5
				c-0.9-9-3.7-17.1-10.5-23.5c-1.1-1-2.3-1.9-3.6-2.9c19.8,0,39.5,0,59.1,0c0,0.1,0,0.2,0,0.2c-16.1,0.6-32.1,1.3-48.4,1.9
				c1.6,3,3.1,5.9,4.6,8.7c1,1.9,2.1,3.7,2.9,5.6c1.4,3.1,3.9,4.8,7,5.8c2.2,0.7,4.5,1,6.9,1.1c6.5,0.3,13.1,0.7,19.6,1.1
				c4.1,0.3,8.2,0.5,12.3,0.7c5.4,0.3,10.9,0.7,16.3,1.1c3.7,0.2,7.4,0.4,11.1,0.7c2.6,0.2,5.2,0.3,7.8,0.5c0,0,0,0.1,0,0.1
				C202,167.7,201.4,167.8,200.8,167.8z M217.8,120.2c-5.2,0.1-10.5,0.3-15.7,0.5c-5.9,0.2-11.9,0.4-17.8,0.7c-6,0.2-12,0.4-18,0.7
				c-6.1,0.2-12.3,0.4-18.4,0.7c-6.1,0.2-12.2,0.4-18.3,0.7c-0.9,0-1.7,0.2-2.7-0.2c1.2-0.5,2.4-1,3.6-1.4c0.7-0.2,0.9-0.6,0.9-1.3
				c-0.1-2.9-0.8-3.6-3.7-3.7c-3.5-0.1-6.9,0.4-10.3,0.7c-1.8,0.2-3.4,1.1-4.9,2c-0.6,0.4-0.5,1.1-0.6,1.7c-0.1,0.8-0.3,1.3-1.1,1.6
				c-1.4,0.5-2.8,1.2-4.4,1.5c-1.6,0.4-2.6-0.6-3.8-1c-0.7-0.2-0.8-0.8-0.1-1.3c10.1-6.3,19.1-14.1,29.7-19.7
				c3.9-2.1,8-3.5,12.5-3.6c6-0.1,12.1-0.3,18.1-0.4c5.2,0,10.4-0.2,15.6-0.1c6.9,0.1,13.8,0,20.8,0.2c5.3,0.1,10.7,0.3,16,0.4
				c0.5,0,1,0.1,1.5,0.1c2,0.1,2,0.1,2,2c0,6,0,12,0,18C218.9,119.9,218.7,120.2,217.8,120.2z M255.5,118.3c-0.3,0.6-1.3,0.3-2,0.4
				c-3.8,0.2-7.6,0.3-11.3,0.5c-6.4,0.3-12.7,0.5-19.1,0.8c-0.3,0-0.5,0-0.8,0c-0.8,0.1-1.1-0.2-1-1c0.1-3.1,0-6.3,0-9.4
				c0-3.1,0-6.3,0-9.4c0-0.7,0.2-1,1-1c5.2,0.2,10.3,0.5,15.4,1.3c2.3,0.3,3.8,1.8,5.4,3.1c4.3,3.8,8.1,8,11.5,12.6
				C255,116.9,255.8,117.6,255.5,118.3z"/>
			<path d="M250.6,147.1c-14.9-0.2-27.1,12.2-27.2,26.9c-0.1,15.1,11.9,27.5,27.1,27.5c15.2,0,27.3-12,27.3-27.2
				C278,159.2,265.5,146.9,250.6,147.1z M250.5,193.4c-10.5-0.1-19.2-8.4-19.3-19.4c-0.1-10.7,8.7-19.5,19.4-19.4
				c11.2,0.1,19.4,9,19.4,19.4C270,184.8,261.3,193.4,250.5,193.4z"/>
			<path d="M65.1,147.1c-14.9-0.2-27.2,12.3-27.2,27.1c0,14.8,11.7,27.3,27.2,27.3c15.2,0,27.2-12,27.3-27
				C92.6,159.1,79.9,146.8,65.1,147.1z M65.2,193.4c-10.7,0-19.5-8.7-19.4-19.4c0.1-10.9,8.7-19.4,19.5-19.4
				c10.7,0,19.4,8.8,19.4,19.5C84.6,184.7,75.8,193.4,65.2,193.4z"/>
			<path d="M261.5,174.4c1.6,0,3.1,0,4.7,0c0.6,0,0.8,0.2,0.8,0.8c-0.2,2.9-1.2,5.5-2.7,7.9c-0.2,0.4-0.4,0.4-0.8,0.1
				c-2.7-2-5.4-4-8-6c-0.3-0.2-0.4-0.4-0.2-0.7c0.1-0.2,0.2-0.3,0.2-0.5c0.2-0.5,0.2-1.3,0.6-1.6c0.6-0.4,1.4-0.1,2.1-0.1
				C259.4,174.4,260.5,174.4,261.5,174.4C261.5,174.4,261.5,174.4,261.5,174.4z"/>
			<path d="M263.9,164.4c-0.1,0.1-0.3,0.2-0.4,0.3c-2.7,1.9-5.5,3.8-8.2,5.8c-0.4,0.3-0.5,0.1-0.8-0.1c-0.4-0.4-0.8-0.7-1.3-1
				c-0.4-0.2-0.5-0.5-0.4-1c1-3,2.1-6.1,3.1-9.2c0.2-0.5,0.3-0.7,0.8-0.5c2.7,1.1,5,2.8,6.8,5.1C263.7,164,263.8,164.1,263.9,164.4z
				"/>
			<path d="M248.8,168.7c0,0.2-0.1,0.3-0.3,0.4c-0.2,0.1-0.4,0.1-0.6,0.3c-1.1,1.3-2,0.7-3.1-0.1c-2.2-1.7-4.4-3.3-6.6-5
				c-0.4-0.3-0.5-0.5-0.1-0.9c1.8-2.2,4.1-3.7,6.8-4.8c0.4-0.2,0.7-0.3,0.9,0.3c1,3.2,2,6.4,3,9.5
				C248.7,168.6,248.8,168.6,248.8,168.7z"/>
			<path d="M237.2,174.2c2.4,0,4.9,0,7.3,0c0.6,0,0.9,0.1,0.9,0.8c-0.1,0.7,0.9,1.4,0.4,2.1c-0.4,0.6-1.1,0.9-1.7,1.3
				c-2.1,1.5-4.2,3-6.3,4.5c-0.6,0.4-0.8,0.3-1.2-0.2c-1.4-2.3-2.1-4.9-2.4-7.6c-0.1-0.8,0.2-1,0.9-1c0.7,0.1,1.4,0,2.1,0
				C237.2,174,237.2,174.1,237.2,174.2z"/>
			<path d="M250.6,190.4c-1.5,0.1-3-0.2-4.4-0.6c-0.5-0.1-0.6-0.3-0.4-0.8c1.1-3,2.1-6.1,3.1-9.2c0.2-0.5,0.5-0.7,1-0.6
				c0.2,0,0.4,0.1,0.5,0.1c1.7-0.5,1.9,0.7,2.2,1.8c0.8,2.6,1.6,5.2,2.4,7.8c0.2,0.7,0.1,1-0.6,1.1
				C253.1,190.2,251.9,190.4,250.6,190.4z"/>
			<path d="M248.1,178.9c-0.1,0.3-0.2,0.5-0.3,0.7c-1.3,2.8-2.6,5.7-3.9,8.5c-0.3,0.6-0.6,0.7-1.1,0.4c-1.4-0.8-2.7-1.8-3.9-2.9
				c-0.4-0.4-0.5-0.7,0-1.1c2.5-2.1,4.9-4.3,7.3-6.4c0.2-0.2,0.4-0.5,0.7-0.1C247.3,178.3,247.9,178.4,248.1,178.9z"/>
			<path d="M254.5,177.9c0.1,0.1,0.3,0.2,0.5,0.4c2.3,2.2,4.7,4.4,7.1,6.5c0.4,0.4,0.5,0.5,0.1,1c-1.3,1.3-2.8,2.2-4.4,3
				c-0.4,0.2-0.6,0.1-0.7-0.3c-1.3-3-2.6-6.1-3.9-9.1C252.9,179,254,177.9,254.5,177.9z"/>
			<path d="M256.8,173.3c-1,0.3-0.8-0.6-1.1-1.1c-0.4-0.7,0.2-0.9,0.6-1.1c2.7-1.5,5.3-3,8-4.5c0.6-0.4,1-0.3,1.3,0.4
				c0.7,1.5,1.1,3.1,1.4,4.8c0.1,0.5-0.1,0.6-0.6,0.7C263.2,172.7,260,173,256.8,173.3z"/>
			<path d="M250.7,157.6c3.5,0,3.5,0,2.7,3.3c-0.5,2.3-1.1,4.6-1.5,6.9c-0.1,0.7-0.5,0.9-1.2,0.9c-0.6,0-1-0.1-1.2-0.9
				c-0.6-3.1-1.2-6.1-1.8-9.2c-0.1-0.6-0.1-0.9,0.7-1C249.2,157.7,250,157.6,250.7,157.6z"/>
			<path d="M244.5,173c-3.1-0.3-6.2-0.7-9.4-1.1c-0.6-0.1-0.8-0.3-0.7-0.9c0.4-1.7,0.9-3.3,1.7-4.8c0.2-0.4,0.3-0.6,0.8-0.3
				c2.8,1.7,5.7,3.4,8.5,5.1c0.5,0.3,0.5,0.6,0.2,1C245.4,172.5,245.6,173.4,244.5,173z"/>
			<path d="M63.2,168.6c0.1,0.2,0,0.3-0.2,0.4c-0.2,0.1-0.3,0.2-0.5,0.2c-0.7,0.2-1,1.2-1.8,1c-0.7-0.2-1.2-0.8-1.8-1.3
				c-2.1-1.6-4.2-3.1-6.3-4.7c-0.5-0.4-0.5-0.6-0.1-1c1.9-2.2,4.2-3.8,6.9-4.8c0.4-0.1,0.6-0.1,0.7,0.3c1,3.2,2,6.4,3,9.6
				C63.2,168.6,63.2,168.6,63.2,168.6z"/>
			<path d="M81.5,175.3c-0.3,2.9-1.2,5.5-2.7,7.8c-0.3,0.5-0.6,0.5-1,0.2c-2.6-1.9-5.2-3.9-7.8-5.8c-0.4-0.3-0.5-0.6-0.2-1
				c0.1-0.2,0.3-0.4,0.3-0.6c0-1.5,0.9-1.5,2.1-1.5c2.8,0.1,5.5,0.1,8.3,0.1C81.3,174.4,81.7,174.6,81.5,175.3z"/>
			<path d="M71,158.7c1.4,0.5,2.7,1.2,3.8,2c1.2,0.9,2.4,1.9,3.3,3.2c0.3,0.4,0.3,0.6-0.1,0.9c-2.7,1.9-5.4,3.8-8.1,5.7
				c-0.3,0.2-0.6,0.2-0.8-0.1c-0.4-0.5-0.9-0.8-1.4-1c-0.4-0.2-0.5-0.4-0.3-0.8c1.1-3,2.1-6.1,3.1-9.2C70.5,159,70.6,158.6,71,158.7
				z"/>
			<path d="M65.1,190.4c-1.5,0.1-3-0.2-4.4-0.6c-0.5-0.1-0.6-0.3-0.4-0.8c1.1-3,2.1-6,3.1-9c0.2-0.6,0.5-0.8,1.1-0.7
				c0.2,0,0.4,0.1,0.5,0.1c1.5-0.5,1.7,0.5,2,1.6c0.8,2.7,1.6,5.3,2.5,8c0.2,0.6,0.2,1-0.6,1.1C67.6,190.2,66.4,190.4,65.1,190.4z"
				/>
			<path d="M51.7,174.2c2.4,0,4.9,0,7.3,0c0.6,0,1,0.2,0.9,0.8c0,0.1,0,0.1,0,0.2c0.2,0.5,0.7,1.2,0.5,1.6c-0.3,0.6-1,0.9-1.6,1.3
				c-2.2,1.5-4.3,3-6.5,4.6c-0.7,0.5-1,0.4-1.4-0.3c-1.3-2.2-2-4.6-2.3-7.2c-0.1-1,0.3-1.3,1.2-1.2c0.6,0.1,1.2,0,1.7,0
				C51.7,174,51.7,174.1,51.7,174.2z"/>
			<path d="M58,188.7c-0.2-0.1-0.3-0.1-0.4-0.2c-1.6-0.8-3-1.9-4.3-3.2c-0.3-0.3-0.3-0.5,0.1-0.8c2.4-2.1,4.9-4.2,7.3-6.4
				c0.8-0.8,1.1,0.1,1.6,0.3c0.6,0.2,0.4,0.6,0.2,1c-1.3,2.9-2.6,5.7-4,8.6C58.3,188.3,58.2,188.6,58,188.7z"/>
			<path d="M76.9,185.2c0,0.3-0.2,0.4-0.4,0.6c-1.3,1.2-2.7,2.2-4.3,3c-0.4,0.2-0.6,0.1-0.8-0.3c-1.3-3-2.6-6.1-3.9-9.1
				c-0.2-0.4-0.1-0.7,0.3-0.8c0.5-0.1,0.7-1.1,1.4-0.5c2.4,2.2,4.8,4.5,7.3,6.7C76.7,185,76.8,185.1,76.9,185.2z"/>
			<path d="M59.1,173.1c-3.2-0.4-6.4-0.7-9.6-1.1c-0.5-0.1-0.7-0.3-0.6-0.8c0.3-1.8,0.9-3.4,1.7-5c0.3-0.6,0.5-0.3,0.8-0.1
				c2.8,1.7,5.6,3.3,8.4,5c0.4,0.2,0.5,0.5,0.3,0.8C59.9,172.4,60.2,173.4,59.1,173.1z"/>
			<path d="M62.1,157.9c2-0.5,3.9-0.4,5.8-0.1c0.6,0.1,0.7,0.3,0.5,0.9c-0.7,3.1-1.4,6.2-2.1,9.3c-0.1,0.7-0.5,0.8-1.1,0.7
				c-0.5,0-1,0.1-1.2-0.7C63.5,164.6,62.8,161.3,62.1,157.9z"/>
			<path d="M71.3,173.3c-0.8,0.3-0.9-0.4-1.1-0.9c-0.3-0.7,0-0.9,0.5-1.3c2.7-1.5,5.4-3,8.1-4.5c0.6-0.4,0.9-0.2,1.2,0.4
				c0.7,1.5,1.1,3.1,1.4,4.8c0.1,0.5,0,0.6-0.5,0.7C77.8,172.7,74.6,173,71.3,173.3z"/>
		</g>
	</g>
</g>
<g id="Layer_2" class="st1">
	<g id="qP6VaO.tif" class="st2">
		<g>
			<path class="st3" d="M411.2,354.9c-176,0-351.9,0-528,0c0-127.9,0-255.9,0-384c175.9,0,352,0,528,0
				C411.2,98.9,411.2,226.9,411.2,354.9z M258.1,141.2c-0.2-0.2-0.4-0.5-0.7-0.7c2.6-3.4,5-7,7.8-10.2c4.6-5.4,8.1-11.2,8.2-18.6
				c0-1,0.7-2.2,1.4-3c11.8-14.2,23.8-28.1,35.3-42.4c13.2-16.4,25.4-33.5,33.4-53.1c3.8-9.5,7.3-19,7-29.6
				c-0.3-8.8-7.2-12-14.4-10.3c-3.8,0.9-7.6,2.4-11.5,2.5c-13.8,0.5-26.2,5.1-35.9,14.6c-11.1,10.8-21.6,22.5-31.5,34.4
				c-20.5,24.6-40.5,49.5-60.8,74.3c-1,1.2-2.4,3.1-3.6,3.1c-5-0.1-10.1-0.7-15.6-1.2c1.1-3.3,2.2-5.9,2.7-8.6
				c0.4-2.3,0.5-4.9,0-7.2c-2-8-7.6-12.5-15.3-14.5c-9.1-2.3-14.9,2.5-19.5,9.4c-5.6,8.6-10.9,17.4-16.3,26c0.5-3.2,1-6.7,1.6-10.4
				c-12.2-1.4-24.2-2.8-36.2-4c-17.8-1.8-35.6-3.4-53.4-5.2C20,84.2-0.7,81.8-21.5,79.6c-17.8-1.8-35.8-2.1-53.3-5.5
				c-16.3-3.2-27.7,5.9-40.8,11.4c-0.3,0.1-0.4,0.9-1,2.3c33.1,9.5,66,19,98.3,28.3c-0.9,3.5-1.5,6.2-2.2,8.8c0.7,0.4,1.3,0.8,2,1.2
				c4.1-4.3,8.1-8.6,12.2-13c-0.5,1.6-1,3.4-1.5,5.4c18.8,5.6,37.3,11.2,55.2,16.5c-0.8,3.8-1.4,6.8-2.3,10.8
				c8.2-3.1,9.4-10.6,15.1-16.1c-3.2,6.8-0.4,8.7,4.7,9.8c14.8,3.3,27.8,10.7,40,18.7c-0.9,3-1.8,5.7-3,9.6c8.1-1.5,9.5-8.8,15-12.5
				c-1.3,2.7-2.2,4.7-3.1,6.7c7.5,4.6,14.8,9.1,22.2,13.6c-19.4,24-38.3,47.4-58.1,71.9c1.8-4.7,3.2-8.2,4.6-11.8
				c-1.9-1.3-3.7-2.6-5.4-3.8c-9.7-6.8-9.5-6.6-17.2,2.2c-4.9,5.6-6.1,11.4-4.7,18.7c1.5,8.3,1.6,16.8,2.5,25.2c0.2,2.4-0.3,3.8-3,4
				c-4.2,0.2-8.4,0.9-12.6,0.9c-17.6-0.2-35.2-0.6-52.8-1c-3.3-0.1-6.6-0.3-9.9-0.7c-8.7-1.1-13.4,1.7-16.8,10.3
				c22.3,6.4,44.6,12.6,66.8,19.3c6.2,1.9,11.4,2.7,14.6-4.5c0.4-0.9,1.5-1.4,2.3-2.1c-1.2,4-3.6,7.4-5.1,11.1c-2,5-4,10.1-4.5,15.3
				c-0.6,5.9,5,8.9,10.3,6.2c4.3-2.2,8.7-4.2,12.5-7c7-5.2,13.1-4.5,20.7-0.4c16.2,8.8,33,16.5,49.9,24.7c2.5-2.9,5.2-5.5,7-8.5
				c0.8-1.3,0.2-4.4-0.9-5.6c-9.5-10.5-19.2-20.7-28.8-31c-1.9-2.1-3.5-2.4-6-1.2c-3.7,1.8-7.6,3.1-11.4,4.7
				c1.2-1.7,2.6-2.7,4.2-3.6c24.3-13.4,43.8-32,60.8-53.9c9.9-12.9,19.5-26.4,33.3-36c6.5-4.5,12-10.2,18.5-15.9
				c-0.9,5.4,3.1,4.5,5.4,5c12.1,2.6,24.3,5,36.5,7.5c-0.9,3.1-1.6,5.6-2.3,8.2c0.6,0.4,1.2,0.9,1.8,1.3c4.4-3.9,8.8-7.7,14.1-12.4
				c-1,2.4-1.6,3.8-2.2,5.2c16.4,3.9,29.6,9.7,33.8,14.6c-1,3.6-1.8,6.9-2.7,10.1c0.6,0.3,1.1,0.6,1.7,1c4.4-4.1,8.8-8.1,14-13
				c-1.3,2.7-2.1,4.4-3,6.3c11.3,6.4,22.6,12.8,33.6,19.1c-0.9,3.2-1.6,5.9-2.6,9.3c8.7-0.5,11-7.9,17-12.6
				c-1.9,3.4-3.1,5.6-4.5,8.1c18.6,10.7,37,21.4,55.7,32.2c1.9-4.3,3.7-8,5.1-11.8c2.2-5.8,1.8-10.8-3.3-15.7
				c-26.1-25.4-51.8-51.2-77.6-76.9c-1.6-1.6-3.5-3-4.6-3.9c6.1-7.2,12-13.4,17.1-20.3c5.4-7.3,2.8-18.1-4.9-23.6
				c-8.5-6-17.5-5-23.6,2.5c-6,7.4-12.3,14.5-18.4,21.8c0-2.3,1.1-4.2,1.5-6.2c0.3-1.3,0.2-3.4-0.6-4.2
				c-8.1-7.9-16.4-15.6-24.7-23.4C266,134.1,262,137.7,258.1,141.2z"/>
			<path d="M211.3,126.9c2.2-1.9,4.3-3.9,6-5.4c4.6,4.3,9.2,8.6,13.6,12.9c0.5,0.4,0.5,1.6,0.3,2.3c-0.2,1.1-0.8,2.1-0.8,3.4
				c3.4-4,6.9-8,10.2-12c3.4-4.1,8.3-4.7,13-1.4c4.3,3,5.7,9,2.7,13c-2.8,3.8-6.1,7.3-9.5,11.2c0.6,0.5,1.6,1.3,2.5,2.2
				c14.3,14.2,28.5,28.4,42.9,42.5c2.8,2.7,3,5.4,1.8,8.7c-0.8,2.1-1.8,4.2-2.8,6.5c-10.3-6-20.5-11.9-30.8-17.8
				c0.8-1.4,1.4-2.6,2.5-4.5c-3.3,2.6-4.6,6.7-9.4,7c0.5-1.9,0.9-3.4,1.4-5.1c-6.1-3.4-12.3-7-18.5-10.5c0.5-1,0.9-2,1.6-3.5
				c-2.9,2.7-5.3,4.9-7.8,7.2c-0.3-0.2-0.6-0.4-0.9-0.5c0.5-1.8,1-3.6,1.5-5.6c-2.4-2.7-9.6-5.9-18.7-8.1c0.3-0.8,0.6-1.5,1.2-2.9
				c-2.9,2.6-5.3,4.7-7.8,6.8c-0.3-0.2-0.7-0.5-1-0.7c0.4-1.4,0.8-2.8,1.3-4.5c-6.7-1.4-13.5-2.7-20.1-4.1c-1.3-0.3-3.5,0.2-3-2.8
				c-3.6,3.1-6.7,6.3-10.2,8.8c-7.6,5.3-12.9,12.8-18.4,19.9c-9.4,12.1-20.1,22.4-33.6,29.8c-0.9,0.5-1.6,1.1-2.3,2
				c2.1-0.8,4.3-1.6,6.3-2.6c1.4-0.7,2.3-0.5,3.3,0.7c5.3,5.7,10.7,11.4,15.9,17.2c0.6,0.7,0.9,2.4,0.5,3.1c-1,1.7-2.5,3.1-3.9,4.7
				c-9.3-4.6-18.6-8.8-27.6-13.7c-4.2-2.3-7.6-2.7-11.4,0.2c-2.1,1.6-4.6,2.7-6.9,3.9c-2.9,1.5-6-0.2-5.7-3.5
				c0.3-2.9,1.4-5.7,2.5-8.5c0.8-2.1,2.1-3.9,2.8-6.1c-0.4,0.4-1,0.7-1.2,1.2c-1.8,4-4.6,3.5-8.1,2.5c-12.3-3.7-24.6-7.1-36.9-10.6
				c1.9-4.7,4.5-6.3,9.3-5.7c1.8,0.2,3.7,0.3,5.5,0.4c9.7,0.2,19.5,0.4,29.2,0.6c2.3,0,4.6-0.4,7-0.5c1.5-0.1,1.8-0.9,1.6-2.2
				c-0.5-4.6-0.5-9.4-1.4-13.9c-0.7-4-0.1-7.2,2.6-10.3c4.2-4.9,4.1-5,9.5-1.2c1,0.7,1.9,1.4,3,2.1c-0.8,2-1.5,3.9-2.6,6.5
				c10.9-13.5,21.4-26.5,32.1-39.8c-4.1-2.5-8.1-5-12.3-7.5c0.5-1.1,1-2.2,1.7-3.7c-3,2-3.8,6.1-8.3,6.9c0.7-2.1,1.1-3.6,1.6-5.3
				c-6.7-4.5-13.9-8.5-22.1-10.4c-2.9-0.6-4.4-1.6-2.6-5.4c-3.1,3-3.8,7.2-8.3,8.9c0.5-2.2,0.8-3.9,1.3-6c-9.9-3-20.1-6-30.5-9.1
				c0.3-1.1,0.6-2.1,0.8-3c-2.3,2.4-4.5,4.8-6.8,7.2c-0.4-0.2-0.7-0.4-1.1-0.7c0.4-1.5,0.7-2.9,1.2-4.9c-17.8-5.1-36-10.4-54.3-15.6
				c0.3-0.8,0.4-1.2,0.5-1.3c7.2-3,13.5-8.1,22.5-6.3c9.6,1.9,19.6,2,29.4,3.1c11.5,1.2,22.9,2.5,34.3,3.7c9.8,1,19.7,1.9,29.5,2.9
				c6.6,0.7,13.3,1.5,20,2.2c-0.3,2.1-0.6,4-0.9,5.8c3-4.8,5.9-9.6,9-14.4c2.5-3.8,5.7-6.5,10.8-5.2c4.3,1.1,7.4,3.6,8.5,8
				c0.3,1.3,0.2,2.7,0,4c-0.3,1.5-0.9,2.9-1.5,4.7c3.1,0.3,5.9,0.6,8.6,0.7c0.7,0,1.4-1,2-1.7c11.2-13.7,22.2-27.5,33.6-41.1
				c5.5-6.6,11.3-13,17.4-19c5.4-5.2,12.2-7.8,19.9-8.1c2.1-0.1,4.2-0.9,6.4-1.4c4-0.9,7.8,0.8,7.9,5.7c0.2,5.8-1.7,11.1-3.9,16.3
				c-4.4,10.9-11.2,20.3-18.4,29.4c-6.4,7.9-13,15.6-19.5,23.4c-0.4,0.5-0.7,1.1-0.8,1.7c-0.1,4.1-2,7.3-4.5,10.3
				c-1.5,1.8-2.9,3.8-4.3,5.7C211.1,126.6,211.2,126.7,211.3,126.9z M255,136.1c-4.8-0.9-8.5-3.1-10.1-8
				C245.3,133.6,249.3,136.7,255,136.1z M165.1,98.8c-2.2-0.6-4.9-0.6-6.8-1.9c-1.9-1.2-3-3.7-4.1-5.2
				C154.1,96.5,160.6,101,165.1,98.8z"/>
			<path class="st3" d="M174.5,90.3c-8.2,4-20-4.1-19.8-12.9c2.1,2.8,4.1,7.3,7.5,9.5C165.6,89.2,170.4,89.3,174.5,90.3z"/>
		</g>
	</g>
</g>
</svg>
