<svg width="32" height="33" viewBox="0 0 32 33" fill="none" xmlns="http://www.w3.org/2000/svg">
<path fill-rule="evenodd" clip-rule="evenodd" d="M16 0.115234C7.16344 0.115234 0 7.27868 0 16.1152C0 24.9518 7.16344 32.1152 16 32.1152C24.8366 32.1152 32 24.9518 32 16.1152C32 7.27868 24.8366 0.115234 16 0.115234ZM12.4823 7.63359C13.3925 7.59216 13.6834 7.58203 16.0009 7.58203H15.9983C18.3165 7.58203 18.6063 7.59216 19.5165 7.63359C20.425 7.67519 21.0454 7.81901 21.5894 8.03004C22.1512 8.24782 22.6259 8.53937 23.1005 9.01405C23.5752 9.48836 23.8668 9.96446 24.0854 10.5257C24.2952 11.0683 24.4392 11.6884 24.4819 12.5968C24.5228 13.5071 24.5335 13.7979 24.5335 16.1155C24.5335 18.433 24.5228 18.7231 24.4819 19.6334C24.4392 20.5415 24.2952 21.1617 24.0854 21.7045C23.8668 22.2656 23.5752 22.7417 23.1005 23.216C22.6264 23.6906 22.151 23.9829 21.59 24.2009C21.047 24.4119 20.4262 24.5557 19.5178 24.5973C18.6075 24.6387 18.3176 24.6489 15.9999 24.6489C13.6825 24.6489 13.3918 24.6387 12.4816 24.5973C11.5733 24.5557 10.953 24.4119 10.4101 24.2009C9.84921 23.9829 9.37312 23.6906 8.89898 23.216C8.42449 22.7417 8.13293 22.2656 7.91479 21.7043C7.70394 21.1617 7.56012 20.5416 7.51834 19.6332C7.4771 18.7229 7.46679 18.433 7.46679 16.1155C7.46679 13.7979 7.47745 13.5069 7.51817 12.5967C7.55905 11.6886 7.70306 11.0683 7.91461 10.5255C8.13328 9.96446 8.42484 9.48836 8.89951 9.01405C9.37383 8.53955 9.84992 8.24799 10.4112 8.03004C10.9538 7.81901 11.5739 7.67519 12.4823 7.63359Z" fill="#D9D9D9"/>
<path fill-rule="evenodd" clip-rule="evenodd" d="M15.2355 9.11932C15.3841 9.11909 15.544 9.11916 15.7166 9.11924L16.001 9.11932C18.2794 9.11932 18.5495 9.1275 19.4492 9.16839C20.2812 9.20643 20.7328 9.34546 21.0336 9.46226C21.4318 9.61693 21.7157 9.80182 22.0142 10.1005C22.3129 10.3992 22.4978 10.6836 22.6528 11.0818C22.7696 11.3823 22.9088 11.8338 22.9467 12.6658C22.9876 13.5654 22.9964 13.8356 22.9964 16.113C22.9964 18.3904 22.9876 18.6606 22.9467 19.5601C22.9086 20.3921 22.7696 20.8437 22.6528 21.1442C22.4981 21.5424 22.3129 21.8259 22.0142 22.1244C21.7155 22.4231 21.432 22.608 21.0336 22.7627C20.7331 22.88 20.2812 23.0187 19.4492 23.0567C18.5496 23.0976 18.2794 23.1065 16.001 23.1065C13.7224 23.1065 13.4524 23.0976 12.5528 23.0567C11.7208 23.0183 11.2692 22.8793 10.9682 22.7625C10.57 22.6078 10.2856 22.4229 9.98689 22.1243C9.68822 21.8256 9.50333 21.5418 9.34831 21.1434C9.23151 20.843 9.09231 20.3914 9.05444 19.5594C9.01355 18.6599 9.00537 18.3896 9.00537 16.1109C9.00537 13.8321 9.01355 13.5633 9.05444 12.6637C9.09248 11.8317 9.23151 11.3801 9.34831 11.0793C9.50298 10.6811 9.68822 10.3967 9.98689 10.098C10.2856 9.79933 10.57 9.61444 10.9682 9.45941C11.269 9.34208 11.7208 9.20341 12.5528 9.16519C13.34 9.12963 13.6451 9.11897 15.2355 9.11719V9.11932ZM20.5559 10.5362C19.9906 10.5362 19.5319 10.9943 19.5319 11.5598C19.5319 12.1252 19.9906 12.5838 20.5559 12.5838C21.1212 12.5838 21.5799 12.1252 21.5799 11.5598C21.5799 10.9945 21.1212 10.5358 20.5559 10.5358V10.5362ZM11.6188 16.114C11.6188 13.694 13.5809 11.7319 16.0009 11.7318C18.421 11.7318 20.3826 13.6939 20.3826 16.114C20.3826 18.5342 18.4212 20.4954 16.0011 20.4954C13.581 20.4954 11.6188 18.5342 11.6188 16.114Z" fill="#D9D9D9"/>
<path fill-rule="evenodd" clip-rule="evenodd" d="M16.0007 13.27C17.5716 13.27 18.8452 14.5435 18.8452 16.1145C18.8452 17.6854 17.5716 18.959 16.0007 18.959C14.4297 18.959 13.1562 17.6854 13.1562 16.1145C13.1562 14.5435 14.4297 13.27 16.0007 13.27V13.27Z" fill="#D9D9D9"/>
</svg>
