<?xml version="1.0" encoding="utf-8"?>
<!-- Generator: Adobe Illustrator 27.0.0, SVG Export Plug-In . SVG Version: 6.00 Build 0)  -->
<svg version="1.1" id="Layer_1" xmlns="http://www.w3.org/2000/svg" xmlns:xlink="http://www.w3.org/1999/xlink" x="0px" y="0px"
	 viewBox="0 0 8.6 40.5" style="enable-background:new 0 0 8.6 40.5;" xml:space="preserve">
<style type="text/css">
	.st0{fill:url(#SVGID_1_);}
</style>
<linearGradient id="SVGID_1_" gradientUnits="userSpaceOnUse" x1="4.3036" y1="2.3504" x2="4.3036" y2="42.7192">
	<stop  offset="0" style="stop-color:#FFFFFF;stop-opacity:0"/>
	<stop  offset="0.1232" style="stop-color:#D0D0D0;stop-opacity:0.1232"/>
	<stop  offset="0.3035" style="stop-color:#929292;stop-opacity:0.3035"/>
	<stop  offset="0.4764" style="stop-color:#5E5E5E;stop-opacity:0.4764"/>
	<stop  offset="0.637" style="stop-color:#353535;stop-opacity:0.637"/>
	<stop  offset="0.7827" style="stop-color:#181818;stop-opacity:0.7827"/>
	<stop  offset="0.9085" style="stop-color:#060606;stop-opacity:0.9085"/>
	<stop  offset="1" style="stop-color:#000000"/>
</linearGradient>
<path class="st0" d="M2.2,38c0,1.2-1,2.2-2.2,2.2s-2.2-1-2.2-2.2s1-2.2,2.2-2.2S2.2,36.8,2.2,38z M0,30.2c-1.1,0-2,0.9-2,2
	c0,1.1,0.9,2,2,2s2-0.9,2-2C2,31.1,1.1,30.2,0,30.2z M0,25c-1,0-1.8,0.8-1.8,1.8c0,1,0.8,1.8,1.8,1.8s1.8-0.8,1.8-1.8
	C1.8,25.9,1,25,0,25z M0,20.2c-0.9,0-1.6,0.7-1.6,1.6s0.7,1.6,1.6,1.6s1.6-0.7,1.6-1.6S0.9,20.2,0,20.2z M0,15.7
	c-0.8,0-1.5,0.7-1.5,1.5c0,0.8,0.7,1.5,1.5,1.5s1.5-0.7,1.5-1.5C1.5,16.4,0.8,15.7,0,15.7z M0,11.5c-0.7,0-1.3,0.6-1.3,1.3
	s0.6,1.3,1.3,1.3s1.3-0.6,1.3-1.3S0.7,11.5,0,11.5z M0,7.6c-0.7,0-1.2,0.5-1.2,1.2S-0.7,10,0,10s1.2-0.5,1.2-1.2S0.7,7.6,0,7.6z
	 M0,4c-0.6,0-1.1,0.5-1.1,1.1S-0.6,6.1,0,6.1s1.1-0.5,1.1-1.1S0.6,4,0,4z M8.6,35.8c-1.2,0-2.2,1-2.2,2.2s1,2.2,2.2,2.2
	s2.2-1,2.2-2.2S9.8,35.8,8.6,35.8z M8.6,30.2c-1.1,0-2,0.9-2,2c0,1.1,0.9,2,2,2c1.1,0,2-0.9,2-2C10.6,31.1,9.7,30.2,8.6,30.2z
	 M8.6,25c-1,0-1.8,0.8-1.8,1.8c0,1,0.8,1.8,1.8,1.8s1.8-0.8,1.8-1.8C10.4,25.9,9.6,25,8.6,25z M8.6,20.2C7.7,20.2,7,21,7,21.9
	s0.7,1.6,1.6,1.6s1.6-0.7,1.6-1.6S9.5,20.2,8.6,20.2z M8.6,15.7c-0.8,0-1.5,0.7-1.5,1.5c0,0.8,0.7,1.5,1.5,1.5s1.5-0.7,1.5-1.5
	C10.1,16.4,9.4,15.7,8.6,15.7z M8.6,11.5c-0.7,0-1.3,0.6-1.3,1.3s0.6,1.3,1.3,1.3s1.3-0.6,1.3-1.3S9.3,11.5,8.6,11.5z M8.6,7.6
	c-0.7,0-1.2,0.5-1.2,1.2S7.9,10,8.6,10c0.7,0,1.2-0.5,1.2-1.2S9.3,7.6,8.6,7.6z M8.6,4C8,4,7.5,4.5,7.5,5.1S8,6.1,8.6,6.1
	c0.6,0,1.1-0.5,1.1-1.1S9.2,4,8.6,4z M4.3,32.6c-1.2,0-2.1,1-2.1,2.1s1,2.1,2.1,2.1s2.1-1,2.1-2.1S5.5,32.6,4.3,32.6z M4.3,27.3
	c-1.1,0-1.9,0.9-1.9,1.9s0.9,1.9,1.9,1.9s1.9-0.9,1.9-1.9S5.4,27.3,4.3,27.3z M4.3,22.3c-1,0-1.7,0.8-1.7,1.7c0,1,0.8,1.7,1.7,1.7
	S6,25,6,24.1C6,23.1,5.2,22.3,4.3,22.3z M4.3,17.8c-0.9,0-1.6,0.7-1.6,1.6s0.7,1.6,1.6,1.6s1.6-0.7,1.6-1.6S5.2,17.8,4.3,17.8z
	 M4.3,13.5c-0.8,0-1.4,0.6-1.4,1.4c0,0.8,0.6,1.4,1.4,1.4s1.4-0.6,1.4-1.4C5.7,14.1,5.1,13.5,4.3,13.5z M4.3,9.5
	C3.6,9.5,3,10,3,10.7C3,11.4,3.6,12,4.3,12s1.3-0.6,1.3-1.3C5.6,10,5,9.5,4.3,9.5z M4.3,5.7c-0.6,0-1.1,0.5-1.1,1.1S3.7,8,4.3,8
	s1.1-0.5,1.1-1.1S4.9,5.7,4.3,5.7z M4.3,2.4c-0.6,0-1,0.5-1,1s0.5,1,1,1s1-0.5,1-1S4.9,2.4,4.3,2.4z M4.2,38.2c-1.2,0-2.2,1-2.2,2.2
	s1,2.2,2.2,2.2s2.2-1,2.2-2.2S5.4,38.2,4.2,38.2z"/>
</svg>
