<svg width="184" height="59" viewBox="0 0 184 59" fill="none" xmlns="http://www.w3.org/2000/svg">
<path d="M9.24432 29.2229C9.24432 33.887 6.43719 35.0722 3.47652 35.0722H0V23.4886H3.22699C6.31963 23.4886 9.24432 24.4412 9.24432 29.2229ZM2.74235 25.4776V33.0833H3.64446C5.29995 33.0833 6.4036 32.2987 6.4036 29.2229C6.4036 26.147 5.21597 25.4776 3.61327 25.4776H2.74474H2.74235Z" fill="white"/>
<path d="M20.7944 29.2708C20.7944 33.0664 18.8391 35.3553 15.5617 35.3553C12.2843 35.3553 10.3457 33.1312 10.3457 29.2708C10.3457 25.4104 12.3011 23.2031 15.5617 23.2031C18.8223 23.2031 20.7944 25.4104 20.7944 29.2708ZM13.2224 29.2708C13.2224 32.2123 14.0573 33.3496 15.5617 33.3496C17.066 33.3496 17.9177 32.2123 17.9177 29.2708C17.9177 26.3294 17.1164 25.2089 15.5617 25.2089C14.007 25.2089 13.2224 26.3461 13.2224 29.2708Z" fill="white"/>
<path d="M30.6893 24.4748L29.3865 26.0295C28.7339 25.528 28.0837 25.2281 27.2968 25.2281C25.8092 25.2281 24.7727 26.4158 24.7727 29.2565C24.7727 32.0972 25.7924 33.2344 27.3303 33.2344C28.2493 33.2344 28.9186 32.817 29.6048 32.2987L30.8261 33.8702C30.0559 34.6404 28.8035 35.3578 27.1984 35.3578C24.0218 35.3578 21.8984 33.2176 21.8984 29.2565C21.8984 25.2953 24.1561 23.2056 27.1648 23.2056C28.6691 23.2056 29.7224 23.6566 30.6917 24.4748H30.6893Z" fill="white"/>
<path d="M39.5331 25.5951H36.6756V35.0721H33.9333V25.5951H30.9414V23.4885H39.8018L39.5355 25.5951H39.5331Z" fill="white"/>
<path d="M50.23 29.2708C50.23 33.0664 48.2746 35.3553 44.9972 35.3553C41.7198 35.3553 39.7812 33.1312 39.7812 29.2708C39.7812 25.4104 41.7366 23.2031 44.9972 23.2031C48.2578 23.2031 50.23 25.4104 50.23 29.2708ZM42.658 29.2708C42.658 32.2123 43.4929 33.3496 44.9972 33.3496C46.5016 33.3496 47.3533 32.2123 47.3533 29.2708C47.3533 26.3294 46.5519 25.2089 44.9972 25.2089C43.4425 25.2089 42.658 26.3461 42.658 29.2708Z" fill="white"/>
<path d="M55.6796 30.6432H54.6095V35.0722H51.8672V23.4886H55.6628C58.8058 23.4886 60.4277 24.6091 60.4277 27.0155C60.4277 28.5367 59.7079 29.4556 58.2036 30.1418L61.1451 35.0722H58.0525L55.6796 30.6432ZM54.6095 28.755H55.7636C56.968 28.755 57.6014 28.2368 57.6014 27.0155C57.6014 25.8951 56.9488 25.4104 55.5956 25.4104H54.6095V28.7526V28.755Z" fill="white"/>
<g opacity="0.8">
<path d="M96.8702 32.5818H93.4945L92.9091 35.0722H90.0684L93.5617 23.4886H96.8894L100.383 35.0722H97.4748L96.8726 32.5818H96.8702ZM96.4024 30.5928L95.1812 25.4776L93.9599 30.5928H96.4H96.4024Z" fill="white"/>
<path d="M108.053 25.5951H105.195V35.0721H102.453V25.5951H99.4609V23.4885H108.321L108.055 25.5951H108.053Z" fill="white"/>
<path d="M124.887 35.0722H122.195L121.994 30.5424C121.91 28.9206 121.876 27.2483 121.96 25.8111L120.17 33.851H117.579L115.674 25.8111C115.792 27.517 115.792 28.9541 115.724 30.576L115.523 35.0722H112.848L113.716 23.4886H117.176L118.915 31.3462L120.537 23.4886H124.014L124.882 35.0722H124.887Z" fill="white"/>
<path d="M131.405 30.7272V35.0722H128.663V30.744L124.951 23.4886H127.943L130.083 28.5871L132.223 23.4886H135.114L131.403 30.7272H131.405Z" fill="white"/>
<path d="M149.291 29.2227C149.291 33.8869 146.482 35.0721 143.523 35.0721H140.047V23.4885H143.274C146.366 23.4885 149.291 24.441 149.291 29.2227ZM142.789 25.4775V33.0831H143.691C145.347 33.0831 146.45 32.2986 146.45 29.2227C146.45 26.1469 145.263 25.4775 143.66 25.4775H142.792H142.789Z" fill="white"/>
<path d="M160.841 29.2708C160.841 33.0664 158.886 35.3553 155.609 35.3553C152.331 35.3553 150.393 33.1312 150.393 29.2708C150.393 25.4104 152.348 23.2031 155.609 23.2031C158.869 23.2031 160.841 25.4104 160.841 29.2708ZM153.269 29.2708C153.269 32.2123 154.104 33.3496 155.609 33.3496C157.113 33.3496 157.965 32.2123 157.965 29.2708C157.965 26.3294 157.163 25.2089 155.609 25.2089C154.054 25.2089 153.269 26.3461 153.269 29.2708Z" fill="white"/>
<path d="M172.39 29.2708C172.39 33.0664 170.435 35.3553 167.157 35.3553C163.88 35.3553 161.941 33.1312 161.941 29.2708C161.941 25.4104 163.897 23.2031 167.157 23.2031C170.418 23.2031 172.39 25.4104 172.39 29.2708ZM164.818 29.2708C164.818 32.2123 165.653 33.3496 167.157 33.3496C168.662 33.3496 169.513 32.2123 169.513 29.2708C169.513 26.3294 168.712 25.2089 167.157 25.2089C165.603 25.2089 164.818 26.3461 164.818 29.2708Z" fill="white"/>
<path d="M177.84 30.6431H176.77V35.0721H174.027V23.4885H177.823C180.966 23.4885 182.588 24.609 182.588 27.0154C182.588 28.5366 181.87 29.4555 180.364 30.1416L183.305 35.0721H180.213L177.84 30.6431ZM176.77 28.7549H177.924C179.128 28.7549 179.762 28.2366 179.762 27.0154C179.762 25.895 179.109 25.4103 177.756 25.4103H176.77V28.7525V28.7549Z" fill="white"/>
</g>
<path d="M70.1767 31.4495C71.2235 31.4495 72.0721 30.6009 72.0721 29.5541C72.0721 28.5073 71.2235 27.6587 70.1767 27.6587C69.1299 27.6587 68.2812 28.5073 68.2812 29.5541C68.2812 30.6009 69.1299 31.4495 70.1767 31.4495Z" fill="#D61116"/>
<path d="M81.1663 0L56.5332 10.2592V14.3643L77.3755 5.68383V53.4985L56.5332 45.5426V49.5973L81.1663 59V0Z" fill="#D61116"/>
</svg>
