<?xml version="1.0" encoding="utf-8"?>
<!-- Generator: Adobe Illustrator 27.0.0, SVG Export Plug-In . SVG Version: 6.00 Build 0)  -->
<svg version="1.1" id="Layer_1" xmlns="http://www.w3.org/2000/svg" xmlns:xlink="http://www.w3.org/1999/xlink" x="0px" y="0px"
	 viewBox="0 0 1024 289" style="enable-background:new 0 0 1024 289;" xml:space="preserve">
<style type="text/css">
	.st0{display:none;fill:#CC9966;}
	.st1{fill:#CC9966;}
</style>
<g id="pHmLxR_00000044885468016320105190000003844321515214444734_">
	<g>
		<path class="st0" d="M58.5,290.3c-0.9-3.3-1.8-6.6-2.9-9.9c-1.1-3.5-2.4-7.1-2.5-10.6c0-4.5,1.2-8.9,2-14.1
			c-0.8-0.5-2.6-1.5-5.3-3.2c3.7-2.1,6.7-3.9,10.6-6.1c-12.7-5.3-8.2-15.1-7.1-23.8c1.6-13,3.8-26,5.6-39c2-15,1.2-29.7-1.7-44.7
			c-2.1-10.7-1.9-21.8-2.4-32.8c-0.5-9.6-2.2-18.9-7.3-27.2c-1.8-2.9-4.2-5.5-7.2-9.4c10.8,4.7,20.7,6.4,29.8-0.5
			c9.3-7,10-16.9,7.3-28.3c3.7,2.5,6.3,4.5,9.1,6.1c10.8,6.1,22.5,6.7,34.4,5.4c8.3-0.9,16.5-2.4,24.7-3.5
			c14.1-1.9,28.1-1.1,41.6,2.8c21.4,6.3,42.5,5.9,63.9,0c12.9-3.6,26.3-3.8,39.6-1.7c2.8,0.5,6.1-0.9,9-1.8c1.8-0.6,3.4-1.9,5.7-3.2
			c2.6,6.7-3.1,9.8-4.5,14.3c-0.4-0.1-0.8-0.2-1.2-0.3c0.4-2.6,0.7-5.1,1-7.1c-5.8,0-11.6-0.3-17.4,0.1c-11.9,0.8-24.1,0.7-35.6,3.5
			c-19.1,4.6-37.6,5.1-56.6-0.3c-20-5.7-40.4-4.8-60.8-1c-16,3-32.2,3.4-47.8-5.4C82.5,57.3,80.4,65,74,70.7
			c-6.6,5.9-14.5,7-23.8,5.9C60,91.5,57.6,108,59,123.9c0.8,8.9,2.7,17.7,3.9,26.6c2.4,16.7-0.3,33.2-2.5,49.7
			c-1.5,10.5-2.8,21.1-4.7,31.6c-1,5.5,0.7,9,5.4,11.5c1.3,0.7,2.4,1.8,4.6,3.4c-3.9,1.6-6.9,2.9-10.2,4.2c1.8,1.4,3.6,2.8,5.9,4.6
			c-7.3,6.6-4.9,14.1-3.2,21.6c1,4.4,2.2,8.7,3.2,13.1h60.9c-1.6-0.5-3.3-1.6-4.2-2.8c-3.4-4.8-7.4-6.8-13.3-5.1
			c-2.1,0.6-4.6,0.1-7-0.2c1.8-0.4,3.7-0.5,5.4-1.1c7.2-2.5,13-1.2,17,5.8c0.6,1,2,1.9,3.1,2.1c3.2,0.4,8.3-4.3,10.1-9.3
			c1.5-4.2,2.1-8.4-2.6-11.8c-1.1,2.1-2,4-3.1,5.8c-2.5,4.1-5.7,4.2-8.7,0.3c-0.8-1.1-1.4-2.3-2.1-3.4c-5.9-9.2-15.7-9.4-22-0.4
			c-0.5,0.7-0.9,1.4-1.6,2.4c1.9-6.3,6-10.2,11.2-10.7c5.7-0.5,10.4,1.5,13.7,6.4c1.5,2.2,3.4,4.2,5.2,6.3c1.7-2.5,3.5-4.9,5.2-7.4
			c0.3-0.4,0.4-0.9,1.4-3c2.4,2.7,4.6,4.4,5.8,6.6c3.3,6.8-2.8,17.7-10.1,19.4h151c-0.5-0.9-1-1.8-1.5-2.7c1,0.9,2,1.8,3,2.7h26.1
			c-0.6-5-4-8.7-7.8-12.3c5.4,1.8,9.1,5.6,10.3,11.1c0.1,0.4,0.2,0.8,0.3,1.1h183.1c15.8-8.7,32.8-12.7,51.3-11.7
			c0.7,0,1.4-0.1,2,0.1c8.4,2.9,16.1-0.4,24.1-2.3c18-4.1,36.3-3.8,54.7-3.6c17.9,0.3,34.3,5.6,50.5,12.3c4.2,1.7,8.4,3.4,12.7,5.1
			h103.3c6.3-3.6,11.5-8.8,15.3-15.8c0.5-1,1.3-2.2,2.2-2.6c15.6-6.8,25.7-19.8,36-32.4c5.6-6.8,5.5-7,12.8-1.7
			c4,2.9,8.2,5.8,11.8,9.3c3.3,3.2,6.4,3.6,10.1,1.4c3.3-1.9,5.9-1.6,8.6,1.6c4.1,4.8,8.6,9.2,13.3,13.5c1.4,1.2,4.4,2.2,5.9,1.6
			c8.2-3.6,14.5-1.9,20.7,4.6c6.8,7.1,15.7,11.6,25.1,14.6c-11.1-1.3-20.4-6.3-28.5-13.4c-4.6-4-8.8-5.5-14.3-3
			c-3.9,1.7-7.1,0.7-10-2c-4.6-4.1-9-8.5-13.7-12.3c-1.4-1.1-4.2-2-5.5-1.3c-4.8,2.6-8.5,0.6-12.3-2c-4.3-2.9-8.7-5.6-12.6-9
			c-4.2-3.6-6.2-1.9-9.5,1.6c-8.4,9-16.9,17.9-26.3,25.7c-5.3,4.4-10.7,8.1-15.1,13.8c-2.4,3.1-5.1,5.7-8,7.8h171.5
			c-3.1-2.1-5.7-4.8-7.1-8.7c-0.6-1.6,0.5-4.4,1.7-5.8c5.9-6.6,8.5-14.3,8.2-22.9c-0.6-16.1-0.9-32.3-2.8-48.3
			c-4.2-36.4-3.6-72.4,4.6-108.2c0.6-2.7,1.6-5.4,2.6-8.1c0.9-2.6,2-5.2,3.2-8.4c-18.8,1.8-32-6.5-32.2-30.8
			c-8.5,1.2-16.9,2.9-25.5,3.6c-14.3,1.2-28.6,1.5-42.9,2.7c-10.3,0.9-19.8,4.2-27.6,11.3c-19.9-11-41.4-13-63.1-12.3
			c-13.9,0.5-27.9,2.2-41.7,4.5c-17.1,2.9-33.9,0.4-50.8-0.6c-13.2-0.8-26.5-0.6-39.8-0.7c-1.8,0-3.6,0.8-5.3,1.4
			c-7.7,2.6-7.7,2.7-10.9-4.9c-1.4-3.3-2.6-6.8-4.1-10.9c-2.3,1.3-4.8,2.1-6.4,3.7c-10.1,9.9-21.9,11.3-35.1,8.7
			c-19.8-3.9-39.8-2.7-59.7-0.4c-11.7,1.4-23.5,4-35.2,3.9c-12.2-0.1-24.6-1.7-36.5-4.5C428.8,47,398,47.8,367,55
			c-15,3.5-30.3,5.4-45.5,1.6c-4.6-1.1-8.9-3.3-13.1-5.8c20.2,7.6,40.6,5.1,60.6,0.5c31.3-7.2,62.4-7.6,93.4,0.6
			c19.3,5.1,38.5,4.2,57.9,1.4c25.8-3.8,51.7-5.1,77.6,0.1c7.7,1.5,14.9,0,21.3-4.7c3.2-2.3,6.7-4.3,10.2-6.3
			c2.9-1.7,4.9-0.9,6.2,2.3c1.8,4.4,4.1,8.6,6.2,13.2c17.1-7.9,34.3-4.7,51.2-2.8c23.2,2.6,46.1,1.7,69.1-1.9
			c21.9-3.4,43.9-3,65.5,2.4c6.7,1.7,13.1,4.6,20.4,7.2c12.8-10.7,29.6-11.1,46.2-12.3c15.2-1.1,30.5-2.5,45.7-4
			c2.9-0.3,5.7-1.5,8.6-2.2c-4.4,26.3,15.6,37.3,33.1,30.5c0.1,0.5,0.4,1,0.2,1.3c-10.2,19.7-12,41.3-14,62.9
			c-2.5,26.3,1.1,52.2,3.4,78.2c1.2,13.9,1.1,27.9,0.4,41.8c-0.3,5.2-3.3,10.7-6.3,15.3c-3.6,5.8-4,7.5,1.3,12.2
			c1.4,1.3,3,2.4,4.5,3.6h52.7V-0.3H-0.1v284.9c11,1.6,22,3.5,33,5.7H58.5z M813.3,284.7c6.2-7.1,7.8-6.9,17.7,1.8
			C824.4,283.9,819.2,280.6,813.3,284.7z M828.3,272.8c3.6-3.2,6.7-5.8,10.1-8.8c2,1.8,3.8,3.5,4.9,4.4
			C838.8,269.7,834.1,271.1,828.3,272.8z M850.9,249.7c2.3,1.8,4.5,3.6,6.7,5.3c-4.7,0.3-9,0.5-13.9,0.8
			C846.3,253.6,848.5,251.8,850.9,249.7z M856,276.7c6.7-6.6,8.5-6.7,14.8-0.8C866.2,276.2,860.8,276.5,856,276.7z M300.5,181.6
			c1.7,2.6,0.5,5.4-3.2,6.5c0.2-2,0.4-3.5,0.5-5.1c-0.5-0.1-1-0.2-1.5-0.3c-0.6,1.7-1.2,3.3-2.1,5.7c-0.8-1.5-1.3-2.4-1.8-3.2
			c-1.7,1.7-3.4,3.3-5.1,5c-0.6-0.6-1.2-1.1-1.7-1.7c2.7-2.8,5.1-6.1,8.3-8.2C295.3,179.4,299.5,180.2,300.5,181.6z M266.4,190.5
			c-0.8-4.2,0.8-7.6,3.4-10.7c2.4-2.8,5.4-3.8,8.9-2.7c4.3,1.3,6.5,5.5,5,9.3c-1.7,4.3-6.4,5.9-11.3,3.3c1.6-2.3,3.2-4.5,5.3-7.6
			C271.2,182.6,269.3,186.9,266.4,190.5z M275.8,175.1c-5.5,0-8.5,3.9-10.7,8.4c-1.1,2.2-2,4.5-2.8,6.4c-7.2,2.2-5.9-4.6-8.8-8.4
			c-0.7,2.2-0.9,3.8-1.7,5c-0.6,0.9-2.1,2-2.8,1.8c-0.9-0.3-2.1-1.9-2-2.7c0.6-4.7,1.3-9.3,7.2-11.1c3.3-1,6.3-3.6,9.2-5.8
			c5.2-4,10.2-3.7,15,0.9c2.1,2.1,4.5,4,6.8,5.8c2.8,2.1,4.1,4.4,1,8C284.3,178.3,281,175,275.8,175.1z M277.7,159.6
			c-0.2,3-0.9,5.4-4.3,4.7c-3.2-0.7-8.7,2.9-8.9-4.4c2.3-0.8,6.6,0.6,5.9-3.2c-2.6-1.2-4.5-2-6.3-3.1c-0.2-0.1,0.6-2.7,0.9-2.7
			c1.5,0,3,0.5,4.6,0.9c0.9-0.5,2.2-1.5,3.6-1.8c0.4-0.1,2,1.6,1.8,2.3c-0.3,1.9-1.2,3.8-2.2,6.3
			C274.1,158.8,275.8,159.2,277.7,159.6z M280.1,149.5c1.3,1.7,2.3,3.2,4.4,6c-2.7,0.1-5.5,0.9-6.2,0
			C276.8,153.6,276.2,150.8,280.1,149.5z M253.5,103.4c0.8-0.8,0.3-3.2,0.2-4.8c-0.4-10.4,13.7-22.5,23.8-16
			c-8.2-0.3-14,2.6-17.1,9.7H280c-1.5-4.3-3-4.9-10.9-5c3.6-2.7,7.7-2,14.6,2.4c6.8,4.4,8.3,8.6,6.4,17.6c6,5,7,10.4,3.5,19.6
			c-3.3,8.8-10.3,7.2-17.3,5.6c-0.2,0.4-0.5,0.7-0.7,1.1c2.9,3.9,5.8,7.7,8.7,11.6c0.5-0.3,1.1-0.7,1.6-1c-0.7-1.7-1.4-3.3-2.1-5
			c6.9-1.2,9,1.2,7.6,7.7c-3.7,0.7-7.2,1.6-10.7,1.8c-1.5,0.1-3-1.5-4.7-2.3c-3.9,3.2-4.3,3.1-7.3-2.2c-2.9,5.2-9.1,6.2-13.2,2.8
			c-1.8,0.4-3,0.6-4.2,0.8c0.2-2.7,0.4-5.5,0.6-8.2c2.6,0.4,5.2,0.7,7.7,1.1c0.3,0.7,0.6,1.4,1,2.2c2.5-3.7,4.3-8.6,7.8-10.8
			c5.4-3.4,2.3-8,4.2-12c0.5,3.1,0.9,6.2,1.4,9.6c3.9-1.1,3.6-3.7,2.9-6.6c-0.9-4-5.2-5.5-7.2-4.6c-5.1,2.2-2.8,7.3-2.4,11.7
			c-3.9,1.6-7.3,5.8-12.1,2.7c3.2-1.6,6.3-3.1,9.4-4.7c-0.3-0.4-0.5-0.8-0.8-1.2c-6.3,5.5-12.4,3.7-13.6-4.8
			C249.4,115.8,247.9,108.9,253.5,103.4z M246.8,139.2c0.5,0.2,1,0.4,1.5,0.6c0.6,2.6,1.2,5.2,1.8,7.9c-0.3,0.3-0.6,0.6-1,0.9
			c-1.3-1.6-3.2-3-3.8-4.8C244.9,142.5,246.2,140.7,246.8,139.2z M198.7,98c7.9,1.7,15.4,3.2,22.7,4.7c0.7,3.1,1.4,6.4,2.1,9.3
			c-8,0.4-16.1,0.8-24.8,1.3C202.7,108.7,201.9,103.5,198.7,98z M189.7,102.2v12.5c-9.3-1.2-18.6-2.4-27.6-3.6
			c3.1-3.7,2.7-8.7-0.1-13.3C171,99.2,180.1,100.6,189.7,102.2z M152.1,136c-1.2-6-2.1-12.3-10.1-13.3c-0.4,0-0.8-0.9-0.8-2.9
			c17.2,1.2,34.4,2.5,51.7,3.7c-1.8-8.1-0.8-34,2.1-37.3v37.2c16.3,0.7,32.1,1.3,47.9,2l-0.1,2.5c-15.2-0.5-30.4-1-45.6-1.5
			c0,0.3,0,0.6,0,0.9c13.9,0.6,27.7,1.1,41.8,1.7c-8.9,16.7-4.7,31.8,4.6,46.5c1.1,1.8,1.2,4.2,1.8,6.3c-1.5-0.1-3.3,0.4-4.5-0.2
			c-9.8-5.2-20.1-8.7-31.2-9.3c-5.4-0.3-10.9,0-16.7,0c4.7-4,10.2-3.4,15.5-3.1c10.6,0.6,20.6,3.3,30,8.2c-4.1-2.2-8-5.3-12.4-6.4
			c-8.5-2-17.3-2.8-25.9-4.1c7.9-7.4,11.5-16.6,4.9-27.6c-5.4-8.9-13.4-13.1-23.9-12.1c3.6,1.2,7.3,2.1,10.8,3.6
			c12.1,5,17,17.8,10.6,28.2c-1.6,2.6-4.9,4.8-7.9,5.7c-16.2,4.9-32.5,9.3-48.7,14c-1.2,0.3-2.3,1.3-3.2,2.4
			c8.7-2.8,17.3-5.9,26-8.4c8.9-2.5,17.9-4.5,27.3-5.7c-4.3,2-8.4,4.5-12.9,5.8c-13.3,4-26.8,7.6-40.2,11.3
			c-2.7,0.7-5.3,1.6-7.8,2.3c4-6.5,8.3-12.8,11.9-19.4C152.2,157.3,154.2,146.9,152.1,136z M197,175.2v15.7h-7.5v-15
			C192.2,175.7,194.4,175.5,197,175.2z M253.4,280.2c4.7-3.8,7.5-3.8,10.7,0H253.4z M267.3,266.5c3.8-3.8,6-3.6,10.2,0.7
			C274.1,267,270.8,266.7,267.3,266.5z M278.2,253.3c-6.2-3-12.6-5.8-18.7-9.2c-3.8-2.1-6.2-1.9-9.3,1.5
			c-9.5,10.4-20.9,17.9-35.1,20.6c-9.8,1.9-18.9,0.8-26.8-5.7c-5.4-4.5-10.8-8.9-16-13.6c-2.2-2-3.8-2.6-6.4-0.8
			c-3.1,2.1-6.8,3.5-9.9,5.7c-4.4,3.2-7.8,2-11.3-1.5c-4.1-4.2-8.6-7.9-12.5-12.2c-2.4-2.7-4.3-2.5-7.3-1.1
			c-11.7,5.5-23.5,10.9-35.5,15.8c-4.3,1.8-9.3,2.1-14,2.7c20.3-4.3,36.9-16.5,54.5-25.6c7.2,6.8,14,13.3,21.2,20.1
			c4.8-2.8,10.2-5.9,15.5-9.3c2.4-1.6,3.9-1.4,5.9,0.7c5.8,5.9,11.9,11.6,17.9,17.4c6.4,6.1,13.8,7.2,22.2,5.4
			c14.5-3.1,25.5-11.7,35.3-22.2c5.1-5.5,5.2-5.4,11.7-1.4c6.3,3.9,12.6,7.9,19,11.9C278.6,252.7,278.4,253,278.2,253.3z
			 M132.7,202.5c0-0.7,0-1.4,0-2c4.4,0.2,8.8,0.5,13.3,0.7c0,0.6-0.1,1.3-0.1,1.9C141.5,202.9,137.1,202.7,132.7,202.5z M177,204.9
			c10.9-0.5,21.4-1.1,32-1.6C198.6,207.6,188,209.8,177,204.9z M218.9,208.9c-1.9,3.9-7,4.5-12.8,1.1
			C210.8,209.6,214.8,209.3,218.9,208.9z M183,211.4c-0.1,0.5-0.1,1-0.2,1.6c-4.5-0.4-8.9-0.7-13.4-1.1c0-0.7,0.1-1.3,0.1-2
			C174.1,210.4,178.5,210.9,183,211.4z M160.5,198.1c0-0.5,0-0.9,0-1.4c12.7,0.9,25.4,1.8,38.1,2.6
			C185.7,203.1,173.1,199.6,160.5,198.1z M166,205.7c-5.4,0.8-10.8,1.7-16.2,2.5C154.5,203.4,160.2,204.4,166,205.7z M277,214.1
			c4.5-0.4,8.8-0.8,13-1.2c0-0.5,0-0.9-0.1-1.4c-4.2,0.2-8.4,0.4-13.4,0.7c6.1-4.5,13.8-4.2,18.4,0
			C291.4,216.8,282.8,217.9,277,214.1z M364.3,265c0,0.3,0,0.6,0,1h-12.2c0-0.3,0-0.6,0-1H364.3z M354.5,255.2
			c11.7,6,23.4,4.9,34.9,5.4C380.6,264.7,360.4,261.6,354.5,255.2z M362.7,275.5c-0.1-0.6-0.1-1.2-0.2-1.8c4.5-0.5,9.1-0.9,13.6-1.4
			c0.1,0.6,0.1,1.2,0.2,1.7C371.8,274.5,367.2,275,362.7,275.5z M374.8,267.8c0-0.4,0-0.9-0.1-1.3c10.3-0.7,20.6-1.3,30.9-2.2
			c10.4-0.9,20.7-2,31.1-3c0.1,0.3,0.2,0.6,0.3,1c-3.4,0.9-6.7,2.4-10.2,2.7c-15.4,1.1-30.9,1.9-46.3,2.8
			C378.6,267.8,376.7,267.8,374.8,267.8z M408.4,287.2c0-0.6,0-1.1,0-1.7c3.7-0.2,7.4-0.4,11.2-0.6l0.1,1.7
			C415.8,286.8,412.1,287,408.4,287.2z M426.5,273.4c-9.5-0.6-19-1.9-27-2.8c6.8-1.2,15-2.7,23.6-0.4c4.8,1.3,10.3,0.2,15.5,0.2
			c0.1,0.5,0.1,1,0.2,1.5C434.7,272.4,430.5,273.6,426.5,273.4z M446.6,258c-9.7-2.6-19.1,1.3-28.6,1.3c-9.7,0-19.3,2.6-28.8-2.3
			c-3.4-1.8-8.5-0.1-12.8-0.3c-3.3-0.1-6.6-0.8-9.9-1.2c0.1-0.3,0.1-0.6,0.2-0.8c5-0.3,10.1-1.1,15.1-0.9c4.3,0.2,8.6,1.4,12.9,2.1
			c3,0.5,6,1.3,9,1.6c-0.5-2.1-0.9-3-0.7-3.8c1.4-6.4-0.8-11.2-5.5-15.6c-2-1.9-3.4-3.9-6.1-2.4c-2.8,1.6-6.1,3.1-5.6,7.3
			c0.2,2.2,0.4,4.4,0.6,6.5l-2.1,0.7c-2.1-4.9-4.3-9.8-6.2-14.2c-1.5,5.3,1.8,10,4.7,14.8c-7.6,4.8-11.6,3.2-14.8-4.7
			c-3.7-8.9-2.7-16.9,1.5-25.3c4.5-9.1,8-18.8,11.6-27.6c0.5,1.7,0.9,4.9,2.2,7.6c4.3,9.1,8.9,18.1,13.5,27.1c1.6,3.2,4,6.2,5.1,9.6
			c1.5,4.8,4,6.2,9,6.2c5.1,0.1,10.3,1.8,15.3,3.2c3.1,0.8,6,2.3,9.1,3.1c-13.8-7.7-14.8-8-29-9c-0.1-0.6-0.3-1.3-0.1-1.8
			c3.3-7.7,3.5-15.4,0.1-23.2c-0.1-0.3,0.5-1,0.7-1.5c-1.3-0.6-2.5-1.2-3.2-1.5c0.6-1.9,1.5-3.6,1.5-5.2c0.2-7.6,0.1-15.2,0.1-23.9
			c8.8,2.7,16.7,5.1,24,7.3c0.2,4.4,0.5,9,0.7,13.8c-6.5-0.7-13.8-1.6-21.5-2.4v9.4c12.4,3.9,25.2,7.9,38,11.9
			c-0.2,0.7-0.4,1.4-0.6,2c-4.8-1.4-9.7-2.7-14.5-4.1c3.5,1.7,6.9,3.4,10.5,5.1c-4,1.5-4.6,5.3-4.4,9.2c0.2,3.7-1,8.2,4.3,10.1
			c-2.1,5.1-6.2,6.5-10.9,5.7c-7.6-1.4-15.1-3.5-22.1-5.1c0.4,2,1.8,4.5,1.1,5.9c-0.9,1.8-3.2,2.9-5.6,4.8c0.9,0.1,1.8,0.1,2.8,0.1
			c6.8-0.2,13.7-0.7,20.3-2.1c8.7-1.9,17.2,1.1,26,1.2C451.1,257.2,448.6,258.5,446.6,258z M403.2,207.8c-9.3-6.4-9.2-16.6,0-21.1
			c-1.1,3.8-2.8,7.1-2.8,10.3C400.4,200.3,402,203.6,403.2,207.8z M396.2,206c-6-6.3-7-10.5-4.2-16.3c1.4-3,2.6-6.7,7.9-5.5
			C391.7,189.9,393.7,197.3,396.2,206z M387.1,199.9c-3.2-4.9-1.5-10.8,4.2-14.7C389.9,190.2,388.5,195.2,387.1,199.9z M464.8,174.9
			c10.4-7.7,9-8.2,22,1.3C478.7,174.2,472,169.7,464.8,174.9z M484.7,155c6.9-6.1,9.6-5.7,18.5,2.5
			C497.2,155.8,491.7,151.2,484.7,155z M504.8,139.1c-5.4-3.2-11-6-16.1-9.6c-3.8-2.8-6.9-2.9-10.7-0.4c-3.3,2.1-6.9,3.7-11,4.6
			c5.3-3.9,10.6-7.9,16.1-11.6c0.7-0.5,2.6,0.1,3.4,0.8c6.4,5,12.7,10.1,19,15.3C505.3,138.5,505,138.8,504.8,139.1z M470.4,102.8
			c3.6-3,7-4.6,10.9-4.1c1.5,0.2,2.8,1.6,4.6,2.7C480.3,101.9,475.9,102.3,470.4,102.8z M492.5,113c5.6-5.2,9.3-5.4,13.8-1.4
			C501.9,112,497.7,112.5,492.5,113z M522.4,153.3c5-4,9.4-7.5,14-10.8c0.7-0.5,2.8-0.1,3.7,0.6c4,3.2,7.8,6.7,11.6,10
			c-0.2,0.7-0.3,1.4-0.5,2.1c-8.9-10.6-17.8-8.2-26.9-1.8C524.2,153.6,523.8,153.5,522.4,153.3z M512.7,127.6
			c5.1-5,8.6-4.9,11.6-0.7C520.3,127.1,516.5,127.4,512.7,127.6z M531.5,125.3c0.1-0.1,0.1-0.3,0.2-0.4c10.1-5.8,10.1-5.8,18.3,1.9
			c1.7,1.6,3.5,3.3,5,5.3C547.3,129.2,541.3,120.4,531.5,125.3z M554.4,248.8c-2,0.2-4.1-0.7-6.1-1.1c0.2,6,0.6,12,0.5,18.1
			c0,2.4-0.7,5.2-4.5,4.1c0.2-4,0.5-7.9,0.7-10.8c-4.2-1.7-7.5-3-10.8-4.4c0.5-1.2,1-2.4,1.3-3.2c1.6,1.5,2.8,2.8,4.3,3.7
			c0.2,0.1,2.4-2.2,2.2-2.4c-1-1.6-2.2-3.7-3.8-4.1c-2.5-0.6-5.3,0.3-7.9-0.1c-2.1-0.3-4.1-1.4-6.1-2.1c1.1-2,1.9-4.4,3.5-6
			c2.3-2.3,5.2-3.9,7.9-5.8c5.5-3.9,13.2-2.5,17.2,2.8c1.2,1.6,3.5,2.4,4.9,3.9c1.5,1.5,2.5,3.5,3.7,5.3
			C559.1,247.5,556.8,248.6,554.4,248.8z M592.5,235.6c-3.8-0.4-4.6-2.8-2.2-5.8c1.7,8.3,9.6,1,13.7,5.9
			C599.6,235.6,596,235.9,592.5,235.6z M629.5,235.6c-1.9,0.5-4,0.1-5.9,0.3c-0.6,0.1-1,1.2-1.5,1.9l-0.1-0.1
			c1.1,1.8,2.3,3.6,3.4,5.4c-3.5,1.2-7.1,2.5-11.1,3.9c-2,11.1-2,11.1-6.5,10.6c0.3-4.2,0.7-8.4,1.1-12.9c-3.7-0.4-7.9-0.3-6.7-6
			c2,0.8,3.8,1.6,7,2.9c-0.9-4.2-1.2-7-2-9.6c-1.2-4.1-3.8-5.8-8.3-5.1c-4.6,0.7-9.3,0.8-13.9,0.7c-1.4,0-3.5-1.1-3.9-2.2
			c-0.4-1.2,0.4-3.3,1.3-4.4c4.9-5.8,12.1-7.2,18.9-4.4c1.3,0.6,3.1,0.6,4.6,0.3c4.8-1.2,10-2.1,13.9,1.2c4.2,3.6,7.7,8.1,12.1,11.6
			C634.7,232,632.5,234.7,629.5,235.6z M638.6,173.1c1.8-1.2,3.5-2.4,5.3-3.6c6.6-4.5,6.6-4.5,12.4,2.3
			C649.6,166.4,644.5,172.9,638.6,173.1z M660.2,188.7c5-4.2,9-4.1,11.3-0.8C668.1,188.1,664.7,188.4,660.2,188.7z M671.9,153.8
			c-4.1,0.5-7.9,3.8-11.8,5.8c-0.3-0.3-0.6-0.6-0.8-0.9c4.2-3.3,8.2-6.7,12.6-9.7c0.9-0.6,3.2-0.4,4.2,0.3c3.1,2.2,5.8,4.9,9.1,7.8
			C680.3,155.7,675.9,153.3,671.9,153.8z M695.4,210.9c-5.9,1.9-11.6,4.2-17.5,6.4c-0.2-4.6,5.3-4.5,7.5-7.6
			c-1.8-1.2-3.6-2.5-5.4-3.8c0.1-0.3,0.2-0.6,0.4-0.9c4.7,1.1,9.4,2.1,14.1,3.2l0.8-1.7c-7.3-4-14.5-8.1-21.8-12.1l0.7-1.4
			c1.4,0.2,2.7,0.3,4.5,0.5c-0.2-2.3-0.4-4.4-0.6-6.6c4.2,4.5,5.5,11.4,13,12.6c0.5-2.8,1-5.6,1.7-9c1.3,1.1,2,1.4,2,1.7
			c-0.4,5.9,1.4,10,7,13.4c3.5,2.2,5,7.5,8.2,12.8c-0.5-6.9-0.9-12.3-1.3-17.7c-0.2-2.3-0.4-4.7-0.4-7c0-0.9,0.8-1.8,1.3-2.8
			c0.7,0.9,2,1.8,2.1,2.7c0.8,6.3,1.3,12.6,2.1,18.8c1.2,9.7,2.6,19.4,3.7,29.2c0.1,1.3-0.9,2.7-1.4,4c-1.2-1.1-3.2-2-3.3-3.2
			c-0.9-10.3-4.1-19.7-10-28.3C700.8,211.3,698.6,209.8,695.4,210.9z M741.3,148.4c2.3-2,4.1-4.1,6.4-5.4c1.9-1.1,4.3-1.1,6.5-1.6
			c0,0,0,0,0,0c7.3-6.9,11.2-5.9,18.2,1c6.3,6.2,9.9,15,18.3,19.2c0.6,0.3,0.5,2.1,0.7,3.2c-1.2,0-2.8,0.5-3.7-0.1
			c-1.3-0.9-2-2.5-3.1-3.9c-4.1,7.1-8.6,7.7-14.6,1.5c2.9,0.5,5.1,0.9,7.3,1.2c2.8,0.4,4.6-0.8,4.3-3.9c-0.8-8.7-12.2-14-20-8.9
			c2,1.7,4,3.3,5.9,4.9c-0.1,0.5-0.2,1-0.4,1.5c-1.4-0.3-2.7-0.5-4.1-0.8c-3.5-0.7-6.9-1.8-10.4-2.1c-3-0.3-6.4,0.7-7.5-3.5
			l-0.3-0.3c-1.3,2.9-3.4,5.6-3.8,8.6c-0.6,5.2-0.2,10.6-0.2,16c1.3-0.8,2.8-1.8,3.9-2.4c0.3-2.5,0.6-4.6,0.8-6.7c0.5,0,0.9,0,1.4,0
			c0.4,1.4,0.7,2.9,1.1,4.3c5.1-2,6.8-5.7,5.5-12.2c3.9,0.4,4.2,1.4,2.6,9.5c3-2.7,5.4-4.8,7.8-7c0.9,3.5-0.2,5.7-3.9,7.8
			c-2.5,1.4-5.2,2.3-7.5,3.9c-4.6,3.1-4.2,6.1,1,8.3c0.7,0.3,1.3,0.8,1.7,1c-4,1.5-8.2,2.6-12,4.4c-3.8,1.8-5.6,5.3-5.3,9.5
			c0.7,8.6,1.9,17.2,2.3,25.8c0.4,7.9,0,15.9-0.4,23.8c-0.1,1.2-2.1,2.2-3.3,3.4c-0.5-0.4-0.9-0.7-1.4-1.1c0.3-3.1,0.9-6.2,0.9-9.2
			c0-7.6,0.7-15.4-0.5-22.8c-2.2-13.4-0.4-26.5,0.6-39.7c1.1-14.4,1.4-28.8,2.1-43.2c3.1-1.5,3.1,0.5,3,2.8
			C741.3,139.3,741.3,143.5,741.3,148.4z M795.1,193.5c-0.2,0.5-0.4,0.9-0.6,1.4c-4.3-0.7-8.7-1.3-12.9-2.3
			c-0.7-0.2-1.7-1.6-1.7-2.5c-0.2-3.6-0.1-7.2-0.1-11.1c4,0.2,7.4,0.4,11.3,0.7C788.9,185.3,790.6,189.8,795.1,193.5z M778.8,196.1
			c-0.1,1.5-1.1,3-1.7,4.5v-26.7c0.6,0,1.2,0,1.8,0c0,3.6,0,7.2,0,10.8C778.8,188.5,779.1,192.3,778.8,196.1z M760.1,177.3h15
			c-0.2,5.3-0.5,10.3-0.7,14.9c-5.5-0.7-11.3-1.4-17.3-2.2C761,187,762.9,182.9,760.1,177.3z M733.7,131.6
			c-4.4-4.8-9.1-5.3-14.4-1.6c-0.5,0.3-1.1,0.4-2.1-0.1c2.9-2.1,5.6-4.4,8.6-6.2c0.9-0.5,2.9-0.1,3.7,0.6c3,2.5,5.7,5.3,8.5,7.9
			C736.5,132.1,734.4,132.4,733.7,131.6z M733.3,144.8c-4.5,11.5-37.1,28.4-46.2,23.2c8.5-3.2,17.1-5.7,24.9-9.7
			C719.8,154.5,726.7,149.1,733.3,144.8z M728.7,176.7c-2.6,5.4-4.2,10.8-1.1,16.5c0,0,0,0-0.1,0c1.3,7.3,3,14.6,3.7,22
			c0.2,2.6-2.6,5.2-3.2,8.1c-0.9,4.5-1,9.1-0.4,13.8c0.4-3.8,0.9-7.5,1.3-11.3c0.4,0,0.7,0.1,1.1,0.1c-0.4,5.9-0.9,11.8-1.4,18.8
			c-1.2-1.5-2.1-2.1-2.4-3c-2.5-6.8-2.7-13.7-1-20.6c2.6-10.6,0.3-20.8-2.8-30.8c-1.4-4.5-6.8-7.7-11.7-7.7c-1.7,0-3.5,0-6.3,0
			c3.3-2.2,5.5-3.7,8.1-5.5c2.7,2,5.8,4.4,9.5,7.1c2.4-7.7-0.6-12.8-6.6-16.9c0.3-0.3,0.6-0.6,0.9-0.9c1.2,0.3,2.4,0.6,3.6,0.9
			c0.2-1.4,0.4-2.8,0.7-4.3c0.5-0.1,1-0.3,1.5-0.4c1.2,3.9,2.4,7.9,3.8,12.6c1.9-3.4,3.5-6.3,5.1-9.2c0.6,0.3,1.2,0.5,1.8,0.8
			C731.3,170.1,730.2,173.5,728.7,176.7z M730.9,181.1c-0.5,4.2-0.9,8.5-1.4,13c-0.6-0.3-1.2-0.5-1.9-0.8c0.5-4.1,1-8.3,1.5-12.4
			C729.7,180.9,730.3,181,730.9,181.1z M699.7,146.2c7.5-7.5,11.1-7.2,16.2,1.4C711.2,143,705.9,143.9,699.7,146.2z M685.6,135.7
			c8.1-5.6,10.4-5.3,15.3,2.2C696.3,133.5,691,134.4,685.6,135.7z M728.5,261.5l-13.8-2c0.1-0.6,0.3-1.2,0.4-1.9
			c4.5,0.7,9.1,1.4,13.6,2.1C728.7,260.3,728.6,260.9,728.5,261.5z M755.8,262.9c-7.3-4.3-15.2,2.2-22.4-2.9H756L755.8,262.9z
			 M761.8,255.4c-7.7-0.3-15.4-0.1-23.3-0.8c3-0.7,5.9-2.1,8.9-2c7.2,0.2,14.4,0.9,21.6,1.7c1.1,0.1,2.1,1.8,3.2,2.9
			C768.7,256.5,765.3,255.5,761.8,255.4z M785.3,258.2c-2.7,0.6-5.5,1.6-8.2,1.5c-1.5,0-2.9-1.4-4.3-2.3c1.5,0.2,3.1,0.4,4.5,0.8
			c2.9,0.8,3.2,0.7,6-2.1c0.3-0.3,1.7-0.3,1.7-0.2C785.2,256.6,785.4,258.2,785.3,258.2z M792.9,248.7c-2.6,0.5-5.5,0.1-7.8,1.1
			c-6.3,2.5-12.3,0.8-18.5,0.2c-7.4-0.6-15,0.9-22.6,1.1c-5.8,0.2-11.5-0.3-17.3-0.5c-2.8-0.1-5.6-0.4-8.3-0.3
			c-6.8,0.2-13.7,1.2-19.4-2.2c7.3-0.5,15-1.1,22.7-1.6c1.3-0.1,2.8-0.2,3.9,0.2c9.3,3.9,18.4,2.4,27.8,0.4c4.4-1,9.5-1.6,13.6-0.2
			c9.5,3.1,18.4-0.9,27.5-0.9c4.2,0,8.4-1.3,12.7-2c0.1,0.4,0.2,0.9,0.3,1.3C802.6,246.4,797.8,247.7,792.9,248.7z M771.8,239.3
			c0.2-1.9,0.8-3.8,1.2-5.7c1.8-1.1,3.6-2.3,5.2-3.4v16.4C772,247,771.3,243.5,771.8,239.3z M804.1,225.8c0.4,3.6,1.4,7.1-2.4,9.3
			c-3.8,2.3-7.4,0.9-10.8-1.2c-1.1-0.7-2.1-1.6-3.4-2.6c-2.1,2.7-4.1,5.4-6.1,8.1c3.5-9.8-0.7-18.6-3.5-27.6
			c0.2,2.4,0.5,4.9,0.5,7.3c-0.1,2.8,0.1,5.8-0.9,8.3c-0.9,2.3-3,4.1-4.6,6c-14.5,5.4-28.4,6.6-30.1,2.9c8.8-1,17.6-2.1,26.4-3.1
			c0-0.4-0.1-0.7-0.1-1.1c-8.5,0.9-17,1.9-25.6,2.9c-1.5-11.5-2.8-22.3-4.2-33.1c17.9-2.4,29.7,3,37.1,16.3
			c-1.3-4.7-2.6-9.5-3.9-14.4c0.9,0.1,1.8,0.1,4.2,0.3c-2.9-1.3-4.6-2-7.6-3.3h7.9v-0.1c10.6,1.6,21.1,3.2,32.4,4.8
			C802,211.5,803.3,218.8,804.1,225.8z M894.9,190c-5.6-0.8-11.2-1.6-16.8-2.5c0.1-0.4,0.1-0.8,0.2-1.3c5.6,0.8,11.2,1.6,16.8,2.4
			C895.1,189.1,895,189.5,894.9,190z M913.6,187.4c2.4-3.3,5.3-3.5,11.6,0H913.6z M915,173.5c-7.7-2.2-12.2-11.3-21.5-9.1
			c6.1-9.9-1.6-17.5-3.8-26.6c12.3,0.2,23.1,4.7,35.2,8.2C915,153.2,914.7,162.9,915,173.5z M895.8,165.9v8.9
			c-2.5,0.2-5.3,2.1-5.9-2.2C889.2,168.1,891,166.1,895.8,165.9z M892.9,109.3c0.1-3.5,0-7,0-10.5c0.6,0,1.3,0,1.9,0v18.3h26.9
			c-4.1,5.8-5.4,11.9-1.8,19.1c-3.9-1.2-7.7-2.4-11.6-3.6c-3.9-1.2-7.8-2.5-12-3.9c-0.2,2.9-0.4,5.4-0.5,7.8l-1.6,0.6
			c-0.7-1.2-2.1-2.5-2-3.6c0.1-3.3,0.3-6.3-2-9.2c-0.9-1.2-0.8-4.6,0.2-5.4C893.6,116,892.8,112.6,892.9,109.3z M892.2,108
			c-1.1,1.5-1.9,3.3-3.3,4.3c-5.1,3.7-6.2,8.3-4.2,14c1,2.8,1.5,5.7,2.4,9.1C877.3,123.6,878.8,114.4,892.2,108z M888,136.5l0.4,2.6
			c-2.5,0.4-5.1,0.7-8.5,1.2c2.1,0.2,3.4,0.3,4.2,0.4c1.8,4.5,3.4,8.6,5,12.8c3,7.7,1.5,10-6.2,12.5c-4.5,1.4-8.5,4.2-12.7,6.6
			c-2.4,1.3-4.6,2.9-7.3,4c9.2-11.5,6.7-22.1-1.2-32.6h-5.3c-0.1-0.5-0.1-1-0.2-1.5C866.8,140.4,877.4,138.5,888,136.5z
			 M872.9,175.1c2.6-0.4,5.3-0.5,7.9-0.3c5.5,0.5,11,1.6,16.6,1.8c9.5,0.3,18.9,0.1,28.6,1c-1.5,0.3-2.9,0.8-4.4,0.9
			c-9.1,0.5-18.3,1.1-27.4,1.1c-4.5,0-8.9-1.7-13.5-2.1c-3-0.3-6.2-0.2-9.1,0.7c-6.3,1.8-12.4,3.4-18.3,0.8
			C859.7,177.7,866.3,176.3,872.9,175.1z M867.9,183.5c1,0,2.1,0.4,3,0.1c11.7-4.7,23.5,3.2,35.2-0.8c-6,3.7-12.3,3.9-19.1,2.5
			c-3.7-0.8-7.7-0.5-11.6-0.6c-9.2-0.1-18.5,0-27.7,0c0-0.4,0-0.8,0-1.2C854.3,183.5,861.1,183.5,867.9,183.5z M826,122.4
			c1.4,0.6,3.2,0.9,4.6,0.6c0.7-0.2,1.1-1.9,1.8-3.3c1,0.8,2.3,2.5,3.9,2.9c1.5,0.4,3.4-0.7,5.1-1.2c0-0.5-0.1-1-0.1-1.6
			c-1.4-0.3-2.7-0.8-4.1-0.9c-7.5-0.8-7.5-0.8-4.6-8.3c-2-0.7-3.9-1.3-5.9-2c-3.9-1.5-4.5-4.3-1.5-7.2c5.5-5.3,18.7-2.7,21.8,4.3
			c1.6,3.6-0.8,6.6-5.8,6.8c-3,0.1-5.7,0-6,4.4c4.1,1.2,9.9,0.1,10.9,6.2c0.2,1.4-1.3,3.8-2.6,4.7c-3,1.8-6.4,1.6-10.6-0.7
			c10.6-0.7,10.6-0.7,11.4-5.2c-5.3,4.7-11.6,2.6-17.5,3.1c-1.2,0.1-3.4-1.7-3.5-2.7c-0.1-1.3,1.6-2.7,3.1-4.9
			C826.1,120.1,825.6,122.3,826,122.4z M740.3,101.2c3.5-1.2,5.4-0.6,7.6,2c10.6,12.1,21.8,23.6,37.5,28.9
			c7.7,2.6,15.6,4.3,24.1,6.6c-18.8-0.1-34.8-5.8-48.6-17.4c-5.2-4.4-10-9.3-14.9-14.1c-1.8-1.9-3.3-2.5-6-1.6
			c-26.9,8.7-53.8,17.1-80.7,25.8c-2.3,0.7-4.3,2.8-6.1,4.6c-6.5,6.8-12.6,14.2-19.5,20.6c-3.6,3.3-8.6,5.1-13,7.6
			c-0.3-0.5-0.5-0.9-0.8-1.4c2-1.3,4.1-2.5,6.1-3.8c9.7-6.3,16.8-15.1,23.2-24.5c2.6-3.8,5.8-5.9,10.2-7.3
			C686.6,118.8,713.5,110.1,740.3,101.2z M624.9,105.4c2.7-1.4,5.8-1.8,9.2-2.7c-1.3-1.3-2.7-2.6-4.1-3.9c-2.7-2.5-2.5-5.2-0.4-8
			c4.9-6.3,14.3-5.5,18.3,1.3c0.6,1.1,2.2,1.6,3.2,2.6c1.6,1.6,3.1,3.4,4.6,5.2c-0.4,0.4-0.7,0.9-1.1,1.3c-4.7,0.4-9.4,0.8-14.1,1.2
			c-0.1-0.4-0.2-0.8-0.2-1.1c4-0.7,8-1.3,12.3-2.1c-3.2-4.5-8.8-4.7-17.3-1c3.4,6.7,4.4,6.9,11.4,5.9c4.2-0.6,8.6-0.3,12.8,0.5
			c3.7,0.7,6.5,3.5,5.4,7.6c-1.1,4.2-4.9,4.3-8.6,3.8c-0.7-0.1-1.3-0.2-1.9-0.4c-4.8-1.7-7.5,0.6-9.4,4.8c-1.4,3.2-3.2,6.4-4.7,9.5
			c-0.7-0.2-1.4-0.4-2.1-0.6c-0.4-2.9-0.8-5.7-1.2-8.6c-0.8-5.4-2.9-6.9-8.1-5.4c-3.6,1-7.9,2.7-9.7-1.6
			C617.1,109.2,621.6,107.1,624.9,105.4z M607.3,164.2c9.6,8.2,19,16.2,29.2,24.9c-11.5-3.9-19.6-11.4-28.5-18.6
			c-20.9,18.2-43.4,32.7-73,30.5C564,198.6,586.6,183.9,607.3,164.2z M438.7,102.8c16.6-8,33.8-14.7,50.7-22.2
			c2.7-1.2,4.3-0.4,6,1.5c4.7,5.4,9.5,10.7,14.7,16.4c5-1.7,10.2-3.6,15.6-5.2c1.4-0.4,3.6-0.4,4.5,0.4c8.4,7.6,17.4,14.2,28.5,16.9
			c10.6,2.6,21.4,4.3,32.3,6.8c-7.4-0.4-14.8-0.1-22.1-1.2c-14.6-2.1-27.9-7.3-39.3-17c-1.1-0.9-3.3-1.1-4.9-0.8
			c-3.4,0.8-6.7,2-9.9,3.3c-4,1.7-7,0.4-9.8-2.5c-3.5-3.8-7.2-7.5-10.4-11.4c-2.2-2.7-4.3-3.4-7.6-2c-17.5,7.7-35.2,14.9-52.6,22.8
			c-10.7,4.9-21.5,8.9-33.4,9.5c-1.3,0.1-2.7,0.1-4,0.1c-0.8,0-1.6-0.3-2.4-0.4C410.5,116.1,424.6,109.6,438.7,102.8z M424,134.2
			c4-2.5,6.6-2.5,10.3,0.6c7.8,6.5,16,12.4,24.1,18.5c-0.2,0.4-0.4,0.8-0.7,1.2c-6.5-3.8-13.7-6.7-19.3-11.5
			c-6.6-5.6-11.5-5.9-19.3-1.4c-21.7,12.5-45.3,18.9-70.5,18c-1.6-0.1-3.3-0.2-5-1c0.6-0.2,1.2-0.5,1.9-0.5
			C374,158,400,149.2,424,134.2z M334.7,104.6c2.9-1,6.1-1.2,10.4-1.9c-0.5-3-1.5-6.2-1.5-9.4c0.1-2.9,0.6-6.3,2.2-8.7
			c1.9-3,5.4-2.1,5.5,1.4c0.1,3.8-1.3,7.7-2.3,11.4c-0.6,2.3-1.8,4.5-2.8,7c-3.5,0.7-7.4,1.6-11.4,2.4c0,0.6,0,1.2,0,1.7
			c1.1,0.4,2.2,1.1,3.3,1.1c5.6,0.1,11.3,0.2,16.9,0.1c1.1,0,2.1-1,3.1-1.6c-0.9-1.1-1.5-2.6-2.6-3.1c-2-0.9-4.3-1.1-6.3-2.4
			c3.9-0.8,7.6-0.4,10.5,2.4c2.5,2.4,1.3,6.4-2.3,6.7c-7.4,0.5-14.9,0.2-22.3-0.1c-1.1-0.1-2.9-2.1-2.9-3.3
			C332,107,333.5,105,334.7,104.6z M324.5,227.4c-6.3-0.4-11.1-0.7-15.9-1C313.7,223.9,318.7,223.1,324.5,227.4z M313,189.3
			c0.6-0.1,1.2-0.2,2.3,0.8c-1.9,0.8-3.7,2-5.7,2.4c-18,4.3-36.2,4.8-54.5,2.6c-4.8-0.6-9.6-1-14.4-1.4c-4.2-0.3-7.9-0.2-12.1,2.4
			c-4.2,2.7-10,2.8-15.6,4.1c1.9,0.4,3.6,1,5.2,1c10.1,0.2,20.4-0.9,30.2,0.9c9.1,1.7,16.8-2,25.1-2.5c8.8-0.6,17.8,1.8,26.7,3.8
			c-11.7,6.1-24.3,4.2-36.5,5.7l-0.2-1.7c8.7-1.2,17.5-2.4,25.4-3.4c-8.1-1.8-16.9-1.7-25.7,1c-2.3,0.7-4.9,0.9-7.4,0.9
			c-5.7-0.1-11.4-0.6-17.2,0.3h9.4c-2.3,3.6-7.5,4.2-11.2,0.7c-2.9-2.8-5.7-3.3-9.4-2.5c-6.3,1.3-14.2-0.8-21.3-5.4
			c9.1-2,16.9-3.7,25.8-5.7c-7.5-3-14-1.3-20.4,0.1c-11.3,2.5-22.6,5-33.9,1.1c-7.6-2.6-15.1-2-22.7-1.5c-6.6,0.5-13.3,1-19.9,1.4
			c-1.7,0.1-3.4-0.3-5.1-1.4c13.1-1.3,26.3-2.7,39.4-3.9c1.9-0.2,4.1,0.4,5.8,1.2c7.7,3.8,15.9,4.6,23.8,2.3
			c15.6-4.5,31.2-4.1,46.9-1.6C268.1,194.5,290.6,194.2,313,189.3z"/>
		<path class="st1" d="M304.4,290.3h2.8c-0.1-0.4-0.2-0.7-0.3-1.1c-1.2-5.5-4.9-9.3-10.3-11.1C300.3,281.6,303.8,285.2,304.4,290.3z
			"/>
		<path class="st1" d="M278.3,290.3c-1-0.9-2-1.8-3-2.7c0.6,0.9,1,1.8,1.5,2.7H278.3z"/>
		<path class="st1" d="M238.3,177.3c-4.1-2.2-8-5.3-12.4-6.4c-8.5-2-17.3-2.8-25.9-4.1c7.9-7.4,11.5-16.6,4.9-27.6
			c-5.4-8.9-13.4-13.1-23.9-12.1c3.6,1.2,7.3,2.1,10.8,3.6c12.1,5,17,17.8,10.6,28.2c-1.6,2.6-4.9,4.8-7.9,5.7
			c-16.2,4.9-32.5,9.3-48.7,14c-1.2,0.3-2.3,1.3-3.2,2.4c8.7-2.8,17.3-5.9,26-8.4c8.9-2.5,17.9-4.5,27.3-5.7
			c-4.3,2-8.4,4.5-12.9,5.8c-13.3,4-26.8,7.6-40.2,11.3c-2.7,0.7-5.3,1.6-7.8,2.3c4-6.5,8.3-12.8,11.9-19.4c5.1-9.6,7.2-20,5-30.9
			c-1.2-6-2.1-12.3-10.1-13.3c-0.4,0-0.8-0.9-0.8-2.9c17.2,1.2,34.4,2.5,51.7,3.7c-1.8-8.1-0.8-34,2.1-37.3c0,12.8,0,24.8,0,37.2
			c16.3,0.7,32.1,1.3,47.9,2c0,0.8-0.1,1.6-0.1,2.5c-15.2-0.5-30.4-1-45.6-1.5c0,0.3,0,0.6,0,0.9c13.9,0.6,27.7,1.1,41.8,1.7
			c-8.9,16.7-4.7,31.8,4.6,46.5c1.1,1.8,1.2,4.2,1.8,6.3C242.9,180.3,240.6,178.8,238.3,177.3z M237.5,172.3
			c-5.5-11.1-6.5-22.9-5.9-35.1C229.1,149.7,230.9,161.4,237.5,172.3z M145.7,176.7c0.5,0.3,1,0.6,1.5,0.9c2.2-4,4.3-7.9,6.5-11.9
			c-0.4-0.2-0.8-0.4-1.1-0.7C150.2,169,148,172.8,145.7,176.7z"/>
		<path class="st1" d="M367,55c31-7.3,61.8-8,92.9-0.5c11.9,2.8,24.3,4.4,36.5,4.5c11.7,0.1,23.5-2.5,35.2-3.9
			c19.9-2.3,39.9-3.5,59.7,0.4c13.3,2.6,25.1,1.2,35.1-8.7c1.7-1.6,4.1-2.4,6.4-3.7c1.5,4.1,2.7,7.6,4.1,10.9
			c3.2,7.6,3.3,7.6,10.9,4.9c1.7-0.6,3.5-1.4,5.3-1.4c13.3,0.1,26.6-0.1,39.8,0.7c16.9,1,33.7,3.4,50.8,0.6
			c13.8-2.3,27.7-4,41.7-4.5c21.7-0.7,43.2,1.3,63.1,12.3c7.7-7.1,17.3-10.4,27.6-11.3c14.3-1.2,28.6-1.5,42.9-2.7
			c8.5-0.7,17-2.4,25.5-3.6c0.2,24.4,13.4,32.6,32.2,30.8c-1.2,3.1-2.3,5.7-3.2,8.4c-0.9,2.7-1.9,5.3-2.6,8.1
			c-8.3,35.8-8.8,71.8-4.6,108.2c1.8,16,2.1,32.2,2.8,48.3c0.3,8.6-2.3,16.4-8.2,22.9c-1.3,1.4-2.3,4.2-1.7,5.8
			c1.4,3.8,4,6.5,7.1,8.7h5c-1.5-1.2-3.1-2.3-4.5-3.6c-5.2-4.7-4.9-6.4-1.3-12.2c2.9-4.7,6-10.1,6.3-15.3c0.7-13.9,0.8-28-0.4-41.8
			c-2.3-26.1-5.8-52-3.4-78.2c2-21.6,3.8-43.1,14-62.9c0.2-0.3-0.1-0.8-0.2-1.3c-17.5,6.8-37.5-4.2-33.1-30.5
			c-2.9,0.8-5.7,1.9-8.6,2.2c-15.2,1.5-30.4,3-45.7,4c-16.6,1.2-33.4,1.6-46.2,12.3c-7.3-2.6-13.7-5.5-20.4-7.2
			c-21.6-5.5-43.6-5.8-65.5-2.4c-23,3.6-45.9,4.5-69.1,1.9c-16.9-1.9-34.1-5.1-51.2,2.8c-2.2-4.6-4.4-8.8-6.2-13.2
			c-1.3-3.2-3.3-4-6.2-2.3c-3.5,2-7,3.9-10.2,6.3c-6.5,4.7-13.7,6.2-21.3,4.7c-25.9-5.1-51.8-3.8-77.6-0.1
			c-19.4,2.8-38.6,3.7-57.9-1.4c-31-8.3-62.1-7.9-93.4-0.6c-20,4.6-40.4,7.1-60.6-0.5c4.2,2.5,8.5,4.6,13.1,5.8
			C336.7,60.4,352,58.5,367,55z"/>
		<path class="st1" d="M496.8,290.3c7.9-4.2,16.5-6.8,25.5-8.2c9.5-1.4,19-2,29.3,1.3c-3.8,2.1-6.7,3.7-9.6,5.3
			c6.3-1.7,11.8-4.8,17.6-6.9c21.1-7.3,42.9-6.8,64.7-5.6c9.6,0.5,19.2,0.8,28.4,4.6c8.1,3.3,16.2,6.5,24.3,9.6h8.5
			c-4.2-1.7-8.5-3.4-12.7-5.1c-16.2-6.7-32.6-12-50.5-12.3c-18.4-0.3-36.7-0.6-54.7,3.6c-8,1.8-15.7,5.2-24.1,2.3
			c-0.6-0.2-1.3-0.1-2-0.1c-18.4-1-35.5,2.9-51.3,11.7H496.8z"/>
		<path class="st1" d="M431.5,222c3.5,1.7,6.9,3.4,10.5,5.1c-4,1.5-4.6,5.3-4.4,9.2c0.2,3.7-1,8.2,4.3,10.1
			c-2.1,5.1-6.2,6.5-10.9,5.7c-7.6-1.4-15.1-3.5-22.1-5.1c0.4,2,1.8,4.5,1.1,5.9c-1,1.9-3.5,3.1-6.2,5.1c-0.5-2.4-1-3.4-0.8-4.3
			c1.4-6.4-0.8-11.2-5.5-15.6c-2-1.9-3.4-3.9-6.1-2.4c-2.8,1.6-6.1,3.1-5.6,7.3c0.2,2.2,0.4,4.4,0.6,6.5c-0.7,0.2-1.4,0.4-2.1,0.7
			c-2.1-4.9-4.3-9.8-6.2-14.2c-1.5,5.3,1.8,10,4.7,14.8c-7.6,4.8-11.6,3.2-14.8-4.7c-3.7-8.9-2.7-16.9,1.5-25.3
			c4.5-9.1,8-18.8,11.6-27.6c0.5,1.7,0.9,4.9,2.2,7.6c4.3,9.1,8.9,18.1,13.5,27.1c1.6,3.2,4,6.2,5.1,9.6c1.5,4.8,4,6.2,9,6.2
			c5.1,0.1,10.3,1.8,15.3,3.2c3.1,0.8,6,2.3,9.1,3.1c-13.8-7.7-14.8-8-29-9c-0.1-0.6-0.3-1.3-0.1-1.8c3.3-7.7,3.5-15.4,0.1-23.2
			c-0.1-0.3,0.5-1,0.7-1.5C415.2,217.1,423.4,219.6,431.5,222z"/>
		<path class="st1" d="M54.9,106c0.5,11,0.3,22.1,2.4,32.8c2.9,14.9,3.7,29.7,1.7,44.7c-1.8,13-4,26-5.6,39
			c-1.1,8.7-5.6,18.5,7.1,23.8c-3.9,2.3-6.9,4-10.6,6.1c2.8,1.7,4.5,2.7,5.3,3.2c-0.8,5.2-2.1,9.6-2,14.1c0,3.6,1.3,7.2,2.5,10.6
			c1.1,3.3,2,6.6,2.9,9.9h3c-1.1-4.4-2.2-8.7-3.2-13.1c-1.8-7.5-4.1-15,3.2-21.6c-2.3-1.8-4.1-3.2-5.9-4.6c3.2-1.3,6.3-2.6,10.2-4.2
			c-2.2-1.7-3.3-2.8-4.6-3.4c-4.7-2.5-6.4-5.9-5.4-11.5c1.9-10.5,3.2-21,4.7-31.6c2.3-16.5,4.9-33,2.5-49.7
			c-1.3-8.9-3.2-17.7-3.9-26.6c-1.4-15.9,1-32.4-8.9-47.3c9.3,1.1,17.2,0,23.8-5.9c6.5-5.8,8.6-13.4,8.7-22.1
			c15.7,8.8,31.8,8.4,47.8,5.4c20.4-3.8,40.8-4.7,60.8,1c19,5.4,37.5,4.8,56.6,0.3c11.5-2.7,23.7-2.6,35.6-3.5
			c5.7-0.4,11.5-0.1,17.4-0.1c-0.3,1.9-0.6,4.5-1,7.1c0.4,0.1,0.8,0.2,1.2,0.3c1.4-4.5,7.1-7.6,4.5-14.3c-2.3,1.3-3.8,2.7-5.7,3.2
			c-2.9,0.9-6.1,2.3-9,1.8c-13.4-2.2-26.7-1.9-39.6,1.7c-21.4,5.9-42.5,6.2-63.9,0c-13.5-3.9-27.5-4.8-41.6-2.8
			c-8.2,1.1-16.4,2.5-24.7,3.5c-11.9,1.3-23.6,0.7-34.4-5.4c-2.8-1.6-5.4-3.6-9.1-6.1C80.2,52.1,79.5,62,70.3,69
			c-9.1,6.9-19,5.2-29.8,0.5c3,3.9,5.4,6.4,7.2,9.4C52.8,87.1,54.4,96.4,54.9,106z"/>
		<path class="st1" d="M773,233.5c-14.5,5.4-28.5,6.7-30.2,2.9c8.8-1,17.6-2.1,26.4-3.1c0-0.4-0.1-0.7-0.1-1.1
			c-8.5,0.9-17,1.9-25.6,2.9c-1.5-11.5-2.8-22.3-4.2-33.1c17.9-2.4,29.7,3,37.1,16.3c-1.3-4.7-2.6-9.5-3.9-14.4
			c0.9,0.1,1.8,0.1,4.2,0.3c-2.9-1.3-4.6-2-7.6-3.3c3.6,0,5.8,0,7.9,0l-0.1-0.1c10.6,1.6,21.2,3.2,32.5,4.9
			c-7.5,5.8-6.2,13.1-5.4,20.2c0.4,3.6,1.4,7.1-2.4,9.3c-3.8,2.3-7.4,0.9-10.8-1.2c-1.1-0.7-2.1-1.6-3.4-2.6
			c-2.1,2.7-4.1,5.4-6.1,8.1c3.5-9.8-0.7-18.6-3.5-27.6c0.2,2.4,0.5,4.9,0.5,7.3c-0.1,2.8,0.1,5.8-0.9,8.3c-0.9,2.3-3.1,4.1-4.7,6.2
			C772.8,233.7,773,233.5,773,233.5z M779.4,205.5c-0.2,0.2-0.4,0.4-0.6,0.6c2.2,5.8,4.1,11.7,6.6,17.3c1.2,2.8,3.5,5.2,5.7,8.4
			c-2.2-5.4-3.8-9.6-5.7-13.8C783.5,213.8,781.4,209.7,779.4,205.5z"/>
		<path class="st1" d="M263.9,127c-6.3,5.5-12.4,3.7-13.6-4.8c-0.9-6.3-2.4-13.2,3.3-18.8c0.8-0.8,0.3-3.2,0.2-4.8
			c-0.4-10.4,13.7-22.5,23.8-16c-8.2-0.3-14,2.6-17.1,9.7c6.6,0,13,0,19.5,0c-1.5-4.3-3-4.9-10.9-5c3.6-2.7,7.7-2,14.6,2.4
			c6.8,4.4,8.3,8.6,6.4,17.6c6,5,7,10.4,3.5,19.6c-3.3,8.8-10.3,7.2-17.3,5.6c-0.2,0.4-0.5,0.7-0.7,1.1c2.9,3.9,5.8,7.7,8.7,11.6
			c0.5-0.3,1.1-0.7,1.6-1c-0.7-1.7-1.4-3.3-2.1-5c6.9-1.2,9,1.2,7.6,7.7c-3.7,0.7-7.2,1.6-10.7,1.8c-1.5,0.1-3-1.5-4.7-2.3
			c-3.9,3.2-4.3,3.1-7.3-2.2c-2.9,5.2-9.1,6.2-13.2,2.8c-1.8,0.4-3,0.6-4.2,0.8c0.2-2.7,0.4-5.5,0.6-8.2c2.6,0.4,5.2,0.7,7.7,1.1
			c0.3,0.7,0.6,1.4,1,2.2c2.5-3.7,4.3-8.6,7.8-10.8c5.4-3.4,2.3-8,4.2-12c0.5,3.1,0.9,6.2,1.4,9.6c3.9-1.1,3.6-3.7,2.9-6.6
			c-0.9-4-5.2-5.5-7.2-4.6c-5.1,2.2-2.8,7.3-2.4,11.7c-3.9,1.6-7.3,5.8-12.1,2.7c3.2-1.6,6.3-3.1,9.4-4.7
			C264.4,127.7,264.2,127.3,263.9,127z M257.7,103c4.3,3.9,7.2,6.6,10.1,9.3c3.1,2.9,6.1,3.7,9.3-0.1c1.4-1.6,3.4-2.6,5.1-3.9
			c1.5-1.2,3-2.4,4.5-3.6c-2.1-0.3-4.2-0.8-6.3-1c-0.9-0.1-1.9,0.7-2.8,0.8c-2.5,0.1-5,0-7.6,0c0-0.5,0-1,0.1-1.5
			c1.4-0.7,2.8-1.3,4.2-2c-0.1-0.5-0.3-1.1-0.4-1.6C268.8,100.5,263.8,101.7,257.7,103z M291.6,117.2c-0.1-4.2-2.7-6.8-7-6.6
			c-3.4,0.1-6.3,1.4-6.8,5.2c-0.4,4,5,10.8,8,10.6C289.3,126.2,291.7,122.4,291.6,117.2z M251.8,115.5c1.1,4.2,0.7,9,5.6,8.9
			c2.2-0.1,4.8-4,6.3-6.7c0.9-1.6,0.9-5.1-0.2-6.1c-1.8-1.7-5.4-3.3-7.3-2.6C254.2,109.6,253.2,113.1,251.8,115.5z"/>
		<path class="st1" d="M738.2,132.3c3.2-1.5,3.2,0.4,3.1,2.7c-0.1,4.2,0,8.5,0,13.3c2.3-2,4.1-4.1,6.4-5.4c1.9-1.1,4.3-1.1,6.5-1.6
			c4.1,1.7,8.2,3.4,12.3,5c0.2-0.5,0.4-0.9,0.5-1.4c-3.3-4.8-7.5-6.2-12.9-3.6c7.3-6.9,11.2-5.9,18.2,1c6.3,6.2,9.9,15,18.3,19.2
			c0.6,0.3,0.5,2.1,0.7,3.2c-1.2,0-2.8,0.5-3.7-0.1c-1.3-0.9-2-2.5-3.1-3.9c-4.1,7.1-8.6,7.7-14.6,1.5c2.9,0.5,5.1,0.9,7.3,1.2
			c2.8,0.4,4.6-0.8,4.3-3.9c-0.8-8.7-12.2-14-20-8.9c2,1.7,4,3.3,5.9,4.9c-0.1,0.5-0.2,1-0.4,1.5c-1.4-0.3-2.7-0.5-4.1-0.8
			c-3.5-0.7-6.9-1.8-10.4-2.1c-3-0.3-6.4,0.7-7.5-3.5c4.6-0.2,9.1-0.4,14-0.6c-3.3-6.3-4.7-7.4-7.8-5.5c-2.4,1.5-4.3,3.9-6.4,5.9
			c-1.3,2.9-3.4,5.6-3.8,8.6c-0.6,5.2-0.2,10.6-0.2,16c1.3-0.8,2.8-1.8,3.9-2.4c0.3-2.5,0.6-4.6,0.8-6.7c0.5,0,0.9,0,1.4,0
			c0.4,1.4,0.7,2.9,1.1,4.3c5.1-2,6.8-5.7,5.5-12.2c3.9,0.4,4.2,1.4,2.6,9.5c3-2.7,5.4-4.8,7.8-7c0.9,3.5-0.2,5.7-3.9,7.8
			c-2.5,1.4-5.2,2.3-7.5,3.9c-4.6,3.1-4.2,6.1,1,8.3c0.7,0.3,1.3,0.8,1.7,1c-4,1.5-8.2,2.6-12,4.4c-3.8,1.8-5.6,5.3-5.3,9.5
			c0.7,8.6,1.9,17.2,2.3,25.8c0.4,7.9,0,15.9-0.4,23.8c-0.1,1.2-2.1,2.2-3.3,3.4c-0.5-0.4-0.9-0.7-1.4-1.1c0.3-3.1,0.9-6.2,0.9-9.2
			c0-7.6,0.7-15.4-0.5-22.8c-2.2-13.4-0.4-26.5,0.6-39.7c1.1-14.4,1.4-28.9,2.1-43.3L738.2,132.3z M747.8,175.3
			c-5.4,1.9-8.5,4.5-8.1,10.1C741.5,181.7,748,182,747.8,175.3z"/>
		<path class="st1" d="M288.7,204c-8.1-1.8-16.9-1.7-25.7,1c-2.3,0.7-4.9,0.9-7.4,0.9c-5.7-0.1-11.4-0.6-17.2,0.3c3.2,0,6.4,0,9.4,0
			c-2.3,3.6-7.5,4.2-11.2,0.7c-2.9-2.8-5.7-3.3-9.4-2.5c-6.3,1.3-14.2-0.8-21.3-5.4c9.1-2,16.9-3.7,25.8-5.7c-7.5-3-14-1.3-20.4,0.1
			c-11.3,2.5-22.6,5-33.9,1.1c-7.6-2.6-15.1-2-22.7-1.5c-6.6,0.5-13.3,1-19.9,1.4c-1.7,0.1-3.4-0.3-5.1-1.4
			c13.1-1.3,26.3-2.7,39.4-3.9c1.9-0.2,4.1,0.4,5.8,1.2c7.7,3.8,15.9,4.6,23.8,2.3c15.6-4.5,31.2-4.1,46.9-1.6
			c22.6,3.6,45,3.3,67.4-1.6c0.6-0.1,1.2-0.2,2.3,0.8c-1.9,0.8-3.7,2-5.7,2.4c-18,4.3-36.2,4.8-54.5,2.6c-4.8-0.6-9.6-1-14.4-1.4
			c-4.2-0.3-7.9-0.2-12.1,2.4c-4.2,2.7-10,2.8-15.6,4.1c1.9,0.4,3.6,1,5.2,1c10.1,0.2,20.4-0.9,30.2,0.9c9.1,1.7,16.8-2,25.1-2.5
			c8.8-0.6,17.8,1.8,26.7,3.8c-11.7,6.1-24.3,4.2-36.5,5.7c-0.1-0.6-0.2-1.1-0.2-1.7C272.1,206.3,280.8,205.1,288.7,204z"/>
		<path class="st1" d="M278.2,253.3c-6.2-3-12.6-5.8-18.7-9.2c-3.8-2.1-6.2-1.9-9.3,1.5c-9.5,10.4-20.9,17.9-35.1,20.6
			c-9.8,1.9-18.9,0.8-26.8-5.7c-5.4-4.5-10.8-8.9-16-13.6c-2.2-2-3.8-2.6-6.4-0.8c-3.1,2.1-6.8,3.5-9.9,5.7c-4.4,3.2-7.8,2-11.3-1.5
			c-4.1-4.2-8.6-7.9-12.5-12.2c-2.4-2.7-4.3-2.5-7.3-1.1c-11.7,5.5-23.5,10.9-35.5,15.8c-4.3,1.8-9.3,2.1-14,2.7
			c20.3-4.3,36.9-16.5,54.5-25.6c7.2,6.8,14,13.3,21.2,20.1c4.8-2.8,10.2-5.9,15.5-9.3c2.4-1.6,3.9-1.4,5.9,0.7
			c5.8,5.9,11.9,11.6,17.9,17.4c6.4,6.1,13.8,7.2,22.2,5.4c14.5-3.1,25.5-11.7,35.3-22.2c5.1-5.5,5.2-5.4,11.7-1.4
			c6.3,3.9,12.6,7.9,19,11.9C278.6,252.7,278.4,253,278.2,253.3z"/>
		<path class="st1" d="M809.5,138.6c-18.8-0.1-34.8-5.8-48.6-17.4c-5.2-4.4-10-9.3-14.9-14.1c-1.8-1.9-3.3-2.5-6-1.6
			c-26.9,8.7-53.8,17.1-80.7,25.8c-2.3,0.7-4.3,2.8-6.1,4.6c-6.5,6.8-12.6,14.2-19.5,20.6c-3.6,3.3-8.6,5.1-13,7.6
			c-0.3-0.5-0.5-0.9-0.8-1.4c2-1.3,4.1-2.5,6.1-3.8c9.7-6.3,16.8-15.1,23.2-24.5c2.6-3.8,5.8-5.9,10.2-7.3
			c26.9-8.5,53.8-17.2,80.6-26.1c3.5-1.2,5.4-0.6,7.6,2c10.6,12.1,21.8,23.6,37.5,28.9C793.1,134.7,801,136.3,809.5,138.6z"/>
		<path class="st1" d="M394.6,117.8c15.9-1.6,29.9-8.2,44.1-15c16.6-8,33.8-14.7,50.7-22.2c2.7-1.2,4.3-0.4,6,1.5
			c4.7,5.4,9.5,10.7,14.7,16.4c5-1.7,10.2-3.6,15.6-5.2c1.4-0.4,3.6-0.4,4.5,0.4c8.4,7.6,17.4,14.2,28.5,16.9
			c10.6,2.6,21.4,4.3,32.3,6.8c-7.4-0.4-14.8-0.1-22.1-1.2c-14.6-2.1-27.9-7.3-39.3-17c-1.1-0.9-3.3-1.1-4.9-0.8
			c-3.4,0.8-6.7,2-9.9,3.3c-4,1.7-7,0.4-9.8-2.5c-3.5-3.8-7.2-7.5-10.4-11.4c-2.2-2.7-4.3-3.4-7.6-2c-17.5,7.7-35.2,14.9-52.6,22.8
			c-10.7,4.9-21.5,8.9-33.4,9.5c-1.3,0.1-2.7,0.1-4,0.1C396.2,118.2,395.4,117.9,394.6,117.8z"/>
		<path class="st1" d="M794.8,290.3c2.9-2.1,5.6-4.7,8-7.8c4.4-5.7,9.8-9.4,15.1-13.8c9.4-7.8,17.9-16.7,26.3-25.7
			c3.2-3.5,5.3-5.1,9.5-1.6c3.9,3.3,8.4,6,12.6,9c3.8,2.6,7.4,4.6,12.3,2c1.3-0.7,4.2,0.2,5.5,1.3c4.8,3.9,9.2,8.2,13.7,12.3
			c2.9,2.7,6.2,3.7,10,2c5.5-2.5,9.7-1,14.3,3c8,7.1,17.4,12.1,28.5,13.4c-9.4-3-18.3-7.5-25.1-14.6c-6.2-6.5-12.5-8.3-20.7-4.6
			c-1.5,0.7-4.5-0.3-5.9-1.6c-4.7-4.2-9.2-8.7-13.3-13.5c-2.7-3.1-5.3-3.5-8.6-1.6c-3.7,2.1-6.8,1.8-10.1-1.4
			c-3.6-3.5-7.7-6.3-11.8-9.3c-7.3-5.3-7.2-5.2-12.8,1.7c-10.3,12.6-20.4,25.6-36,32.4c-0.9,0.4-1.7,1.6-2.2,2.6
			c-3.8,7-9,12.2-15.3,15.8H794.8z"/>
		<path class="st1" d="M888.4,139.1c-2.5,0.4-5.1,0.7-8.5,1.2c2.1,0.2,3.4,0.3,4.2,0.4c1.8,4.5,3.4,8.6,5,12.8
			c3,7.7,1.5,10-6.2,12.5c-4.5,1.4-8.5,4.2-12.7,6.6c-2.4,1.3-4.6,2.9-7.3,4c9.2-11.5,6.7-22.1-1.2-32.6c-1.8,0-3.5,0-5.3,0
			c-0.1-0.5-0.1-1-0.2-1.5c10.6-2,21.2-3.9,31.9-5.9C888.2,137.4,888.3,138.2,888.4,139.1z"/>
		<path class="st1" d="M893.5,164.4c6.1-9.9-1.6-17.5-3.8-26.6c12.3,0.2,23.1,4.7,35.2,8.2c-9.9,7.2-10.2,16.9-9.8,27.5
			C907.3,171.3,902.8,162.3,893.5,164.4z"/>
		<path class="st1" d="M674.2,193c1.4,0.2,2.7,0.3,4.5,0.5c-0.2-2.3-0.4-4.4-0.6-6.6c4.2,4.5,5.5,11.4,13,12.6c0.5-2.8,1-5.6,1.7-9
			c1.3,1.1,2,1.4,2,1.7c-0.4,5.9,1.4,10,7,13.4c3.5,2.2,5,7.5,8.2,12.8c-0.5-6.9-0.9-12.3-1.3-17.7c-0.2-2.3-0.4-4.7-0.4-7
			c0-0.9,0.8-1.8,1.3-2.8c0.7,0.9,2,1.8,2.1,2.7c0.8,6.3,1.3,12.6,2.1,18.8c1.2,9.7,2.6,19.4,3.7,29.2c0.1,1.3-0.9,2.7-1.4,4
			c-1.2-1.1-3.2-2-3.3-3.2c-0.9-10.3-4.1-19.7-10-28.3c-2-2.9-4.2-4.3-7.4-3.3c-5.9,1.9-11.6,4.2-17.5,6.4c-0.2-4.6,5.3-4.5,7.5-7.6
			c-1.8-1.2-3.6-2.5-5.4-3.8c0.1-0.3,0.2-0.6,0.4-0.9c4.7,1.1,9.4,2.1,14.1,3.2c0.3-0.6,0.5-1.2,0.8-1.7c-7.3-4-14.5-8.1-21.8-12.1
			C673.7,193.9,674,193.4,674.2,193z"/>
		<path class="st1" d="M621.9,237.7c1.1,1.8,2.3,3.6,3.4,5.4c-3.5,1.2-7.1,2.5-11.1,3.9c-2,11.1-2,11.1-6.5,10.6
			c0.3-4.2,0.7-8.4,1.1-12.9c-3.7-0.4-7.9-0.3-6.7-6c2,0.8,3.8,1.6,7,2.9c-0.9-4.2-1.2-7-2-9.6c-1.2-4.1-3.8-5.8-8.3-5.1
			c-4.6,0.7-9.3,0.8-13.9,0.7c-1.4,0-3.5-1.1-3.9-2.2c-0.4-1.2,0.4-3.3,1.3-4.4c4.9-5.8,12.1-7.2,18.9-4.4c1.3,0.6,3.1,0.6,4.6,0.3
			c4.8-1.2,10-2.1,13.9,1.2c4.2,3.6,7.7,8.1,12.1,11.6c2.7,2.2,0.5,4.9-2.5,5.8c-1.9,0.5-4,0.1-5.9,0.3c-0.6,0.1-1,1.2-1.5,1.9
			c-2.5-0.7-4.9-1.3-7.4-2c0-0.5,0.1-1.1,0.1-1.6c5.1,0,10.1,0,15.3,0c-0.8-7-7.2-8.9-19.2-6.8c1.2,5.1,2.4,10.2,3.7,15.7
			c2.9-0.1,5.8-0.3,9-0.4C622.8,240.4,622.4,239,621.9,237.7z M583.6,225.7c6.7-0.8,12.3-1.4,18.6-2.2c-2.1-4.2-5.3-5.3-8.9-4.8
			C589.4,219.3,585.4,220,583.6,225.7z M606,220c2.9,4.8,8.5,5.7,15.6,2.8C618.2,218.2,612.9,217.2,606,220z"/>
		<path class="st1" d="M431.5,222c-8.2-2.4-16.3-4.9-24.5-7.3c-1.3-0.6-2.5-1.2-3.2-1.5c0.6-1.9,1.5-3.6,1.5-5.2
			c0.2-7.6,0.1-15.2,0.1-23.9c8.8,2.7,16.7,5.1,24,7.3c0.2,4.4,0.5,9,0.7,13.8c-6.5-0.7-13.8-1.6-21.5-2.4c0,3.9,0,6.4,0,9.4
			c12.4,3.9,25.2,7.9,38,11.9c-0.2,0.7-0.4,1.4-0.6,2C441.2,224.7,436.4,223.3,431.5,222z"/>
		<path class="st1" d="M652.6,99.2c-3.2-4.5-8.8-4.7-17.3-1c3.4,6.7,4.4,6.9,11.4,5.9c4.2-0.6,8.6-0.3,12.8,0.5
			c3.7,0.7,6.5,3.5,5.4,7.6c-1.1,4.2-4.9,4.3-8.6,3.8c-0.7-0.1-1.3-0.2-1.9-0.4c-4.8-1.7-7.5,0.6-9.4,4.8c-1.4,3.2-3.2,6.4-4.7,9.5
			c-0.7-0.2-1.4-0.4-2.1-0.6c-0.4-2.9-0.8-5.7-1.2-8.6c-0.8-5.4-2.9-6.9-8.1-5.4c-3.6,1-7.9,2.7-9.7-1.6c-2-4.6,2.5-6.7,5.8-8.4
			c2.7-1.4,5.8-1.8,9.2-2.7c-1.3-1.3-2.7-2.6-4.1-3.9c-2.7-2.5-2.5-5.2-0.4-8c4.9-6.3,14.3-5.5,18.3,1.3c0.6,1.1,2.2,1.6,3.2,2.6
			c1.6,1.6,3.1,3.4,4.6,5.2c-0.4,0.4-0.7,0.9-1.1,1.3c-4.7,0.4-9.4,0.8-14.1,1.2c-0.1-0.4-0.2-0.8-0.2-1.1
			C644.3,100.6,648.2,100,652.6,99.2z M642.2,107.1c0,4.9,0,9,0,14.1c4.3-8.6,5.4-9.1,14.1-7.6c0.8,0.1,1.7,0.4,2.5,0.2
			c1.2-0.3,3-0.8,3.2-1.6c0.3-1.2-0.1-3.3-0.9-3.9c-1.8-1.3-4.1-2.5-6.2-2.5C650.5,105.8,646.2,106.7,642.2,107.1z M638.9,116.2
			c-0.4-6.5-1.8-9-4.8-9.6c-5.4-1.1-11.1,1.7-13.1,6.8C626.7,115.7,633.5,108.8,638.9,116.2z M646.3,93c-2.5-4.1-5.9-4.9-9.6-4
			c-3.1,0.8-6.3,1.9-6.5,6.5C635.5,94.7,640.6,93.9,646.3,93z"/>
		<path class="st1" d="M894.8,117.1c9.4,0,17.8,0,26.9,0c-4.1,5.8-5.4,11.9-1.8,19.1c-3.9-1.2-7.7-2.4-11.6-3.6
			c-3.9-1.2-7.8-2.5-12-3.9c-0.2,2.9-0.4,5.4-0.5,7.8c-0.5,0.2-1,0.4-1.6,0.6c-0.7-1.2-2.1-2.5-2-3.6c0.1-3.3,0.3-6.3-2-9.2
			c-0.9-1.2-0.8-4.6,0.2-5.4c3.3-2.8,2.4-6.2,2.5-9.5c0.1-3.5,0-7,0-10.5c0.6,0,1.3,0,1.9,0C894.8,104.6,894.8,110.3,894.8,117.1z"
			/>
		<path class="st1" d="M535.1,201c28.9-2.4,51.6-17.1,72.2-36.8c9.6,8.2,19,16.2,29.2,24.9c-11.5-3.9-19.6-11.4-28.5-18.6
			C587.1,188.8,564.6,203.3,535.1,201z"/>
		<path class="st1" d="M286.1,183.3c-1.9-5-5.1-8.3-10.3-8.3c-5.5,0-8.5,3.9-10.7,8.4c-1.1,2.2-2,4.5-2.8,6.4
			c-7.2,2.2-5.9-4.6-8.8-8.4c-0.7,2.2-0.9,3.8-1.7,5c-0.6,0.9-2.1,2-2.8,1.8c-0.9-0.3-2.1-1.9-2-2.7c0.6-4.7,1.3-9.3,7.2-11.1
			c3.3-1,6.3-3.6,9.2-5.8c5.2-4,10.2-3.7,15,0.9c2.1,2.1,4.5,4,6.8,5.8C288,177.4,289.3,179.7,286.1,183.3z"/>
		<path class="st1" d="M727.5,193.2c1.3,7.3,3,14.6,3.7,22c0.2,2.6-2.6,5.2-3.2,8.1c-0.9,4.5-1,9.1-0.4,13.8
			c0.4-3.8,0.9-7.5,1.3-11.3c0.4,0,0.7,0.1,1.1,0.1c-0.4,5.9-0.9,11.8-1.4,18.8c-1.2-1.5-2.1-2.1-2.4-3c-2.5-6.8-2.7-13.7-1-20.6
			c2.6-10.6,0.3-20.8-2.8-30.8c-1.4-4.5-6.8-7.7-11.7-7.7c-1.7,0-3.5,0-6.3,0c3.3-2.2,5.5-3.7,8.1-5.5c2.7,2,5.8,4.4,9.5,7.1
			c2.4-7.7-0.6-12.8-6.6-16.9c0.3-0.3,0.6-0.6,0.9-0.9c1.2,0.3,2.4,0.6,3.6,0.9c0.2-1.4,0.4-2.8,0.7-4.3c0.5-0.1,1-0.3,1.5-0.4
			c1.2,3.9,2.4,7.9,3.8,12.6c1.9-3.4,3.5-6.3,5.1-9.2c0.6,0.3,1.2,0.5,1.8,0.8c-1.3,3.3-2.4,6.7-3.9,9.9c-2.6,5.4-4.2,10.8-1.1,16.6
			L727.5,193.2z"/>
		<path class="st1" d="M457.7,154.5c-6.5-3.8-13.7-6.7-19.3-11.5c-6.6-5.6-11.5-5.9-19.3-1.4c-21.7,12.5-45.3,18.9-70.5,18
			c-1.6-0.1-3.3-0.2-5-1c0.6-0.2,1.2-0.5,1.9-0.5c28.6-0.1,54.6-8.9,78.6-23.9c4-2.5,6.6-2.5,10.3,0.6c7.8,6.5,16,12.4,24.1,18.5
			C458.2,153.7,457.9,154.1,457.7,154.5z"/>
		<path class="st1" d="M548.3,247.5c0.2,6.1,0.6,12.2,0.5,18.2c0,2.4-0.7,5.2-4.5,4.1c0.2-4,0.5-7.9,0.7-10.8
			c-4.2-1.7-7.5-3-10.8-4.4c0.5-1.2,1-2.4,1.3-3.2c1.6,1.5,2.8,2.8,4.3,3.7c0.2,0.1,2.4-2.2,2.2-2.4c-1-1.6-2.2-3.7-3.8-4.1
			c-2.5-0.6-5.3,0.3-7.9-0.1c-2.1-0.3-4.1-1.4-6.1-2.1c1.1-2,1.9-4.4,3.5-6c2.3-2.3,5.2-3.9,7.9-5.8c5.5-3.9,13.2-2.5,17.2,2.8
			c1.2,1.6,3.5,2.4,4.9,3.9c1.5,1.5,2.5,3.5,3.7,5.3c-2.4,0.7-4.7,1.8-7.1,2c-2.1,0.2-4.2-0.7-6.3-1.2c3.4-0.8,6.8-1.7,10.1-2.5
			c-1.3-4.2-7.1-5.8-14.7-3C545.2,244.1,546.7,245.8,548.3,247.5z M542.3,246.7c-1.2-4.3-4-6.8-9-6.1c-3.1,0.4-6,1.4-6.5,5.2
			C532.1,246.1,537.2,246.4,542.3,246.7z M537.4,237.6c4.2,0.3,8.3,0.7,12.5,1C545.9,234.1,543,233.8,537.4,237.6z"/>
		<path class="st1" d="M189.7,102.2c0,4.2,0,8.6,0,12.5c-9.3-1.2-18.6-2.4-27.6-3.6c3.1-3.7,2.7-8.7-0.1-13.3
			C171,99.2,180.1,100.6,189.7,102.2z"/>
		<path class="st1" d="M832.7,127.1c10.6-0.7,10.6-0.7,11.4-5.2c-5.3,4.7-11.6,2.6-17.5,3.1c-1.2,0.1-3.4-1.7-3.5-2.7
			c-0.1-1.3,1.6-2.7,3.1-4.9c-0.1,2.7-0.6,4.8-0.2,5c1.4,0.6,3.2,0.9,4.6,0.6c0.7-0.2,1.1-1.9,1.8-3.3c1,0.8,2.3,2.5,3.9,2.9
			c1.5,0.4,3.4-0.7,5.1-1.2c0-0.5-0.1-1-0.2-1.6c-1.4-0.3-2.7-0.8-4.1-0.9c-7.5-0.8-7.5-0.8-4.6-8.3c-2-0.7-3.9-1.3-5.9-2
			c-3.9-1.5-4.5-4.3-1.5-7.2c5.5-5.3,18.7-2.7,21.8,4.3c1.6,3.6-0.8,6.6-5.8,6.8c-3,0.1-5.7,0-6,4.4c4.1,1.2,9.9,0.1,10.9,6.2
			c0.2,1.4-1.3,3.8-2.6,4.7C840.3,129.6,837,129.3,832.7,127.1z M832,107.5c0,0.7,0,1.4,0.1,2.1c3.7,0,7.3,0.1,10.9-0.2
			c0.4,0,1.2-3.2,0.6-3.9c-3.7-4.3-8.7-4.5-13.8-3.6c-1.3,0.2-2.6,1.3-3.7,2.2c-0.2,0.2,0.4,2,0.7,2c1.5,0.1,3,0,4.6-0.2
			c3-0.4,6-0.9,9-1.4c0.1,0.5,0.2,1.1,0.2,1.6C837.8,106.5,834.9,107,832,107.5z"/>
		<path class="st1" d="M698.9,248.1c7.3-0.5,15-1.1,22.7-1.6c1.3-0.1,2.8-0.2,3.9,0.2c9.3,3.9,18.4,2.4,27.8,0.4
			c4.4-1,9.5-1.6,13.6-0.2c9.5,3.1,18.4-0.9,27.5-0.9c4.2,0,8.4-1.3,12.7-2c0.1,0.4,0.2,0.9,0.3,1.3c-4.9,1.1-9.7,2.4-14.6,3.4
			c-2.6,0.5-5.5,0.1-7.8,1.1c-6.3,2.5-12.3,0.8-18.5,0.2c-7.4-0.6-15,0.9-22.6,1.1c-5.8,0.2-11.5-0.3-17.3-0.5
			c-2.8-0.1-5.6-0.4-8.3-0.3C711.5,250.5,704.6,251.5,698.9,248.1z"/>
		<path class="st1" d="M223.5,112.1c-8,0.4-16.1,0.8-24.8,1.3c4-4.7,3.2-9.9,0-15.4c7.9,1.7,15.4,3.2,22.7,4.7
			C222.1,105.8,222.8,109.1,223.5,112.1z"/>
		<path class="st1" d="M345,102.7c-0.5-3-1.5-6.2-1.5-9.4c0.1-2.9,0.6-6.3,2.2-8.7c1.9-3,5.4-2.1,5.5,1.4c0.1,3.8-1.3,7.7-2.3,11.4
			c-0.6,2.3-1.8,4.5-2.8,7c-3.5,0.7-7.4,1.6-11.4,2.4c0,0.6,0,1.2,0,1.7c1.1,0.4,2.2,1.1,3.3,1.1c5.6,0.1,11.3,0.2,16.9,0.1
			c1.1,0,2.1-1,3.1-1.6c-0.9-1.1-1.5-2.6-2.6-3.1c-2-0.9-4.3-1.1-6.3-2.4c3.9-0.8,7.6-0.4,10.5,2.4c2.5,2.4,1.3,6.4-2.3,6.7
			c-7.4,0.5-14.9,0.2-22.3-0.1c-1.1-0.1-2.9-2.1-2.9-3.3c-0.1-1.2,1.4-3.2,2.6-3.6C337.6,103.6,340.8,103.4,345,102.7z"/>
		<path class="st1" d="M117.1,270.6c0.7,1.1,1.3,2.3,2.1,3.4c2.9,3.9,6.1,3.7,8.7-0.3c1.1-1.8,2-3.7,3.1-5.8
			c4.7,3.4,4.2,7.5,2.6,11.8c-1.8,5-6.9,9.7-10.1,9.3c-1.1-0.2-2.5-1.1-3.1-2.1c-4-7-9.8-8.4-17-5.8c-1.7,0.6-3.6,0.8-5.4,1.1
			c2.4,0.3,4.8,0.8,7,0.2c5.9-1.7,9.9,0.3,13.3,5.1c0.9,1.2,2.6,2.4,4.2,2.8h3.4c7.4-1.7,13.5-12.6,10.1-19.4
			c-1.1-2.3-3.4-4-5.8-6.6c-0.9,2.1-1.1,2.6-1.4,3c-1.7,2.5-3.5,5-5.2,7.4c-1.7-2.1-3.7-4-5.2-6.3c-3.3-4.9-8-6.9-13.7-6.4
			c-5.3,0.5-9.3,4.4-11.2,10.7c0.7-1,1.1-1.8,1.6-2.4C101.4,261.2,111.2,261.4,117.1,270.6z"/>
		<path class="st1" d="M366.7,254.8c5-0.3,10.1-1.1,15.1-0.9c4.3,0.2,8.6,1.4,12.9,2.1c4.1,0.7,8.3,1.9,12.4,1.8
			c6.8-0.2,13.7-0.7,20.3-2.1c8.7-1.9,17.2,1.1,26,1.2c-2.3,0.5-4.8,1.8-6.8,1.2c-9.7-2.6-19.1,1.3-28.6,1.3
			c-9.7,0-19.3,2.6-28.8-2.3c-3.4-1.8-8.5-0.1-12.8-0.3c-3.3-0.1-6.6-0.8-9.9-1.2C366.5,255.3,366.6,255.1,366.7,254.8z"/>
		<path class="st1" d="M775.1,177.3c-0.2,5.3-0.5,10.3-0.7,14.9c-5.5-0.7-11.3-1.4-17.3-2.2c3.9-3.1,5.8-7.2,3-12.8
			C765.4,177.3,770.1,177.3,775.1,177.3z"/>
		<path class="st1" d="M853.3,179c6.4-1.3,13-2.7,19.6-3.9c2.6-0.4,5.3-0.5,7.9-0.3c5.5,0.5,11,1.6,16.6,1.8
			c9.5,0.3,18.9,0.1,28.6,1c-1.5,0.3-2.9,0.8-4.4,0.9c-9.1,0.5-18.3,1.1-27.4,1.1c-4.5,0-8.9-1.7-13.5-2.1c-3-0.3-6.2-0.2-9.1,0.7
			C865.3,180,859.2,181.6,853.3,179z"/>
		<path class="st1" d="M272.5,189.8c1.6-2.3,3.2-4.5,5.3-7.6c-6.6,0.4-8.5,4.7-11.4,8.3c-0.8-4.2,0.8-7.6,3.4-10.7
			c2.4-2.8,5.4-3.8,8.9-2.7c4.3,1.3,6.5,5.5,5,9.3C282.2,190.8,277.4,192.3,272.5,189.8z"/>
		<path class="st1" d="M794.5,194.8c-4.3-0.7-8.7-1.3-12.9-2.3c-0.7-0.2-1.7-1.6-1.7-2.5c-0.2-3.6-0.1-7.2-0.1-11.1
			c4,0.2,7.4,0.4,11.3,0.7c-2.2,5.7-0.5,10.2,4,13.8C794.9,193.9,794.7,194.4,794.5,194.8z"/>
		<path class="st1" d="M687.1,168c8.5-3.2,17.1-5.7,24.9-9.7c7.7-3.9,14.7-9.3,21.2-13.5C728.8,156.4,696.2,173.3,687.1,168z"/>
		<path class="st1" d="M238.3,177.3c2.3,1.5,4.6,3,6.9,4.5c-1.5-0.1-3.3,0.4-4.5-0.2c-9.8-5.2-20.1-8.7-31.2-9.3
			c-5.4-0.3-10.9,0-16.7,0c4.7-4,10.2-3.4,15.5-3.1C218.8,169.7,228.9,172.4,238.3,177.3z"/>
		<path class="st1" d="M437,262.2c-3.4,0.9-6.7,2.4-10.2,2.7c-15.4,1.1-30.9,1.9-46.3,2.8c-1.9,0.1-3.8,0-5.7,0c0-0.4,0-0.9-0.1-1.3
			c10.3-0.7,20.6-1.3,30.9-2.2c10.4-0.9,20.7-2,31.1-3C436.8,261.6,436.9,261.9,437,262.2z"/>
		<path class="st1" d="M504.8,139.1c-5.4-3.2-11-6-16.1-9.6c-3.8-2.8-6.9-2.9-10.7-0.4c-3.3,2.1-6.9,3.7-11,4.6
			c5.3-3.9,10.6-7.9,16.1-11.6c0.7-0.5,2.6,0.1,3.4,0.8c6.4,5,12.7,10.1,19,15.3C505.3,138.5,505,138.8,504.8,139.1z"/>
		<path class="st1" d="M273,158.5c1.1,0.3,2.8,0.6,4.7,1.1c-0.2,3-0.9,5.4-4.3,4.7c-3.2-0.7-8.7,2.9-8.9-4.4
			c2.3-0.8,6.6,0.6,5.9-3.2c-2.6-1.2-4.5-2-6.3-3.1c-0.2-0.1,0.6-2.7,0.9-2.7c1.5,0,3,0.5,4.6,0.9c0.9-0.5,2.2-1.5,3.6-1.8
			c0.4-0.1,2,1.6,1.8,2.3C274.8,154.2,273.9,156,273,158.5z"/>
		<path class="st1" d="M189.5,176c2.7-0.3,5-0.5,7.5-0.7c0,5.3,0,10.4,0,15.7c-2.6,0-4.8,0-7.5,0C189.5,186,189.5,181.1,189.5,176z"
			/>
		<path class="st1" d="M906,182.8c-6,3.7-12.3,3.9-19.1,2.5c-3.7-0.8-7.7-0.5-11.6-0.6c-9.2-0.1-18.5,0-27.7,0c0-0.4,0-0.8,0-1.2
			c6.8,0,13.5,0,20.3,0c1,0,2.1,0.4,3,0.1C882.5,178.9,894.3,186.9,906,182.8z"/>
		<path class="st1" d="M551.2,155.3c-8.9-10.6-17.8-8.2-26.9-1.8c-0.2,0.1-0.6,0-2-0.2c5-4,9.4-7.5,14-10.8c0.7-0.5,2.8-0.1,3.7,0.6
			c4,3.2,7.8,6.7,11.6,10C551.6,153.9,551.4,154.6,551.2,155.3z"/>
		<path class="st1" d="M160.5,196.8c12.7,0.9,25.4,1.8,38.1,2.6c-12.9,3.6-25.5,0.2-38.1-1.3C160.5,197.7,160.5,197.2,160.5,196.8z"
			/>
		<path class="st1" d="M772.8,233.7c1.8-1.2,3.7-2.4,5.4-3.5c0,5.4,0,10.9,0,16.4c-6.3,0.3-6.9-3.1-6.4-7.4c0.2-1.9,0.8-3.8,1.2-5.7
			C773,233.5,772.8,233.7,772.8,233.7z"/>
		<path class="st1" d="M399.5,270.6c6.8-1.2,15-2.7,23.6-0.4c4.8,1.3,10.3,0.2,15.5,0.2c0.1,0.5,0.1,1,0.2,1.5
			c-4.1,0.5-8.2,1.8-12.2,1.5C417,272.8,407.5,271.4,399.5,270.6z"/>
		<path class="st1" d="M295,212.3c-3.6,4.6-12.2,5.6-17.9,1.8c4.5-0.4,8.8-0.8,13-1.2c0-0.5,0-0.9-0.1-1.4
			c-4.2,0.2-8.4,0.4-13.4,0.7C282.6,207.7,290.3,208,295,212.3z"/>
		<path class="st1" d="M209.1,203.3c-10.5,4.3-21.1,6.5-32,1.6C187.9,204.4,198.5,203.9,209.1,203.3z"/>
		<path class="st1" d="M892.2,108c-1.1,1.5-1.9,3.3-3.3,4.3c-5.1,3.7-6.2,8.3-4.2,14c1,2.8,1.5,5.7,2.4,9.1
			C877.3,123.6,878.8,114.4,892.2,108z"/>
		<path class="st1" d="M659.2,158.7c4.2-3.3,8.2-6.7,12.6-9.7c0.9-0.6,3.2-0.4,4.2,0.3c3.1,2.2,5.8,4.9,9.1,7.8
			c-4.9-1.4-9.2-3.8-13.2-3.3c-4.1,0.5-7.9,3.8-11.8,5.8C659.8,159.3,659.5,159,659.2,158.7z"/>
		<path class="st1" d="M389.4,260.6c-8.8,4.2-29,1.1-34.9-5.4C366.1,261.2,377.9,260.1,389.4,260.6z"/>
		<path class="st1" d="M403.2,207.8c-9.3-6.4-9.2-16.6,0-21.1c-1.1,3.8-2.8,7.1-2.8,10.3C400.4,200.3,402,203.6,403.2,207.8z"/>
		<path class="st1" d="M297.2,188.1c0.2-2,0.4-3.5,0.5-5.1c-0.5-0.1-1-0.2-1.5-0.3c-0.6,1.7-1.2,3.3-2.1,5.7
			c-0.8-1.5-1.3-2.4-1.8-3.2c-1.7,1.7-3.4,3.3-5.1,5c-0.6-0.6-1.2-1.1-1.7-1.7c2.7-2.8,5.1-6.1,8.3-8.2c1.5-0.9,5.7-0.1,6.6,1.3
			C302.2,184.1,301,187,297.2,188.1z"/>
		<path class="st1" d="M772.4,257.2c-3.5-0.6-7.1-1.7-10.6-1.8c-7.7-0.3-15.4-0.1-23.3-0.8c3-0.7,5.9-2.1,8.9-2
			c7.2,0.2,14.4,0.9,21.6,1.7C770.2,254.4,771.2,256.3,772.4,257.2C772.3,257.3,772.4,257.2,772.4,257.2z"/>
		<path class="st1" d="M531.5,125.3c0.1-0.1,0.1-0.3,0.2-0.4c10.1-5.8,10.1-5.8,18.3,1.9c1.7,1.6,3.5,3.3,5,5.3
			C547.3,129.2,541.3,120.4,531.5,125.3z"/>
		<path class="st1" d="M738.3,132.1c-1.6-0.1-3.8,0.3-4.6-0.5c-4.4-4.8-9.1-5.3-14.4-1.6c-0.5,0.3-1.1,0.4-2.1-0.1
			c2.8-2.1,5.6-4.4,8.6-6.2c0.9-0.5,2.9-0.1,3.7,0.6c3,2.5,5.8,5.4,8.7,8.1C738.2,132.3,738.3,132.1,738.3,132.1z"/>
		<path class="st1" d="M396.2,206c-6-6.3-7-10.5-4.2-16.3c1.4-3,2.6-6.7,7.9-5.5C391.7,189.9,393.7,197.3,396.2,206z"/>
		<path class="st1" d="M464.8,174.9c10.4-7.7,9-8.2,22,1.3C478.7,174.2,472,169.7,464.8,174.9z"/>
		<path class="st1" d="M777.1,201c0-9,0-18.1,0-27.1c0.6,0,1.2,0,1.8,0c0,3.6,0,7.2,0,10.8c0,3.8,0.2,7.6,0,11.4
			c-0.1,1.6-1.2,3.2-1.9,4.7C776.9,200.8,777.1,201,777.1,201z"/>
		<path class="st1" d="M895.8,174.7c-2.5,0.2-5.3,2.1-5.9-2.2c-0.7-4.5,1.2-6.5,5.9-6.7C895.8,168.8,895.8,171.5,895.8,174.7z"/>
		<path class="st1" d="M755.8,262.9c-7.3-4.3-15.2,2.2-22.4-2.9c7.5,0,15,0,22.6,0C755.9,261,755.9,262,755.8,262.9z"/>
		<path class="st1" d="M638.6,173.1c1.8-1.2,3.5-2.4,5.3-3.6c6.6-4.5,6.6-4.5,12.4,2.3C649.6,166.4,644.5,172.9,638.6,173.1z"/>
		<path class="st1" d="M503.3,157.4c-6.1-1.7-11.6-6.3-18.5-2.5C491.7,148.8,494.4,149.2,503.3,157.4z"/>
		<path class="st1" d="M856,276.7c6.7-6.6,8.5-6.7,14.8-0.8C866.2,276.2,860.8,276.5,856,276.7z"/>
		<path class="st1" d="M857.6,255c-4.7,0.3-9,0.5-13.9,0.8c2.5-2.1,4.7-4,7.2-6.1C853.2,251.5,855.5,253.3,857.6,255z"/>
		<path class="st1" d="M828.3,272.8c3.6-3.2,6.7-5.8,10.1-8.8c2,1.8,3.8,3.5,4.9,4.4C838.8,269.7,834.1,271.1,828.3,272.8z"/>
		<path class="st1" d="M813.3,284.7c6.2-7.1,7.8-6.9,17.7,1.8C824.4,283.9,819.2,280.6,813.3,284.7z"/>
		<path class="st1" d="M715.9,147.6c-4.7-4.6-10-3.7-16.2-1.4C707.2,138.7,710.8,139,715.9,147.6z"/>
		<path class="st1" d="M685.6,135.7c8.1-5.6,10.4-5.3,15.3,2.2C696.3,133.5,691,134.4,685.6,135.7z"/>
		<path class="st1" d="M485.9,101.4c-5.6,0.5-10,0.9-15.6,1.4c3.6-3,7-4.6,10.9-4.1C482.8,98.9,484.1,100.3,485.9,101.4z"/>
		<path class="st1" d="M149.8,208.2c4.7-4.8,10.5-3.8,16.2-2.5C160.6,206.5,155.2,207.4,149.8,208.2z"/>
		<path class="st1" d="M492.5,113c5.6-5.2,9.3-5.4,13.8-1.4C501.9,112,497.7,112.5,492.5,113z"/>
		<path class="st1" d="M590.2,229.7c1.7,8.3,9.6,1,13.7,5.9c-4.3,0-7.9,0.3-11.5-0.1C588.7,235.2,587.9,232.8,590.2,229.7z"/>
		<path class="st1" d="M512.7,127.6c5.1-5,8.6-4.9,11.6-0.7C520.3,127.1,516.5,127.4,512.7,127.6z"/>
		<path class="st1" d="M391.3,185.2c-1.4,5-2.9,10-4.2,14.7C383.9,195,385.6,189.1,391.3,185.2z"/>
		<path class="st1" d="M132.7,200.4c4.4,0.2,8.8,0.5,13.3,0.7c0,0.6-0.1,1.3-0.1,1.9c-4.4-0.2-8.8-0.4-13.2-0.6
			C132.7,201.8,132.7,201.1,132.7,200.4z"/>
		<path class="st1" d="M308.6,226.4c5.1-2.4,10.1-3.3,15.9,1C318.2,227,313.4,226.7,308.6,226.4z"/>
		<path class="st1" d="M280.1,149.5c1.3,1.7,2.3,3.2,4.4,6c-2.7,0.1-5.5,0.9-6.2,0C276.8,153.6,276.2,150.8,280.1,149.5z"/>
		<path class="st1" d="M925.2,187.4c-3.9,0-7.8,0-11.6,0C916,184.1,919,183.9,925.2,187.4z"/>
		<path class="st1" d="M727.6,193.3c0.5-4.2,1-8.3,1.5-12.5c0.6,0.1,1.2,0.2,1.8,0.2c-0.5,4.2-0.9,8.5-1.4,13
			c-0.6-0.3-1.3-0.6-2-0.9C727.5,193.2,727.6,193.3,727.6,193.3z"/>
		<path class="st1" d="M715.2,257.7c4.5,0.7,9.1,1.4,13.6,2.1c-0.1,0.6-0.2,1.2-0.3,1.8c-4.6-0.7-9.2-1.3-13.8-2
			C714.9,258.9,715,258.3,715.2,257.7z"/>
		<path class="st1" d="M248.3,139.8c0.6,2.6,1.2,5.2,1.8,7.9c-0.3,0.3-0.6,0.6-1,0.9c-1.3-1.6-3.2-3-3.8-4.8c-0.4-1.2,0.9-3,1.5-4.6
			C247.3,139.4,247.8,139.6,248.3,139.8z"/>
		<path class="st1" d="M206.1,210c4.7-0.4,8.7-0.7,12.8-1.1C217,212.8,211.9,213.4,206.1,210z"/>
		<path class="st1" d="M376.3,274.1c-4.5,0.5-9.1,0.9-13.6,1.4c-0.1-0.6-0.1-1.2-0.2-1.8c4.5-0.5,9.1-0.9,13.6-1.4
			C376.2,272.9,376.2,273.5,376.3,274.1z"/>
		<path class="st1" d="M169.6,209.9c4.5,0.5,8.9,1,13.4,1.5c-0.1,0.5-0.1,1-0.2,1.6c-4.5-0.4-8.9-0.7-13.4-1.1
			C169.5,211.2,169.6,210.6,169.6,209.9z"/>
		<path class="st1" d="M352.1,265c4.1,0,8.2,0,12.2,0c0,0.3,0,0.6,0,1c-4.1,0-8.2,0-12.2,0C352.1,265.7,352.1,265.3,352.1,265z"/>
		<path class="st1" d="M660.2,188.7c5-4.2,9-4.1,11.3-0.8C668.1,188.1,664.7,188.4,660.2,188.7z"/>
		<path class="st1" d="M772.3,257.3c1.7,0.3,3.3,0.4,5,0.9c2.9,0.8,3.2,0.7,6-2.1c0.3-0.3,1.7-0.3,1.7-0.2c0.3,0.8,0.5,2.3,0.4,2.3
			c-2.7,0.6-5.5,1.6-8.2,1.5c-1.6,0-3.1-1.6-4.7-2.5C772.4,257.2,772.3,257.3,772.3,257.3z"/>
		<path class="st1" d="M894.9,190c-5.6-0.8-11.2-1.6-16.8-2.5c0.1-0.4,0.1-0.8,0.2-1.3c5.6,0.8,11.2,1.6,16.8,2.4
			C895.1,189.1,895,189.5,894.9,190z"/>
		<path class="st1" d="M267.3,266.5c3.8-3.8,6-3.6,10.2,0.7C274.1,267,270.8,266.7,267.3,266.5z"/>
		<path class="st1" d="M408.4,285.5c3.7-0.2,7.4-0.4,11.2-0.6c0,0.6,0,1.1,0.1,1.7c-3.7,0.2-7.4,0.4-11.2,0.6
			C408.4,286.6,408.4,286.1,408.4,285.5z"/>
		<path class="st1" d="M264.1,280.2c-3.6,0-7.2,0-10.7,0C258.1,276.4,261,276.4,264.1,280.2z"/>
	</g>
</g>
</svg>
