<svg width="32" height="33" viewBox="0 0 32 33" fill="none" xmlns="http://www.w3.org/2000/svg">
<path fill-rule="evenodd" clip-rule="evenodd" d="M16 0.115234C7.16344 0.115234 0 7.27868 0 16.1152C0 24.9518 7.16344 32.1152 16 32.1152C24.8366 32.1152 32 24.9518 32 16.1152C32 7.27868 24.8366 0.115234 16 0.115234ZM15.5544 13.6735L15.5208 13.1198C15.4201 11.6849 16.3042 10.3743 17.7032 9.86582C18.218 9.68504 19.091 9.66244 19.6617 9.82063C19.8856 9.88842 20.3108 10.1144 20.613 10.3178L21.1614 10.6906L21.7658 10.4985C22.1015 10.3969 22.5492 10.2274 22.7506 10.1144C22.9409 10.0127 23.1088 9.95621 23.1088 9.99011C23.1088 10.1822 22.6947 10.8375 22.3477 11.1991C21.8777 11.7075 22.012 11.7527 22.9633 11.4137C23.534 11.2217 23.5452 11.2217 23.4333 11.4363C23.3662 11.5493 23.0192 11.9448 22.6499 12.3063C22.0232 12.9278 21.9896 12.9956 21.9896 13.5153C21.9896 14.3175 21.6091 15.9897 21.2286 16.9049C20.5235 18.6223 19.0126 20.3962 17.5017 21.2888C15.3753 22.543 12.5438 22.8593 10.16 22.1249C9.36539 21.8763 8.00001 21.2436 8.00001 21.1306C8.00001 21.0967 8.4141 21.0515 8.91773 21.0402C9.96974 21.0176 11.0218 20.7239 11.9171 20.2041L12.5214 19.8426L11.8276 19.6053C10.8427 19.2663 9.95855 18.4867 9.73472 17.7523C9.66757 17.515 9.68995 17.5037 10.3167 17.5037L10.9658 17.4924L10.4174 17.2326C9.76829 16.9049 9.17514 16.3513 8.88415 15.7863C8.67151 15.3796 8.40291 14.3514 8.48125 14.2723C8.50364 14.2384 8.73866 14.3062 9.00726 14.3966C9.77949 14.6791 9.88021 14.6113 9.43254 14.1367C8.59317 13.278 8.33576 12.0013 8.73866 10.7923L8.92892 10.25L9.66757 10.9844C11.1784 12.4645 12.9579 13.3458 14.9948 13.6057L15.5544 13.6735Z" fill="#D9D9D9"/>
</svg>
