<svg width="32" height="33" viewBox="0 0 32 33" fill="none" xmlns="http://www.w3.org/2000/svg">
<path fill-rule="evenodd" clip-rule="evenodd" d="M16 0.115234C7.16344 0.115234 0 7.27868 0 16.1152C0 24.9518 7.16344 32.1152 16 32.1152C24.8366 32.1152 32 24.9518 32 16.1152C32 7.27868 24.8366 0.115234 16 0.115234ZM22.6679 10.6156C23.4022 10.8171 23.9805 11.4108 24.1768 12.1648C24.5335 13.5314 24.5335 16.3827 24.5335 16.3827C24.5335 16.3827 24.5335 19.2339 24.1768 20.6005C23.9805 21.3545 23.4022 21.9483 22.6679 22.1499C21.3371 22.516 16.0001 22.516 16.0001 22.516C16.0001 22.516 10.6632 22.516 9.3323 22.1499C8.59795 21.9483 8.01962 21.3545 7.82335 20.6005C7.4668 19.2339 7.4668 16.3827 7.4668 16.3827C7.4668 16.3827 7.4668 13.5314 7.82335 12.1648C8.01962 11.4108 8.59795 10.8171 9.3323 10.6156C10.6632 10.2493 16.0001 10.2493 16.0001 10.2493C16.0001 10.2493 21.3371 10.2493 22.6679 10.6156Z" fill="#D9D9D9"/>
<path fill-rule="evenodd" clip-rule="evenodd" d="M14.3999 19.3143V13.981L18.6666 16.6477L14.3999 19.3143Z" fill="#D9D9D9"/>
</svg>
