<svg width="662" height="417" viewBox="0 0 662 417" fill="none" xmlns="http://www.w3.org/2000/svg">
<path d="M115.19 217C111.64 215.1 108.52 215.26 105.72 215.77C88.22 219 70.26 219.52 53.1 224.99C47.19 226.87 42.89 229.87 39.67 235.12C39.93 233.08 37.6 232.35 37.97 230C38.81 224.71 41.53 221.3 46.28 223.08C51.29 224.95 54.98 222.19 58.89 221.3C64.41 220.05 70.16 219.92 75.39 218.34C81.88 216.38 88.68 217.07 94.82 215.07C100.49 213.22 106.1 214.34 111.65 213.26C112.98 213 113.98 214.8 115.2 216.99L115.19 217Z" fill="black"/>
<path d="M74.82 353.64C73.54 351.26 71.91 348.86 72.47 346.13C73.21 342.5 74.94 339.07 75.7 335.44C76.57 331.27 78.45 332.76 80.05 334.51C80.76 335.29 81.58 335.94 82.35 336.12C86.81 337.19 85.98 340.44 84.87 343.05C83.08 347.24 79.45 350.09 76.04 353C75.81 353.2 75.49 353.3 74.83 353.64H74.82Z" fill="black"/>
<path d="M42.91 346.22C51.51 352.85 56.39 360.88 62.73 369.23C57.94 368.18 53.83 368.12 50.71 366.33C48.18 364.88 46.69 361.34 48.41 357.89C49.1 356.5 50.32 355.13 47.7 354.63C43.31 353.79 43.79 350.26 42.91 346.21V346.22Z" fill="black"/>
<path d="M308.38 209.6C305.17 209.71 302.86 210.15 302.75 207.61C302.65 205.16 304.77 204.96 306.85 204.61C313.02 203.56 319.64 204.56 325.21 200.68C325.97 200.16 326.93 199.52 327.67 200.79C328.32 201.91 328.28 202.99 327.31 203.95C325.26 205.96 322.77 207.14 320 207.65C315.67 208.44 311.32 209.11 308.38 209.6Z" fill="black"/>
<path d="M410.8 209.35C410.8 209.35 410.87 209.26 410.91 209.22C410.84 209.22 410.77 209.22 410.69 209.24L410.79 209.36L410.8 209.35Z" fill="black"/>
<path d="M625.15 254.2C626.31 248.97 626.78 243.99 626.61 238.49C626.41 232 628.04 225.2 628.01 218.44C627.96 209.68 627.96 209.21 619.43 209.82C612.08 210.35 607.59 207.13 604.08 201.32C603.45 200.27 602.51 199.19 603.33 198.26C604.25 197.2 605.76 197.49 607 198.19C607.88 198.69 608.64 200.51 609.74 199.06C611.53 196.69 613.36 197.7 615.39 198.37C618.74 199.48 622.76 197.33 625.74 200.48C625.83 200.58 626.66 200.22 626.9 199.9C628.75 197.34 631.44 195 629.58 191.31C627.1 191.52 628.73 194.35 626.88 195.87C625.02 187.94 622.72 180.85 617.41 175.06C618.02 177.3 618.49 179.04 615.16 178.75C612.46 178.52 609.73 178.71 607.02 178.7C604.33 178.7 602.21 178.97 603.9 182.63C604.41 183.74 604.38 185.13 604.83 186.41C605.53 188.39 605.09 189.74 602.28 189.72C586.52 189.6 570.77 189.69 555.01 189.7C547.18 189.7 539.35 189.59 531.52 189.76C528.86 189.82 527.76 188.77 527.05 186.39C525.13 179.93 519.95 175.29 513.23 175.62C505.09 176.02 496.91 175.65 488.75 175.75C486.49 175.78 483.91 175.6 482.91 173.81C480.79 170.04 477.54 170.75 474.36 170.72C470.7 170.69 467.02 170.59 463.37 170.75C460.09 170.9 458.41 169.54 457.3 166.41C455.54 161.43 453.23 156.65 450.95 151.28C449.97 153.04 450.05 153.88 450.67 154.84C452.97 158.45 453.85 162.65 455.5 166.54C456.71 169.4 456.42 170.97 452.83 170.72C447.36 170.35 442.02 171.74 436.54 171.86C427.03 172.06 422.62 177.55 423.08 187.14C423.14 188.4 423.44 189.74 422.37 190.91C420.16 193.34 418.05 195.87 415.92 198.38C413.62 201.11 409.05 202.9 411.97 207.86C412.08 208.05 411.37 208.71 410.94 209.22C415.04 208.87 420.07 210.65 421.42 204.18C421.69 202.91 423.11 201.97 424.81 201.64C432.65 200.09 440.21 199.27 445.8 206.8C446.15 207.27 446.89 207.51 447.48 207.75C450.75 209.11 450.59 211.24 449.31 214.08C446.75 219.77 443.32 224.92 440.09 230.22C437.62 234.28 434.06 237.66 432.5 242.3C437.1 236.85 442.01 231.6 445.05 225.09C449.54 215.47 452.7 213.99 463.52 216.29C467.28 217.09 471.33 217.48 475.1 216.97C478.73 216.48 479.49 217.95 478.92 220.65C478.58 222.28 478.58 224.13 479.69 224.5C482.6 225.5 483.44 228.53 485.28 229.85C494.8 236.68 498.35 246.05 499.19 257.14C499.4 259.92 502 261.49 504.49 261.34C525.83 260.01 547.18 259.42 568.56 259.62C570.21 259.64 571.88 259.59 573.52 259.37C585.44 257.79 597.44 258.25 609.32 259.03C616.05 259.47 622.66 259.18 629.4 259.62C629.06 256.42 624.57 256.94 625.18 254.17L625.15 254.2ZM622.75 191.62C618.28 191.51 613.77 192.44 608.14 190.13H622.77C622.77 190.63 622.76 191.12 622.75 191.62ZM610.28 180.68C615.93 180.24 619.6 182.11 620.9 186.69C617.12 186.69 613.79 186.53 610.49 186.74C607.4 186.93 606.7 184.8 606.73 182.7C606.75 180.91 608.71 180.81 610.28 180.68ZM524.92 188.93C525.19 190.71 523.86 190.68 522.69 190.68C511.43 190.63 500.16 190.57 488.9 190.48C488.68 190.48 488.46 190.12 487.91 189.64C488.53 189.18 488.78 188.85 489.03 188.84C500.07 188.44 511.11 188.06 522.15 187.74C523.16 187.71 524.65 187.2 524.91 188.94L524.92 188.93ZM487.11 180.5C487.59 177.45 489.52 179.04 491.22 179.27C499.86 180.48 508.56 179.4 517.23 179.69C519.01 179.75 520.84 179.4 521.61 181.77C522.09 183.25 522.42 184.79 521.66 186.05C520.74 187.57 519.75 185.58 518.65 185.7C511.69 186.44 504.88 183.93 498.91 184.69C495.43 184.69 492.93 184.63 490.44 184.71C487.37 184.81 486.72 182.94 487.11 180.5ZM427.03 178.27C429.98 175.07 434.21 174.9 437.91 174.86C448.49 174.76 459 173.29 469.61 173.62C481.3 173.99 482.17 174.48 483.03 186.1C483.14 187.58 483.04 189.07 483.04 191.08C481.16 189.85 481.09 188.43 481.02 186.89C480.53 176.86 476.64 173.64 466.97 177.04C459.86 179.54 452.68 178.19 445.6 179.5C440.06 180.53 434.15 179.28 428.64 181.49C427.5 181.95 426.19 181.83 425.63 180.56C425.14 179.43 426.41 178.92 427.02 178.26L427.03 178.27ZM420.7 198.48C424.32 188.44 426.12 188.21 434.69 197.69C429.33 197.03 425.18 199.49 420.7 198.48ZM443.42 192.48C440.27 193.27 437.03 192.86 434.37 189.87H468.3C463.23 180.48 463.87 179.6 474.06 179.65C476.83 179.66 478.67 179.99 478.06 183.35C477.97 183.83 478.01 184.35 478.06 184.84C479.08 193.3 478.33 193.02 470.07 192.53C461.27 192.01 452.32 190.23 443.41 192.48H443.42ZM477.6 199.69C474.28 199.69 471.01 199.73 467.74 199.67C466.71 199.65 465.27 200.08 465.14 198.31C465.01 196.49 466.41 196.73 467.51 196.72C469.97 196.68 472.43 196.82 474.88 196.67C477 196.54 477.19 197.99 477.6 199.69ZM458.18 211.69C456.85 211.68 455.5 211.8 454.2 211.6C452.33 211.31 452.06 209.85 452.05 208.23C452.04 206.74 452.35 206.02 454.12 205.62C462.49 203.72 470.94 205.17 479.34 204.71C482.69 204.53 486.93 206.1 486.27 199.79C486.02 197.43 488.77 197.71 490.56 197.71C498.7 197.7 506.85 197.48 514.98 197.81C518.31 197.95 521.35 195.8 525.12 197.15C523.93 199.36 523.16 201.36 521.91 202.99C518.85 206.99 515.53 210.25 509.63 209.78C492.43 208.4 475.37 211.87 458.19 211.69H458.18ZM621.88 245.14C620.54 247.83 618.22 249.99 614.69 247.52C613.54 246.72 612.15 246.26 610.97 245.68C609.95 246.77 610.62 247.31 611.05 248.03C613.49 252.11 612.71 253.59 608.15 253.66C606.82 253.68 605.48 253.68 604.15 253.66C601.95 253.62 599.28 254.4 598.48 251.29C597.72 248.37 601.17 249.17 602.84 247.14H584.54C583.65 248.79 586.51 248.58 586.22 250.1C585.93 251.57 588.67 253.42 586.37 254.35C584.54 255.09 581.59 255.79 580.65 252.52C578.92 246.49 574.43 246.2 569.29 246.6C566.22 246.84 565.09 247.47 567.33 250.3C568.54 251.83 569.25 253.75 571.19 254.93C569.76 255.81 569.05 255.94 568.17 254.64C566.65 252.37 565.13 250.02 562.64 248.62C560.95 247.67 559.07 246.07 558.17 249.48C557.71 251.23 555.71 250.85 555.53 250.26C554.1 245.6 550.11 248.51 547.63 247.06C546.81 249.64 550.07 249.08 550.11 251.59C546.23 251.36 544.67 246.09 540.05 247.45C536.48 248.5 532.35 247.66 528.59 247.66C528.21 250.43 531.07 248.91 530.98 250.76C530.89 250.92 530.74 251.38 530.59 251.38C528.77 251.41 526.75 252.62 525.28 250.51C523.04 247.31 523.56 247.8 520.86 250.67C519.05 252.6 515.57 253.34 512.53 252.3C512.29 251.22 512.65 250.78 513.43 250.7C514.61 250.57 516 250.28 515.68 248.88C515.39 247.61 513.82 247.24 512.77 247.88C510.56 249.23 508.23 248.43 505.97 248.63C504.45 248.77 502.55 248.67 502.5 246.8C502.45 245.09 503.92 243.79 505.76 243.71C509.09 243.58 512.42 243.57 515.75 243.68C518.42 243.77 520.99 243.53 523.6 242.28C520.92 238.86 517.28 242.25 514.03 240.96C510.59 239.6 509 238.58 510.11 234.99C510.83 232.68 509.26 231.28 508.19 229.7C506.98 227.91 504.06 228.71 503.77 229.08C502.47 230.7 504.3 230.93 505.28 231.94C507.2 233.94 507.69 237.04 508.27 240.05C501.34 236.8 501.48 236.78 500.54 229.54C500.28 227.51 501.23 227.61 502.36 227.69C504.28 227.83 504.92 226.04 504.65 225.23C503.69 222.31 503.07 226.07 502.26 225.53C500.35 224.27 498.59 225.36 496.72 225.49C494.36 225.65 495.83 222.77 494.48 221.45C493.34 220.34 495.45 218.18 496.93 217.92C502.47 216.93 508.01 215.02 513.66 218.23C515.96 219.54 519.66 217.82 521 221.77C521.4 222.95 522.72 223.91 521.93 225.3C521.16 226.65 522.03 227.17 522.93 227.43C524.17 227.79 524.19 226.7 524.19 225.9C524.19 224.61 524.37 223.66 526.05 223.65C528.23 223.64 529.79 224.89 529.99 226.67C530.13 227.93 532.53 229.79 530.38 230.4C526.95 231.37 529.53 232.2 530.12 233.05C531.7 235.32 533.93 236.03 536.61 235.65C538.1 235.44 539.26 234.83 539.11 233.2C538.88 230.81 537.38 232.8 536.58 232.74C534.97 232.61 534.18 232.29 534.17 230.48C534.17 227.48 532.82 224.84 530.95 222.66C529.51 220.98 530.54 219.83 531.25 218.71C532.19 217.22 531.84 215.46 532.55 214.03C533.35 212.41 533.76 210.55 532.82 209.31C531.48 207.53 529.57 209.37 527.46 209.49C529.59 206.03 532.53 204.23 536.1 204.86C539.25 205.41 540.48 204.7 540.18 201.62C540.02 200.01 541.15 199.75 542.16 199.27C542.96 198.89 543.8 199.69 543.59 199.94C540.14 204.12 545.02 209.15 542.15 213.32C540.12 216.28 542.57 218.76 543.34 221.69C544.12 220.05 544.91 218.41 545.73 216.71C547.63 216.62 547.25 221.12 550.62 218.67C552.07 217.61 552.47 221.24 552.99 222.68C553.68 224.6 553.36 227.24 556.23 226.98C558.95 226.73 559.6 224.88 558.28 222.38C557.98 221.82 558.28 220.99 559.04 220.81C559.82 220.63 560.89 220.49 561.06 221.58C561.25 222.8 561.7 223.74 562.59 224.59C563.51 225.46 564.67 226.25 565.61 225.31C566.92 224 565.38 223.21 564.44 222.82C563.18 222.3 563.06 221.46 563.38 220.47C563.7 219.45 564.75 219.63 565.48 219.72C568.11 220.07 571.84 218.11 572.4 223.01C572.51 223.94 573.48 224.89 574.58 224.4C575.39 224.04 575.25 222.99 574.96 222.17C574.71 221.47 573.8 220.86 574.64 220.03C578.33 218.75 578.61 223.47 581.46 223.84C582.51 223.98 583.58 225.23 584.64 224.33C585.72 223.41 585.26 222.22 584.31 221.36C582.97 220.16 583.94 219.47 584.75 218.6C585.79 217.48 586.71 217.55 587.65 218.65C588.46 219.59 589.98 220.37 588.43 221.9C587.44 222.88 586.37 224.18 587.7 225.26C588.84 226.19 589.98 224.54 591.16 224.15C593.7 223.31 594.78 220.12 597.91 219.99C598.36 219.97 598.9 218.05 599.07 216.95C599.24 215.86 598.24 215.68 597.39 215.7C590.12 215.86 583.12 212.61 575.82 213.74C569.89 214.66 563.97 214.66 558.01 214.7C555.27 214.72 552.91 214.62 553.11 210.92C553.17 209.8 552.29 209.08 551.34 208.74C550.02 208.26 550.03 206.52 550.36 206.44C554.43 205.41 553.04 202.19 553.15 199.69C553.26 197.28 554.95 197.51 556.31 197.73C568.06 199.64 579.94 196 591.7 198.6C594.16 199.14 595.99 199.92 597.01 202.19C599.07 206.78 602.16 211.06 601.2 216.58C600.87 218.49 602.17 219.57 603.99 220.28C604.05 219.37 603.83 218.39 604.21 217.76C605.23 216.07 601.65 214.03 604.51 212.82C606.04 212.17 606.96 215.76 609.43 214C609.97 213.61 610.26 215.73 609.57 216.73C608.6 218.12 606.37 218.91 607.86 222.02C610.69 214.49 616.84 217.78 621.79 217.18C623.01 217.03 623.29 218.82 623.68 219.8C627.21 228.68 625.33 235.25 617.31 241.23C619.34 242.15 623.94 240.89 621.82 245.14H621.88Z" fill="black"/>
<path d="M373.91 182.69C370.82 183.23 366.49 183.99 362.16 184.74C357.38 185.57 354.5 188.86 353.51 193.09C352.63 196.87 351.79 200.71 351.17 204.56C350.28 210.02 352.35 211.66 358.05 210.62C361.89 209.92 365.73 208.96 369.6 208.77C374.01 208.56 376.79 206.62 378 202.58C379.3 198.24 380.85 193.99 381.2 189.35C381.63 183.62 381.1 182.71 373.91 182.69ZM373.75 192.09C373.28 194 372.39 197.3 371.66 200.64C371.14 203.01 368.94 203 367.45 203.4C357.32 206.15 356.59 205.48 358.14 195.41C358.6 192.42 359.57 189.85 363.41 189.52C365.96 189.3 368.43 188.24 370.97 187.74C373.21 187.3 374.55 188.11 373.75 192.1V192.09Z" fill="black"/>
<path d="M382.67 343.06C381.65 341.9 381.31 341.13 380.79 340.99C374.61 339.3 370.71 336.29 373.03 329.02C373.65 327.06 372.23 326.58 370.42 326.57C368.31 326.57 367.77 327.4 368.32 329.3C368.83 331.07 368.02 333.19 366.6 332.98C365.05 332.75 365.44 329.66 363.62 328.71C365.67 326.55 365.32 321.85 370.13 322.6C370.62 322.68 371.14 322.53 371.63 322.62C374.72 323.2 378.31 319.38 380.85 323.03C383.39 326.68 384.39 331.13 384.06 335.6C383.38 344.53 381.88 353.21 373.41 359.3C373.48 356.88 372.24 355.13 371.01 353.43C370.51 352.74 369.45 352.45 368.65 351.98C366.04 358.16 366.62 349.34 364.06 352.92C363.72 355.88 364.95 359.87 368.31 363.28C369.2 364.18 370.55 366.21 368.77 366.15C364.07 365.98 360.95 370.62 356.19 369.62C355.2 369.41 354.2 369.46 353.51 368.1C356.06 367.21 356.29 365.12 356.15 362.73C356 360.07 356.23 357.4 356.08 354.74C355.98 352.98 356.29 351.11 357.43 350.13C361 347.07 366.11 345.89 368.05 340.76C368.4 339.84 370.49 341.24 371.6 341.78C374.92 343.41 378.25 344.14 382.71 343.07L382.67 343.06Z" fill="black"/>
<path d="M348.99 349.5C352.59 353.91 355.06 358.42 354.57 364.02C352.86 363.98 351.66 362.67 350.41 361.42C349.61 360.62 348.89 359.28 347.62 359.66C344.67 360.53 342.77 359.71 340.06 357.96C336.76 355.83 337.38 360.05 336.87 362.29C333.77 360.04 333.19 356.72 332.2 353.19C338.34 354.05 344.86 356.68 349.01 349.49L348.99 349.5Z" fill="black"/>
<path d="M354.65 340.37C354.87 335.28 361.66 338.3 361.79 333.27C363.13 337.85 360.08 340.57 354.65 340.37Z" fill="black"/>
<path d="M176.23 182.62C175.85 183.81 176.73 184.62 177.11 185.58C175.09 185.32 173.15 184.86 170.96 182.95C173.2 182.81 174.71 182.72 176.23 182.62Z" fill="black"/>
<path d="M512.48 88.89C506.79 89.85 501.22 91.01 495.39 90.86C491.75 90.76 491.4 89.56 493.03 86.78C495.05 83.34 497.03 79.87 499.03 76.42C494.9 78.91 492.78 82.93 490.57 86.78C488.79 89.87 486.64 91.04 483.02 90.85C471.11 90.25 459.19 90.94 447.23 90.01C437.98 89.3 429.57 87.51 421.9 82.24C419.79 80.79 417.38 79.54 414.6 79.57C405.68 79.66 396.69 79.07 387.85 79.94C373.2 81.38 358.69 84.69 344.03 85.48C327.24 86.38 310.64 88.13 294.03 90.56C290.51 91.08 286.51 93.6 283.04 90.96C279.3 88.12 275.6 88 271.14 88.65C260.69 90.16 251.47 93.43 245.51 102.85C242.78 107.16 238.8 109.78 234.13 111.74C219 118.08 204.58 125.78 191.18 135.3C190.38 135.87 189.2 136.47 189.5 137.84C197.68 132.6 206 127.66 214.79 123.45C221.81 120.09 228.17 115.26 235.59 112.81C253.03 107.05 271.27 105.17 289.36 102.83C299.76 101.48 310.29 100.77 320.68 99.44C334 97.73 347.34 95.84 360.69 94.98C377.17 93.92 393.72 93.33 410.25 92.79C424.3 92.33 438.3 93.56 452.33 94.57C466.87 95.62 481.48 94.51 496.1 95.53C509.36 96.46 522.73 95.74 536.05 95.69C537.16 95.69 538.55 96.26 539.81 94.44C530.47 92.25 522.08 87.26 512.48 88.87V88.89ZM257.16 98.56C254.21 98.26 253.01 100.93 251.08 101.9C250.3 101.61 249.67 101.58 249.44 101.26C249.01 100.66 249.28 99.87 249.88 99.59C252.16 98.52 253.56 96.35 255.61 95.06C256.55 94.47 258.34 94.02 258.97 95.69C259.52 97.13 258.54 98.7 257.16 98.56ZM272.83 100.05C272.02 101.51 270.15 100.41 268.63 100.76C269 98.46 269.35 96.46 271.14 94.52C272.65 96.4 273.86 98.19 272.83 100.05ZM383.9 87.01C383.48 88.47 382.15 88.74 380.7 88.76C374.43 88.82 368.2 88.96 361.91 89.61C344.45 91.4 326.91 92.09 309.48 94.51C299.65 95.87 289.92 98.21 280 98.4C285.4 94.88 291.57 94.88 297.4 93.85C309.66 91.68 322.12 90.96 334.5 89.63C349.53 88.02 364.6 87.18 379.64 85.75C380.14 85.7 380.63 85.64 381.13 85.66C382.3 85.7 382.06 83.03 383.57 84.24C384.1 84.67 384.14 86.16 383.89 87.02L383.9 87.01ZM407.35 85.57C405.09 83.44 402.21 83.7 399.4 83.74C396.33 83.78 393.26 83.74 390.18 83.74C400.17 83.46 410.72 80.33 419.42 87.98C415.02 88.99 410.87 88.88 407.34 85.56L407.35 85.57Z" fill="black"/>
<path d="M88.54 315.02C88.26 306.51 80.42 304.01 76.52 298.38C75.16 296.42 72.44 297.07 71.19 295.13C70.77 294.47 69.83 293.9 70.59 293.08C70.94 292.71 71.83 292.62 72.42 292.73C78.19 293.8 89.85 307.83 90.03 313.89C90.03 314.07 89.57 314.26 88.55 315.01L88.54 315.02Z" fill="black"/>
<path d="M111.55 297.19C116.01 305.92 118.03 315.61 122.61 324.28C116.28 316.34 114.53 306.5 111.55 297.19Z" fill="black"/>
<path d="M244.43 338.96C246.96 339.99 249.28 340.59 251.89 340.8C253.92 340.96 255.94 342.65 254.7 345.36C254.24 346.36 254.14 349.01 251.68 346.16C249.53 343.67 246.12 342.24 244.43 338.96Z" fill="black"/>
<path d="M272.82 343.91C272.29 349.36 270.27 350.76 261.45 351.47C265.53 348.76 269.14 346.36 272.82 343.91Z" fill="black"/>
<path d="M297.86 328.22C292.96 327.94 288.18 329.5 283.35 328.67C288.17 327.23 293.06 327.67 297.86 328.22Z" fill="black"/>
<path d="M384.97 311.39C380.09 308.49 381.35 302.06 377.52 298.46C375.93 296.96 373.77 293.24 373.86 293.17C378.88 289.37 372.83 288.72 371.9 287.19C370.12 284.27 365.52 286.37 363.27 283.37C361.28 280.72 357.22 283.78 355.21 280.69C355.1 280.53 353.62 280.83 353.52 281.16C352.08 285.56 348.78 283.52 346.21 283.17C343.04 282.74 339.56 282.75 337.65 284.95C334.6 288.45 329.49 290.78 329.88 296.79C329.96 298.03 328.25 299.61 327.04 300.65C324.7 302.67 321.71 304.22 324.03 308.11C324.35 308.65 323.85 309.59 323.08 309.51C318.25 308.97 318.35 313.49 318.5 315.5C318.71 318.46 316.07 322.3 318.54 323.93C320.58 325.28 322.22 320.71 324.9 320.09C325.97 324.08 322.72 324.59 320.31 325.6C318.9 326.19 318.04 326.89 318.2 328.48C318.28 329.29 318.73 329.42 319.53 329.47C323.53 329.73 324.96 334.58 324.65 335.84C323.25 341.58 328.64 343.58 329.55 347.76C329.25 342.11 328.7 336.6 328.13 331.09C327.88 328.7 328.96 326.62 329.75 324.49C330.14 323.44 330.67 322.12 332.18 322.76C333.69 323.39 333.24 324.62 332.58 325.63C330.92 328.15 330.38 331.16 331.38 333.69C332.53 336.6 333.24 339.5 333.73 342.58C334.14 337.93 334.08 333.33 334.17 328.74C334.19 327.61 333.42 325.72 335.61 325.72C337.75 325.72 337.09 327.57 337.09 328.73C337.11 332.25 337.54 335.5 340.19 338.23C342.84 340.96 345.95 339.19 347.03 337.71C348.33 335.93 351.05 333.4 348.3 330.15C345.75 327.14 341.83 326.91 338.91 324.29C331.7 317.86 331.11 315.6 337.86 307.94C338.19 309.55 337.87 310.75 337.44 312.19C336.67 314.74 336.6 317.43 339.36 319.27C342.33 321.25 345.25 322.78 348.86 320.72C352.29 318.76 352.35 317.36 349.14 315.05C346.92 313.45 343.37 313.19 342.58 310.29C341.88 307.71 341.58 305.48 338.06 305.47C345.06 302.86 348.38 309.97 354.12 310.85C354.12 308.34 353.58 305.69 354.26 303.41C355.06 300.73 353.33 296.48 358.03 295.73C357.77 303.09 359.51 310.77 354.31 317.34C353.75 318.04 353.98 320.19 355.77 319.24C359.85 317.06 361.16 320.57 363.21 322.65C367.59 317.32 364.79 312.19 363.13 307.09C369.63 306.25 370.01 306.58 370.12 312.56C370.17 315.35 369.4 317.8 374.49 317.34C377.73 317.05 384.56 316.02 384.23 323.61C384.19 324.66 385.14 325.88 386.63 325.31C387.73 324.89 387.11 323.57 387.38 323.03C389.62 318.43 383.14 315.75 384.99 311.39H384.97ZM322.63 316.36C321.41 314.63 323.86 314.47 323.4 313.21C324.56 314.74 323.82 315.55 322.63 316.36ZM373.82 305.01C373.16 305.96 371.71 305.91 371.3 305.01C369.98 302.07 367.35 302.02 364.79 301.43C361.63 300.69 361.85 295.81 358.1 295.58C358.12 295.63 358.14 295.67 358.16 295.71L358.02 295.57C358.05 295.57 358.07 295.57 358.1 295.58C356.16 291.1 354.39 290.34 351.09 293.36C348.73 295.52 345.47 296.19 343.46 298.72C342.29 300.2 340.79 299.57 338.55 299.29C342.87 295.55 346.04 291.62 351.5 290.35C353.6 289.86 355.13 289.82 357.06 290.58C363.51 293.11 367.74 298.62 373.26 302.38C374.2 303.02 374.39 304.18 373.81 305.02L373.82 305.01Z" fill="black"/>
<path d="M247.7 377.9C250.91 376.99 254.24 378.8 256.51 375.85C256.61 375.72 257.33 376.08 257.77 376.22C257.49 376.82 257.36 377.77 256.91 377.95C254 379.13 251.03 381 247.7 377.9Z" fill="black"/>
<path d="M637.85 375.97C637.39 375.6 636.79 375.4 636.25 375.13C634.09 380.81 632.95 376.42 631.5 374.67C630.84 373.87 630.08 373.96 628.98 373.99C625.15 374.12 623.03 376.1 621.81 379.7C620.42 374.55 625.3 369.44 621.02 363.75C621.15 373.01 621.18 373.1 613.47 375.3C608.26 376.79 611.32 370.84 609.08 369.71C608 370.11 608 370.84 608.05 371.43C608.31 374.8 607.76 376.44 603.7 374.78C601.23 373.77 597.92 375.36 595.7 372.75C591.28 376.96 586.66 370.75 582.09 373.24C584.66 370.39 586.68 367.21 590.64 366.58C591.66 366.42 592.73 366.02 592.55 364.88C591.96 361.32 594.28 359.22 596.21 356.87C596.87 356.06 598.65 355.26 597.57 354.19C596.82 353.45 595.16 352.37 593.72 353.46C592.61 354.3 591.32 355.39 590.35 354C589.59 352.92 591.11 351.7 591.59 350.54C593.31 346.37 597.79 344.32 599.7 340.09C596.91 344.2 592.5 341.68 589.16 343.01C585.39 344.51 586.3 340.24 584.45 339.29C583.66 338.89 583.65 337.38 585.13 336.54C586.96 335.51 588.47 335.18 589.91 336.99C591.16 338.58 592.2 338.6 593 336.72C594.24 336.62 593.83 339.06 595.9 338.18C593.69 333.94 595.31 330.05 598.06 326.83C601.43 322.89 603.17 316.74 609.78 316.66C617.45 316.57 622.96 313.05 626.57 306.52C629.91 300.48 634.72 295.23 635.15 287.66C635.4 283.39 633.67 279.44 634.62 275.01C636.27 267.36 636.97 259.49 637.94 251.7C638.23 249.42 638.27 247 635.01 246.11C635.38 254.22 629.91 261.6 632.89 270.07C631.02 267.26 628.93 265.61 625.84 264.31C622.86 263.06 622.19 265.88 619.87 265.86C601.61 265.71 583.34 265.2 565.08 266.54C556.46 267.17 547.76 266.64 539.1 266.65C532.49 266.66 525.87 266.31 519.32 267.64C513.84 268.76 509.18 271.07 506.32 276.31C511.45 272.3 517.6 272.19 523.46 271.74C533.03 271.01 542.66 271.23 552.25 270.9C575.71 270.1 599.22 270.66 622.71 270.61C625.31 270.61 627.14 271.33 627.92 274.05C624.64 275.81 621.78 273.37 618.7 273.54C608.1 274.12 597.48 274.3 586.86 274.64C586.03 274.67 584.87 274.46 584.44 274.92C581.63 277.85 577.85 276.61 574.97 276.32C567.62 275.58 560.24 275.26 552.88 274.68C542.1 273.83 531.35 275.25 520.6 275.79C514.61 276.09 509.14 278.96 505.43 283.91C499.66 291.61 494.45 299.73 488.57 307.33C486.26 310.32 483.85 313.95 477.79 314.5C488.68 304 494.86 291.84 501.73 280.09C499.51 281.72 497.49 283.44 495.96 285.79C492.99 290.36 489.44 293.41 483.12 292.79C476.08 292.11 468.94 293.45 461.85 293.82C447.92 294.54 434.06 296.36 420.15 297.58C415.52 297.99 414.74 296.76 415.87 291.6C417.88 292.24 419.17 293.8 421.82 293.89C438.76 294.45 455.44 290.58 472.4 291.41C477.03 291.64 482.78 291.95 486.45 288.43C491.98 283.13 496.66 276.94 501.69 271.12C497.55 272.45 495.71 276.54 491.43 277.76C486.63 279.13 481.83 278.91 477.16 278.47C469.74 277.77 464.74 280.81 461.06 286.73C459.71 288.9 458.19 288.94 455.85 288.04C457.19 286.09 458.2 284.22 459.58 282.68C461.65 280.38 463.65 277.52 467.17 277.7C472.5 277.96 477.7 276.96 482.96 276.65C487.82 276.36 493.34 269.14 492.31 263.89C490.84 265.61 489 266.54 488.87 269.21C488.77 271.15 488.03 273.6 485.15 273.62C480.36 273.64 475.71 275.01 470.86 274.7C463.38 274.23 458.07 277.58 455.06 284.57C453.78 287.54 450.81 288.55 448.06 289.54C447.23 289.84 445.59 290.26 445.16 288.6C444.75 287.03 445.97 287.03 447.04 286.46C448.74 285.57 450.17 284.05 451.48 282.58C452.52 281.42 452.26 279.96 450.92 279.16C449.95 278.59 449.27 278.26 447.55 279.09C444.05 280.79 441.02 284.73 436.22 283.33C438.16 279.01 437.89 277.21 434.16 268.98C432.95 270.53 431.94 272.04 430.23 273.22C427.21 275.29 427.68 280.35 430.55 280.21C436.94 279.91 434.2 284.73 434.9 287.26C435.9 290.89 431.76 288.89 430.48 290.39C430.06 290.88 428.44 291.01 428.16 289.59C427.79 287.73 429.08 287.03 430.55 286.37C431.39 286 432.53 285.1 431.65 284.11C430.75 283.09 429.37 283.53 428.67 284.61C427.89 285.82 426.99 287.05 427.04 288.65C427.08 290.12 426.55 291.57 424.94 291.41C423.05 291.22 422.9 289.46 423.09 287.93C423.23 286.82 423.56 285.7 424.01 284.67C425.84 280.56 424.06 280.09 420.56 281C422.63 284.24 419.2 288 421.86 291.01C421.91 291.07 421.14 292.14 420.59 292.38C419.41 292.9 418.7 291.91 418.21 291.12C417.66 290.24 417.54 288.4 416.13 289.27C410.94 292.47 411.07 287.01 410.26 285.18C407.12 278.08 404.37 270.77 402.09 263.35C399.92 256.28 394.3 250.47 394.54 242.59C394.58 241.37 393.71 241.68 393.35 241.72C390.95 241.98 390.65 239.78 389.37 238.69C387.51 237.1 386.75 234.8 384.51 233.31C377.9 228.91 370.23 228.93 363.25 229.13C355.19 229.36 346.84 229.15 338.86 231.55C336.14 232.37 334.09 231.41 335.43 227.95C336.17 226.05 336.67 224.39 334.22 222.87C333.77 228.76 332.65 232.8 325.56 234.29C318.66 235.75 311.59 238.93 307.84 246.24C300.67 260.23 296.63 275.07 294.22 290.56C293.8 293.28 293.6 295.62 294.01 298.22C294.15 299.1 294.61 300.51 292.45 300.42C288.42 300.25 284.36 300.79 280.33 300.58C267.47 299.91 254.65 298.48 241.73 298.6C228.07 298.73 214.41 298.51 200.75 298.66C178.99 298.89 157.23 299.25 135.47 299.69C132.7 299.75 129.94 300.61 127.04 301.12C128.34 304.55 130.82 303.59 132.78 303.59C160.1 303.64 187.42 303.61 214.75 303.67C216.47 303.67 218.58 302.81 220.17 304.79C218.25 306.16 216.37 305.59 214.63 305.59C188.14 305.63 161.65 305.61 135.16 305.64C133.53 305.64 131.35 305.29 130.37 306.16C126.69 309.43 125.56 305.75 125.48 303.96C125.28 299.79 123.98 295.96 123.16 291.98C121.12 282.14 120.05 272.19 120.12 262.13C120.12 260.9 120.27 259.56 118.14 259.1C117.36 269.72 118.67 279.9 121.14 290.07C121.97 293.5 125.66 297.44 120.62 300.86C119.78 301.43 119.57 303.27 121.26 303.52C125.32 304.11 123.6 307.3 125 310.33C119.92 306.46 116.8 303.16 115.34 297.55C111.45 282.66 106.71 267.98 101.87 253.36C100.18 248.26 97.16 244.05 91.69 241.38C83.56 237.41 75.16 238.6 66.89 238.81C54.11 239.13 44.5 244.75 38.92 257.03C35.16 265.3 34.44 274 33.29 282.67C32.83 286.12 29.93 288.93 31.21 292.78C32.79 297.52 33.88 302.42 35.49 307.14C36.13 309 36.94 311.26 39.89 311.44C39.98 310.57 40.07 309.79 40.15 309.02C41.51 295.81 47.12 285 58.57 277.89C61.77 275.9 65.21 273.74 69.32 273.63C78.21 273.38 86.51 274.72 92.8 281.89C93.95 283.21 95.27 284.34 92.88 285.71C91.9 286.27 90.66 286.91 91.5 288.37C92.44 290 93.23 288.84 94.18 288.18C95.9 286.99 96.48 288.44 96.05 289.56C94.44 293.76 98.68 296 99.34 299.52C99.61 300.94 99.08 303.59 100.67 304.32C104.58 306.11 101.46 311.06 104.9 313.09C105.23 313.29 102.49 316.05 103.75 318.84C104.27 318.08 104.73 317.58 104.98 316.99C105.52 315.76 106.2 314.06 107.63 315.03C108.92 315.91 107.6 317.24 106.93 318.43C105.49 321.01 103.6 323.23 104.79 326.98C105.48 329.15 105.07 332.81 104.24 334.91C101.87 340.87 100.93 347.28 98.12 353.07C95.32 358.85 90.19 362.32 85.47 367.27C85.05 364.56 84.96 363.09 86.46 361.73C90.25 358.27 90.75 351.91 96.68 350.22C97.58 349.96 96.5 348.88 96.3 348.17C95.55 345.41 95.62 342.22 96.02 339.77C96.41 337.46 97.17 335.23 96.8 332.78C95.86 326.43 95.63 319.87 93.88 313.76C92.08 307.48 91.11 300.92 87.6 294.99C85.81 291.96 83.9 289.98 81 288.59C79.65 287.94 80.28 284.42 77.94 285.85C73.86 288.34 73.58 284.53 72.3 282.59C70.73 283.48 70.77 285.94 68.87 285.43C67.36 285.03 68.74 282.99 67.46 281.96C65.83 283.55 64.7 285.7 61.71 285.64C58.88 285.58 56.33 286.51 53.91 288.81C50.05 292.47 49.65 297.57 47.11 301.65C43.94 306.74 45.17 311.63 47.46 316.26C50.73 322.87 48.74 329.08 47.58 335.86C46.79 335.25 46.4 335.1 46.35 334.88C45.29 330.51 48.85 324.69 42.32 321.99C42.25 321.96 42.37 320.99 42.65 320.69C45.29 317.81 42.37 316.23 41.5 314.05C40.45 314.74 40.12 315.42 40.13 316.34C40.19 324.27 39.74 332.22 42.04 340.01C43.46 344.81 44.53 345.65 47.4 342.46C50.18 339.37 51.08 340.44 51.72 344.21C52.7 340.67 51.21 337.48 53.56 334.82C54.12 337.41 54.11 339.99 54.12 342.56C54.14 345.74 55.63 347.6 58.9 347.91C59.28 347.94 59.46 348.48 60.01 347.91C62.09 345.73 63.57 346.13 63.91 349.75C64.25 353.36 67.03 354.64 68.87 356.83C69.89 358.03 71.18 357.96 72.35 356.85C72.85 356.37 73.38 355.47 72.79 355.19C66.83 352.39 70.2 348.2 71.07 344.38C71.57 342.2 69.89 341.16 68.76 339.75C67.34 337.99 66.07 339.16 64.86 339.75C62.74 340.78 60.52 341.7 58.89 344.05C58.28 342.55 58.08 341.36 57.42 340.56C54.92 337.59 55.88 337.04 59.34 336.51C62.8 335.98 66.06 336.12 69.43 336.65C72.35 337.11 72.67 334.97 73.58 332.89C74.88 329.91 72.22 331.1 71.43 330.35C70.05 329.03 68.08 328.32 67.34 326.32C67.02 325.46 66.33 323.92 65.44 325.1C63.57 327.58 60.75 326.22 58.52 327.31C57.17 327.97 55.01 329.76 53.61 328.16C52.34 326.71 52.57 324.05 53.42 322.45C54.21 320.94 53.27 318.75 55.11 317.72C57.13 318.95 55.07 321.45 57.02 322.61C58.64 322.29 59.82 319.26 62.1 321.81C62.41 322.16 64.83 320.72 66.2 319.98C67.32 319.37 66.43 318.63 66.15 317.94C64.29 313.4 58.17 310.98 54.05 313.57C54.48 309.2 53.61 304.74 58.23 302.25C57.92 302.9 57.64 303.57 57.27 304.19C55.45 307.25 55.49 308.88 59.86 308.81C62.82 308.76 65.36 310.57 67.59 312.65C71.98 316.74 73.48 316.61 77.91 312.41C79.64 310.77 80.99 308.61 83.81 307.45C84.08 310.75 85.42 313.79 80.51 314.03C79.24 314.09 77.4 315.27 77.73 316.9C77.99 318.2 79.67 318.78 81.16 318.66C83.14 318.51 84.89 319.13 83.96 321.3C82.6 324.44 84.18 328.35 80.55 331.03C81.79 331.37 82.52 331.38 82.97 331.73C86.32 334.35 87.57 334 88.46 329.38C89.04 326.34 89.38 322.7 91.7 320.08C93.38 320.94 93.25 322.39 93.06 323.66C92.27 329.07 89.84 334.42 92.97 339.9C93.29 340.46 92.51 341.72 92.1 342.59C89.86 347.43 87.8 352.34 84.69 356.76C83.71 358.16 82.01 359.71 82.85 361.96C83.64 364.07 82.33 365.86 81.46 367.44C80.45 369.29 78.15 367.8 76.47 367.99C79.95 374.73 85.44 375.41 91.79 373.77C92.38 373.62 93.18 373.69 93.7 373.98C99.39 377.15 105.68 376.25 111.75 376.59C118 376.94 123.94 373.59 130.3 374.64C135.65 375.52 141.06 374.67 146.49 375.46C149.15 375.85 150.86 378.26 153.7 377.65C157.12 376.92 160.41 376.22 163.97 378.33C166.02 379.54 169.01 379.84 171.74 377.6C173.41 376.23 175.06 374.1 177.73 373.7C178.29 376.89 174.63 376.88 174.1 379.08C174.84 379.45 175.44 380.01 176.01 379.98C186.4 379.45 196.76 380 207.15 380.35C216.44 380.66 225.42 383.8 235.05 382.04C240.08 381.12 245.59 382.06 250.94 380.84C255.43 379.81 260.5 378.72 264.75 379.82C273.41 382.07 281.9 384.12 290.95 383.76C298.6 383.46 300.39 384.97 300.46 390.36C303.32 387.88 305.33 381.04 310.06 388.43C310.1 388.5 310.89 387.93 311.34 387.92C314.82 387.8 318.29 387.78 321.77 387.63C323.43 387.56 323.83 390.24 326.06 389.17C329.47 387.54 332.7 388.39 336.17 389.97C339.05 391.28 342.45 391.55 345.79 391.89C350.31 392.34 354.68 391.1 359.24 392.05C365.66 393.38 372.34 394.48 378.9 393.48C384.35 392.65 389.69 392.25 395.1 393.11C396.96 393.4 398.58 390.24 400.39 392.62C402.01 394.76 403.95 393.98 405.59 393.3C406.91 392.75 408.38 392.14 409.34 392.86C413.66 396.07 418.89 393.46 423.53 395.4C426.2 396.52 429.78 395.18 432.88 394.92C436.06 394.65 437.25 398.2 439.84 397.44C442.43 396.68 445.36 392.88 446.11 399.04C446.14 399.29 447.27 399.61 447.86 399.56C453.52 399.03 459.29 401.83 464.83 399.17C466.57 398.34 466.66 399.06 467.04 400.4C467.98 403.69 470.65 403.8 473.44 403.58C474.41 403.5 475.12 403.12 474.89 402.09C474.2 399.02 471.68 397.81 469.05 397.73C465.86 397.63 464.47 395.74 463.14 393.2C466.1 395.2 470.32 392.92 472.86 396.49C473.28 397.08 474.78 397.42 475.56 397.17C481.83 395.2 488.1 394.94 494.47 396.58C495.25 396.78 496.15 396.48 496.96 396.63C502.61 397.7 507.61 393.36 513.32 394.76C515.82 395.38 518.76 396.65 520.87 395.89C526.42 393.87 530.66 393.85 534.73 397.31C534.89 395.83 535.05 394.43 535.22 392.94C537.72 393.83 537.43 398.37 540.72 397.16C547.67 394.59 554.61 392.99 562.12 394.05C564.55 394.39 566.19 392 568 390.63C567.07 389.03 564.51 390.28 564.65 387.6C567.21 387.99 569.71 387.27 572.38 388.24C575.18 389.26 577.98 387.5 580.76 386.91C581.44 386.77 580.18 384.4 582.14 385.52C582.57 385.77 582.78 386.62 582.86 387.22C583.01 388.34 582.18 388.47 581.3 388.63C579.86 388.89 578.46 389.36 577.02 389.6C576.02 389.77 574.95 389.69 574.99 391.12C575.02 392.45 575.75 393.39 577.04 393.53C580.22 393.88 583.28 393.39 585.8 391.24C587.88 389.47 590.02 389.36 591.77 391.28C592.55 392.13 593.23 392.26 593.57 391.66C596.47 386.56 600.75 393.42 603.82 390.41C608.21 393.57 612.5 389.98 616.86 390.17C617.66 390.21 618.87 389.58 618.85 388.31C618.82 385.78 620.13 386.42 622.06 385.93C628.73 384.23 635.92 383.74 641.91 379.57C640.43 378.29 639.12 377.11 637.76 376.01L637.85 375.97ZM38.61 279.01C37.57 276.6 39.1 275.13 39.81 273.23C40.56 275.45 40.37 277.27 38.61 279.01ZM102.94 266.82C101.95 266.21 101.17 265.49 101.52 263.78C102.88 264.68 103.54 265.51 102.94 266.82ZM107.8 285.13C107.17 284.08 105.86 283.49 106.56 281.96C108.03 282.57 108.52 283.51 107.8 285.13ZM58.57 301.77C58.57 301.86 58.56 301.94 58.56 302.04C58.56 302.04 58.45 301.91 58.43 301.9C58.48 301.86 58.52 301.81 58.57 301.77C58.73 297.83 61.37 296.48 64.88 296.05C62.77 297.95 60.67 299.86 58.57 301.77ZM70.99 312.57C70.0167 308.643 70.0067 303.92 70.96 298.4C73.47 303.97 73.07 308.05 70.99 312.57ZM109.49 291.82C111.02 292.61 111.4 293.69 110.95 295.26C108.95 294.61 109.05 293.34 109.49 291.82ZM107.52 337.55C107.08 334.64 106.57 332.32 108.84 330.4C108.81 330.35 108.79 330.29 108.76 330.24H108.77C108.86 330.26 108.95 330.28 109.05 330.29C110.21 329.76 109.72 327.32 111.74 327.9C111.97 327.97 112.18 328.77 112.1 329.17C111.69 331.29 110.28 330.52 109.05 330.28C109 330.3 108.95 330.33 108.89 330.34C108.87 330.36 108.86 330.37 108.84 330.39C109.98 332.77 110.31 335.06 107.52 337.54V337.55ZM109.54 347.39C109.4 347.52 108.43 347.18 108.35 346.91C108.01 345.7 108.19 344.6 109.88 343.95C110.21 345.31 110.52 346.46 109.54 347.39ZM110.37 341.59C110.32 339.61 111.03 338.89 112.75 338.59C112.65 340.16 111.57 340.59 110.37 341.59ZM584.03 343.85C586.19 344.98 588.72 346.4 589.73 348.4C590.52 349.94 587.94 352.66 586.4 352.24C583.88 351.55 583.28 348.4 582.13 345.89C582.11 344.75 583.06 343.34 584.03 343.85ZM592.89 336.54C592.95 336.54 593 336.56 593.06 336.57L592.92 336.71C592.9 336.66 592.9 336.6 592.89 336.54C589.09 336.05 592.02 332.68 590.76 331.09C590.7 331.09 590.65 331.07 590.59 331.06C590.61 331 590.62 330.96 590.63 330.91C589.77 329.43 588.9 327.94 587.6 325.69C590.6 327.02 591.51 328.49 590.63 330.91C590.64 330.93 590.65 330.95 590.66 330.97C590.7 331.01 590.72 331.05 590.75 331.09C594.63 331.59 592.47 334.6 592.88 336.54H592.89ZM613.71 304.96C613.71 304.96 613.87 304.8 613.87 304.79C613.87 304.82 613.87 304.84 613.87 304.86C616.89 303.28 618.11 298.9 622.65 299.53C625.1 299.87 625.53 300.64 624.41 302.65C622.62 305.87 620.78 308.6 616.19 307.72C614.06 307.31 613.99 306.3 613.87 304.86C613.83 304.88 613.8 304.9 613.76 304.92C610.21 309.58 609.75 309.79 605.94 308.6C611.29 306.21 614.03 302.21 614 296.46C614 295.37 614.41 294.58 615.31 293.96C618.73 291.59 626.99 292.34 631.1 296.2C621.29 292.72 616.04 296.34 613.71 304.95V304.96ZM626.61 276.91C626.69 277.07 626.76 277.24 626.84 277.4H613.18C613.18 277.24 613.18 277.07 613.18 276.91H626.62H626.61ZM542.07 281.07C540.617 282.063 538.093 281.997 534.5 280.87C537.29 280.58 539.57 280.35 542.07 281.07ZM540.55 298.72C535.4 301.05 530.11 302.48 524.51 302.58C518.38 302.69 512.26 302.62 506.56 305.39C505.79 305.77 504.95 305.65 503.93 304.87C509.67 298.73 514.52 291.76 524.63 292.46C529.72 292.81 534.81 293.21 539.9 293.59C541.27 293.69 542.19 294.02 542 295.58C541.85 296.74 542.42 297.86 540.55 298.71V298.72ZM556.1 348.08C555.63 350.3 557.17 353.12 554.35 354.39C552.22 355.35 550.68 353.82 549.23 352.33C548.1 351.18 548.05 350.35 548.87 348.91C549.46 347.87 550.1 346.95 550.94 346.21C552.29 345.01 552.39 341.71 555.01 342.82C557.19 343.75 555.55 346.37 556.11 348.08H556.1ZM536.63 329.03C541.52 326.98 546.21 327.46 552.19 329.63C546.01 331.9 541.31 327.89 536.63 329.03ZM451.42 327.81C448.71 329.36 448.41 331.16 451.07 333.32C448.13 333.62 447.63 331.39 447.59 330.28C447.53 328.76 449.09 327.68 451.42 327.81ZM425.71 327.19C408.78 303.96 401.56 276.37 391.76 249.91C404.22 275.13 410.75 302.98 425.71 327.19ZM371.53 232.99C376.38 233.44 381.44 234.68 383.85 240.13C378.42 235.15 371.97 234.11 364.98 234.61C356.94 235.18 348.82 233.7 340.8 235.58C339.48 235.89 338 235.5 336.59 235.44C348.15 232.71 359.83 231.91 371.53 232.99ZM300.17 287.67C302.19 277.64 304.38 267.66 307.09 257.78C310.33 245.99 320.53 237.17 332.53 237.13C328.93 238.66 326.08 240.14 323.07 241.09C315.11 243.62 311.32 249.92 309.22 257.12C304.61 272.96 300.6 288.95 301.05 305.69C301.12 308.2 301.81 310.52 302.1 312.94C302.26 314.31 302.14 316.02 300.56 316.11C299.43 316.18 299.09 314.64 299.12 313.38C299.34 304.8 298.47 296.18 300.18 287.66L300.17 287.67ZM130.81 309.64C131.54 309.37 132.45 309.6 133.28 309.6C161.15 309.52 189 311.3 216.89 310.64C218.23 310.61 219.82 310.02 221.26 311.79C219.41 313.06 217.71 312.57 216.11 312.58C208.3 312.64 200.47 312.8 192.67 312.56C178.76 312.13 164.86 313.44 150.89 311.94C144.43 311.25 137.59 310.92 130.91 311.56C129.95 311.65 128.25 312.16 128.32 310.27C128.4 307.85 129.98 309.97 130.82 309.65L130.81 309.64ZM166.56 324.23C166.56 324.78 166.56 325.33 166.56 325.88C156.26 324.02 145.88 324.78 135.55 324.23H166.57H166.56ZM235.92 366.99C235.79 367.53 234.59 367.82 234.4 366.96C233.4 362.55 229.48 368.31 228.2 365.12C226.9 365.71 227.43 367.21 226.37 368.63C224.63 363.34 221.08 364.31 216.69 364.01C212 363.68 206.73 364.78 202.05 362.22C200.15 361.18 197.12 362.68 195.56 363.14C186.23 365.85 177.08 363.07 167.92 363.64C164.86 363.83 161.87 364.91 158.81 365.26C154.9 365.71 151.15 365.61 147.16 364.38C143.97 363.39 139.93 361.54 136.51 364.71C136.16 365.03 135.69 365.21 135.28 365.46C133.23 360.94 128.89 366.43 126.39 363.39C125.11 361.83 124.06 362.98 123.33 364.22C121.81 366.8 119.08 366 117.77 365.03C116.63 364.19 119.05 362.55 119.46 361.35C121.09 356.66 124.54 352.67 124.31 347.21C124.16 343.69 126.81 340.51 126.33 336.69C126.14 335.21 127.79 334.17 129.14 334.66C134.32 336.54 139.11 333.94 144.01 333.4C156.37 332.04 168.71 331.46 181.13 331.57C192.29 331.67 203.45 331.55 214.61 331.61C219.91 331.64 221.94 333.75 223.23 338.72C225.55 347.61 229.43 355.77 237.05 361.42C238.85 362.75 239.39 364.25 240.09 365.81C238.83 367.49 236.67 363.91 235.95 366.99H235.92ZM267.92 315.53C256.35 313.63 244.73 314.96 233.14 314.7C230.45 314.64 228.01 313.66 225.39 313.57C224.42 313.54 223.55 312.86 223.58 312.17C223.63 311.16 224.63 310.81 225.69 310.59C228.43 310.04 230.8 311.79 233.47 311.62C244.26 310.94 254.98 312.38 265.74 312.67C269.47 312.77 273.18 313.57 276.9 314.04C276.91 314.56 276.92 315.08 276.93 315.6C273.92 315.6 270.84 316.01 267.91 315.53H267.92ZM288.29 313.96C287.09 307.11 281.31 310.85 278.01 308.95C279.22 306.61 281.76 308.53 283.42 306.1H221.92C223.15 302.65 225.22 302.62 227.33 302.62C244.8 302.62 262.28 302.28 279.73 302.83C285.05 303 290.5 303.4 296.58 303.77C294.3 306.77 291.47 304.87 289.27 306.1C289.81 308.75 292.42 308.14 294.6 309.28C291.47 309.55 288.52 309.65 288.29 313.97V313.96ZM491.4 370.69C489.63 369.9 488.4 371.62 487.37 372.94C484.39 376.76 481.27 376.7 478.73 372.78C478.33 372.17 477.84 371.61 477.39 371.03C473.67 374.82 473.92 369.34 471.45 368.53C471.19 369.89 470.98 371 470.77 372.11C467.44 369.53 462.5 369.99 459.37 373.55C459.53 371.39 460.82 368.63 456.73 370.42C452.36 372.32 447.9 372.66 442.69 371.6C438.64 370.78 433.19 368.94 430.03 370.2C425.18 372.12 420.74 370.26 416.25 371.38C412.42 372.34 412.46 369.94 413.81 367.4C415.89 363.47 417.98 359.6 416.8 354.89C414.53 354.38 415.04 357 413.7 357.48C412.27 357.99 412.52 360.68 410.77 360.34C408.69 359.95 409.23 357.72 408.86 355.98C397.83 364.59 409.88 348.33 402.95 352.27C402.68 352.29 402.86 354.98 400.87 354.23C399.31 353.65 400.3 351.6 400.12 350.21C399.92 348.64 401.42 347.99 402.03 346.85C404.37 342.51 403.53 340.87 397.93 340.17C400.68 336.3 400.39 332.27 399.11 328.14C398.69 326.79 398.37 325.38 396.65 325.86C395.55 326.17 394.62 327.13 395.59 328.55C395.77 328.82 396.03 329.36 395.98 329.4C391.28 332.77 396.37 337.59 394.23 341.36C393.88 341.98 393.87 343.32 394.29 343.76C396.88 346.43 394.1 349.49 394.47 351.09C395.74 356.52 389.99 356.45 389.12 359.51C389.89 360.96 391.01 360.37 391.91 360.55C392.65 360.7 393.71 360.29 393.92 361.42C394.09 362.36 393.35 363.21 392.6 363.27C389.44 363.52 389.46 365.6 388.94 368.07C388.22 371.48 384.51 373.16 382.8 376.17C382.47 376.76 381.2 376.82 380.57 376.15C379.77 375.29 379.95 373.78 380.77 373.57C383.78 372.81 383.15 369.68 384.57 367.89C386.1 365.97 386.37 362.61 384.38 359.49C382.34 364.12 377.66 368.07 377.24 371.61C376.49 377.9 368.61 375.73 368.65 381.2C364.88 380.08 361.51 382.09 357.94 382.53C354.53 382.95 349.54 383.92 347.96 382.86C344.65 380.63 341.52 383.58 338.84 381.59C338.21 381.12 337.05 381.1 336.74 380.54C334.37 376.19 329.71 374.01 326.99 370.04C326.34 369.09 324.5 368.49 325.54 366.77C326.75 364.76 328.95 366.02 330.64 365.27C330.08 363.56 328.71 361.89 327.2 362.7C323.32 364.78 323.52 361.26 322.94 359.69C322.04 357.25 322.73 354.25 319.41 352.82C318.69 352.51 318.84 350.05 319.62 348.64C322.18 343.99 321.54 340.51 317.25 336.58C315.61 345.23 317.76 353.37 319.66 361.52C319.99 362.95 320.93 365.08 319.16 365.27C316.91 365.5 314.03 368.45 312.41 365.63C310.12 361.65 307.47 363.81 304.98 364.42C303.99 364.66 302.78 366.16 301.92 365.48C298.44 362.68 295.02 365.27 291.28 365.12C296.94 361.77 299.16 356.17 301.47 350.67C302.09 349.21 304.59 347.69 301.46 345.92C300.51 345.38 301.28 343.73 302.28 342.96C303.92 341.71 304.32 340.08 304.18 338.13C304.12 337.34 304.15 336.03 304.6 335.78C314.79 330.09 312.41 319.42 313.92 310.74C316.88 293.82 325.68 281.11 340.34 273.37C348.89 268.86 359.11 267.8 368.74 272C370.52 272.78 372.45 271.98 374 273.07C377.16 275.3 381.73 276.74 378.98 283.15C384.09 277.43 386.31 281.65 389.33 284.52C391.34 286.43 391.61 287.92 390.26 290.02C389.05 291.89 389.16 293.63 390.59 295.27C392.22 294.9 391.82 293.15 392.69 292.06C393.1 292.37 393.79 292.73 393.75 292.89C392.91 295.89 397.48 300.68 390.86 301.77C391.26 303.74 392.77 305.43 392.77 307.84C394.39 304.34 396 300.83 397.63 297.32C400.38 301.66 396.99 305.76 396.71 310.96C398.63 309.23 399.51 306.24 401.6 308.02C403.3 309.46 401.25 311.43 400.77 312.99C400.19 314.89 397.93 315.98 397.69 318.43C397.55 319.89 398.62 319.44 399.05 319.91C399.27 320.15 399.95 320.34 400.05 319.52C400.24 317.81 400.12 314.89 402.59 316.17C404.05 316.93 403.48 320.11 401.54 321.79C401.28 322.01 401.39 322.66 401.29 323.35C403.57 322.24 404.75 320.34 406.05 318.19C407.737 323.563 407.91 327.963 406.57 331.39C407.1 331.32 407.55 331.34 407.94 331.18C410.02 330.35 409.92 326.28 412.17 326.97C415.29 327.92 411 330.89 412.78 332.89C413.64 333.86 412.6 334.76 411.76 335.26C408.52 337.17 408.5 337.14 407.69 340.54C411.2 339.19 413.71 337.01 414.89 332.17C415.557 334.81 413.44 339.163 408.54 345.23C411 346.04 412.91 345.65 414.64 343.66C415.36 342.83 416.29 340.78 417.66 342.08C419.08 343.44 417.46 344.72 416.43 345.79C415.76 346.48 415.12 347.2 414.41 347.96C415.65 348.97 417.51 348.89 417.78 348.47C420.5 344.19 424.3 346.49 427.75 346.56C438.35 346.78 448.42 344.71 458.47 341.09C468.12 337.61 478.36 336.91 488.45 340.27C488.61 340.32 488.77 340.48 488.9 340.46C497.57 338.96 498.2 345.68 498.89 351.12C499.59 356.68 503.02 360.18 506.17 364.01C508.23 366.51 510.73 368.65 512.99 370.98C514.56 372.6 514.33 373.75 511.93 373.53C508.06 373.17 504.09 373.15 500.28 372.89C496.94 372.66 494.33 371.97 491.44 370.69H491.4ZM489.07 335.05C495.43 332.19 502.55 333.34 509.29 331.63C507.01 335.57 504.25 336.08 489.07 335.05ZM521.04 389.58C517.17 390.4 513.51 387.65 509.41 389.37C507.36 390.23 504.6 389.43 502.59 391.7C504.44 386.94 507.9 386.2 512.13 386.81C514.97 387.23 518.57 391.48 521.32 386.43C521.81 386.95 522.56 387.4 522.75 388.02C523.22 389.53 522.01 389.37 521.03 389.58H521.04ZM522.48 313.62C517.65 313.54 512.82 313.64 507.99 313.57C506.98 313.55 505.34 314.19 505.21 312.46C505.13 311.42 505.55 310.08 506.23 309.28C508.19 306.97 513.67 306.93 515.98 309.42C517.02 310.54 517.31 309.71 517.75 309.36C521.68 306.22 526.45 307.99 531.31 305.9C529.79 311.5 527.1 313.7 522.48 313.62ZM542.56 358.57C541.9 358.57 541.24 358.57 540.58 358.57C533.68 358.57 531.55 357.17 531.1 352.19C531.02 351.34 530.58 350.06 531.98 349.79C532.89 349.61 533.81 350.45 533.76 351.13C533.45 355.58 536.27 353.81 538.37 353.6C539.68 353.47 541.05 353.7 542.3 353.41C544.66 352.86 545.89 353.32 546.07 356.02C546.27 359.01 544.34 358.57 542.56 358.58V358.57ZM555.71 388.33C553.19 386.6 549.63 388.85 547.23 385.56C550.47 384.06 553.39 384.04 556.28 385.43C556.88 385.72 557.58 386.65 557.53 387.22C557.47 387.94 556.49 388.86 555.71 388.33ZM538.28 308C538.28 307.69 538.27 307.39 538.26 307.08H559.78C559.79 307.39 559.81 307.69 559.82 308H538.28ZM561.07 347.38C559.71 343.93 559.84 340.4 561.04 336.83C562.3 340.32 562.18 343.83 561.07 347.38ZM565.2 307.61C564.32 307.31 562.76 308.3 562.72 306.65C562.69 305.2 563.73 304.35 565.34 304.61C566.36 304.77 567.84 304.15 567.93 305.95C568.05 308.16 566.29 307.39 565.19 307.61H565.2ZM573.95 286.48C569.25 286.39 566.42 287.5 565.57 292.37C565.46 293.02 565.29 294.47 563.86 294.39C563.63 294.19 563.2 293.97 563.22 293.81C563.96 288.59 561.68 287.21 556.61 287.49C548.31 287.95 539.91 286.99 531.67 287.8C523.88 288.56 515.38 287.07 508.62 292.78C505.1 295.76 501.7 298.88 498.23 301.92C497.44 302.62 496.85 303.83 494.62 303.14C501.46 295.35 506.56 286.18 518.57 286.62C520.23 286.68 522.3 286.94 522.88 285.02C524.41 279.94 528.68 282.05 532.05 280.55C531.79 281.6 531.81 282.02 531.62 282.18C530.42 283.2 527.44 281.94 527.65 284.13C527.88 286.54 530.57 285.63 532.2 285.58C554.2 284.87 576.18 283.32 598.22 283.59C602.8 283.64 607.13 283.68 608.83 289.08C609.5 291.22 611.41 291.23 612.12 289.81C614.76 284.5 619.46 285.76 623.77 285.64C625.74 285.58 627.72 285.64 630.87 285.64C629.51 286.31 629.18 286.63 628.92 286.58C621.57 285.14 615.89 288.17 610.94 293.21C610.11 294.05 609.21 295.11 607.98 294.46C606.8 293.84 608.12 292.82 608.05 291.93C607.7 287.85 603.5 284.78 597.74 285.77C589.8 287.14 581.87 286.66 573.96 286.5L573.95 286.48ZM575.48 308.35C580.03 304.99 584.97 305.78 589.77 305.78C585.34 307.68 580.84 309.25 575.48 308.35ZM579.49 347.13C584.19 352.04 581.99 356.75 581.53 362.18C577.71 357.15 578.53 352.5 579.49 347.13Z" fill="black"/>
<path d="M415.51 144.63C412.01 135.98 408.57 127.31 405.12 118.64C402.85 112.93 399.74 111.01 393.67 110.67C386.51 110.26 379.49 111.66 372.38 111.76C357.29 111.99 342.21 112.4 327.12 112.73C326.62 112.74 326.12 112.72 325.62 112.77C307.98 114.61 290.27 115.48 272.65 117.65C260.48 119.15 248.31 120.46 236.33 123.13C227.93 125 219.16 125.79 211.43 129.76C194.13 138.62 179.19 150.85 164.73 163.67C160.03 167.84 155.46 172.15 150.94 176.51C149.52 177.88 147.94 177.9 146.34 177.58C144.38 177.19 145.23 175.41 145.22 174.27C145.2 171.94 144.15 170.16 142.02 169.87C138.42 169.37 135.03 169.63 131.83 172.32C128.96 174.74 128.49 178.16 126.8 181.16C125.51 179.82 126.98 177.69 125.28 176.74C119.19 180.47 127.71 185.62 123.72 189.42C127.32 190.91 130.06 194.27 133.42 195.42C139.29 197.43 145.04 198.93 148.2 204.88C150.21 208.67 153.22 209.28 156.76 207.37C159.8 205.73 162.61 203.65 166.13 202.54C162.36 201.07 157.89 202.7 153.76 198.5C158.79 199.38 162.7 198.31 166.51 197.55C176.18 195.63 186.02 195.47 195.74 194.06C205.45 192.65 215.1 190.4 225.04 190.65C233.77 190.87 242.36 189.16 250.9 187.69C259.54 186.2 268.3 185.96 276.93 183.96C283.4 182.46 290.38 183.83 297.17 182.82C307.27 181.33 317.56 181.82 327.26 177.29C336.06 173.18 345.81 171.49 355.15 168.86C372.36 164.02 389.92 160.43 407.62 157.72C414.12 156.72 417.89 150.47 415.53 144.64L415.51 144.63ZM134.7 189.09C130.64 185.3 131.04 181.04 131.24 176.86C131.29 175.77 132.05 175.04 133.11 174.9C134 174.78 134.19 175.6 134.1 176.22C133.44 180.32 135.98 184.23 134.7 189.08V189.09ZM145.63 192.55C144.05 192.64 141.87 193.9 140.98 190.65C139.81 186.36 140.58 181.88 138.98 178.12C139.56 176.41 138.24 174.31 140.24 173.89C143.13 173.29 142.31 176.14 142.31 177.27C142.33 181.83 146.24 184.91 146.54 189.34C146.63 190.69 148.28 192.4 145.63 192.56V192.55ZM156.88 182.03C157.99 187.14 154.54 190.37 154.76 194.39C154.78 194.74 153.84 195.42 153.3 195.47C152.09 195.6 152.18 194.52 152.2 193.75C152.24 192.45 151.94 190.74 152.63 189.95C154.79 187.5 153.03 186.12 151.59 184.65C150.4 183.44 149.58 182.36 151.32 181.05C152.84 179.91 153.73 177.19 155.93 177.88C158.42 178.66 156.57 181.31 156.88 182.03ZM165.82 166.1C164.28 170.9 163.3 175.85 161.58 180.64C161.13 175.27 161.99 170.24 165.82 166.1ZM244.69 179.19C245.63 172.68 247.52 166.43 250.76 160.62C249.91 167.16 247.39 173.19 244.69 179.19ZM241.24 181.43C241.45 175.47 243.69 170.06 245.49 164.53C245.84 170.61 242.88 175.86 241.24 181.43ZM252.96 149.1C248.99 151.83 245.21 154.42 241.44 157.02C241.17 157.21 240.72 157.47 240.73 157.68C241.07 164.19 235.84 162.36 231.76 163.02C233.15 164.93 233.45 167.27 236.21 166.09C238.18 165.25 238.02 166.52 238.13 167.73C238.33 169.96 237.03 168.91 236.06 168.74C234.42 168.46 232.67 170.72 230.95 167.94C230.23 166.79 229.84 169.67 228.47 170.19C231.86 169.42 233.53 172.55 236.38 173.04C238.21 173.36 236.22 175.27 235.8 176.18C234.96 178.01 233.32 178.31 231.77 176.75C229.46 174.41 227.1 172.17 223.57 170.54C224.56 173.21 227.02 176.82 221.07 175.02C220.28 174.78 218.53 177.62 217.25 179.06C215.02 181.58 220.68 180.64 218.37 183.33C215.64 183.35 213 181.54 210.24 180.17C209.67 179.88 209.28 179.1 208.7 178.96C206.41 178.4 204.04 178.28 202.04 179.75C199.45 181.65 204.09 182.39 202.73 184.3C197.71 182.55 193.32 184.21 189.09 187.12C186.42 188.95 185.3 186.14 183.85 184.82C181.57 182.75 179.64 179.85 176.08 182.74C176.08 182.74 176.01 183.2 176.03 183.18C176.11 184.43 177.32 184.03 177.96 184.46C178.8 184.98 179.23 185.73 179.27 186.71C177.85 188.53 175.66 187.98 174.22 187.53C170.34 186.33 166.64 184.82 162.57 187.96C164.5 185.23 164.29 181.71 165.49 180.24C168.47 176.58 166.07 171.73 169.2 168.52C172.44 165.19 175.33 161.43 178.93 158.56C188.98 150.52 198.89 142.29 210.59 136.49C221.58 131.04 233.37 128.81 245.23 126.77C249.74 126 254.27 124.07 258.97 126.01C261.03 126.86 260.76 124.74 261.5 123.91C262.17 123.16 262.85 122.31 263.97 123.14C264.69 123.67 264.71 124.24 264.35 125.2C260.71 135.01 257.2 144.86 253.5 155.12C251.1 152.9 252.78 151.1 252.96 149.09V149.1ZM268.72 177.2C268.15 177.96 266.94 177.93 266.56 177.27C264.87 174.32 261.34 174.93 259.07 173.17C258.23 172.52 257.04 172.35 256.4 173.26C255.83 174.06 256.08 175.12 256.9 175.94C258.27 177.3 259.58 178.73 260.91 180.13C259.62 181.21 258.98 179.55 258.03 179.82C253.2 181.15 253.14 181.15 254.18 176.07C254.67 173.7 255.54 171.4 256.16 169.05C256.76 166.76 258.65 167.6 259.83 167.8C264.24 168.56 265.88 172.88 268.93 175.41C269.19 175.63 269.03 176.76 268.71 177.19L268.72 177.2ZM314.57 152.69C313.28 153 312.6 154.23 313.69 154.55C320.54 156.54 317.04 161.3 316.79 165.66C311.68 162.4 306.33 166.43 301.5 164.23C300.47 165.33 302.44 165.9 301.91 166.94C299.29 166.96 297.13 166.31 295.02 164.33C292.76 162.22 289.34 161.2 286.56 163.07C283.38 165.23 281.57 164.11 279.57 161.71C278.54 160.47 277.4 158.93 275.42 160.05C273.53 161.12 273.64 163.48 272.75 165.13C272.01 166.49 274.95 167.35 276.24 167.5C278.47 167.76 279.97 168.55 281.22 170.85C278.98 171.84 276.52 172.72 275.68 175.37C270.01 171.26 266.28 165.18 260.4 161.44C259.36 160.78 258.71 159.6 259.31 158.42C259.84 157.39 260.91 157.9 261.91 158.01C265.19 158.37 268.5 158.51 271.79 158.68C274.13 158.8 275.8 157.5 275.96 155.35C276.11 153.39 274.81 151.66 273.21 150.36C272.78 150.01 272.17 149.88 272.03 150.39C270.63 155.56 265.69 152.15 262.83 154.15C261.19 155.3 259.83 153.62 259.81 151.5C259.7 142.11 264.1 134.07 267.67 125.83C268.51 123.9 270.76 122.71 273.02 122.77C282.62 123.03 291.99 120.55 301.6 120.58C308.96 120.6 316.34 119.53 323.68 118.66C327.76 118.18 328.78 120.04 328 123.45C326.02 132.13 324.41 140.93 320.02 148.86C318.81 151.05 316.84 152.13 314.54 152.68L314.57 152.69ZM339.98 123.08C337.85 130.98 341.13 139.57 336.53 147.25C335.42 149.1 335.08 152.02 337.39 154.8C341.85 160.17 338.88 166.94 331.92 167.49C329.6 167.67 328.14 170.55 324.52 168.2C320 165.27 320.8 162.76 321.97 159.16C322.3 158.13 322.27 156.98 322.41 155.89C325.14 160.26 329.84 156.99 332.86 159.14C333.69 159.73 334.74 155.66 333.87 154.65C331.75 152.18 331.15 147.94 326.88 147.72C325.17 147.63 324.92 146.61 325.16 145.4C326.8 137.45 327.39 129.32 329.99 121.53C331.59 116.73 335.17 119.15 337.86 118.84C341.39 118.43 340.36 121.7 339.99 123.09L339.98 123.08ZM402.87 140.97C401.49 139.46 399.54 137.54 397.93 139.1C396.92 140.08 397.62 142.99 397.85 145C397.95 145.88 398.73 146.73 399.35 147.48C400.33 148.66 400.52 150.15 399.71 151.13C398.62 152.46 397.42 151.43 396.36 150.53C395.5 149.8 394.28 149.43 393.56 148.6C390.33 144.91 385.77 144.73 381.49 143.88C378.02 143.19 381.31 147.54 379 147.51C377.15 147.49 375.4 144.64 373.75 146.16C372.62 147.2 371.05 149.55 373.46 151.67C374.86 152.91 376.81 153.92 377.02 156.18C375.28 157.25 374.05 156.54 373.21 155.1C369.85 149.31 363.97 146.11 359.38 141.58C356.6 138.83 353.82 143.16 350.76 141.73C357.35 146.07 358.26 154.4 364.15 159.44C360.28 155.57 354.9 159.53 351.25 156.27C350.02 155.17 349.38 154.9 348.1 156.17C345.5 158.75 344.6 155.95 344.27 154.37C343.8 152.16 344.15 149.79 344.15 147.11C347.15 148.24 348.26 151.31 351 152.18C351.97 152.49 352.97 153.09 353.69 152.27C354.49 151.35 354.53 149.64 353.67 149.07C350.22 146.77 349.39 140.97 343.69 141.66C341.9 141.88 342.1 140.31 342.14 139.21C342.36 133.28 341.59 127.35 342.98 121.42C343.47 119.32 344 118.73 346.03 118.7C361.61 118.5 377.16 117.15 392.76 117.73C398.27 117.93 404.58 124.71 404 130.13C403.76 132.32 401.58 133.06 399.95 132.54C397.18 131.64 394.98 132.77 392.63 133.59C391.64 133.94 390.02 134.11 390.77 135.72C391.3 136.86 392.2 137.41 393.95 136.87C400.71 134.77 401.29 135.12 404.96 141.08C404.23 141.93 403.53 141.68 402.89 140.98L402.87 140.97ZM360.99 147.94C359.35 146.52 357.7 145.1 356.06 143.68C357.9 144.92 361.58 144.4 360.99 147.94Z" fill="black"/>
<path d="M176.23 182.62L176.08 182.76C176.08 182.76 176.11 182.76 176.12 182.76C176.16 182.71 176.18 182.67 176.22 182.62H176.23Z" fill="black"/>
<path d="M601.68 154.7C597.84 149.28 593.03 144.69 589.46 139C586.53 134.32 582.42 130.16 578.13 126.62C574.4 123.54 571.18 120.02 567.62 116.82C566.77 116.05 565.81 115.26 566.09 113.9C566.44 112.15 567.9 112.91 568.91 112.73C571.16 112.32 573.37 111.81 575.67 111.56C578.04 111.3 581.05 110.07 580.76 107.18C580.53 104.89 577.45 105.4 575.57 104.74C567.57 101.95 559.13 103.73 550.73 101.39C539.07 98.13 526.31 98.78 514.02 97.76C512.49 97.63 510.45 97.68 510.34 99.38C510.22 101.33 512.4 101.53 513.97 101.71C515.28 101.87 516.64 101.84 517.96 101.74C526.26 101.09 534.47 102.76 542.74 102.76C544.73 102.76 546.3 103.68 549.03 105.11C547.34 105.49 546.79 105.68 546.23 105.72C537.6 106.41 528.98 105.21 520.48 104.36C514.78 103.79 508.99 103.74 503.3 103.23C492.99 102.31 482.46 101.67 472.11 103.7C465.42 105.01 459.15 107.8 452.08 107.94C445.35 108.07 438.98 106.63 432.45 105.78C429.72 105.42 430.41 103.02 429.18 100.7C428.85 106.36 425.37 105.81 422.07 105.78C411.02 105.66 400.04 104.98 389 104.08C370.16 102.55 351.21 105.53 332.27 104.77C331.77 104.75 331.27 104.74 330.77 104.8C313.98 106.76 297.06 107.26 280.28 109.61C268.31 111.29 256.3 112.77 244.41 114.93C241.37 115.48 237.92 115.4 234.91 117.81C236.48 119.16 237.92 118.92 239.11 118.69C250.18 116.58 261.26 114.65 272.49 113.41C283.23 112.22 293.96 110.89 304.7 109.73C311.56 108.99 318.46 108.5 325.31 108.09C330.17 107.8 335.89 105.18 340.29 109.99C340.84 110.6 341.29 109.99 341.38 109.78C342.93 106.4 345.94 107.92 348.32 107.81C374.36 106.61 400.31 109.13 426.3 109.8C428.54 109.86 431.37 108.56 432.72 111.8C432.8 111.98 433.57 112.92 433.71 112.03C434.38 107.69 437.22 110.68 438.48 110.94C442.91 111.85 447.18 113.53 451.57 114.73C453.2 115.17 454.33 116.15 454.88 117.48C459.58 128.9 465.46 139.8 469.47 151.52C470.83 155.51 473.13 159.19 475.1 162.95C476.07 164.81 477.53 165.85 479.88 165.78C484.49 165.65 489.15 166.54 493.67 166.53C512.24 166.48 530.72 167.74 549.24 168.64C560.04 169.16 570.94 168.03 581.69 168.95C590.93 169.74 600.08 169.4 609.72 169.78C607.42 164.1 604.89 159.31 601.65 154.74L601.68 154.7ZM484.43 137.43C481.14 135.65 478.37 133.49 478.06 128.84C481.71 131.01 483.07 134.22 484.43 137.43ZM473.58 138.03C476.66 138.65 476.94 140.87 477.96 142.39C478.43 143.09 478.61 144.07 479.62 143.34C480.34 142.82 480.07 142.02 479.8 141.29C479.75 141.26 479.7 141.22 479.64 141.18C479.66 141.12 479.67 141.07 479.69 141.03C479.17 139.83 478.65 138.61 477.85 136.77C480.47 138.06 480.17 139.53 479.69 141.03C479.69 141.05 479.71 141.07 479.72 141.1C479.74 141.16 479.77 141.23 479.79 141.3C485.17 144.68 485.49 150.89 487.81 156.06C481.83 151.21 476.89 145.64 473.57 138.03H473.58ZM490.01 142.54C494.2 137 486.98 136.4 487.35 132.21C491.34 136.37 495.33 140.53 499.32 144.69C495.39 145.35 495.13 138.09 490.01 142.54ZM530.08 154.32C533.3 156.12 532.85 158.94 533.72 161.17C531.86 159.57 530.6 157.56 530.08 154.32ZM572.85 161.95C572.25 162.97 571.1 162.97 570.28 162.31C568 160.46 565.91 163.91 563.26 162.09C565.33 160.18 568.3 160.61 570.3 158.84C571.02 158.21 572.22 159.12 572.68 160.07C572.95 160.62 573.12 161.5 572.85 161.95ZM590.33 158.66C590.23 158.05 589.36 156.81 588.16 157.27C587.34 157.58 587.04 158.41 587.03 159.32C587.03 160.29 586.94 161.26 586.88 162.41C584.87 161.35 583.63 159.98 582.76 158.08C580.44 153.01 576.4 149.17 573.1 144.8C571.19 142.27 568.87 144.44 568.68 145.06C567.13 149.92 562.91 146.77 562.35 146.09C559.02 142.07 554.99 142.22 550.51 142.96C551.09 145.54 555.1 146.39 553.85 150.06C553.48 151.15 555.71 150.66 556.69 150.67C562.57 150.7 568.31 151.46 574.92 153.49C570.92 155.48 567.64 154.54 564.54 154.66C560.05 154.84 554.4 153.01 551.31 155.1C546.27 158.51 543 151.2 538.85 154.56C538.7 154.68 537.32 153.77 537.02 153.11C535.18 149.02 531.43 147.48 527.13 145.58C527.16 148.82 531.86 149.93 529.35 153.51C527.03 149.71 523.76 146.98 520.39 144.21C521.34 150.24 529.07 152.55 528.93 160.3C525.45 154.4 518.39 155.35 515.17 150.37C515.01 150.12 514.66 149.88 514.37 149.82C504.81 148.1 501.16 145.27 497.03 136.74C494.66 131.84 490.57 128.05 486.33 125.23C483.9 123.62 484.62 121.13 481.9 120.28C484.84 119.1 485.62 120.97 486.82 121.97C489.21 123.98 490.86 126.84 493.9 128.11C494.89 128.52 496.09 130.91 496.77 128.8C497.23 127.36 501.07 126.07 497.72 123.81C496.77 123.17 495.86 122.31 495.28 121.34C494.63 120.27 491.88 119.91 494.09 117.65C495.65 116.06 496.7 116.24 498.34 117.41C500.18 118.72 502.26 119.73 504.31 120.73C506.86 121.97 510.97 121.55 513.59 120C515.22 119.04 516.35 120.56 517.67 121.02C518.56 121.33 519.36 122.57 520.1 122.49C525.56 121.91 525.55 121.84 529.29 127.25C529.85 128.06 530.53 128.79 531.83 130.39C531.67 126.75 530.41 124.48 529.68 122.29C528.63 119.14 530.3 119.71 531.93 119.76C537.91 119.92 541.46 123.66 544.59 128.58C542.7 124.82 552.39 128.28 546.72 122.36C551.86 123.2 553.26 128.26 557.42 128.63C557.69 128.65 557.88 129.12 558.17 129.26C560.15 130.16 563.13 131.7 564.18 130.55C565.6 129 561.7 128.18 561.63 125.68C568.78 126.08 574.58 129.64 578.41 134.88C584.76 143.56 593.25 151.05 596.82 162.45C593.36 161.81 590.87 161.8 590.33 158.63V158.66Z" fill="black"/>
<path d="M59.09 123.68C59.18 123.82 59.37 123.79 59.67 123.59C59.88 123.46 60.75 122.73 62.27 121.42C63.8 120.11 65.24 119 66.59 118.1C65.29 119.43 64.21 120.63 63.34 121.7C62.47 122.77 61.6 123.9 60.71 125.09C59.82 126.28 59.17 127.11 58.76 127.59C58.34 128.06 57.95 128.42 57.58 128.66C56.4 129.42 55.4 129.16 54.57 127.87C52.44 124.56 51.93 121.59 53.06 118.96C53.52 117.89 54.4 116.41 55.71 114.5C57.02 112.6 58.59 110.58 60.41 108.46C62.23 106.34 64.34 104.16 66.73 101.93C69.12 99.7 71.64 97.74 74.27 96.04C76.98 94.3 79.68 93.03 82.37 92.24C85.06 91.45 87.56 91.16 89.86 91.37C92.16 91.59 94.28 92.3 96.21 93.5C98.14 94.7 99.81 96.39 101.2 98.56C103.32 101.85 104.25 105.78 103.99 110.33C103.73 114.88 102.48 119.55 100.24 124.33C98.01 129.12 94.97 133.72 91.15 138.14C87.32 142.56 83.12 146.24 78.54 149.19C77.68 149.74 76.96 150.1 76.36 150.26C75.76 150.42 75.21 150.34 74.71 150.02C74.21 149.7 73.67 149.09 73.09 148.19C72.38 147.08 71.9 146.1 71.65 145.27C71.41 144.43 71.23 143.4 71.13 142.17C70.46 133.81 71.22 122.26 73.41 107.51C71.84 108.74 70.21 110.21 68.5 111.93C66.79 113.65 65.22 115.34 63.78 117.02C62.34 118.69 61.16 120.17 60.25 121.44C59.34 122.72 58.95 123.46 59.09 123.68ZM74.31 106.7C74.31 106.7 74.52 106.93 74.87 107.27C75.22 107.61 75.49 107.93 75.68 108.22C75.97 108.67 76.1 109.47 76.08 110.63C76.06 111.79 75.91 113.91 75.65 117.01C75.38 120.1 75.18 122.79 75.05 125.08C74.92 127.37 74.87 130.24 74.9 133.69C74.92 134.78 74.92 135.53 74.9 135.92C74.9 136.31 74.88 136.95 74.88 137.83C74.88 138.71 74.93 139.44 75.03 140.01C75.13 140.58 75.26 140.98 75.41 141.21C75.74 141.72 76.29 141.86 77.09 141.64C77.88 141.42 78.89 140.92 80.11 140.13C83.26 138.11 86.28 135.48 89.17 132.25C92.07 129.02 94.5 125.56 96.49 121.86C98.47 118.16 99.7 114.63 100.15 111.28C100.61 107.93 100.08 105.07 98.56 102.71C96.83 100.02 94.33 98.7 91.06 98.75C87.79 98.8 83.92 100.26 79.46 103.13C77.59 104.34 75.87 105.52 74.3 106.7H74.31Z" fill="black"/>
<path d="M113.12 105.92C115.33 101.15 117.82 97.16 120.58 93.96C123.34 90.76 125.67 88.66 127.57 87.66C128.08 87.39 128.65 87.32 129.28 87.45C129.91 87.58 130.47 87.81 130.98 88.15C131.48 88.49 131.79 88.77 131.91 89C132.1 89.37 132.08 89.73 131.83 90.08C131.58 90.43 131.09 90.96 130.37 91.65C130.71 91.89 131.15 92.2 131.69 92.57C132.23 92.94 132.65 93.25 132.96 93.49C133.27 93.73 133.49 93.98 133.62 94.22C133.88 94.71 133.77 95.94 133.29 97.91C132.81 99.87 132.51 101.3 132.37 102.18C132.23 103.07 132.4 103.97 132.89 104.89C133.69 106.41 134.91 106.73 136.57 105.86C138.27 104.97 140.24 102.22 142.45 97.63L143.44 99.51C140.31 108.51 137.41 113.71 134.76 115.1C133.81 115.6 133 115.69 132.32 115.38C131.64 115.07 131.04 114.4 130.5 113.37C129.65 111.75 129.11 109.04 128.88 105.23C127.07 110.42 125.67 114.17 124.68 116.49C123.69 118.8 122.63 120.25 121.51 120.84C120.97 121.12 120.1 121.08 118.89 120.72C117.68 120.36 116.43 119.73 115.16 118.81C113.89 117.89 112.9 116.77 112.2 115.43C111.69 114.47 111.38 113.6 111.26 112.84C111.14 112.08 111.22 111.19 111.5 110.18C111.78 109.17 112.32 107.75 113.13 105.91L113.12 105.92ZM128.84 93.35C123.79 99.11 120.37 103.56 118.57 106.67C116.77 109.79 116.35 112.25 117.3 114.05C117.64 114.71 118.06 115.18 118.55 115.45C119.04 115.73 119.51 115.75 119.98 115.51C120.25 115.37 120.65 114.98 121.18 114.33C123.07 111.72 124.54 108.83 125.58 105.68C126.63 102.53 127.71 98.42 128.84 93.35Z" fill="black"/>
<path d="M159.1 90.2L160.16 92.51C158.95 96.26 157.6 99.28 156.12 101.58C154.64 103.88 153.16 105.37 151.68 106.05C149.63 106.99 147.69 106.79 145.86 105.44C144.03 104.09 142.62 102.34 141.63 100.19C141.25 99.37 140.99 98.54 140.85 97.7C140.71 96.86 140.66 96.14 140.71 95.52C140.76 94.91 140.93 93.92 141.2 92.54C142.61 86.25 144.78 82.43 147.73 81.08C149.25 80.38 150.24 80.52 150.7 81.51C151.01 82.18 151 83.46 150.67 85.35C150.34 87.24 149.93 88.66 149.44 89.63C148.08 92.4 147.23 94.28 146.89 95.28C146.55 96.28 146.58 97.22 146.99 98.11C147.34 98.87 147.97 99.34 148.87 99.54C149.78 99.74 150.77 99.59 151.84 99.09C153.01 98.55 154.14 97.59 155.22 96.22C156.3 94.84 157.59 92.84 159.1 90.2ZM150.06 77.26C149.44 77.55 148.75 77.62 148 77.48C147.25 77.34 146.74 76.96 146.46 76.35C146.03 75.42 146.08 74.15 146.61 72.53C147.14 70.91 147.96 69.84 149.09 69.33C149.84 68.99 150.55 68.89 151.23 69.05C151.91 69.21 152.42 69.66 152.76 70.4C153.18 71.3 153.12 72.54 152.6 74.11C152.08 75.68 151.23 76.73 150.06 77.27V77.26Z" fill="black"/>
<path d="M175.81 82.8901L176.8 85.2701C173.96 93.4101 170.88 98.1701 167.56 99.5501C165.76 100.3 164 100.06 162.28 98.8301C160.56 97.6001 159.14 95.6401 158.02 92.9401C157.11 90.7601 156.64 87.9101 156.61 84.4001C156.58 80.8901 156.94 77.1601 157.69 73.2101C158.44 69.2701 159.44 65.6901 160.68 62.4801C161.92 59.2701 163.28 56.8101 164.78 55.1001C165.38 54.4001 165.9 53.9601 166.33 53.7801C166.86 53.5601 167.3 53.6101 167.64 53.9301C167.98 54.2501 168.35 54.8901 168.76 55.8601C170 58.8301 170.09 63.0801 169.02 68.6101C167.96 74.1401 165.8 80.2301 162.55 86.8801C162.76 88.1001 162.99 89.0101 163.24 89.6101C163.81 90.9801 164.62 91.9501 165.68 92.5101C166.73 93.0801 167.88 93.1001 169.13 92.5801C169.76 92.3201 170.36 91.8201 170.93 91.1001C171.49 90.3801 172.05 89.5301 172.6 88.5801C173.15 87.6201 174.23 85.7301 175.82 82.9101L175.81 82.8901ZM162.02 81.8601C162.89 80.2201 163.64 78.4501 164.3 76.5401C164.95 74.6401 165.49 72.6701 165.93 70.6301C166.36 68.5901 166.63 66.8101 166.72 65.2901C166.82 63.7701 166.73 62.6901 166.46 62.0401C166.25 61.5501 165.95 61.3901 165.54 61.5601C165.39 61.6201 165.14 61.8601 164.81 62.2801C163.71 63.9901 162.84 66.8101 162.21 70.7301C161.58 74.6501 161.51 78.3601 162.02 81.8601Z" fill="black"/>
<path d="M192.86 78.51L187.73 85.94C185.32 89.54 183.56 91.55 182.44 91.95C181.43 92.31 180.02 91.72 178.2 90.17C176.38 88.62 175.21 87.12 174.68 85.66C174.23 84.42 174.08 83.28 174.22 82.26C174.36 81.24 174.74 79.84 175.36 78.06C176.27 75.64 177.22 73.52 178.2 71.71C179.18 69.9 180.1 68.44 180.96 67.33C181.82 66.22 182.46 65.59 182.9 65.43C183.6 65.18 184.39 65.24 185.27 65.61C186.15 65.98 186.71 66.5 186.94 67.15C187.09 67.56 186.97 68.36 186.59 69.53C186.21 70.7 185.5 72.27 184.47 74.23C183.44 76.19 181.91 78.65 179.87 81.6L179.78 83.66C179.7 84.08 179.71 84.43 179.8 84.69C180.01 85.28 180.47 85.45 181.17 85.2C181.89 84.94 183.32 83.55 185.43 81.04C187.55 78.53 189.7 75.4 191.89 71.65C192.74 70.19 193.42 68.92 193.94 67.84C194.46 66.77 194.92 65.77 195.32 64.85C195.72 63.93 196.07 63.22 196.37 62.71C196.67 62.21 196.99 61.88 197.31 61.74C197.93 61.44 198.52 61.49 199.07 61.88C199.62 62.27 200.08 62.98 200.45 64.01C200.66 64.6 200.62 65.45 200.32 66.55C200.02 67.65 199.4 69.58 198.46 72.32C197.52 75.06 196.61 77.88 195.74 80.77C194.87 83.66 194.07 86.85 193.34 90.34C193.39 90.25 193.95 89.3 195.02 87.52C196.08 85.73 197.21 83.86 198.41 81.9C199.6 79.94 200.6 78.36 201.39 77.15C202.18 75.94 203.2 74.5 204.43 72.82L205.22 75.01C202.87 79.43 200.79 83.57 198.98 87.43C197.17 91.29 195.8 94.34 194.88 96.6C193.95 98.86 193.41 100.17 193.26 100.55C192.84 101.56 192.47 102.51 192.15 103.37C191.83 104.24 191.55 104.92 191.31 105.41C191.06 105.91 190.83 106.19 190.59 106.28C190.05 106.48 189.4 106.2 188.65 105.45C187.9 104.7 187.39 103.97 187.14 103.28C186.91 102.65 186.85 102.04 186.96 101.46C187.55 97.26 189.51 89.61 192.85 78.53L192.86 78.51Z" fill="black"/>
<path d="M224.1 46.4001C224.14 46.5601 224.33 46.6001 224.68 46.5201C224.92 46.4701 225.98 46.0901 227.87 45.3801C229.75 44.6701 231.49 44.1301 233.06 43.7501C231.38 44.5501 229.95 45.3101 228.77 46.0101C227.59 46.7101 226.38 47.4701 225.14 48.2901C223.9 49.1001 223 49.6601 222.45 49.9601C221.9 50.2601 221.41 50.4601 220.98 50.5601C219.61 50.8701 218.76 50.2701 218.43 48.7801C217.57 44.9401 218.12 41.9701 220.07 39.9001C220.87 39.0601 222.21 37.9701 224.09 36.6301C225.97 35.2901 228.14 33.9401 230.58 32.5701C233.02 31.2001 235.75 29.8901 238.76 28.6201C241.77 27.3501 244.81 26.3701 247.87 25.6901C251.01 24.9901 253.98 24.7301 256.78 24.9001C259.58 25.0801 262.03 25.6701 264.11 26.6601C266.19 27.6501 267.94 29.0501 269.34 30.8501C270.74 32.6501 271.73 34.8001 272.29 37.3101C273.15 41.1301 272.67 45.1301 270.86 49.3201C269.05 53.5001 266.27 57.4601 262.53 61.1801C258.78 64.9101 254.36 68.1801 249.24 71.0201C244.13 73.8501 238.91 75.8601 233.6 77.0601C232.61 77.2801 231.8 77.3701 231.18 77.3201C230.56 77.2701 230.07 77.0001 229.71 76.5301C229.35 76.0501 229.05 75.2901 228.82 74.2501C228.53 72.9601 228.42 71.8801 228.48 71.0101C228.54 70.1401 228.73 69.1101 229.06 67.9201C231.31 59.8401 235.99 49.2501 243.12 36.1601C241.23 36.7801 239.18 37.5901 236.99 38.6201C234.8 39.6501 232.73 40.7001 230.8 41.7701C228.87 42.8401 227.26 43.8201 225.96 44.7101C224.66 45.5901 224.04 46.1601 224.1 46.4101V46.4001ZM244.23 35.6901C244.23 35.6901 244.35 35.9801 244.56 36.4201C244.77 36.8601 244.91 37.2501 244.99 37.5901C245.11 38.1101 244.95 38.9101 244.53 39.9901C244.11 41.0701 243.24 43.0201 241.93 45.8301C240.62 48.6401 239.5 51.1001 238.6 53.2001C237.69 55.3001 236.66 57.9801 235.5 61.2401C235.14 62.2701 234.89 62.9701 234.74 63.3301C234.6 63.6901 234.37 64.2901 234.06 65.1201C233.75 65.9501 233.55 66.6501 233.45 67.2201C233.35 67.7901 233.33 68.2101 233.39 68.4801C233.52 69.0701 234 69.3901 234.82 69.4601C235.64 69.5301 236.76 69.4001 238.18 69.0801C241.83 68.2601 245.57 66.8401 249.4 64.8001C253.23 62.7701 256.71 60.3501 259.85 57.5601C262.99 54.7701 265.35 51.8701 266.93 48.8801C268.51 45.8901 269 43.0301 268.39 40.2901C267.69 37.1701 265.8 35.0701 262.71 33.9901C259.62 32.9101 255.49 32.9501 250.31 34.1101C248.14 34.6001 246.11 35.1201 244.24 35.6901H244.23Z" fill="black"/>
<path d="M277.02 57.91L276.69 55.67C277.94 53.98 278.87 52.57 279.47 51.42C278.56 51.3 277.88 51.08 277.43 50.77C276.98 50.46 276.7 49.94 276.59 49.21C276.47 48.38 276.72 47.28 277.35 45.9C277.98 44.52 278.81 43.19 279.84 41.91C280.87 40.63 281.85 39.76 282.78 39.29C283.14 39.07 283.49 38.94 283.85 38.89C284.39 38.81 284.7 38.98 284.76 39.42C284.82 39.81 284.51 40.66 283.85 41.98C289.34 40.41 292.82 39.51 294.29 39.29C294.86 39.2 295.26 39.19 295.49 39.25C295.98 39.39 296.44 39.81 296.85 40.52C297.26 41.23 297.53 41.97 297.64 42.72C297.71 43.2 297.54 43.76 297.12 44.4C296.7 45.04 295.96 45.99 294.9 47.25C293.65 48.77 292.66 50.37 291.91 52.06C291.16 53.74 290.84 54.97 290.96 55.75C291.12 56.83 291.99 57.25 293.57 57.01C295.23 56.76 297.9 54.91 301.58 51.45L301.92 53.75C299.96 56.08 298.33 57.93 297.04 59.3C295.74 60.67 294.52 61.78 293.37 62.64C292.22 63.5 291.16 64.01 290.18 64.15C289.04 64.32 288.02 64.02 287.13 63.25C286.24 62.48 285.66 61.26 285.41 59.59C285.26 58.6 285.39 57.44 285.8 56.09C286.21 54.74 286.88 53.24 287.82 51.59C288.75 49.94 289.83 48.27 291.06 46.59C290.32 46.84 289.48 47.11 288.55 47.4C287.62 47.69 286.64 48 285.6 48.32C284.56 48.64 283.77 48.89 283.21 49.06C281.95 52.15 279.89 55.1 277.02 57.89V57.91Z" fill="black"/>
<path d="M319.93 49.6L320.21 52.12C317.88 55.29 315.65 57.74 313.51 59.46C311.37 61.18 309.5 62.13 307.89 62.31C305.65 62.56 303.87 61.75 302.56 59.89C301.25 58.03 300.46 55.93 300.2 53.58C300.1 52.68 300.11 51.81 300.24 50.97C300.37 50.13 300.55 49.43 300.79 48.86C301.03 48.3 301.5 47.41 302.2 46.19C305.51 40.67 308.79 37.73 312.01 37.37C313.68 37.19 314.57 37.63 314.69 38.72C314.77 39.46 314.36 40.67 313.45 42.35C312.54 44.03 311.7 45.26 310.93 46.02C308.77 48.22 307.37 49.74 306.73 50.58C306.09 51.42 305.82 52.32 305.93 53.29C306.02 54.12 306.47 54.77 307.27 55.24C308.07 55.71 309.06 55.88 310.23 55.75C311.51 55.61 312.88 55.05 314.34 54.09C315.8 53.13 317.66 51.63 319.92 49.61L319.93 49.6ZM315.43 34.46C314.75 34.54 314.07 34.39 313.41 34.02C312.75 33.65 312.38 33.13 312.3 32.46C312.19 31.45 312.64 30.25 313.65 28.88C314.66 27.51 315.78 26.75 317.01 26.62C317.83 26.53 318.54 26.67 319.13 27.03C319.72 27.39 320.07 27.98 320.16 28.79C320.27 29.78 319.83 30.94 318.84 32.26C317.85 33.58 316.72 34.32 315.43 34.46Z" fill="black"/>
<path d="M323.83 49.37L323.3 52.34C323.22 52.72 323.19 53.14 323.22 53.6C323.31 54.85 323.97 55.43 325.21 55.34C326.39 55.26 329.12 53.11 333.39 48.9C333.31 47.4 333.85 45.62 335.01 43.56C336.17 41.5 337.49 39.68 338.96 38.08C340.43 36.49 341.55 35.66 342.32 35.61C343.53 35.52 344.18 36.15 344.27 37.49C344.33 38.3 344.17 39.3 343.78 40.51C343.4 41.71 342.8 43.02 341.99 44.44C341.18 45.86 340.17 47.33 338.96 48.86C339.72 49.85 340.46 50.32 341.17 50.27C341.77 50.23 342.43 50 343.13 49.59C343.83 49.18 344.7 48.57 345.75 47.75L345.92 50.07C344.46 51.2 343.29 51.98 342.43 52.41C341.57 52.84 340.43 53.11 339.03 53.21C338.48 53.25 337.47 53.01 336 52.49C333.38 55.19 331.24 57.22 329.57 58.58C327.9 59.94 326.52 60.66 325.42 60.74C323.53 60.88 321.85 60.04 320.38 58.23C318.91 56.42 318.1 54.37 317.93 52.08C317.71 49.01 319.5 45.17 323.31 40.58C324.45 39.2 325.38 38.24 326.1 37.72C326.82 37.19 327.66 36.89 328.62 36.82C329.44 36.76 330.23 36.83 330.99 37.03C331.75 37.23 332.14 37.51 332.17 37.85C332.25 39.01 331.45 40.76 329.78 43.13C328.1 45.49 326.11 47.58 323.82 49.39L323.83 49.37Z" fill="black"/>
<path d="M351.18 48.92L351.2 49.79C351.24 51.16 351.67 52.21 352.49 52.95C353.31 53.69 354.37 54.04 355.66 54.01C357.01 53.97 358.39 53.66 359.82 53.09C361.25 52.52 362.66 51.77 364.07 50.85C365.47 49.93 367.19 48.7 369.2 47.15L369.26 49.27C366.24 52.51 363.4 55.01 360.73 56.77C358.06 58.53 355.32 59.45 352.51 59.53C350.06 59.6 348.1 58.86 346.63 57.3C345.15 55.74 344.38 53.57 344.3 50.79C344.23 48.36 344.84 46.13 346.13 44.11C347.42 42.09 349.56 39.94 352.55 37.65C354.59 36.08 356.64 34.89 358.68 34.07C360.72 33.25 362.55 32.81 364.17 32.76C365.46 32.72 366.49 32.94 367.26 33.42C368.03 33.9 368.43 34.63 368.46 35.63C368.5 37.09 367.9 38.56 366.65 40.05C365.4 41.54 363.47 43.03 360.86 44.53C358.25 46.03 355.02 47.5 351.19 48.93L351.18 48.92ZM351.53 46.65C353.98 45.77 356.07 44.7 357.79 43.44C359.51 42.19 360.78 40.99 361.59 39.87C362.4 38.75 362.79 37.93 362.78 37.42C362.77 36.89 362.47 36.63 361.89 36.65C361.4 36.66 360.6 36.95 359.5 37.52C358.4 38.08 357.29 38.81 356.18 39.7C355.06 40.59 354.07 41.63 353.19 42.81C352.32 44 351.76 45.27 351.53 46.65Z" fill="black"/>
<path d="M367.66 49.86L367.68 47.6C369.18 46.13 370.32 44.88 371.1 43.85C370.22 43.59 369.59 43.27 369.19 42.89C368.8 42.52 368.6 41.96 368.61 41.21C368.61 40.38 369.04 39.33 369.88 38.06C370.72 36.79 371.75 35.61 372.97 34.51C374.19 33.41 375.3 32.7 376.29 32.39C376.68 32.23 377.05 32.16 377.41 32.16C377.96 32.16 378.23 32.39 378.23 32.83C378.23 33.22 377.79 34.02 376.93 35.22C382.6 34.54 386.18 34.2 387.67 34.22C388.25 34.22 388.65 34.28 388.86 34.37C389.33 34.58 389.71 35.07 390 35.84C390.3 36.61 390.44 37.37 390.43 38.14C390.43 38.63 390.17 39.15 389.65 39.71C389.13 40.27 388.25 41.09 387 42.17C385.53 43.48 384.29 44.9 383.29 46.44C382.28 47.98 381.78 49.15 381.77 49.94C381.76 51.03 382.55 51.58 384.15 51.6C385.83 51.62 388.76 50.21 392.94 47.38L392.92 49.71C390.62 51.7 388.72 53.27 387.22 54.41C385.72 55.56 384.34 56.46 383.07 57.13C381.8 57.8 380.67 58.13 379.68 58.12C378.52 58.11 377.57 57.65 376.81 56.75C376.05 55.85 375.68 54.55 375.69 52.86C375.69 51.86 376.01 50.73 376.63 49.46C377.25 48.19 378.15 46.81 379.33 45.33C380.51 43.85 381.84 42.37 383.31 40.9C382.54 41.03 381.67 41.17 380.71 41.31C379.75 41.45 378.73 41.6 377.65 41.75C376.58 41.9 375.75 42.02 375.17 42.11C373.43 44.97 370.93 47.55 367.67 49.86H367.66Z" fill="black"/>
<path d="M391.43 48.38L391.47 47.55C398.87 41.6 403.96 37.43 406.75 35.04C407.49 32.22 409.02 30.87 411.33 30.99C411.91 31.02 412.52 31.19 413.16 31.5L413.37 32.17C413.25 32.44 413.17 32.83 413.15 33.34C413.13 33.78 413.29 34.6 413.63 35.82C413.97 37.03 414.23 38.05 414.41 38.87C414.59 39.69 414.65 40.61 414.6 41.63C414.52 43.16 414.04 44.6 413.15 45.96C412.26 47.32 411 48.6 409.37 49.81C407.74 51.02 405.66 52.23 403.12 53.45C404.1 53.64 404.88 53.74 405.46 53.77C406.59 53.83 407.81 53.65 409.14 53.24C410.47 52.83 411.83 52.26 413.23 51.53C414.63 50.8 416.27 49.84 418.14 48.66L418.03 50.99C414.37 53.71 411.12 55.75 408.27 57.1C405.42 58.46 402.99 59.09 400.99 58.99C398.41 58.86 396.06 57.82 393.96 55.86C392.72 54.68 391.97 53.58 391.71 52.55C391.45 51.52 391.35 50.13 391.44 48.4L391.43 48.38ZM407.06 43.82L406.57 38.71C404.79 40.25 400.99 43.18 395.19 47.51C396.82 47.89 397.93 48.35 398.51 48.89C399.09 49.43 399.89 50.46 400.92 51.97C402.82 51.41 404.3 50.6 405.36 49.53C406.42 48.46 406.99 46.95 407.09 45C407.1 44.77 407.1 44.56 407.09 44.37C407.09 44.19 407.07 44 407.06 43.81V43.82Z" fill="black"/>
<path d="M463.46 41.01L461.09 42.79C463.49 43.31 465.62 43.85 467.49 44.43C469.35 45 471.07 45.59 472.64 46.19C474.21 46.79 475.58 47.38 476.75 47.97C480.85 50.08 482.71 52.49 482.33 55.2C482.1 56.85 480.98 58.35 478.96 59.68C476.94 61.02 474.41 62.11 471.37 62.95C468.33 63.79 465.24 64.36 462.1 64.64C458.97 64.92 456.16 64.89 453.68 64.55C449.54 63.98 446.4 62.89 444.26 61.27C442.12 59.65 441.21 57.72 441.52 55.47C441.73 53.91 442.7 52.17 444.4 50.25C446.11 48.33 448.66 46 452.07 43.27C449.85 42.87 448.31 42.37 447.45 41.77C446.59 41.17 446.22 40.45 446.33 39.6C446.4 39.07 446.63 38.69 447.03 38.47C447.42 38.24 447.93 38.11 448.54 38.06C449.16 38.02 450.33 38.02 452.06 38.07C453.79 38.12 456.01 38.19 458.71 38.29C462.1 35.62 465.09 33.67 467.66 32.45C470.23 31.23 472.88 30.68 475.61 30.83C475.83 30.83 476.07 30.86 476.33 30.89C476.59 30.93 476.71 31 476.69 31.12C476.67 31.26 476.31 31.58 475.62 32.1C474.93 32.61 473.8 33.43 472.24 34.55C470.68 35.67 468.84 37 466.72 38.53C471.92 38.66 476.2 38.58 479.56 38.28C482.92 37.98 485.5 37.43 487.3 36.63C489.1 35.83 490.09 34.79 490.27 33.53C490.48 31.99 489.75 30.76 488.07 29.82C486.39 28.89 483.73 28.17 480.08 27.67C478.06 27.39 475.73 27.25 473.08 27.23C470.43 27.22 468.02 27.28 465.85 27.43C463.68 27.58 461.73 27.78 460.02 28.05C458.3 28.32 457.43 28.57 457.4 28.79C457.4 28.86 457.46 28.94 457.62 29.03C458.9 29.63 459.52 30.06 459.48 30.34C459.43 30.71 457.29 31.13 453.06 31.61C448.83 32.09 446.01 32.23 444.59 32.04C443.58 31.9 443.14 31.41 443.25 30.56C443.39 29.55 444.74 27.88 447.29 25.55C449.84 23.22 452.07 21.82 453.97 21.33C454.63 21.16 456.14 20.96 458.51 20.73C460.88 20.49 463.46 20.31 466.27 20.18C469.08 20.05 471.92 20.01 474.8 20.06C477.68 20.11 480.21 20.28 482.39 20.58C487.54 21.29 491.3 22.6 493.68 24.5C496.06 26.41 497.08 28.53 496.76 30.87C496.54 32.45 495.74 33.9 494.35 35.2C492.96 36.51 490.93 37.64 488.24 38.61C485.55 39.57 482.13 40.27 477.98 40.71C473.82 41.14 468.99 41.25 463.47 41.03L463.46 41.01ZM458.52 44.86C456.91 46.09 455.48 47.17 454.22 48.11C452.97 49.05 452.05 49.82 451.48 50.44C450.91 51.05 450.58 51.7 450.48 52.39C450.33 53.49 450.87 54.57 452.1 55.61C453.33 56.66 455.21 57.35 457.75 57.7C460.09 58.02 462.64 58.02 465.39 57.68C468.14 57.35 470.5 56.74 472.47 55.86C474.44 54.99 475.5 53.97 475.66 52.83C475.8 51.84 475.24 50.94 473.99 50.11C472.74 49.28 470.79 48.44 468.14 47.57C465.48 46.7 462.28 45.8 458.52 44.86Z" fill="black"/>
<path d="M490.35 51.57C495.06 49.23 499.5 47.68 503.66 46.9C507.82 46.13 510.95 45.95 513.05 46.36C513.62 46.47 514.1 46.77 514.51 47.26C514.92 47.75 515.21 48.29 515.39 48.87C515.57 49.45 515.64 49.86 515.59 50.11C515.51 50.52 515.26 50.78 514.85 50.9C514.43 51.02 513.73 51.12 512.73 51.21C512.85 51.61 513 52.12 513.19 52.75C513.38 53.38 513.52 53.88 513.61 54.27C513.7 54.65 513.72 54.98 513.67 55.26C513.56 55.81 512.71 56.7 511.11 57.93C509.51 59.16 508.38 60.08 507.71 60.68C507.05 61.28 506.61 62.1 506.42 63.12C506.09 64.8 506.84 65.82 508.68 66.18C510.57 66.55 513.82 65.64 518.42 63.44L518.01 65.52C509.93 70.58 504.42 72.82 501.48 72.25C500.43 72.05 499.73 71.6101 499.4 70.9401C499.07 70.2701 499.01 69.3701 499.23 68.2301C499.58 66.4301 500.86 63.98 503.06 60.87C498.4 63.79 494.96 65.84 492.74 67.02C490.52 68.2 488.79 68.68 487.55 68.43C486.96 68.31 486.3 67.74 485.58 66.7C484.86 65.66 484.29 64.39 483.87 62.88C483.45 61.37 483.38 59.87 483.67 58.4C483.88 57.33 484.17 56.46 484.56 55.79C484.94 55.12 485.56 54.48 486.41 53.87C487.26 53.26 488.57 52.49 490.35 51.56V51.57ZM510.48 51.6C502.93 52.94 497.49 54.26 494.14 55.57C490.79 56.88 488.92 58.53 488.53 60.53C488.39 61.26 488.42 61.88 488.63 62.41C488.84 62.94 489.2 63.25 489.71 63.35C490.01 63.41 490.56 63.35 491.38 63.18C494.49 62.32 497.44 60.99 500.23 59.19C503.02 57.38 506.44 54.86 510.49 51.61L510.48 51.6Z" fill="black"/>
<path d="M536.23 67.31L535.65 69.82C528.6 74.78 523.32 76.85 519.81 76.03C517.91 75.59 516.62 74.37 515.94 72.37C515.26 70.37 515.25 67.95 515.91 65.1C516.44 62.8 517.72 60.21 519.74 57.33C521.76 54.46 524.23 51.64 527.14 48.88C530.05 46.12 532.95 43.79 535.83 41.9C538.71 40.01 541.25 38.81 543.46 38.3C544.36 38.08 545.03 38.02 545.49 38.13C546.05 38.26 546.38 38.56 546.47 39.02C546.56 39.48 546.49 40.22 546.25 41.24C545.52 44.38 543.12 47.88 539.03 51.75C534.94 55.62 529.64 59.31 523.12 62.82C522.58 63.93 522.24 64.8 522.09 65.44C521.76 66.89 521.85 68.14 522.38 69.22C522.91 70.29 523.83 70.98 525.14 71.29C525.81 71.45 526.58 71.39 527.46 71.13C528.34 70.87 529.28 70.51 530.29 70.06C531.3 69.61 533.27 68.69 536.22 67.33L536.23 67.31ZM525.63 58.43C527.29 57.6 528.94 56.61 530.58 55.44C532.22 54.27 533.81 52.99 535.35 51.59C536.89 50.19 538.14 48.9 539.11 47.72C540.08 46.54 540.64 45.61 540.79 44.93C540.91 44.41 540.75 44.1 540.33 44C540.17 43.96 539.83 44.02 539.32 44.16C537.42 44.91 535.08 46.69 532.28 49.5C529.48 52.31 527.27 55.29 525.64 58.43H525.63Z" fill="black"/>
<path d="M553.8 72.28L553.17 74.74C549.86 76.88 546.91 78.37 544.3 79.22C541.7 80.07 539.61 80.29 538.04 79.88C535.86 79.32 534.48 77.93 533.91 75.73C533.34 73.52 533.35 71.28 533.94 68.99C534.17 68.11 534.49 67.31 534.91 66.56C535.33 65.82 535.75 65.23 536.18 64.79C536.61 64.35 537.36 63.68 538.44 62.79C543.5 58.81 547.6 57.22 550.74 58.03C552.36 58.45 553.04 59.19 552.77 60.24C552.58 60.96 551.77 61.95 550.32 63.2C548.87 64.46 547.65 65.3 546.66 65.74C543.86 67.03 542.01 67.95 541.11 68.51C540.21 69.07 539.64 69.82 539.4 70.76C539.19 71.57 539.38 72.33 539.96 73.06C540.54 73.78 541.4 74.29 542.55 74.59C543.8 74.91 545.28 74.88 546.98 74.5C548.68 74.11 550.95 73.38 553.79 72.29L553.8 72.28ZM554.97 56.53C554.3 56.36 553.73 55.98 553.24 55.4C552.75 54.82 552.59 54.2 552.76 53.55C553.01 52.56 553.86 51.61 555.29 50.68C556.72 49.76 558.04 49.45 559.23 49.76C560.03 49.97 560.64 50.35 561.07 50.9C561.49 51.45 561.61 52.12 561.4 52.91C561.15 53.88 560.33 54.8 558.94 55.68C557.55 56.57 556.23 56.85 554.97 56.52V56.53Z" fill="black"/>
</svg>
