<?xml version="1.0" encoding="UTF-8"?>
<svg id="Layer_1" data-name="Layer 1" xmlns="http://www.w3.org/2000/svg" viewBox="0 0 661.25 416.78">
  <defs>
    <style>
      .cls-1 {
        fill: #fff;
      }
    </style>
  </defs>
  <path class="cls-1" d="M211.98,211.96c-2.65-2.26-6.05-.28-9.8-2.59,4.23-1.04,7.42-.96,10.54-.37,6.93,1.31,13.84,.02,20.75,.11,5.86,.08,11.5-1.45,17.54-1.02,4.75,.33,10.26-.77,15.29-1.73,4.55-.87,9.18-1,13.67-1.38,6.05-.52,12.13-1.36,18.25-1.39,.89,0,2-1.01,2.4,.46,.17,.63-.25,1.93-.74,2.14-2.74,1.2-5.53,2.7-8.42,3-1.61,.17-3.81-1.3-4.73,.71-.87,1.9,2.82,1.3,2.74,3.75-4.6-.05-9.31-.41-13.46,2.24-1.28,.81-1.47-.49-1.86-1.21-.91-1.66-1.78-3.34-2.8-5.25-2.24,5.05-5.7,6.91-10.67,6.05-3-.52-6.13,.18-8.92,.54-4.09,.53-6.01-.62-7.65-3.82-.44-.86-1.21-1.56-2.28-2.9-1.22,2.51-.1,4.89-2.8,6.36-2.76,1.51-3.89-.46-5.72-.89-4.36-1.04-7.39,.74-8.98,4.66-.59,1.44-1.03,2.92-2.25,5.25v-10.25c-9.38,4.9-19.28,3.9-28.79,5.3-3.53,.52-6.81,2.08-10.38,2.79-10.37,2.07-20.8,2.82-31.32,3.44-5.89,.34-11.69,2.14-17.53,3.28-.16,.03-.31,.21-.45,.2-6.87-.72-12.13,1.14-13.75,9.31-.15-4.34-1.14-7.15-5.5-7.56-.67-.06-1.5-1.39-1.69-2.25-.11-.48,.91-1.37,1.88-1.24,4.47,.6,6.74-1.12,5.98-6.72,1.34,5.55,4.2,4.5,7.76,3.81,14.72-2.85,29.5-5.34,44.29-7.8,5.97-.99,12.24-.79,17.95-2.52,7.1-2.16,14.29-1.46,21.45-2.51Z"/>
  <path class="cls-1" d="M115.19,217c-3.55-1.9-6.67-1.74-9.47-1.23-17.5,3.23-35.46,3.75-52.62,9.22-5.91,1.88-10.21,4.88-13.43,10.13,.26-2.04-2.07-2.77-1.7-5.12,.84-5.29,3.56-8.7,8.31-6.92,5.01,1.87,8.7-.89,12.61-1.78,5.52-1.25,11.27-1.38,16.5-2.96,6.49-1.96,13.29-1.27,19.43-3.27,5.67-1.85,11.28-.73,16.83-1.81,1.33-.26,2.33,1.54,3.55,3.73Z"/>
  <path class="cls-1" d="M74.82,353.64c-1.28-2.38-2.91-4.78-2.35-7.51,.74-3.63,2.47-7.06,3.23-10.69,.87-4.17,2.75-2.68,4.35-.93,.71,.78,1.53,1.43,2.3,1.61,4.46,1.07,3.63,4.32,2.52,6.93-1.79,4.19-5.42,7.04-8.83,9.95-.23,.2-.55,.3-1.21,.64Z"/>
  <path class="cls-1" d="M42.91,346.22c8.6,6.63,13.48,14.66,19.82,23.01-4.79-1.05-8.9-1.11-12.02-2.9-2.53-1.45-4.02-4.99-2.3-8.44,.69-1.39,1.91-2.76-.71-3.26-4.39-.84-3.91-4.37-4.79-8.42Z"/>
  <path class="cls-1" d="M308.38,209.6c-3.21,.11-5.52,.55-5.63-1.99-.1-2.45,2.02-2.65,4.1-3,6.17-1.05,12.79-.05,18.36-3.93,.76-.52,1.72-1.16,2.46,.11,.65,1.12,.61,2.2-.36,3.16-2.05,2.01-4.54,3.19-7.31,3.7-4.33,.79-8.68,1.46-11.62,1.95Z"/>
  <path class="cls-1" d="M569.34,97.76c6.05,.51,12.11,1.02,19.32,1.62-2.04,1.41-3.77,3.06-4.15,2.8-4.65-3.28-10.9,.63-15.18-4.42Z"/>
  <path class="cls-1" d="M504.66,268.3c2.93-3.88,6.88-4.07,12.18-3.09-4.31,2.57-8.38,2.22-12.18,3.09Z"/>
  <path class="cls-1" d="M599.33,334.22c-1.36-3.55,2.18-5.13,2.98-8.31q.99,5.23-2.98,8.31Z"/>
  <path class="cls-1" d="M219.16,282.81c.71,2.91,1.99,5.59,2.59,8.46-2.23-2.42-3.72-5.07-2.59-8.46Z"/>
  <path class="cls-1" d="M404.39,213.83c-.28-3.57,2.16-5.03,4.81-6.37l-4.81,6.37Z"/>
  <path class="cls-1" d="M410.7,209.23c.36,2.07,.71,4.14,1.07,6.21-1.73-1.9-3.79-3.78-.95-6.08-.01-.01-.12-.13-.12-.13Z"/>
  <path class="cls-1" d="M466.56,98.32c2.82,.25,5.64,.49,8.46,.74-2.84-.02-5.96,2.22-8.44-.77,0,0-.02,.04-.02,.04Z"/>
  <path class="cls-1" d="M75.19,368.7c-1.21,1.33-1.47,2.99-3.18,2.06-.34-.19-.76-.88-.65-1.16,.64-1.77,2.08-.78,3.84-.9Z"/>
  <path class="cls-1" d="M175.54,149.04c-.21-2.04,1.39-2.53,3.23-3.68-.52,2.36-1.75,3.13-3.36,3.55l.14,.13Z"/>
  <path class="cls-1" d="M175.41,148.91c-1.21,.87-1.74,2.75-4.4,2.63,1.58-1.58,2.26-3.34,4.53-2.51,.01,0-.13-.12-.13-.12Z"/>
  <path class="cls-1" d="M164.97,156.74c1.23-1.59,1.92-2.67,4.09-3.06-.94,1.67-1.59,2.79-4.09,3.06Z"/>
  <path class="cls-1" d="M189.4,137.92c-1.21,.87-1.74,2.75-4.4,2.63,1.58-1.58,2.26-3.34,4.53-2.51,.01,0-.13-.12-.13-.12Z"/>
  <path class="cls-1" d="M466.58,98.28c-1.84,.68-3.68,.65-6.36-.08,2.66-.58,4.49-.75,6.32,.12,0,0,.03-.04,.03-.04Z"/>
  <g>
    <path class="cls-1" d="M410.8,209.35s.07-.09,.11-.13c-.07,0-.14,0-.22,.02l.1,.12Z"/>
    <path class="cls-1" d="M625.15,254.2c1.16-5.23,1.63-10.21,1.46-15.71-.2-6.49,1.43-13.29,1.4-20.05-.05-8.76-.05-9.23-8.58-8.62-7.35,.53-11.84-2.69-15.35-8.5-.63-1.05-1.57-2.13-.75-3.06,.92-1.06,2.43-.77,3.67-.07,.88,.5,1.64,2.32,2.74,.87,1.79-2.37,3.62-1.36,5.65-.69,3.35,1.11,7.37-1.04,10.35,2.11,.09,.1,.92-.26,1.16-.58,1.85-2.56,4.54-4.9,2.68-8.59-2.48,.21-.85,3.04-2.7,4.56-1.86-7.93-4.16-15.02-9.47-20.81,.61,2.24,1.08,3.98-2.25,3.69-2.7-.23-5.43-.04-8.14-.05-2.69,0-4.81,.27-3.12,3.93,.51,1.11,.48,2.5,.93,3.78,.7,1.98,.26,3.33-2.55,3.31-15.76-.12-31.51-.03-47.27-.02-7.83,0-15.66-.11-23.49,.06-2.66,.06-3.76-.99-4.47-3.37-1.92-6.46-7.1-11.1-13.82-10.77-8.14,.4-16.32,.03-24.48,.13-2.26,.03-4.84-.15-5.84-1.94-2.12-3.77-5.37-3.06-8.55-3.09-3.66-.03-7.34-.13-10.99,.03-3.28,.15-4.96-1.21-6.07-4.34-1.76-4.98-4.07-9.76-6.35-15.13-.98,1.76-.9,2.6-.28,3.56,2.3,3.61,3.18,7.81,4.83,11.7,1.21,2.86,.92,4.43-2.67,4.18-5.47-.37-10.81,1.02-16.29,1.14-9.51,.2-13.92,5.69-13.46,15.28,.06,1.26,.36,2.6-.71,3.77-2.21,2.43-4.32,4.96-6.45,7.47-2.3,2.73-6.87,4.52-3.95,9.48,.11,.19-.6,.85-1.03,1.36,4.1-.35,9.13,1.43,10.48-5.04,.27-1.27,1.69-2.21,3.39-2.54,7.84-1.55,15.4-2.37,20.99,5.16,.35,.47,1.09,.71,1.68,.95,3.27,1.36,3.11,3.49,1.83,6.33-2.56,5.69-5.99,10.84-9.22,16.14-2.47,4.06-6.03,7.44-7.59,12.08,4.6-5.45,9.51-10.7,12.55-17.21,4.49-9.62,7.65-11.1,18.47-8.8,3.76,.8,7.81,1.19,11.58,.68,3.63-.49,4.39,.98,3.82,3.68-.34,1.63-.34,3.48,.77,3.85,2.91,1,3.75,4.03,5.59,5.35,9.52,6.83,13.07,16.2,13.91,27.29,.21,2.78,2.81,4.35,5.3,4.2,21.34-1.33,42.69-1.92,64.07-1.72,1.65,.02,3.32-.03,4.96-.25,11.92-1.58,23.92-1.12,35.8-.34,6.73,.44,13.34,.15,20.08,.59-.34-3.2-4.83-2.68-4.22-5.45Zm-2.4-62.58c-4.47-.11-8.98,.82-14.61-1.49h14.63c0,.5-.01,.99-.02,1.49Zm-12.47-10.94c5.65-.44,9.32,1.43,10.62,6.01-3.78,0-7.11-.16-10.41,.05-3.09,.19-3.79-1.94-3.76-4.04,.02-1.79,1.98-1.89,3.55-2.02Zm-85.36,8.25c.27,1.78-1.06,1.75-2.23,1.75-11.26-.05-22.53-.11-33.79-.2-.22,0-.44-.36-.99-.84,.62-.46,.87-.79,1.12-.8,11.04-.4,22.08-.78,33.12-1.1,1.01-.03,2.5-.54,2.76,1.2Zm-37.81-8.43c.48-3.05,2.41-1.46,4.11-1.23,8.64,1.21,17.34,.13,26.01,.42,1.78,.06,3.61-.29,4.38,2.08,.48,1.48,.81,3.02,.05,4.28-.92,1.52-1.91-.47-3.01-.35-6.96,.74-13.77-1.77-19.74-1.01-3.48,0-5.98-.06-8.47,.02-3.07,.1-3.72-1.77-3.33-4.21Zm-60.08-2.23c2.95-3.2,7.18-3.37,10.88-3.41,10.58-.1,21.09-1.57,31.7-1.24,11.69,.37,12.56,.86,13.42,12.48,.11,1.48,.01,2.97,.01,4.98-1.88-1.23-1.95-2.65-2.02-4.19-.49-10.03-4.38-13.25-14.05-9.85-7.11,2.5-14.29,1.15-21.37,2.46-5.54,1.03-11.45-.22-16.96,1.99-1.14,.46-2.45,.34-3.01-.93-.49-1.13,.78-1.64,1.39-2.3Zm-6.33,20.21c3.62-10.04,5.42-10.27,13.99-.79-5.36-.66-9.51,1.8-13.99,.79Zm22.72-6c-3.15,.79-6.39,.38-9.05-2.61h33.93c-5.07-9.39-4.43-10.27,5.76-10.22,2.77,.01,4.61,.34,4,3.7-.09,.48-.05,1,0,1.49,1.02,8.46,.27,8.18-7.99,7.69-8.8-.52-17.75-2.3-26.66-.05Zm34.18,7.21c-3.32,0-6.59,.04-9.86-.02-1.03-.02-2.47,.41-2.6-1.36-.13-1.82,1.27-1.58,2.37-1.59,2.46-.04,4.92,.1,7.37-.05,2.12-.13,2.31,1.32,2.72,3.02Zm-19.42,12c-1.33-.01-2.68,.11-3.98-.09-1.87-.29-2.14-1.75-2.15-3.37-.01-1.49,.3-2.21,2.07-2.61,8.37-1.9,16.82-.45,25.22-.91,3.35-.18,7.59,1.39,6.93-4.92-.25-2.36,2.5-2.08,4.29-2.08,8.14-.01,16.29-.23,24.42,.1,3.33,.14,6.37-2.01,10.14-.66-1.19,2.21-1.96,4.21-3.21,5.84-3.06,4-6.38,7.26-12.28,6.79-17.2-1.38-34.26,2.09-51.44,1.91Zm163.7,33.45c-1.34,2.69-3.66,4.85-7.19,2.38-1.15-.8-2.54-1.26-3.72-1.84-1.02,1.09-.35,1.63,.08,2.35,2.44,4.08,1.66,5.56-2.9,5.63-1.33,.02-2.67,.02-4,0-2.2-.04-4.87,.74-5.67-2.37-.76-2.92,2.69-2.12,4.36-4.15h-18.3c-.89,1.65,1.97,1.44,1.68,2.96-.29,1.47,2.45,3.32,.15,4.25-1.83,.74-4.78,1.44-5.72-1.83-1.73-6.03-6.22-6.32-11.36-5.92-3.07,.24-4.2,.87-1.96,3.7,1.21,1.53,1.92,3.45,3.86,4.63-1.43,.88-2.14,1.01-3.02-.29-1.52-2.27-3.04-4.62-5.53-6.02-1.69-.95-3.57-2.55-4.47,.86-.46,1.75-2.46,1.37-2.64,.78-1.43-4.66-5.42-1.75-7.9-3.2-.82,2.58,2.44,2.02,2.48,4.53-3.88-.23-5.44-5.5-10.06-4.14-3.57,1.05-7.7,.21-11.46,.21-.38,2.77,2.48,1.25,2.39,3.1-.09,.16-.24,.62-.39,.62-1.82,.03-3.84,1.24-5.31-.87-2.24-3.2-1.72-2.71-4.42,.16-1.81,1.93-5.29,2.67-8.33,1.63-.24-1.08,.12-1.52,.9-1.6,1.18-.13,2.57-.42,2.25-1.82-.29-1.27-1.86-1.64-2.91-1-2.21,1.35-4.54,.55-6.8,.75-1.52,.14-3.42,.04-3.47-1.83-.05-1.71,1.42-3.01,3.26-3.09,3.33-.13,6.66-.14,9.99-.03,2.67,.09,5.24-.15,7.85-1.4-2.68-3.42-6.32-.03-9.57-1.32-3.44-1.36-5.03-2.38-3.92-5.97,.72-2.31-.85-3.71-1.92-5.29-1.21-1.79-4.13-.99-4.42-.62-1.3,1.62,.53,1.85,1.51,2.86,1.92,2,2.41,5.1,2.99,8.11-6.93-3.25-6.79-3.27-7.73-10.51-.26-2.03,.69-1.93,1.82-1.85,1.92,.14,2.56-1.65,2.29-2.46-.96-2.92-1.58,.84-2.39,.3-1.91-1.26-3.67-.17-5.54-.04-2.36,.16-.89-2.72-2.24-4.04-1.14-1.11,.97-3.27,2.45-3.53,5.54-.99,11.08-2.9,16.73,.31,2.3,1.31,6-.41,7.34,3.54,.4,1.18,1.72,2.14,.93,3.53-.77,1.35,.1,1.87,1,2.13,1.24,.36,1.26-.73,1.26-1.53,0-1.29,.18-2.24,1.86-2.25,2.18-.01,3.74,1.24,3.94,3.02,.14,1.26,2.54,3.12,.39,3.73-3.43,.97-.85,1.8-.26,2.65,1.58,2.27,3.81,2.98,6.49,2.6,1.49-.21,2.65-.82,2.5-2.45-.23-2.39-1.73-.4-2.53-.46-1.61-.13-2.4-.45-2.41-2.26,0-3-1.35-5.64-3.22-7.82-1.44-1.68-.41-2.83,.3-3.95,.94-1.49,.59-3.25,1.3-4.68,.8-1.62,1.21-3.48,.27-4.72-1.34-1.78-3.25,.06-5.36,.18,2.13-3.46,5.07-5.26,8.64-4.63,3.15,.55,4.38-.16,4.08-3.24-.16-1.61,.97-1.87,1.98-2.35,.8-.38,1.64,.42,1.43,.67-3.45,4.18,1.43,9.21-1.44,13.38-2.03,2.96,.42,5.44,1.19,8.37,.78-1.64,1.57-3.28,2.39-4.98,1.9-.09,1.52,4.41,4.89,1.96,1.45-1.06,1.85,2.57,2.37,4.01,.69,1.92,.37,4.56,3.24,4.3,2.72-.25,3.37-2.1,2.05-4.6-.3-.56,0-1.39,.76-1.57,.78-.18,1.85-.32,2.02,.77,.19,1.22,.64,2.16,1.53,3.01,.92,.87,2.08,1.66,3.02,.72,1.31-1.31-.23-2.1-1.17-2.49-1.26-.52-1.38-1.36-1.06-2.35,.32-1.02,1.37-.84,2.1-.75,2.63,.35,6.36-1.61,6.92,3.29,.11,.93,1.08,1.88,2.18,1.39,.81-.36,.67-1.41,.38-2.23-.25-.7-1.16-1.31-.32-2.14,3.69-1.28,3.97,3.44,6.82,3.81,1.05,.14,2.12,1.39,3.18,.49,1.08-.92,.62-2.11-.33-2.97-1.34-1.2-.37-1.89,.44-2.76,1.04-1.12,1.96-1.05,2.9,.05,.81,.94,2.33,1.72,.78,3.25-.99,.98-2.06,2.28-.73,3.36,1.14,.93,2.28-.72,3.46-1.11,2.54-.84,3.62-4.03,6.75-4.16,.45-.02,.99-1.94,1.16-3.04,.17-1.09-.83-1.27-1.68-1.25-7.27,.16-14.27-3.09-21.57-1.96-5.93,.92-11.85,.92-17.81,.96-2.74,.02-5.1-.08-4.9-3.78,.06-1.12-.82-1.84-1.77-2.18-1.32-.48-1.31-2.22-.98-2.3,4.07-1.03,2.68-4.25,2.79-6.75,.11-2.41,1.8-2.18,3.16-1.96,11.75,1.91,23.63-1.73,35.39,.87,2.46,.54,4.29,1.32,5.31,3.59,2.06,4.59,5.15,8.87,4.19,14.39-.33,1.91,.97,2.99,2.79,3.7,.06-.91-.16-1.89,.22-2.52,1.02-1.69-2.56-3.73,.3-4.94,1.53-.65,2.45,2.94,4.92,1.18,.54-.39,.83,1.73,.14,2.73-.97,1.39-3.2,2.18-1.71,5.29,2.83-7.53,8.98-4.24,13.93-4.84,1.22-.15,1.5,1.64,1.89,2.62,3.53,8.88,1.65,15.45-6.37,21.43,2.03,.92,6.63-.34,4.51,3.91Z"/>
  </g>
  <path class="cls-1" d="M373.91,182.69c-3.09,.54-7.42,1.3-11.75,2.05-4.78,.83-7.66,4.12-8.65,8.35-.88,3.78-1.72,7.62-2.34,11.47-.89,5.46,1.18,7.1,6.88,6.06,3.84-.7,7.68-1.66,11.55-1.85,4.41-.21,7.19-2.15,8.4-6.19,1.3-4.34,2.85-8.59,3.2-13.23,.43-5.73-.1-6.64-7.29-6.66Zm-.16,9.4c-.47,1.91-1.36,5.21-2.09,8.55-.52,2.37-2.72,2.36-4.21,2.76-10.13,2.75-10.86,2.08-9.31-7.99,.46-2.99,1.43-5.56,5.27-5.89,2.55-.22,5.02-1.28,7.56-1.78,2.24-.44,3.58,.37,2.78,4.36Z"/>
  <path class="cls-1" d="M382.67,343.06c-1.02-1.16-1.36-1.93-1.88-2.07-6.18-1.69-10.08-4.7-7.76-11.97,.62-1.96-.8-2.44-2.61-2.45-2.11,0-2.65,.83-2.1,2.73,.51,1.77-.3,3.89-1.72,3.68-1.55-.23-1.16-3.32-2.98-4.27,2.05-2.16,1.7-6.86,6.51-6.11,.49,.08,1.01-.07,1.5,.02,3.09,.58,6.68-3.24,9.22,.41,2.54,3.65,3.54,8.1,3.21,12.57-.68,8.93-2.18,17.61-10.65,23.7,.07-2.42-1.17-4.17-2.4-5.87-.5-.69-1.56-.98-2.36-1.45-2.61,6.18-2.03-2.64-4.59,.94-.34,2.96,.89,6.95,4.25,10.36,.89,.9,2.24,2.93,.46,2.87-4.7-.17-7.82,4.47-12.58,3.47-.99-.21-1.99-.16-2.68-1.52,2.55-.89,2.78-2.98,2.64-5.37-.15-2.66,.08-5.33-.07-7.99-.1-1.76,.21-3.63,1.35-4.61,3.57-3.06,8.68-4.24,10.62-9.37,.35-.92,2.44,.48,3.55,1.02,3.32,1.63,6.65,2.36,11.11,1.29Z"/>
  <path class="cls-1" d="M348.99,349.5c3.6,4.41,6.07,8.92,5.58,14.52-1.71-.04-2.91-1.35-4.16-2.6-.8-.8-1.52-2.14-2.79-1.76-2.95,.87-4.85,.05-7.56-1.7-3.3-2.13-2.68,2.09-3.19,4.33-3.1-2.25-3.68-5.57-4.67-9.1,6.14,.86,12.66,3.49,16.81-3.7Z"/>
  <path class="cls-1" d="M342.32,369.49c4.7,2.02,8.68,4.66,13.93,4.71,5.18,.05,8.48-5.02,14.21-4.4-7.96,8.1-25.64,7.17-28.14-.31Z"/>
  <path class="cls-1" d="M354.65,340.37c.22-5.09,7.01-2.07,7.14-7.1,1.34,4.58-1.71,7.3-7.14,7.1Z"/>
  <path class="cls-1" d="M415.82,351.93c-.36,.58-.44,.73-.54,.86-1.13,1.5-3.29,.16-4.41,1.78,.61-2.91,2.39-3.39,4.95-2.65Z"/>
  <path class="cls-1" d="M532.2,296.93c-6.2,3.57-12.75,.1-18.91,2.75,4.26-4.44,11.43-5.53,18.91-2.75Z"/>
  <path class="cls-1" d="M176.23,182.62c-.38,1.19,.5,2,.88,2.96-2.02-.26-3.96-.72-6.15-2.63,2.24-.14,3.75-.23,5.27-.33Z"/>
  <path class="cls-1" d="M257.54,134.43c-1.07,2.7-1.69,4.29-2.52,6.38-1.74-3.09-.36-4.52,2.52-6.38Z"/>
  <path class="cls-1" d="M254.79,142.11c-.59,1.81-.08,4.06-2.35,5.42-.64-2.5,.65-4.04,2.35-5.42Z"/>
  <path class="cls-1" d="M303.74,147.65c2.16,.78,4.3,.73,6.53,.15,.84-.22,2.74-.73,2.62,1.09-.1,1.48-1.83,2.41-2.99,1.64-2.15-1.43-3.79-.45-5.44,.51-1.54,.9-2.78,.9-3.92-.46-.39-.46-.63-1.05-.93-1.57,1.33-.58,2.5-1.67,4.14-1.36Z"/>
  <path class="cls-1" d="M383.86,137.97c-1.25,3.69-9.49,5.67-11.94,3.01-1.06-1.15-1-1.7,.71-2.33,3.72-1.37,7.42-.95,11.22-.69Z"/>
  <path class="cls-1" d="M546.6,149.7c.04-.46,.08-.57-1.35-.98-1.47-.43-2.25-1.26-2.18-2.78,.03-.74-.34-1.82,.77-2.01,1.36-.24,1.88,1.1,2.69,1.83,1.1,.98,2.12,2.05,3.14,3.12,.62,.64,1.72,1.33,.39,2.24-.86,.59-1.79,1.54-2.91,1.04-.94-.42-1.44-1.31-.54-2.44Z"/>
  <path class="cls-1" d="M536.16,125.44c-.44,.32-.15,1.31-.93,.72-.45-.34-.93-.89-1.03-1.41-.17-.89,.72-1.08,1.2-.82,.41,.22,.52,1,.76,1.51Z"/>
  <path d="M217.7,325.48c20.72,1.85,41.48,.94,62.17,2.06-20.81,1.58-41.53,.17-62.17-2.06Z"/>
  <g>
    <path class="cls-1" d="M189.54,138.04c-.02-.07-.02-.13-.04-.19-.03,.02-.07,.04-.1,.06l.14,.13Z"/>
    <path class="cls-1" d="M512.48,88.89c-5.69,.96-11.26,2.12-17.09,1.97-3.64-.1-3.99-1.3-2.36-4.08,2.02-3.44,4-6.91,6-10.36-4.13,2.49-6.25,6.51-8.46,10.36-1.78,3.09-3.93,4.26-7.55,4.07-11.91-.6-23.83,.09-35.79-.84-9.25-.71-17.66-2.5-25.33-7.77-2.11-1.45-4.52-2.7-7.3-2.67-8.92,.09-17.91-.5-26.75,.37-14.65,1.44-29.16,4.75-43.82,5.54-16.79,.9-33.39,2.65-50,5.08-3.52,.52-7.52,3.04-10.99,.4-3.74-2.84-7.44-2.96-11.9-2.31-10.45,1.51-19.67,4.78-25.63,14.2-2.73,4.31-6.71,6.93-11.38,8.89-15.13,6.34-29.55,14.04-42.95,23.56-.8,.57-1.98,1.17-1.68,2.54,8.18-5.24,16.5-10.18,25.29-14.39,7.02-3.36,13.38-8.19,20.8-10.64,17.44-5.76,35.68-7.64,53.77-9.98,10.4-1.35,20.93-2.06,31.32-3.39,13.32-1.71,26.66-3.6,40.01-4.46,16.48-1.06,33.03-1.65,49.56-2.19,14.05-.46,28.05,.77,42.08,1.78,14.54,1.05,29.15-.06,43.77,.96,13.26,.93,26.63,.21,39.95,.16,1.11,0,2.5,.57,3.76-1.25-9.34-2.19-17.73-7.18-27.33-5.57Zm-255.32,9.67c-2.95-.3-4.15,2.37-6.08,3.34-.78-.29-1.41-.32-1.64-.64-.43-.6-.16-1.39,.44-1.67,2.28-1.07,3.68-3.24,5.73-4.53,.94-.59,2.73-1.04,3.36,.63,.55,1.44-.43,3.01-1.81,2.87Zm15.67,1.49c-.81,1.46-2.68,.36-4.2,.71,.37-2.3,.72-4.3,2.51-6.24,1.51,1.88,2.72,3.67,1.69,5.53Zm111.07-13.04c-.42,1.46-1.75,1.73-3.2,1.75-6.27,.06-12.5,.2-18.79,.85-17.46,1.79-35,2.48-52.43,4.9-9.83,1.36-19.56,3.7-29.48,3.89,5.4-3.52,11.57-3.52,17.4-4.55,12.26-2.17,24.72-2.89,37.1-4.22,15.03-1.61,30.1-2.45,45.14-3.88,.5-.05,.99-.11,1.49-.09,1.17,.04,.93-2.63,2.44-1.42,.53,.43,.57,1.92,.32,2.78Zm23.45-1.44c-2.26-2.13-5.14-1.87-7.95-1.83-3.07,.04-6.14,0-9.22,0,9.99-.28,20.54-3.41,29.24,4.24-4.4,1.01-8.55,.9-12.08-2.42Z"/>
  </g>
  <path d="M88.54,315.02c-.28-8.51-8.12-11.01-12.02-16.64-1.36-1.96-4.08-1.31-5.33-3.25-.42-.66-1.36-1.23-.6-2.05,.35-.37,1.24-.46,1.83-.35,5.77,1.07,17.43,15.1,17.61,21.16,0,.18-.46,.37-1.48,1.12Z"/>
  <path d="M476.74,287.63c-.99,0-2.01,.13-2.97-.03-1.27-.22-3.33,.91-3.58-1.32-.24-2.14,1.42-2.56,3.29-2.69,2.42-.17,4.81-.73,7.23-.92,1.54-.12,3.31-.53,3.4,2.21,.1,2.79-1.42,2.85-3.4,2.76-1.32-.06-2.64-.01-3.97-.01Z"/>
  <path d="M330.72,268.43c-.22-2.63,1.9-4.51,1.54-7.05-.03-.24,.29-.74,.5-.77,7.81-1.07,8.04-9.09,12.32-13.39,.46-.47,.98-.88,2.11-1.9-3.13,10.02-11.05,15.65-16.46,23.11Z"/>
  <path d="M111.55,297.19c4.46,8.73,6.48,18.42,11.06,27.09-6.33-7.94-8.08-17.78-11.06-27.09Z"/>
  <path d="M244.43,338.96c2.53,1.03,4.85,1.63,7.46,1.84,2.03,.16,4.05,1.85,2.81,4.56-.46,1-.56,3.65-3.02,.8-2.15-2.49-5.56-3.92-7.25-7.2Z"/>
  <path d="M272.82,343.91c-.53,5.45-2.55,6.85-11.37,7.56,4.08-2.71,7.69-5.11,11.37-7.56Z"/>
  <path d="M297.86,328.22c-4.9-.28-9.68,1.28-14.51,.45,4.82-1.44,9.71-1,14.51-.45Z"/>
  <path class="cls-1" d="M384.97,311.39c-4.88-2.9-3.62-9.33-7.45-12.93-1.59-1.5-3.75-5.22-3.66-5.29,5.02-3.8-1.03-4.45-1.96-5.98-1.78-2.92-6.38-.82-8.63-3.82-1.99-2.65-6.05,.41-8.06-2.68-.11-.16-1.59,.14-1.69,.47-1.44,4.4-4.74,2.36-7.31,2.01-3.17-.43-6.65-.42-8.56,1.78-3.05,3.5-8.16,5.83-7.77,11.84,.08,1.24-1.63,2.82-2.84,3.86-2.34,2.02-5.33,3.57-3.01,7.46,.32,.54-.18,1.48-.95,1.4-4.83-.54-4.73,3.98-4.58,5.99,.21,2.96-2.43,6.8,.04,8.43,2.04,1.35,3.68-3.22,6.36-3.84,1.07,3.99-2.18,4.5-4.59,5.51-1.41,.59-2.27,1.29-2.11,2.88,.08,.81,.53,.94,1.33,.99,4,.26,5.43,5.11,5.12,6.37-1.4,5.74,3.99,7.74,4.9,11.92-.3-5.65-.85-11.16-1.42-16.67-.25-2.39,.83-4.47,1.62-6.6,.39-1.05,.92-2.37,2.43-1.73,1.51,.63,1.06,1.86,.4,2.87-1.66,2.52-2.2,5.53-1.2,8.06,1.15,2.91,1.86,5.81,2.35,8.89,.41-4.65,.35-9.25,.44-13.84,.02-1.13-.75-3.02,1.44-3.02,2.14,0,1.48,1.85,1.48,3.01,.02,3.52,.45,6.77,3.1,9.5,2.65,2.73,5.76,.96,6.84-.52,1.3-1.78,4.02-4.31,1.27-7.56-2.55-3.01-6.47-3.24-9.39-5.86-7.21-6.43-7.8-8.69-1.05-16.35,.33,1.61,.01,2.81-.42,4.25-.77,2.55-.84,5.24,1.92,7.08,2.97,1.98,5.89,3.51,9.5,1.45,3.43-1.96,3.49-3.36,.28-5.67-2.22-1.6-5.77-1.86-6.56-4.76-.7-2.58-1-4.81-4.52-4.82,7-2.61,10.32,4.5,16.06,5.38,0-2.51-.54-5.16,.14-7.44,.8-2.68-.93-6.93,3.77-7.68-.26,7.36,1.48,15.04-3.72,21.61-.56,.7-.33,2.85,1.46,1.9,4.08-2.18,5.39,1.33,7.44,3.41,4.38-5.33,1.58-10.46-.08-15.56,6.5-.84,6.88-.51,6.99,5.47,.05,2.79-.72,5.24,4.37,4.78,3.24-.29,10.07-1.32,9.74,6.27-.04,1.05,.91,2.27,2.4,1.7,1.1-.42,.48-1.74,.75-2.28,2.24-4.6-4.24-7.28-2.39-11.64Zm-62.34,4.97c-1.22-1.73,1.23-1.89,.77-3.15,1.16,1.53,.42,2.34-.77,3.15Zm51.19-11.35c-.66,.95-2.11,.9-2.52,0-1.32-2.94-3.95-2.99-6.51-3.58-3.16-.74-2.94-5.62-6.69-5.85,.02,.05,.04,.09,.06,.13,0,0-.14-.14-.14-.14,.03,0,.05,0,.08,.01-1.94-4.48-3.71-5.24-7.01-2.22-2.36,2.16-5.62,2.83-7.63,5.36-1.17,1.48-2.67,.85-4.91,.57,4.32-3.74,7.49-7.67,12.95-8.94,2.1-.49,3.63-.53,5.56,.23,6.45,2.53,10.68,8.04,16.2,11.8,.94,.64,1.13,1.8,.55,2.64Z"/>
  <path d="M247.7,377.9c3.21-.91,6.54,.9,8.81-2.05,.1-.13,.82,.23,1.26,.37-.28,.6-.41,1.55-.86,1.73-2.91,1.18-5.88,3.05-9.21-.05Z"/>
  <path class="cls-1" d="M637.85,375.97c-.46-.37-1.06-.57-1.6-.84-2.16,5.68-3.3,1.29-4.75-.46-.66-.8-1.42-.71-2.52-.68-3.83,.13-5.95,2.11-7.17,5.71-1.39-5.15,3.49-10.26-.79-15.95,.13,9.26,.16,9.35-7.55,11.55-5.21,1.49-2.15-4.46-4.39-5.59-1.08,.4-1.08,1.13-1.03,1.72,.26,3.37-.29,5.01-4.35,3.35-2.47-1.01-5.78,.58-8-2.03-4.42,4.21-9.04-2-13.61,.49,2.57-2.85,4.59-6.03,8.55-6.66,1.02-.16,2.09-.56,1.91-1.7-.59-3.56,1.73-5.66,3.66-8.01,.66-.81,2.44-1.61,1.36-2.68-.75-.74-2.41-1.82-3.85-.73-1.11,.84-2.4,1.93-3.37,.54-.76-1.08,.76-2.3,1.24-3.46,1.72-4.17,6.2-6.22,8.11-10.45-2.79,4.11-7.2,1.59-10.54,2.92-3.77,1.5-2.86-2.77-4.71-3.72-.79-.4-.8-1.91,.68-2.75,1.83-1.03,3.34-1.36,4.78,.45,1.25,1.59,2.29,1.61,3.09-.27,1.24-.1,.83,2.34,2.9,1.46-2.21-4.24-.59-8.13,2.16-11.35,3.37-3.94,5.11-10.09,11.72-10.17,7.67-.09,13.18-3.61,16.79-10.14,3.34-6.04,8.15-11.29,8.58-18.86,.25-4.27-1.48-8.22-.53-12.65,1.65-7.65,2.35-15.52,3.32-23.31,.29-2.28,.33-4.7-2.93-5.59,.37,8.11-5.1,15.49-2.12,23.96-1.87-2.81-3.96-4.46-7.05-5.76-2.98-1.25-3.65,1.57-5.97,1.55-18.26-.15-36.53-.66-54.79,.68-8.62,.63-17.32,.1-25.98,.11-6.61,.01-13.23-.34-19.78,.99-5.48,1.12-10.14,3.43-13,8.67,5.13-4.01,11.28-4.12,17.14-4.57,9.57-.73,19.2-.51,28.79-.84,23.46-.8,46.97-.24,70.46-.29,2.6,0,4.43,.72,5.21,3.44-3.28,1.76-6.14-.68-9.22-.51-10.6,.58-21.22,.76-31.84,1.1-.83,.03-1.99-.18-2.42,.28-2.81,2.93-6.59,1.69-9.47,1.4-7.35-.74-14.73-1.06-22.09-1.64-10.78-.85-21.53,.57-32.28,1.11-5.99,.3-11.46,3.17-15.17,8.12-5.77,7.7-10.98,15.82-16.86,23.42-2.31,2.99-4.72,6.62-10.78,7.17,10.89-10.5,17.07-22.66,23.94-34.41-2.22,1.63-4.24,3.35-5.77,5.7-2.97,4.57-6.52,7.62-12.84,7-7.04-.68-14.18,.66-21.27,1.03-13.93,.72-27.79,2.54-41.7,3.76-4.63,.41-5.41-.82-4.28-5.98,2.01,.64,3.3,2.2,5.95,2.29,16.94,.56,33.62-3.31,50.58-2.48,4.63,.23,10.38,.54,14.05-2.98,5.53-5.3,10.21-11.49,15.24-17.31-4.14,1.33-5.98,5.42-10.26,6.64-4.8,1.37-9.6,1.15-14.27,.71-7.42-.7-12.42,2.34-16.1,8.26-1.35,2.17-2.87,2.21-5.21,1.31,1.34-1.95,2.35-3.82,3.73-5.36,2.07-2.3,4.07-5.16,7.59-4.98,5.33,.26,10.53-.74,15.79-1.05,4.86-.29,10.38-7.51,9.35-12.76-1.47,1.72-3.31,2.65-3.44,5.32-.1,1.94-.84,4.39-3.72,4.41-4.79,.02-9.44,1.39-14.29,1.08-7.48-.47-12.79,2.88-15.8,9.87-1.28,2.97-4.25,3.98-7,4.97-.83,.3-2.47,.72-2.9-.94-.41-1.57,.81-1.57,1.88-2.14,1.7-.89,3.13-2.41,4.44-3.88,1.04-1.16,.78-2.62-.56-3.42-.97-.57-1.65-.9-3.37-.07-3.5,1.7-6.53,5.64-11.33,4.24,1.94-4.32,1.67-6.12-2.06-14.35-1.21,1.55-2.22,3.06-3.93,4.24-3.02,2.07-2.55,7.13,.32,6.99,6.39-.3,3.65,4.52,4.35,7.05,1,3.63-3.14,1.63-4.42,3.13-.42,.49-2.04,.62-2.32-.8-.37-1.86,.92-2.56,2.39-3.22,.84-.37,1.98-1.27,1.1-2.26-.9-1.02-2.28-.58-2.98,.5-.78,1.21-1.68,2.44-1.63,4.04,.04,1.47-.49,2.92-2.1,2.76-1.89-.19-2.04-1.95-1.85-3.48,.14-1.11,.47-2.23,.92-3.26,1.83-4.11,.05-4.58-3.45-3.67,2.07,3.24-1.36,7,1.3,10.01,.05,.06-.72,1.13-1.27,1.37-1.18,.52-1.89-.47-2.38-1.26-.55-.88-.67-2.72-2.08-1.85-5.19,3.2-5.06-2.26-5.87-4.09-3.14-7.1-5.89-14.41-8.17-21.83-2.17-7.07-7.79-12.88-7.55-20.76,.04-1.22-.83-.91-1.19-.87-2.4,.26-2.7-1.94-3.98-3.03-1.86-1.59-2.62-3.89-4.86-5.38-6.61-4.4-14.28-4.38-21.26-4.18-8.06,.23-16.41,.02-24.39,2.42-2.72,.82-4.77-.14-3.43-3.6,.74-1.9,1.24-3.56-1.21-5.08-.45,5.89-1.57,9.93-8.66,11.42-6.9,1.46-13.97,4.64-17.72,11.95-7.17,13.99-11.21,28.83-13.62,44.32-.42,2.72-.62,5.06-.21,7.66,.14,.88,.6,2.29-1.56,2.2-4.03-.17-8.09,.37-12.12,.16-12.86-.67-25.68-2.1-38.6-1.98-13.66,.13-27.32-.09-40.98,.06-21.76,.23-43.52,.59-65.28,1.03-2.77,.06-5.53,.92-8.43,1.43,1.3,3.43,3.78,2.47,5.74,2.47,27.32,.05,54.64,.02,81.97,.08,1.72,0,3.83-.86,5.42,1.12-1.92,1.37-3.8,.8-5.54,.8-26.49,.04-52.98,.02-79.47,.05-1.63,0-3.81-.35-4.79,.52-3.68,3.27-4.81-.41-4.89-2.2-.2-4.17-1.5-8-2.32-11.98-2.04-9.84-3.11-19.79-3.04-29.85,0-1.23,.15-2.57-1.98-3.03-.78,10.62,.53,20.8,3,30.97,.83,3.43,4.52,7.37-.52,10.79-.84,.57-1.05,2.41,.64,2.66,4.06,.59,2.34,3.78,3.74,6.81-5.08-3.87-8.2-7.17-9.66-12.78-3.89-14.89-8.63-29.57-13.47-44.19-1.69-5.1-4.71-9.31-10.18-11.98-8.13-3.97-16.53-2.78-24.8-2.57-12.78,.32-22.39,5.94-27.97,18.22-3.76,8.27-4.48,16.97-5.63,25.64-.46,3.45-3.36,6.26-2.08,10.11,1.58,4.74,2.67,9.64,4.28,14.36,.64,1.86,1.45,4.12,4.4,4.3,.09-.87,.18-1.65,.26-2.42,1.36-13.21,6.97-24.02,18.42-31.13,3.2-1.99,6.64-4.15,10.75-4.26,8.89-.25,17.19,1.09,23.48,8.26,1.15,1.32,2.47,2.45,.08,3.82-.98,.56-2.22,1.2-1.38,2.66,.94,1.63,1.73,.47,2.68-.19,1.72-1.19,2.3,.26,1.87,1.38-1.61,4.2,2.63,6.44,3.29,9.96,.27,1.42-.26,4.07,1.33,4.8,3.91,1.79,.79,6.74,4.23,8.77,.33,.2-2.41,2.96-1.15,5.75,.52-.76,.98-1.26,1.23-1.85,.54-1.23,1.22-2.93,2.65-1.96,1.29,.88-.03,2.21-.7,3.4-1.44,2.58-3.33,4.8-2.14,8.55,.69,2.17,.28,5.83-.55,7.93-2.37,5.96-3.31,12.37-6.12,18.16-2.8,5.78-7.93,9.25-12.65,14.2-.42-2.71-.51-4.18,.99-5.54,3.79-3.46,4.29-9.82,10.22-11.51,.9-.26-.18-1.34-.38-2.05-.75-2.76-.68-5.95-.28-8.4,.39-2.31,1.15-4.54,.78-6.99-.94-6.35-1.17-12.91-2.92-19.02-1.8-6.28-2.77-12.84-6.28-18.77-1.79-3.03-3.7-5.01-6.6-6.4-1.35-.65-.72-4.17-3.06-2.74-4.08,2.49-4.36-1.32-5.64-3.26-1.57,.89-1.53,3.35-3.43,2.84-1.51-.4-.13-2.44-1.41-3.47-1.63,1.59-2.76,3.74-5.75,3.68-2.83-.06-5.38,.87-7.8,3.17-3.86,3.66-4.26,8.76-6.8,12.84-3.17,5.09-1.94,9.98,.35,14.61,3.27,6.61,1.28,12.82,.12,19.6-.79-.61-1.18-.76-1.23-.98-1.06-4.37,2.5-10.19-4.03-12.89-.07-.03,.05-1,.33-1.3,2.64-2.88-.28-4.46-1.15-6.64-1.05,.69-1.38,1.37-1.37,2.29,.06,7.93-.39,15.88,1.91,23.67,1.42,4.8,2.49,5.64,5.36,2.45,2.78-3.09,3.68-2.02,4.32,1.75,.98-3.54-.51-6.73,1.84-9.39,.56,2.59,.55,5.17,.56,7.74,.02,3.18,1.51,5.04,4.78,5.35,.38,.03,.56,.57,1.11,0,2.08-2.18,3.56-1.78,3.9,1.84,.34,3.61,3.12,4.89,4.96,7.08,1.02,1.2,2.31,1.13,3.48,.02,.5-.48,1.03-1.38,.44-1.66-5.96-2.8-2.59-6.99-1.72-10.81,.5-2.18-1.18-3.22-2.31-4.63-1.42-1.76-2.69-.59-3.9,0-2.12,1.03-4.34,1.95-5.97,4.3-.61-1.5-.81-2.69-1.47-3.49-2.5-2.97-1.54-3.52,1.92-4.05,3.46-.53,6.72-.39,10.09,.14,2.92,.46,3.24-1.68,4.15-3.76,1.3-2.98-1.36-1.79-2.15-2.54-1.38-1.32-3.35-2.03-4.09-4.03-.32-.86-1.01-2.4-1.9-1.22-1.87,2.48-4.69,1.12-6.92,2.21-1.35,.66-3.51,2.45-4.91,.85-1.27-1.45-1.04-4.11-.19-5.71,.79-1.51-.15-3.7,1.69-4.73,2.02,1.23-.04,3.73,1.91,4.89,1.62-.32,2.8-3.35,5.08-.8,.31,.35,2.73-1.09,4.1-1.83,1.12-.61,.23-1.35-.05-2.04-1.86-4.54-7.98-6.96-12.1-4.37,.43-4.37-.44-8.83,4.18-11.32-.31,.65-.59,1.32-.96,1.94-1.82,3.06-1.78,4.69,2.59,4.62,2.96-.05,5.5,1.76,7.73,3.84,4.39,4.09,5.89,3.96,10.32-.24,1.73-1.64,3.08-3.8,5.9-4.96,.27,3.3,1.61,6.34-3.3,6.58-1.27,.06-3.11,1.24-2.78,2.87,.26,1.3,1.94,1.88,3.43,1.76,1.98-.15,3.73,.47,2.8,2.64-1.36,3.14,.22,7.05-3.41,9.73,1.24,.34,1.97,.35,2.42,.7,3.35,2.62,4.6,2.27,5.49-2.35,.58-3.04,.92-6.68,3.24-9.3,1.68,.86,1.55,2.31,1.36,3.58-.79,5.41-3.22,10.76-.09,16.24,.32,.56-.46,1.82-.87,2.69-2.24,4.84-4.3,9.75-7.41,14.17-.98,1.4-2.68,2.95-1.84,5.2,.79,2.11-.52,3.9-1.39,5.48-1.01,1.85-3.31,.36-4.99,.55,3.48,6.74,8.97,7.42,15.32,5.78,.59-.15,1.39-.08,1.91,.21,5.69,3.17,11.98,2.27,18.05,2.61,6.25,.35,12.19-3,18.55-1.95,5.35,.88,10.76,.03,16.19,.82,2.66,.39,4.37,2.8,7.21,2.19,3.42-.73,6.71-1.43,10.27,.68,2.05,1.21,5.04,1.51,7.77-.73,1.67-1.37,3.32-3.5,5.99-3.9,.56,3.19-3.1,3.18-3.63,5.38,.74,.37,1.34,.93,1.91,.9,10.39-.53,20.75,.02,31.14,.37,9.29,.31,18.27,3.45,27.9,1.69,5.03-.92,10.54,.02,15.89-1.2,4.49-1.03,9.56-2.12,13.81-1.02,8.66,2.25,17.15,4.3,26.2,3.94,7.65-.3,9.44,1.21,9.51,6.6,2.86-2.48,4.87-9.32,9.6-1.93,.04,.07,.83-.5,1.28-.51,3.48-.12,6.95-.14,10.43-.29,1.66-.07,2.06,2.61,4.29,1.54,3.41-1.63,6.64-.78,10.11,.8,2.88,1.31,6.28,1.58,9.62,1.92,4.52,.45,8.89-.79,13.45,.16,6.42,1.33,13.1,2.43,19.66,1.43,5.45-.83,10.79-1.23,16.2-.37,1.86,.29,3.48-2.87,5.29-.49,1.62,2.14,3.56,1.36,5.2,.68,1.32-.55,2.79-1.16,3.75-.44,4.32,3.21,9.55,.6,14.19,2.54,2.67,1.12,6.25-.22,9.35-.48,3.18-.27,4.37,3.28,6.96,2.52,2.59-.76,5.52-4.56,6.27,1.6,.03,.25,1.16,.57,1.75,.52,5.66-.53,11.43,2.27,16.97-.39,1.74-.83,1.83-.11,2.21,1.23,.94,3.29,3.61,3.4,6.4,3.18,.97-.08,1.68-.46,1.45-1.49-.69-3.07-3.21-4.28-5.84-4.36-3.19-.1-4.58-1.99-5.91-4.53,2.96,2,7.18-.28,9.72,3.29,.42,.59,1.92,.93,2.7,.68,6.27-1.97,12.54-2.23,18.91-.59,.78,.2,1.68-.1,2.49,.05,5.65,1.07,10.65-3.27,16.36-1.87,2.5,.62,5.44,1.89,7.55,1.13,5.55-2.02,9.79-2.04,13.86,1.42,.16-1.48,.32-2.88,.49-4.37,2.5,.89,2.21,5.43,5.5,4.22,6.95-2.57,13.89-4.17,21.4-3.11,2.43,.34,4.07-2.05,5.88-3.42-.93-1.6-3.49-.35-3.35-3.03,2.56,.39,5.06-.33,7.73,.64,2.8,1.02,5.6-.74,8.38-1.33,.68-.14-.58-2.51,1.38-1.39,.43,.25,.64,1.1,.72,1.7,.15,1.12-.68,1.25-1.56,1.41-1.44,.26-2.84,.73-4.28,.97-1,.17-2.07,.09-2.03,1.52,.03,1.33,.76,2.27,2.05,2.41,3.18,.35,6.24-.14,8.76-2.29,2.08-1.77,4.22-1.88,5.97,.04,.78,.85,1.46,.98,1.8,.38,2.9-5.1,7.18,1.76,10.25-1.25,4.39,3.16,8.68-.43,13.04-.24,.8,.04,2.01-.59,1.99-1.86-.03-2.53,1.28-1.89,3.21-2.38,6.67-1.7,13.86-2.19,19.85-6.36-1.48-1.28-2.79-2.46-4.15-3.56ZM38.61,279.01c-1.04-2.41,.49-3.88,1.2-5.78,.75,2.22,.56,4.04-1.2,5.78Zm64.33-12.19c-.99-.61-1.77-1.33-1.42-3.04,1.36,.9,2.02,1.73,1.42,3.04Zm4.86,18.31c-.63-1.05-1.94-1.64-1.24-3.17,1.47,.61,1.96,1.55,1.24,3.17Zm-49.23,16.64c0,.09-.01,.17-.01,.27,0,0-.11-.13-.13-.14,.05-.04,.09-.09,.14-.13,.16-3.94,2.8-5.29,6.31-5.72-2.11,1.9-4.21,3.81-6.31,5.72Zm12.42,10.8q-1.46-5.89-.03-14.17c2.51,5.57,2.11,9.65,.03,14.17Zm38.5-20.75c1.53,.79,1.91,1.87,1.46,3.44-2-.65-1.9-1.92-1.46-3.44Zm-1.97,45.73c-.44-2.91-.95-5.23,1.32-7.15-.03-.05-.05-.11-.08-.16h.01c.09,.02,.18,.04,.28,.05,1.16-.53,.67-2.97,2.69-2.39,.23,.07,.44,.87,.36,1.27-.41,2.12-1.82,1.35-3.05,1.11-.05,.02-.1,.05-.16,.06-.02,.02-.03,.03-.05,.05,1.14,2.38,1.47,4.67-1.32,7.15Zm2.02,9.84c-.14,.13-1.11-.21-1.19-.48-.34-1.21-.16-2.31,1.53-2.96,.33,1.36,.64,2.51-.34,3.44Zm.83-5.8c-.05-1.98,.66-2.7,2.38-3-.1,1.57-1.18,2-2.38,3Zm473.66,2.26c2.16,1.13,4.69,2.55,5.7,4.55,.79,1.54-1.79,4.26-3.33,3.84-2.52-.69-3.12-3.84-4.27-6.35-.02-1.14,.93-2.55,1.9-2.04Zm8.86-7.31c.06,0,.11,.02,.17,.03,0,0-.14,.14-.14,.14-.02-.05-.02-.11-.03-.17-3.8-.49-.87-3.86-2.13-5.45-.06,0-.11-.02-.17-.03h0c.02-.06,.03-.1,.04-.15-.86-1.48-1.73-2.97-3.03-5.22,3,1.33,3.91,2.8,3.03,5.22,.01,.02,.02,.04,.03,.06,.04,.04,.06,.08,.09,.12,3.88,.5,1.72,3.51,2.13,5.45Zm20.82-31.58s.16-.16,.16-.17c0,.03,0,.05,0,.07,3.02-1.58,4.24-5.96,8.78-5.33,2.45,.34,2.88,1.11,1.76,3.12-1.79,3.22-3.63,5.95-8.22,5.07-2.13-.41-2.2-1.42-2.32-2.86-.04,.02-.07,.04-.11,.06-3.55,4.66-4.01,4.87-7.82,3.68,5.35-2.39,8.09-6.39,8.06-12.14,0-1.09,.41-1.88,1.31-2.5,3.42-2.37,11.68-1.62,15.79,2.24-9.81-3.48-15.06,.14-17.39,8.75Zm12.9-28.05c.08,.16,.15,.33,.23,.49h-13.66c0-.16,0-.33,0-.49h13.44Zm-84.54,4.16q-2.18,1.49-7.57-.2c2.79-.29,5.07-.52,7.57,.2Zm-1.52,17.65c-5.15,2.33-10.44,3.76-16.04,3.86-6.13,.11-12.25,.04-17.95,2.81-.77,.38-1.61,.26-2.63-.52,5.74-6.14,10.59-13.11,20.7-12.41,5.09,.35,10.18,.75,15.27,1.13,1.37,.1,2.29,.43,2.1,1.99-.15,1.16,.42,2.28-1.45,3.13Zm15.55,49.36c-.47,2.22,1.07,5.04-1.75,6.31-2.13,.96-3.67-.57-5.12-2.06-1.13-1.15-1.18-1.98-.36-3.42,.59-1.04,1.23-1.96,2.07-2.7,1.35-1.2,1.45-4.5,4.07-3.39,2.18,.93,.54,3.55,1.1,5.26Zm-19.47-19.05c4.89-2.05,9.58-1.57,15.56,.6-6.18,2.27-10.88-1.74-15.56-.6Zm-85.21-1.22c-2.71,1.55-3.01,3.35-.35,5.51-2.94,.3-3.44-1.93-3.48-3.04-.06-1.52,1.5-2.6,3.83-2.47Zm-25.71-.62c-16.93-23.23-24.15-50.82-33.95-77.28,12.46,25.22,18.99,53.07,33.95,77.28Zm-54.18-94.2c4.85,.45,9.91,1.69,12.32,7.14-5.43-4.98-11.88-6.02-18.87-5.52-8.04,.57-16.16-.91-24.18,.97-1.32,.31-2.8-.08-4.21-.14,11.56-2.73,23.24-3.53,34.94-2.45Zm-71.36,54.68c2.02-10.03,4.21-20.01,6.92-29.89,3.24-11.79,13.44-20.61,25.44-20.65-3.6,1.53-6.45,3.01-9.46,3.96-7.96,2.53-11.75,8.83-13.85,16.03-4.61,15.84-8.62,31.83-8.17,48.57,.07,2.51,.76,4.83,1.05,7.25,.16,1.37,.04,3.08-1.54,3.17-1.13,.07-1.47-1.47-1.44-2.73,.22-8.58-.65-17.2,1.06-25.72Zm-169.36,21.97c.73-.27,1.64-.04,2.47-.04,27.87-.08,55.72,1.7,83.61,1.04,1.34-.03,2.93-.62,4.37,1.15-1.85,1.27-3.55,.78-5.15,.79-7.81,.06-15.64,.22-23.44-.02-13.91-.43-27.81,.88-41.78-.62-6.46-.69-13.3-1.02-19.98-.38-.96,.09-2.66,.6-2.59-1.29,.08-2.42,1.66-.3,2.5-.62Zm35.75,14.59c0,.55,0,1.1,0,1.65-10.3-1.86-20.68-1.1-31.01-1.65h31.02Zm69.36,42.76c-.13,.54-1.33,.83-1.52-.03-1-4.41-4.92,1.35-6.2-1.84-1.3,.59-.77,2.09-1.83,3.51-1.74-5.29-5.29-4.32-9.68-4.62-4.69-.33-9.96,.77-14.64-1.79-1.9-1.04-4.93,.46-6.49,.92-9.33,2.71-18.48-.07-27.64,.5-3.06,.19-6.05,1.27-9.11,1.62-3.91,.45-7.66,.35-11.65-.88-3.19-.99-7.23-2.84-10.65,.33-.35,.32-.82,.5-1.23,.75-2.05-4.52-6.39,.97-8.89-2.07-1.28-1.56-2.33-.41-3.06,.83-1.52,2.58-4.25,1.78-5.56,.81-1.14-.84,1.28-2.48,1.69-3.68,1.63-4.69,5.08-8.68,4.85-14.14-.15-3.52,2.5-6.7,2.02-10.52-.19-1.48,1.46-2.52,2.81-2.03,5.18,1.88,9.97-.72,14.87-1.26,12.36-1.36,24.7-1.94,37.12-1.83,11.16,.1,22.32-.02,33.48,.04,5.3,.03,7.33,2.14,8.62,7.11,2.32,8.89,6.2,17.05,13.82,22.7,1.8,1.33,2.34,2.83,3.04,4.39-1.26,1.68-3.42-1.9-4.14,1.18Zm32-51.46c-11.57-1.9-23.19-.57-34.78-.83-2.69-.06-5.13-1.04-7.75-1.13-.97-.03-1.84-.71-1.81-1.4,.05-1.01,1.05-1.36,2.11-1.58,2.74-.55,5.11,1.2,7.78,1.03,10.79-.68,21.51,.76,32.27,1.05,3.73,.1,7.44,.9,11.16,1.37,.01,.52,.02,1.04,.03,1.56-3.01,0-6.09,.41-9.02-.07Zm20.37-1.57c-1.2-6.85-6.98-3.11-10.28-5.01,1.21-2.34,3.75-.42,5.41-2.85h-61.5c1.23-3.45,3.3-3.48,5.41-3.48,17.47,0,34.95-.34,52.4,.21,5.32,.17,10.77,.57,16.85,.94-2.28,3-5.11,1.1-7.31,2.33,.54,2.65,3.15,2.04,5.33,3.18-3.13,.27-6.08,.37-6.31,4.69Zm203.11,56.73c-1.77-.79-3,.93-4.03,2.25-2.98,3.82-6.1,3.76-8.64-.16-.4-.61-.89-1.17-1.34-1.75-3.72,3.79-3.47-1.69-5.94-2.5-.26,1.36-.47,2.47-.68,3.58-3.33-2.58-8.27-2.12-11.4,1.44,.16-2.16,1.45-4.92-2.64-3.13-4.37,1.9-8.83,2.24-14.04,1.18-4.05-.82-9.5-2.66-12.66-1.4-4.85,1.92-9.29,.06-13.78,1.18-3.83,.96-3.79-1.44-2.44-3.98,2.08-3.93,4.17-7.8,2.99-12.51-2.27-.51-1.76,2.11-3.1,2.59-1.43,.51-1.18,3.2-2.93,2.86-2.08-.39-1.54-2.62-1.91-4.36-11.03,8.61,1.02-7.65-5.91-3.71-.27,.02-.09,2.71-2.08,1.96-1.56-.58-.57-2.63-.75-4.02-.2-1.57,1.3-2.22,1.91-3.36,2.34-4.34,1.5-5.98-4.1-6.68,2.75-3.87,2.46-7.9,1.18-12.03-.42-1.35-.74-2.76-2.46-2.28-1.1,.31-2.03,1.27-1.06,2.69,.18,.27,.44,.81,.39,.85-4.7,3.37,.39,8.19-1.75,11.96-.35,.62-.36,1.96,.06,2.4,2.59,2.67-.19,5.73,.18,7.33,1.27,5.43-4.48,5.36-5.35,8.42,.77,1.45,1.89,.86,2.79,1.04,.74,.15,1.8-.26,2.01,.87,.17,.94-.57,1.79-1.32,1.85-3.16,.25-3.14,2.33-3.66,4.8-.72,3.41-4.43,5.09-6.14,8.1-.33,.59-1.6,.65-2.23-.02-.8-.86-.62-2.37,.2-2.58,3.01-.76,2.38-3.89,3.8-5.68,1.53-1.92,1.8-5.28-.19-8.4-2.04,4.63-6.72,8.58-7.14,12.12-.75,6.29-8.63,4.12-8.59,9.59-3.77-1.12-7.14,.89-10.71,1.33-3.41,.42-8.4,1.39-9.98,.33-3.31-2.23-6.44,.72-9.12-1.27-.63-.47-1.79-.49-2.1-1.05-2.37-4.35-7.03-6.53-9.75-10.5-.65-.95-2.49-1.55-1.45-3.27,1.21-2.01,3.41-.75,5.1-1.5-.56-1.71-1.93-3.38-3.44-2.57-3.88,2.08-3.68-1.44-4.26-3.01-.9-2.44-.21-5.44-3.53-6.87-.72-.31-.57-2.77,.21-4.18,2.56-4.65,1.92-8.13-2.37-12.06-1.64,8.65,.51,16.79,2.41,24.94,.33,1.43,1.27,3.56-.5,3.75-2.25,.23-5.13,3.18-6.75,.36-2.29-3.98-4.94-1.82-7.43-1.21-.99,.24-2.2,1.74-3.06,1.06-3.48-2.8-6.9-.21-10.64-.36,5.66-3.35,7.88-8.95,10.19-14.45,.62-1.46,3.12-2.98-.01-4.75-.95-.54-.18-2.19,.82-2.96,1.64-1.25,2.04-2.88,1.9-4.83-.06-.79-.03-2.1,.42-2.35,10.19-5.69,7.81-16.36,9.32-25.04,2.96-16.92,11.76-29.63,26.42-37.37,8.55-4.51,18.77-5.57,28.4-1.37,1.78,.78,3.71-.02,5.26,1.07,3.16,2.23,7.73,3.67,4.98,10.08,5.11-5.72,7.33-1.5,10.35,1.37,2.01,1.91,2.28,3.4,.93,5.5-1.21,1.87-1.1,3.61,.33,5.25,1.63-.37,1.23-2.12,2.1-3.21,.41,.31,1.1,.67,1.06,.83-.84,3,3.73,7.79-2.89,8.88,.4,1.97,1.91,3.66,1.91,6.07,1.62-3.5,3.23-7.01,4.86-10.52,2.75,4.34-.64,8.44-.92,13.64,1.92-1.73,2.8-4.72,4.89-2.94,1.7,1.44-.35,3.41-.83,4.97-.58,1.9-2.84,2.99-3.08,5.44-.14,1.46,.93,1.01,1.36,1.48,.22,.24,.9,.43,1-.39,.19-1.71,.07-4.63,2.54-3.35,1.46,.76,.89,3.94-1.05,5.62-.26,.22-.15,.87-.25,1.56,2.28-1.11,3.46-3.01,4.76-5.16q2.53,8.06,.52,13.2c.53-.07,.98-.05,1.37-.21,2.08-.83,1.98-4.9,4.23-4.21,3.12,.95-1.17,3.92,.61,5.92,.86,.97-.18,1.87-1.02,2.37-3.24,1.91-3.26,1.88-4.07,5.28,3.51-1.35,6.02-3.53,7.2-8.37q1,3.96-6.35,13.06c2.46,.81,4.37,.42,6.1-1.57,.72-.83,1.65-2.88,3.02-1.58,1.42,1.36-.2,2.64-1.23,3.71-.67,.69-1.31,1.41-2.02,2.17,1.24,1.01,3.1,.93,3.37,.51,2.72-4.28,6.52-1.98,9.97-1.91,10.6,.22,20.67-1.85,30.72-5.47,9.65-3.48,19.89-4.18,29.98-.82,.16,.05,.32,.21,.45,.19,8.67-1.5,9.3,5.22,9.99,10.66,.7,5.56,4.13,9.06,7.28,12.89,2.06,2.5,4.56,4.64,6.82,6.97,1.57,1.62,1.34,2.77-1.06,2.55-3.87-.36-7.84-.38-11.65-.64-3.34-.23-5.95-.92-8.84-2.2Zm-2.33-35.64c6.36-2.86,13.48-1.71,20.22-3.42-2.28,3.94-5.04,4.45-20.22,3.42Zm31.97,54.53c-3.87,.82-7.53-1.93-11.63-.21-2.05,.86-4.81,.06-6.82,2.33,1.85-4.76,5.31-5.5,9.54-4.89,2.84,.42,6.44,4.67,9.19-.38,.49,.52,1.24,.97,1.43,1.59,.47,1.51-.74,1.35-1.72,1.56Zm1.44-75.96c-4.83-.08-9.66,.02-14.49-.05-1.01-.02-2.65,.62-2.78-1.11-.08-1.04,.34-2.38,1.02-3.18,1.96-2.31,7.44-2.35,9.75,.14,1.04,1.12,1.33,.29,1.77-.06,3.93-3.14,8.7-1.37,13.56-3.46-1.52,5.6-4.21,7.8-8.83,7.72Zm20.08,44.95c-.66,0-1.32,0-1.98,0-6.9,0-9.03-1.4-9.48-6.38-.08-.85-.52-2.13,.88-2.4,.91-.18,1.83,.66,1.78,1.34-.31,4.45,2.51,2.68,4.61,2.47,1.31-.13,2.68,.1,3.93-.19,2.36-.55,3.59-.09,3.77,2.61,.2,2.99-1.73,2.55-3.51,2.56Zm13.15,29.76c-2.52-1.73-6.08,.52-8.48-2.77,3.24-1.5,6.16-1.52,9.05-.13,.6,.29,1.3,1.22,1.25,1.79-.06,.72-1.04,1.64-1.82,1.11Zm-17.43-80.33c0-.31-.01-.61-.02-.92h21.52c.01,.31,.03,.61,.04,.92h-21.54Zm22.79,39.38c-1.36-3.45-1.23-6.98-.03-10.55,1.26,3.49,1.14,7,.03,10.55Zm4.13-39.77c-.88-.3-2.44,.69-2.48-.96-.03-1.45,1.01-2.3,2.62-2.04,1.02,.16,2.5-.46,2.59,1.34,.12,2.21-1.64,1.44-2.74,1.66Zm8.75-21.13c-4.7-.09-7.53,1.02-8.38,5.89-.11,.65-.28,2.1-1.71,2.02-.23-.2-.66-.42-.64-.58,.74-5.22-1.54-6.6-6.61-6.32-8.3,.46-16.7-.5-24.94,.31-7.79,.76-16.29-.73-23.05,4.98-3.52,2.98-6.92,6.1-10.39,9.14-.79,.7-1.38,1.91-3.61,1.22,6.84-7.79,11.94-16.96,23.95-16.52,1.66,.06,3.73,.32,4.31-1.6,1.53-5.08,5.8-2.97,9.17-4.47-.26,1.05-.24,1.47-.43,1.63-1.2,1.02-4.18-.24-3.97,1.95,.23,2.41,2.92,1.5,4.55,1.45,22-.71,43.98-2.26,66.02-1.99,4.58,.05,8.91,.09,10.61,5.49,.67,2.14,2.58,2.15,3.29,.73,2.64-5.31,7.34-4.05,11.65-4.17,1.97-.06,3.95,0,7.1,0-1.36,.67-1.69,.99-1.95,.94-7.35-1.44-13.03,1.59-17.98,6.63-.83,.84-1.73,1.9-2.96,1.25-1.18-.62,.14-1.64,.07-2.53-.35-4.08-4.55-7.15-10.31-6.16-7.94,1.37-15.87,.89-23.78,.73Zm1.53,21.87c4.55-3.36,9.49-2.57,14.29-2.57-4.43,1.9-8.93,3.47-14.29,2.57Zm4.01,38.78c4.7,4.91,2.5,9.62,2.04,15.05-3.82-5.03-3-9.68-2.04-15.05Z"/>
  <path class="cls-1" d="M415.51,144.63c-3.5-8.65-6.94-17.32-10.39-25.99-2.27-5.71-5.38-7.63-11.45-7.97-7.16-.41-14.18,.99-21.29,1.09-15.09,.23-30.17,.64-45.26,.97-.5,.01-1-.01-1.5,.04-17.64,1.84-35.35,2.71-52.97,4.88-12.17,1.5-24.34,2.81-36.32,5.48-8.4,1.87-17.17,2.66-24.9,6.63-17.3,8.86-32.24,21.09-46.7,33.91-4.7,4.17-9.27,8.48-13.79,12.84-1.42,1.37-3,1.39-4.6,1.07-1.96-.39-1.11-2.17-1.12-3.31-.02-2.33-1.07-4.11-3.2-4.4-3.6-.5-6.99-.24-10.19,2.45-2.87,2.42-3.34,5.84-5.03,8.84-1.29-1.34,.18-3.47-1.52-4.42-6.09,3.73,2.43,8.88-1.56,12.68,3.6,1.49,6.34,4.85,9.7,6,5.87,2.01,11.62,3.51,14.78,9.46,2.01,3.79,5.02,4.4,8.56,2.49,3.04-1.64,5.85-3.72,9.37-4.83-3.77-1.47-8.24,.16-12.37-4.04,5.03,.88,8.94-.19,12.75-.95,9.67-1.92,19.51-2.08,29.23-3.49,9.71-1.41,19.36-3.66,29.3-3.41,8.73,.22,17.32-1.49,25.86-2.96,8.64-1.49,17.4-1.73,26.03-3.73,6.47-1.5,13.45-.13,20.24-1.14,10.1-1.49,20.39-1,30.09-5.53,8.8-4.11,18.55-5.8,27.89-8.43,17.21-4.84,34.77-8.43,52.47-11.14,6.5-1,10.27-7.25,7.91-13.08Zm-280.81,44.46c-4.06-3.79-3.66-8.05-3.46-12.23,.05-1.09,.81-1.82,1.87-1.96,.89-.12,1.08,.7,.99,1.32-.66,4.1,1.88,8.01,.6,12.86Zm10.93,3.46c-1.58,.09-3.76,1.35-4.65-1.9-1.17-4.29-.4-8.77-2-12.53,.58-1.71-.74-3.81,1.26-4.23,2.89-.6,2.07,2.25,2.07,3.38,.02,4.56,3.93,7.64,4.23,12.07,.09,1.35,1.74,3.06-.91,3.22Zm11.25-10.52c1.11,5.11-2.34,8.34-2.12,12.36,.02,.35-.92,1.03-1.46,1.08-1.21,.13-1.12-.95-1.1-1.72,.04-1.3-.26-3.01,.43-3.8,2.16-2.45,.4-3.83-1.04-5.3-1.19-1.21-2.01-2.29-.27-3.6,1.52-1.14,2.41-3.86,4.61-3.17,2.49,.78,.64,3.43,.95,4.15Zm8.94-15.93c-1.54,4.8-2.52,9.75-4.24,14.54-.45-5.37,.41-10.4,4.24-14.54Zm78.87,13.09c.94-6.51,2.83-12.76,6.07-18.57-.85,6.54-3.37,12.57-6.07,18.57Zm-3.45,2.24c.21-5.96,2.45-11.37,4.25-16.9,.35,6.08-2.61,11.33-4.25,16.9Zm11.72-32.33c-3.97,2.73-7.75,5.32-11.52,7.92-.27,.19-.72,.45-.71,.66,.34,6.51-4.89,4.68-8.97,5.34,1.39,1.91,1.69,4.25,4.45,3.07,1.97-.84,1.81,.43,1.92,1.64,.2,2.23-1.1,1.18-2.07,1.01-1.64-.28-3.39,1.98-5.11-.8-.72-1.15-1.11,1.73-2.48,2.25,3.39-.77,5.06,2.36,7.91,2.85,1.83,.32-.16,2.23-.58,3.14-.84,1.83-2.48,2.13-4.03,.57-2.31-2.34-4.67-4.58-8.2-6.21,.99,2.67,3.45,6.28-2.5,4.48-.79-.24-2.54,2.6-3.82,4.04-2.23,2.52,3.43,1.58,1.12,4.27-2.73,.02-5.37-1.79-8.13-3.16-.57-.29-.96-1.07-1.54-1.21-2.29-.56-4.66-.68-6.66,.79-2.59,1.9,2.05,2.64,.69,4.55-5.02-1.75-9.41-.09-13.64,2.82-2.67,1.83-3.79-.98-5.24-2.3-2.28-2.07-4.21-4.97-7.77-2.08,0,0-.07,.46-.05,.44,.08,1.25,1.29,.85,1.93,1.28,.84,.52,1.27,1.27,1.31,2.25-1.42,1.82-3.61,1.27-5.05,.82-3.88-1.2-7.58-2.71-11.65,.43,1.93-2.73,1.72-6.25,2.92-7.72,2.98-3.66,.58-8.51,3.71-11.72,3.24-3.33,6.13-7.09,9.73-9.96,10.05-8.04,19.96-16.27,31.66-22.07,10.99-5.45,22.78-7.68,34.64-9.72,4.51-.77,9.04-2.7,13.74-.76,2.06,.85,1.79-1.27,2.53-2.1,.67-.75,1.35-1.6,2.47-.77,.72,.53,.74,1.1,.38,2.06-3.64,9.81-7.15,19.66-10.85,29.92-2.4-2.22-.72-4.02-.54-6.03Zm15.76,28.1c-.57,.76-1.78,.73-2.16,.07-1.69-2.95-5.22-2.34-7.49-4.1-.84-.65-2.03-.82-2.67,.09-.57,.8-.32,1.86,.5,2.68,1.37,1.36,2.68,2.79,4.01,4.19-1.29,1.08-1.93-.58-2.88-.31-4.83,1.33-4.89,1.33-3.85-3.75,.49-2.37,1.36-4.67,1.98-7.02,.6-2.29,2.49-1.45,3.67-1.25,4.41,.76,6.05,5.08,9.1,7.61,.26,.22,.1,1.35-.22,1.78Zm45.85-24.51c-1.29,.31-1.97,1.54-.88,1.86,6.85,1.99,3.35,6.75,3.1,11.11-5.11-3.26-10.46,.77-15.29-1.43-1.03,1.1,.94,1.67,.41,2.71-2.62,.02-4.78-.63-6.89-2.61-2.26-2.11-5.68-3.13-8.46-1.26-3.18,2.16-4.99,1.04-6.99-1.36-1.03-1.24-2.17-2.78-4.15-1.66-1.89,1.07-1.78,3.43-2.67,5.08-.74,1.36,2.2,2.22,3.49,2.37,2.23,.26,3.73,1.05,4.98,3.35-2.24,.99-4.7,1.87-5.54,4.52-5.67-4.11-9.4-10.19-15.28-13.93-1.04-.66-1.69-1.84-1.09-3.02,.53-1.03,1.6-.52,2.6-.41,3.28,.36,6.59,.5,9.88,.67,2.34,.12,4.01-1.18,4.17-3.33,.15-1.96-1.15-3.69-2.75-4.99-.43-.35-1.04-.48-1.18,.03-1.4,5.17-6.34,1.76-9.2,3.76-1.64,1.15-3-.53-3.02-2.65-.11-9.39,4.29-17.43,7.86-25.67,.84-1.93,3.09-3.12,5.35-3.06,9.6,.26,18.97-2.22,28.58-2.19,7.36,.02,14.74-1.05,22.08-1.92,4.08-.48,5.1,1.38,4.32,4.79-1.98,8.68-3.59,17.48-7.98,25.41-1.21,2.19-3.18,3.27-5.48,3.82Zm25.41-29.61c-2.13,7.9,1.15,16.49-3.45,24.17-1.11,1.85-1.45,4.77,.86,7.55,4.46,5.37,1.49,12.14-5.47,12.69-2.32,.18-3.78,3.06-7.4,.71-4.52-2.93-3.72-5.44-2.55-9.04,.33-1.03,.3-2.18,.44-3.27,2.73,4.37,7.43,1.1,10.45,3.25,.83,.59,1.88-3.48,1.01-4.49-2.12-2.47-2.72-6.71-6.99-6.93-1.71-.09-1.96-1.11-1.72-2.32,1.64-7.95,2.23-16.08,4.83-23.87,1.6-4.8,5.18-2.38,7.87-2.69,3.53-.41,2.5,2.86,2.13,4.25Zm62.89,17.89c-1.38-1.51-3.33-3.43-4.94-1.87-1.01,.98-.31,3.89-.08,5.9,.1,.88,.88,1.73,1.5,2.48,.98,1.18,1.17,2.67,.36,3.65-1.09,1.33-2.29,.3-3.35-.6-.86-.73-2.08-1.1-2.8-1.93-3.23-3.69-7.79-3.87-12.07-4.72-3.47-.69-.18,3.66-2.49,3.63-1.85-.02-3.6-2.87-5.25-1.35-1.13,1.04-2.7,3.39-.29,5.51,1.4,1.24,3.35,2.25,3.56,4.51-1.74,1.07-2.97,.36-3.81-1.08-3.36-5.79-9.24-8.99-13.83-13.52-2.78-2.75-5.56,1.58-8.62,.15,6.59,4.34,7.5,12.67,13.39,17.71-3.87-3.87-9.25,.09-12.9-3.17-1.23-1.1-1.87-1.37-3.15-.1-2.6,2.58-3.5-.22-3.83-1.8-.47-2.21-.12-4.58-.12-7.26,3,1.13,4.11,4.2,6.85,5.07,.97,.31,1.97,.91,2.69,.09,.8-.92,.84-2.63-.02-3.2-3.45-2.3-4.28-8.1-9.98-7.41-1.79,.22-1.59-1.35-1.55-2.45,.22-5.93-.55-11.86,.84-17.79,.49-2.1,1.02-2.69,3.05-2.72,15.58-.2,31.13-1.55,46.73-.97,5.51,.2,11.82,6.98,11.24,12.4-.24,2.19-2.42,2.93-4.05,2.41-2.77-.9-4.97,.23-7.32,1.05-.99,.35-2.61,.52-1.86,2.13,.53,1.14,1.43,1.69,3.18,1.15,6.76-2.1,7.34-1.75,11.01,4.21-.73,.85-1.43,.6-2.07-.1Zm-41.88,6.97c-1.64-1.42-3.29-2.84-4.93-4.26,1.84,1.24,5.52,.72,4.93,4.26Z"/>
  <path d="M176.23,182.62l-.15,.14s.03,0,.04,0c.04-.05,.06-.09,.1-.14Z"/>
  <path class="cls-1" d="M601.68,154.7c-3.84-5.42-8.65-10.01-12.22-15.7-2.93-4.68-7.04-8.84-11.33-12.38-3.73-3.08-6.95-6.6-10.51-9.8-.85-.77-1.81-1.56-1.53-2.92,.35-1.75,1.81-.99,2.82-1.17,2.25-.41,4.46-.92,6.76-1.17,2.37-.26,5.38-1.49,5.09-4.38-.23-2.29-3.31-1.78-5.19-2.44-8-2.79-16.44-1.01-24.84-3.35-11.66-3.26-24.42-2.61-36.71-3.63-1.53-.13-3.57-.08-3.68,1.62-.12,1.95,2.06,2.15,3.63,2.33,1.31,.16,2.67,.13,3.99,.03,8.3-.65,16.51,1.02,24.78,1.02,1.99,0,3.56,.92,6.29,2.35-1.69,.38-2.24,.57-2.8,.61-8.63,.69-17.25-.51-25.75-1.36-5.7-.57-11.49-.62-17.18-1.13-10.31-.92-20.84-1.56-31.19,.47-6.69,1.31-12.96,4.1-20.03,4.24-6.73,.13-13.1-1.31-19.63-2.16-2.73-.36-2.04-2.76-3.27-5.08-.33,5.66-3.81,5.11-7.11,5.08-11.05-.12-22.03-.8-33.07-1.7-18.84-1.53-37.79,1.45-56.73,.69-.5-.02-1-.03-1.5,.03-16.79,1.96-33.71,2.46-50.49,4.81-11.97,1.68-23.98,3.16-35.87,5.32-3.04,.55-6.49,.47-9.5,2.88,1.57,1.35,3.01,1.11,4.2,.88,11.07-2.11,22.15-4.04,33.38-5.28,10.74-1.19,21.47-2.52,32.21-3.68,6.86-.74,13.76-1.23,20.61-1.64,4.86-.29,10.58-2.91,14.98,1.9,.55,.61,1,0,1.09-.21,1.55-3.38,4.56-1.86,6.94-1.97,26.04-1.2,51.99,1.32,77.98,1.99,2.24,.06,5.07-1.24,6.42,2,.08,.18,.85,1.12,.99,.23,.67-4.34,3.51-1.35,4.77-1.09,4.43,.91,8.7,2.59,13.09,3.79,1.63,.44,2.76,1.42,3.31,2.75,4.7,11.42,10.58,22.32,14.59,34.04,1.36,3.99,3.66,7.67,5.63,11.43,.97,1.86,2.43,2.9,4.78,2.83,4.61-.13,9.27,.76,13.79,.75,18.57-.05,37.05,1.21,55.57,2.11,10.8,.52,21.7-.61,32.45,.31,9.24,.79,18.39,.45,28.03,.83-2.3-5.68-4.83-10.47-8.07-15.04Zm-117.25-17.27c-3.29-1.78-6.06-3.94-6.37-8.59,3.65,2.17,5.01,5.38,6.37,8.59Zm-10.85,.6c3.08,.62,3.36,2.84,4.38,4.36,.47,.7,.65,1.68,1.66,.95,.72-.52,.45-1.32,.18-2.05-.05-.03-.1-.07-.16-.11h0c.02-.06,.03-.11,.05-.15-.52-1.2-1.04-2.42-1.84-4.26,2.62,1.29,2.32,2.76,1.84,4.26,0,.02,.02,.04,.03,.07,.02,.06,.05,.13,.07,.2,5.38,3.38,5.7,9.59,8.02,14.76-5.98-4.85-10.92-10.42-14.24-18.03Zm16.43,4.51c4.19-5.54-3.03-6.14-2.66-10.33,3.99,4.16,7.98,8.32,11.97,12.48-3.93,.66-4.19-6.6-9.31-2.15Zm40.07,11.78c3.22,1.8,2.77,4.62,3.64,6.85-1.86-1.6-3.12-3.61-3.64-6.85Zm42.77,7.63c-.6,1.02-1.75,1.02-2.57,.36-2.28-1.85-4.37,1.6-7.02-.22,2.07-1.91,5.04-1.48,7.04-3.25,.72-.63,1.92,.28,2.38,1.23,.27,.55,.44,1.43,.17,1.88Zm17.48-3.29c-.1-.61-.97-1.85-2.17-1.39-.82,.31-1.12,1.14-1.13,2.05,0,.97-.09,1.94-.15,3.09-2.01-1.06-3.25-2.43-4.12-4.33-2.32-5.07-6.36-8.91-9.66-13.28-1.91-2.53-4.23-.36-4.42,.26-1.55,4.86-5.77,1.71-6.33,1.03-3.33-4.02-7.36-3.87-11.84-3.13,.58,2.58,4.59,3.43,3.34,7.1-.37,1.09,1.86,.6,2.84,.61,5.88,.03,11.62,.79,18.23,2.82-4,1.99-7.28,1.05-10.38,1.17-4.49,.18-10.14-1.65-13.23,.44-5.04,3.41-8.31-3.9-12.46-.54-.15,.12-1.53-.79-1.83-1.45-1.84-4.09-5.59-5.63-9.89-7.53,.03,3.24,4.73,4.35,2.22,7.93-2.32-3.8-5.59-6.53-8.96-9.3,.95,6.03,8.68,8.34,8.54,16.09-3.48-5.9-10.54-4.95-13.76-9.93-.16-.25-.51-.49-.8-.55-9.56-1.72-13.21-4.55-17.34-13.08-2.37-4.9-6.46-8.69-10.7-11.51-2.43-1.61-1.71-4.1-4.43-4.95,2.94-1.18,3.72,.69,4.92,1.69,2.39,2.01,4.04,4.87,7.08,6.14,.99,.41,2.19,2.8,2.87,.69,.46-1.44,4.3-2.73,.95-4.99-.95-.64-1.86-1.5-2.44-2.47-.65-1.07-3.4-1.43-1.19-3.69,1.56-1.59,2.61-1.41,4.25-.24,1.84,1.31,3.92,2.32,5.97,3.32,2.55,1.24,6.66,.82,9.28-.73,1.63-.96,2.76,.56,4.08,1.02,.89,.31,1.69,1.55,2.43,1.47,5.46-.58,5.45-.65,9.19,4.76,.56,.81,1.24,1.54,2.54,3.14-.16-3.64-1.42-5.91-2.15-8.1-1.05-3.15,.62-2.58,2.25-2.53,5.98,.16,9.53,3.9,12.66,8.82-1.89-3.76,7.8-.3,2.13-6.22,5.14,.84,6.54,5.9,10.7,6.27,.27,.02,.46,.49,.75,.63,1.98,.9,4.96,2.44,6.01,1.29,1.42-1.55-2.48-2.37-2.55-4.87,7.15,.4,12.95,3.96,16.78,9.2,6.35,8.68,14.84,16.17,18.41,27.57-3.46-.64-5.95-.65-6.49-3.82Z"/>
  <g>
    <path class="cls-1" d="M59.09,123.68c.09,.14,.28,.11,.58-.09,.21-.13,1.08-.86,2.6-2.17,1.53-1.31,2.97-2.42,4.32-3.32-1.3,1.33-2.38,2.53-3.25,3.6-.87,1.07-1.74,2.2-2.63,3.39-.89,1.19-1.54,2.02-1.95,2.5-.42,.47-.81,.83-1.18,1.07-1.18,.76-2.18,.5-3.01-.79-2.13-3.31-2.64-6.28-1.51-8.91,.46-1.07,1.34-2.55,2.65-4.46,1.31-1.9,2.88-3.92,4.7-6.04,1.82-2.12,3.93-4.3,6.32-6.53,2.39-2.23,4.91-4.19,7.54-5.89,2.71-1.74,5.41-3.01,8.1-3.8,2.69-.79,5.19-1.08,7.49-.87,2.3,.22,4.42,.93,6.35,2.13s3.6,2.89,4.99,5.06c2.12,3.29,3.05,7.22,2.79,11.77-.26,4.55-1.51,9.22-3.75,14-2.23,4.79-5.27,9.39-9.09,13.81-3.83,4.42-8.03,8.1-12.61,11.05-.86,.55-1.58,.91-2.18,1.07-.6,.16-1.15,.08-1.65-.24-.5-.32-1.04-.93-1.62-1.83-.71-1.11-1.19-2.09-1.44-2.92-.24-.84-.42-1.87-.52-3.1-.67-8.36,.09-19.91,2.28-34.66-1.57,1.23-3.2,2.7-4.91,4.42-1.71,1.72-3.28,3.41-4.72,5.09-1.44,1.67-2.62,3.15-3.53,4.42-.91,1.28-1.3,2.02-1.16,2.24Zm15.22-16.98s.21,.23,.56,.57c.35,.34,.62,.66,.81,.95,.29,.45,.42,1.25,.4,2.41-.02,1.16-.17,3.28-.43,6.38-.27,3.09-.47,5.78-.6,8.07-.13,2.29-.18,5.16-.15,8.61,.02,1.09,.02,1.84,0,2.23,0,.39-.02,1.03-.02,1.91,0,.88,.05,1.61,.15,2.18,.1,.57,.23,.97,.38,1.2,.33,.51,.88,.65,1.68,.43,.79-.22,1.8-.72,3.02-1.51,3.15-2.02,6.17-4.65,9.06-7.88,2.9-3.23,5.33-6.69,7.32-10.39,1.98-3.7,3.21-7.23,3.66-10.58,.46-3.35-.07-6.21-1.59-8.57-1.73-2.69-4.23-4.01-7.5-3.96-3.27,.05-7.14,1.51-11.6,4.38-1.87,1.21-3.59,2.39-5.16,3.57Z"/>
    <path class="cls-1" d="M113.12,105.92c2.21-4.77,4.7-8.76,7.46-11.96,2.76-3.2,5.09-5.3,6.99-6.3,.51-.27,1.08-.34,1.71-.21,.63,.13,1.19,.36,1.7,.7,.5,.34,.81,.62,.93,.85,.19,.37,.17,.73-.08,1.08-.25,.35-.74,.88-1.46,1.57,.34,.24,.78,.55,1.32,.92,.54,.37,.96,.68,1.27,.92,.31,.24,.53,.49,.66,.73,.26,.49,.15,1.72-.33,3.69-.48,1.96-.78,3.39-.92,4.27-.14,.89,.03,1.79,.52,2.71,.8,1.52,2.02,1.84,3.68,.97,1.7-.89,3.67-3.64,5.88-8.23l.99,1.88c-3.13,9-6.03,14.2-8.68,15.59-.95,.5-1.76,.59-2.44,.28-.68-.31-1.28-.98-1.82-2.01-.85-1.62-1.39-4.33-1.62-8.14-1.81,5.19-3.21,8.94-4.2,11.26-.99,2.31-2.05,3.76-3.17,4.35-.54,.28-1.41,.24-2.62-.12s-2.46-.99-3.73-1.91c-1.27-.92-2.26-2.04-2.96-3.38-.51-.96-.82-1.83-.94-2.59-.12-.76-.04-1.65,.24-2.66s.82-2.43,1.63-4.27Zm15.72-12.57c-5.05,5.76-8.47,10.21-10.27,13.32-1.8,3.12-2.22,5.58-1.27,7.38,.34,.66,.76,1.13,1.25,1.4,.49,.28,.96,.3,1.43,.06,.27-.14,.67-.53,1.2-1.18,1.89-2.61,3.36-5.5,4.4-8.65,1.05-3.15,2.13-7.26,3.26-12.33Z"/>
    <path class="cls-1" d="M159.1,90.2l1.06,2.31c-1.21,3.75-2.56,6.77-4.04,9.07-1.48,2.3-2.96,3.79-4.44,4.47-2.05,.94-3.99,.74-5.82-.61-1.83-1.35-3.24-3.1-4.23-5.25-.38-.82-.64-1.65-.78-2.49-.14-.84-.19-1.56-.14-2.18,.05-.61,.22-1.6,.49-2.98,1.41-6.29,3.58-10.11,6.53-11.46,1.52-.7,2.51-.56,2.97,.43,.31,.67,.3,1.95-.03,3.84-.33,1.89-.74,3.31-1.23,4.28-1.36,2.77-2.21,4.65-2.55,5.65-.34,1-.31,1.94,.1,2.83,.35,.76,.98,1.23,1.88,1.43,.91,.2,1.9,.05,2.97-.45,1.17-.54,2.3-1.5,3.38-2.87,1.08-1.38,2.37-3.38,3.88-6.02Zm-9.04-12.94c-.62,.29-1.31,.36-2.06,.22-.75-.14-1.26-.52-1.54-1.13-.43-.93-.38-2.2,.15-3.82,.53-1.62,1.35-2.69,2.48-3.2,.75-.34,1.46-.44,2.14-.28,.68,.16,1.19,.61,1.53,1.35,.42,.9,.36,2.14-.16,3.71-.52,1.57-1.37,2.62-2.54,3.16Z"/>
    <path class="cls-1" d="M175.81,82.89l.99,2.38c-2.84,8.14-5.92,12.9-9.24,14.28-1.8,.75-3.56,.51-5.28-.72-1.72-1.23-3.14-3.19-4.26-5.89-.91-2.18-1.38-5.03-1.41-8.54-.03-3.51,.33-7.24,1.08-11.19,.75-3.94,1.75-7.52,2.99-10.73,1.24-3.21,2.6-5.67,4.1-7.38,.6-.7,1.12-1.14,1.55-1.32,.53-.22,.97-.17,1.31,.15,.34,.32,.71,.96,1.12,1.93,1.24,2.97,1.33,7.22,.26,12.75-1.06,5.53-3.22,11.62-6.47,18.27,.21,1.22,.44,2.13,.69,2.73,.57,1.37,1.38,2.34,2.44,2.9,1.05,.57,2.2,.59,3.45,.07,.63-.26,1.23-.76,1.8-1.48,.56-.72,1.12-1.57,1.67-2.52,.55-.96,1.63-2.85,3.22-5.67Zm-13.79-1.03c.87-1.64,1.62-3.41,2.28-5.32,.65-1.9,1.19-3.87,1.63-5.91,.43-2.04,.7-3.82,.79-5.34,.1-1.52,.01-2.6-.26-3.25-.21-.49-.51-.65-.92-.48-.15,.06-.4,.3-.73,.72-1.1,1.71-1.97,4.53-2.6,8.45-.63,3.92-.7,7.63-.19,11.13Z"/>
    <path class="cls-1" d="M192.86,78.51l-5.13,7.43c-2.41,3.6-4.17,5.61-5.29,6.01-1.01,.36-2.42-.23-4.24-1.78-1.82-1.55-2.99-3.05-3.52-4.51-.45-1.24-.6-2.38-.46-3.4,.14-1.02,.52-2.42,1.14-4.2,.91-2.42,1.86-4.54,2.84-6.35,.98-1.81,1.9-3.27,2.76-4.38,.86-1.11,1.5-1.74,1.94-1.9,.7-.25,1.49-.19,2.37,.18,.88,.37,1.44,.89,1.67,1.54,.15,.41,.03,1.21-.35,2.38-.38,1.17-1.09,2.74-2.12,4.7-1.03,1.96-2.56,4.42-4.6,7.37l-.09,2.06c-.08,.42-.07,.77,.02,1.03,.21,.59,.67,.76,1.37,.51,.72-.26,2.15-1.65,4.26-4.16,2.12-2.51,4.27-5.64,6.46-9.39,.85-1.46,1.53-2.73,2.05-3.81,.52-1.07,.98-2.07,1.38-2.99,.4-.92,.75-1.63,1.05-2.14,.3-.5,.62-.83,.94-.97,.62-.3,1.21-.25,1.76,.14,.55,.39,1.01,1.1,1.38,2.13,.21,.59,.17,1.44-.13,2.54s-.92,3.03-1.86,5.77c-.94,2.74-1.85,5.56-2.72,8.45-.87,2.89-1.67,6.08-2.4,9.57,.05-.09,.61-1.04,1.68-2.82,1.06-1.79,2.19-3.66,3.39-5.62,1.19-1.96,2.19-3.54,2.98-4.75,.79-1.21,1.81-2.65,3.04-4.33l.79,2.19c-2.35,4.42-4.43,8.56-6.24,12.42-1.81,3.86-3.18,6.91-4.1,9.17-.93,2.26-1.47,3.57-1.62,3.95-.42,1.01-.79,1.96-1.11,2.82-.32,.87-.6,1.55-.84,2.04-.25,.5-.48,.78-.72,.87-.54,.2-1.19-.08-1.94-.83-.75-.75-1.26-1.48-1.51-2.17-.23-.63-.29-1.24-.18-1.82,.59-4.2,2.55-11.85,5.89-22.93Z"/>
    <path class="cls-1" d="M224.1,46.4c.04,.16,.23,.2,.58,.12,.24-.05,1.3-.43,3.19-1.14,1.88-.71,3.62-1.25,5.19-1.63-1.68,.8-3.11,1.56-4.29,2.26-1.18,.7-2.39,1.46-3.63,2.28-1.24,.81-2.14,1.37-2.69,1.67-.55,.3-1.04,.5-1.47,.6-1.37,.31-2.22-.29-2.55-1.78-.86-3.84-.31-6.81,1.64-8.88,.8-.84,2.14-1.93,4.02-3.27,1.88-1.34,4.05-2.69,6.49-4.06,2.44-1.37,5.17-2.68,8.18-3.95,3.01-1.27,6.05-2.25,9.11-2.93,3.14-.7,6.11-.96,8.91-.79,2.8,.18,5.25,.77,7.33,1.76,2.08,.99,3.83,2.39,5.23,4.19,1.4,1.8,2.39,3.95,2.95,6.46,.86,3.82,.38,7.82-1.43,12.01-1.81,4.18-4.59,8.14-8.33,11.86-3.75,3.73-8.17,7-13.29,9.84-5.11,2.83-10.33,4.84-15.64,6.04-.99,.22-1.8,.31-2.42,.26-.62-.05-1.11-.32-1.47-.79-.36-.48-.66-1.24-.89-2.28-.29-1.29-.4-2.37-.34-3.24,.06-.87,.25-1.9,.58-3.09,2.25-8.08,6.93-18.67,14.06-31.76-1.89,.62-3.94,1.43-6.13,2.46-2.19,1.03-4.26,2.08-6.19,3.15-1.93,1.07-3.54,2.05-4.84,2.94-1.3,.88-1.92,1.45-1.86,1.7Zm20.13-10.71s.12,.29,.33,.73c.21,.44,.35,.83,.43,1.17,.12,.52-.04,1.32-.46,2.4-.42,1.08-1.29,3.03-2.6,5.84-1.31,2.81-2.43,5.27-3.33,7.37-.91,2.1-1.94,4.78-3.1,8.04-.36,1.03-.61,1.73-.76,2.09-.14,.36-.37,.96-.68,1.79-.31,.83-.51,1.53-.61,2.1-.1,.57-.12,.99-.06,1.26,.13,.59,.61,.91,1.43,.98,.82,.07,1.94-.06,3.36-.38,3.65-.82,7.39-2.24,11.22-4.28,3.83-2.03,7.31-4.45,10.45-7.24,3.14-2.79,5.5-5.69,7.08-8.68,1.58-2.99,2.07-5.85,1.46-8.59-.7-3.12-2.59-5.22-5.68-6.3-3.09-1.08-7.22-1.04-12.4,.12-2.17,.49-4.2,1.01-6.07,1.58Z"/>
    <path class="cls-1" d="M277.02,57.91l-.33-2.24c1.25-1.69,2.18-3.1,2.78-4.25-.91-.12-1.59-.34-2.04-.65-.45-.31-.73-.83-.84-1.56-.12-.83,.13-1.93,.76-3.31,.63-1.38,1.46-2.71,2.49-3.99,1.03-1.28,2.01-2.15,2.94-2.62,.36-.22,.71-.35,1.07-.4,.54-.08,.85,.09,.91,.53,.06,.39-.25,1.24-.91,2.56,5.49-1.57,8.97-2.47,10.44-2.69,.57-.09,.97-.1,1.2-.04,.49,.14,.95,.56,1.36,1.27,.41,.71,.68,1.45,.79,2.2,.07,.48-.1,1.04-.52,1.68-.42,.64-1.16,1.59-2.22,2.85-1.25,1.52-2.24,3.12-2.99,4.81-.75,1.68-1.07,2.91-.95,3.69,.16,1.08,1.03,1.5,2.61,1.26,1.66-.25,4.33-2.1,8.01-5.56l.34,2.3c-1.96,2.33-3.59,4.18-4.88,5.55-1.3,1.37-2.52,2.48-3.67,3.34-1.15,.86-2.21,1.37-3.19,1.51-1.14,.17-2.16-.13-3.05-.9-.89-.77-1.47-1.99-1.72-3.66-.15-.99-.02-2.15,.39-3.5,.41-1.35,1.08-2.85,2.02-4.5,.93-1.65,2.01-3.32,3.24-5-.74,.25-1.58,.52-2.51,.81-.93,.29-1.91,.6-2.95,.92-1.04,.32-1.83,.57-2.39,.74-1.26,3.09-3.32,6.04-6.19,8.83Z"/>
    <path class="cls-1" d="M319.93,49.6l.28,2.52c-2.33,3.17-4.56,5.62-6.7,7.34s-4.01,2.67-5.62,2.85c-2.24,.25-4.02-.56-5.33-2.42-1.31-1.86-2.1-3.96-2.36-6.31-.1-.9-.09-1.77,.04-2.61,.13-.84,.31-1.54,.55-2.11,.24-.56,.71-1.45,1.41-2.67,3.31-5.52,6.59-8.46,9.81-8.82,1.67-.18,2.56,.26,2.68,1.35,.08,.74-.33,1.95-1.24,3.63s-1.75,2.91-2.52,3.67c-2.16,2.2-3.56,3.72-4.2,4.56-.64,.84-.91,1.74-.8,2.71,.09,.83,.54,1.48,1.34,1.95,.8,.47,1.79,.64,2.96,.51,1.28-.14,2.65-.7,4.11-1.66,1.46-.96,3.32-2.46,5.58-4.48Zm-4.5-15.14c-.68,.08-1.36-.07-2.02-.44-.66-.37-1.03-.89-1.11-1.56-.11-1.01,.34-2.21,1.35-3.58,1.01-1.37,2.13-2.13,3.36-2.26,.82-.09,1.53,.05,2.12,.41s.94,.95,1.03,1.76c.11,.99-.33,2.15-1.32,3.47-.99,1.32-2.12,2.06-3.41,2.2Z"/>
    <path class="cls-1" d="M323.83,49.37l-.53,2.97c-.08,.38-.11,.8-.08,1.26,.09,1.25,.75,1.83,1.99,1.74,1.18-.08,3.91-2.23,8.18-6.44-.08-1.5,.46-3.28,1.62-5.34,1.16-2.06,2.48-3.88,3.95-5.48,1.47-1.59,2.59-2.42,3.36-2.47,1.21-.09,1.86,.54,1.95,1.88,.06,.81-.1,1.81-.49,3.02-.38,1.2-.98,2.51-1.79,3.93-.81,1.42-1.82,2.89-3.03,4.42,.76,.99,1.5,1.46,2.21,1.41,.6-.04,1.26-.27,1.96-.68,.7-.41,1.57-1.02,2.62-1.84l.17,2.32c-1.46,1.13-2.63,1.91-3.49,2.34-.86,.43-2,.7-3.4,.8-.55,.04-1.56-.2-3.03-.72-2.62,2.7-4.76,4.73-6.43,6.09-1.67,1.36-3.05,2.08-4.15,2.16-1.89,.14-3.57-.7-5.04-2.51-1.47-1.81-2.28-3.86-2.45-6.15-.22-3.07,1.57-6.91,5.38-11.5,1.14-1.38,2.07-2.34,2.79-2.86,.72-.53,1.56-.83,2.52-.9,.82-.06,1.61,.01,2.37,.21,.76,.2,1.15,.48,1.18,.82,.08,1.16-.72,2.91-2.39,5.28-1.68,2.36-3.67,4.45-5.96,6.26Z"/>
    <path class="cls-1" d="M351.18,48.92l.02,.87c.04,1.37,.47,2.42,1.29,3.16,.82,.74,1.88,1.09,3.17,1.06,1.35-.04,2.73-.35,4.16-.92s2.84-1.32,4.25-2.24c1.4-.92,3.12-2.15,5.13-3.7l.06,2.12c-3.02,3.24-5.86,5.74-8.53,7.5-2.67,1.76-5.41,2.68-8.22,2.76-2.45,.07-4.41-.67-5.88-2.23-1.48-1.56-2.25-3.73-2.33-6.51-.07-2.43,.54-4.66,1.83-6.68,1.29-2.02,3.43-4.17,6.42-6.46,2.04-1.57,4.09-2.76,6.13-3.58,2.04-.82,3.87-1.26,5.49-1.31,1.29-.04,2.32,.18,3.09,.66,.77,.48,1.17,1.21,1.2,2.21,.04,1.46-.56,2.93-1.81,4.42s-3.18,2.98-5.79,4.48c-2.61,1.5-5.84,2.97-9.67,4.4Zm.35-2.27c2.45-.88,4.54-1.95,6.26-3.21,1.72-1.25,2.99-2.45,3.8-3.57,.81-1.12,1.2-1.94,1.19-2.45-.01-.53-.31-.79-.89-.77-.49,.01-1.29,.3-2.39,.87-1.1,.56-2.21,1.29-3.32,2.18-1.12,.89-2.11,1.93-2.99,3.11-.87,1.19-1.43,2.46-1.66,3.84Z"/>
    <path class="cls-1" d="M367.66,49.86l.02-2.26c1.5-1.47,2.64-2.72,3.42-3.75-.88-.26-1.51-.58-1.91-.96-.39-.37-.59-.93-.58-1.68,0-.83,.43-1.88,1.27-3.15,.84-1.27,1.87-2.45,3.09-3.55,1.22-1.1,2.33-1.81,3.32-2.12,.39-.16,.76-.23,1.12-.23,.55,0,.82,.23,.82,.67,0,.39-.44,1.19-1.3,2.39,5.67-.68,9.25-1.02,10.74-1,.58,0,.98,.06,1.19,.15,.47,.21,.85,.7,1.14,1.47,.3,.77,.44,1.53,.43,2.3,0,.49-.26,1.01-.78,1.57-.52,.56-1.4,1.38-2.65,2.46-1.47,1.31-2.71,2.73-3.71,4.27-1.01,1.54-1.51,2.71-1.52,3.5-.01,1.09,.78,1.64,2.38,1.66,1.68,.02,4.61-1.39,8.79-4.22l-.02,2.33c-2.3,1.99-4.2,3.56-5.7,4.7-1.5,1.15-2.88,2.05-4.15,2.72-1.27,.67-2.4,1-3.39,.99-1.16-.01-2.11-.47-2.87-1.37-.76-.9-1.13-2.2-1.12-3.89,0-1,.32-2.13,.94-3.4,.62-1.27,1.52-2.65,2.7-4.13,1.18-1.48,2.51-2.96,3.98-4.43-.77,.13-1.64,.27-2.6,.41-.96,.14-1.98,.29-3.06,.44-1.07,.15-1.9,.27-2.48,.36-1.74,2.86-4.24,5.44-7.5,7.75Z"/>
    <path class="cls-1" d="M391.43,48.38l.04-.83c7.4-5.95,12.49-10.12,15.28-12.51,.74-2.82,2.27-4.17,4.58-4.05,.58,.03,1.19,.2,1.83,.51l.21,.67c-.12,.27-.2,.66-.22,1.17-.02,.44,.14,1.26,.48,2.48,.34,1.21,.6,2.23,.78,3.05,.18,.82,.24,1.74,.19,2.76-.08,1.53-.56,2.97-1.45,4.33-.89,1.36-2.15,2.64-3.78,3.85-1.63,1.21-3.71,2.42-6.25,3.64,.98,.19,1.76,.29,2.34,.32,1.13,.06,2.35-.12,3.68-.53s2.69-.98,4.09-1.71c1.4-.73,3.04-1.69,4.91-2.87l-.11,2.33c-3.66,2.72-6.91,4.76-9.76,6.11-2.85,1.36-5.28,1.99-7.28,1.89-2.58-.13-4.93-1.17-7.03-3.13-1.24-1.18-1.99-2.28-2.25-3.31s-.36-2.42-.27-4.15Zm15.63-4.56l-.49-5.11c-1.78,1.54-5.58,4.47-11.38,8.8,1.63,.38,2.74,.84,3.32,1.38,.58,.54,1.38,1.57,2.41,3.08,1.9-.56,3.38-1.37,4.44-2.44,1.06-1.07,1.63-2.58,1.73-4.53,.01-.23,.01-.44,0-.63,0-.18-.02-.37-.03-.56Z"/>
    <path class="cls-1" d="M463.46,41.01l-2.37,1.78c2.4,.52,4.53,1.06,6.4,1.64,1.86,.57,3.58,1.16,5.15,1.76,1.57,.6,2.94,1.19,4.11,1.78,4.1,2.11,5.96,4.52,5.58,7.23-.23,1.65-1.35,3.15-3.37,4.48-2.02,1.34-4.55,2.43-7.59,3.27-3.04,.84-6.13,1.41-9.27,1.69-3.13,.28-5.94,.25-8.42-.09-4.14-.57-7.28-1.66-9.42-3.28-2.14-1.62-3.05-3.55-2.74-5.8,.21-1.56,1.18-3.3,2.88-5.22,1.71-1.92,4.26-4.25,7.67-6.98-2.22-.4-3.76-.9-4.62-1.5-.86-.6-1.23-1.32-1.12-2.17,.07-.53,.3-.91,.7-1.13,.39-.23,.9-.36,1.51-.41,.62-.04,1.79-.04,3.52,.01,1.73,.05,3.95,.12,6.65,.22,3.39-2.67,6.38-4.62,8.95-5.84,2.57-1.22,5.22-1.77,7.95-1.62,.22,0,.46,.03,.72,.06,.26,.04,.38,.11,.36,.23-.02,.14-.38,.46-1.07,.98-.69,.51-1.82,1.33-3.38,2.45-1.56,1.12-3.4,2.45-5.52,3.98,5.2,.13,9.48,.05,12.84-.25,3.36-.3,5.94-.85,7.74-1.65,1.8-.8,2.79-1.84,2.97-3.1,.21-1.54-.52-2.77-2.2-3.71-1.68-.93-4.34-1.65-7.99-2.15-2.02-.28-4.35-.42-7-.44-2.65-.01-5.06,.05-7.23,.2-2.17,.15-4.12,.35-5.83,.62-1.72,.27-2.59,.52-2.62,.74,0,.07,.06,.15,.22,.24,1.28,.6,1.9,1.03,1.86,1.31-.05,.37-2.19,.79-6.42,1.27s-7.05,.62-8.47,.43c-1.01-.14-1.45-.63-1.34-1.48,.14-1.01,1.49-2.68,4.04-5.01,2.55-2.33,4.78-3.73,6.68-4.22,.66-.17,2.17-.37,4.54-.6,2.37-.24,4.95-.42,7.76-.55,2.81-.13,5.65-.17,8.53-.12,2.88,.05,5.41,.22,7.59,.52,5.15,.71,8.91,2.02,11.29,3.92,2.38,1.91,3.4,4.03,3.08,6.37-.22,1.58-1.02,3.03-2.41,4.33-1.39,1.31-3.42,2.44-6.11,3.41-2.69,.96-6.11,1.66-10.26,2.1-4.16,.43-8.99,.54-14.51,.32Zm-4.94,3.85c-1.61,1.23-3.04,2.31-4.3,3.25-1.25,.94-2.17,1.71-2.74,2.33-.57,.61-.9,1.26-1,1.95-.15,1.1,.39,2.18,1.62,3.22,1.23,1.05,3.11,1.74,5.65,2.09,2.34,.32,4.89,.32,7.64-.02,2.75-.33,5.11-.94,7.08-1.82,1.97-.87,3.03-1.89,3.19-3.03,.14-.99-.42-1.89-1.67-2.72-1.25-.83-3.2-1.67-5.85-2.54-2.66-.87-5.86-1.77-9.62-2.71Z"/>
    <path class="cls-1" d="M490.35,51.57c4.71-2.34,9.15-3.89,13.31-4.67,4.16-.77,7.29-.95,9.39-.54,.57,.11,1.05,.41,1.46,.9,.41,.49,.7,1.03,.88,1.61,.18,.58,.25,.99,.2,1.24-.08,.41-.33,.67-.74,.79-.42,.12-1.12,.22-2.12,.31,.12,.4,.27,.91,.46,1.54,.19,.63,.33,1.13,.42,1.52,.09,.38,.11,.71,.06,.99-.11,.55-.96,1.44-2.56,2.67-1.6,1.23-2.73,2.15-3.4,2.75-.66,.6-1.1,1.42-1.29,2.44-.33,1.68,.42,2.7,2.26,3.06,1.89,.37,5.14-.54,9.74-2.74l-.41,2.08c-8.08,5.06-13.59,7.3-16.53,6.73-1.05-.2-1.75-.64-2.08-1.31-.33-.67-.39-1.57-.17-2.71,.35-1.8,1.63-4.25,3.83-7.36-4.66,2.92-8.1,4.97-10.32,6.15-2.22,1.18-3.95,1.66-5.19,1.41-.59-.12-1.25-.69-1.97-1.73-.72-1.04-1.29-2.31-1.71-3.82-.42-1.51-.49-3.01-.2-4.48,.21-1.07,.5-1.94,.89-2.61,.38-.67,1-1.31,1.85-1.92,.85-.61,2.16-1.38,3.94-2.31Zm20.13,.03c-7.55,1.34-12.99,2.66-16.34,3.97-3.35,1.31-5.22,2.96-5.61,4.96-.14,.73-.11,1.35,.1,1.88,.21,.53,.57,.84,1.08,.94,.3,.06,.85,0,1.67-.17,3.11-.86,6.06-2.19,8.85-3.99,2.79-1.81,6.21-4.33,10.26-7.58Z"/>
    <path class="cls-1" d="M536.23,67.31l-.58,2.51c-7.05,4.96-12.33,7.03-15.84,6.21-1.9-.44-3.19-1.66-3.87-3.66-.68-2-.69-4.42-.03-7.27,.53-2.3,1.81-4.89,3.83-7.77,2.02-2.87,4.49-5.69,7.4-8.45,2.91-2.76,5.81-5.09,8.69-6.98,2.88-1.89,5.42-3.09,7.63-3.6,.9-.22,1.57-.28,2.03-.17,.56,.13,.89,.43,.98,.89,.09,.46,.02,1.2-.22,2.22-.73,3.14-3.13,6.64-7.22,10.51-4.09,3.87-9.39,7.56-15.91,11.07-.54,1.11-.88,1.98-1.03,2.62-.33,1.45-.24,2.7,.29,3.78,.53,1.07,1.45,1.76,2.76,2.07,.67,.16,1.44,.1,2.32-.16,.88-.26,1.82-.62,2.83-1.07,1.01-.45,2.98-1.37,5.93-2.73Zm-10.6-8.88c1.66-.83,3.31-1.82,4.95-2.99,1.64-1.17,3.23-2.45,4.77-3.85,1.54-1.4,2.79-2.69,3.76-3.87,.97-1.18,1.53-2.11,1.68-2.79,.12-.52-.04-.83-.46-.93-.16-.04-.5,.02-1.01,.16-1.9,.75-4.24,2.53-7.04,5.34-2.8,2.81-5.01,5.79-6.64,8.93Z"/>
    <path class="cls-1" d="M553.8,72.28l-.63,2.46c-3.31,2.14-6.26,3.63-8.87,4.48-2.6,.85-4.69,1.07-6.26,.66-2.18-.56-3.56-1.95-4.13-4.15-.57-2.21-.56-4.45,.03-6.74,.23-.88,.55-1.68,.97-2.43,.42-.74,.84-1.33,1.27-1.77s1.18-1.11,2.26-2c5.06-3.98,9.16-5.57,12.3-4.76,1.62,.42,2.3,1.16,2.03,2.21-.19,.72-1,1.71-2.45,2.96-1.45,1.26-2.67,2.1-3.66,2.54-2.8,1.29-4.65,2.21-5.55,2.77-.9,.56-1.47,1.31-1.71,2.25-.21,.81-.02,1.57,.56,2.3,.58,.72,1.44,1.23,2.59,1.53,1.25,.32,2.73,.29,4.43-.09,1.7-.39,3.97-1.12,6.81-2.21Zm1.17-15.75c-.67-.17-1.24-.55-1.73-1.13-.49-.58-.65-1.2-.48-1.85,.25-.99,1.1-1.94,2.53-2.87,1.43-.92,2.75-1.23,3.94-.92,.8,.21,1.41,.59,1.84,1.14,.42,.55,.54,1.22,.33,2.01-.25,.97-1.07,1.89-2.46,2.77-1.39,.89-2.71,1.17-3.97,.84Z"/>
  </g>
</svg>