<?xml version="1.0" encoding="utf-8"?>
<!-- Generator: Adobe Illustrator 27.0.0, SVG Export Plug-In . SVG Version: 6.00 Build 0)  -->
<svg version="1.1" id="Layer_1" xmlns="http://www.w3.org/2000/svg" xmlns:xlink="http://www.w3.org/1999/xlink" x="0px" y="0px"
	 viewBox="0 0 300 300" style="enable-background:new 0 0 300 300;" xml:space="preserve">
<style type="text/css">
	.st0{display:none;fill:#FFFFFE;}
	.st1{display:none;}
	.st2{display:inline;}
	.st3{display:none;fill:#FFFFFF;}
</style>
<g id="Layer_1_00000170264392691087359040000018255952957079454119_">
	<g id="zMyCUn.tif">
		<g>
			<path class="st0" d="M7.1,201.8c-0.8,0-1-0.2-1-1c0-36,0-71.9,0-107.9c0-0.8,0.2-1,1-1c96.5,0,193,0,289.5,0
				c0,36.6,0,73.2,0,109.8C200.1,201.7,103.7,201.7,7.1,201.8z"/>
			<path d="M6.1,151.1c0.4,4.1,0.2,8.3,0.4,12.5c0.2,2.7,0.2,5.5,0.6,8.3c0.1,0.7,0.4,1.2,1,1.6c2.7,1.6,5.5,2.7,8.5,3.5
				c0.7,0.2,0.6-0.1,0.6-0.5c0-3.6,0.6-7.2,1.6-10.7c1.8-6.7,5.1-12.5,10.4-17c4.1-3.5,8.9-5.6,14.3-6.4c6-0.9,12-0.7,17.8,1.2
				c6.9,2.2,12,6.7,15.7,12.7c3.7,6.1,5.6,12.8,6.6,19.8c0.2,1.7,0.4,3.4,0.6,5.1c0.1,0.4,0.2,0.7,0.7,0.7c2.8,0.2,5.5,0.4,8.2,0.4
				c36.2,0,72.4,0,108.6,0c1.1,0,1.2-0.3,1.2-1.3c-0.2-6.1,0.3-12.1,2.4-17.9c1.9-5.4,4.8-10.3,9.2-14.1c4.2-3.6,9-5.8,14.4-6.7
				c6.1-1,12.1-0.8,18,1.1c3.6,1.2,6.8,3.1,9.7,5.6c5.4,4.8,8.5,11,10.6,17.8c1.5,5.1,2.3,10.2,2.7,15.4c0.1,1.6-0.3,1.7,1.9,1.8
				c5.9,0.3,10.9-1.9,15.9-4.5c1.2-0.6,1.7-1.8,2.2-2.9c1.3-3.1,2.2-6.3,2.9-9.6c0.2-0.8,0-1.3-0.9-1.1c-0.9,0.2-1.2-0.4-1.3-1.1
				c-0.4-2.1-0.2-4.1-0.2-6.2c0-0.5,0.2-0.8,0.7-0.9c0.4,0,0.8-0.1,1.2-0.2c0.5-0.2,1.4,0.2,1.5-0.4c0.2-0.8,0.4-1.8-0.2-2.6
				c-1.5-2-2.9-4.1-3.4-6.6c-0.1-0.6-0.5-0.4-0.8-0.4c-2.4,0.1-4.8,0.2-7.2,0.3c-1.4,0.1-2.4-0.5-3.1-1.7c-1.6-2.6-3.1-5.2-4.2-8
				c-0.5-1.2-0.3-1.4,1-1.4c3.1,0,6.1,0,9.1,0.1c0.8,0,0.9-0.2,0.5-0.9c-0.5-0.7-0.9-1.5-1.4-2.2c-0.8-1.2-2.1-1.5-3.3-1.7
				c-4.6-0.8-9.1-1.6-13.7-2.3c-4.7-0.7-9.4-1.4-14.1-2.1c-4.3-0.6-8.7-1.2-13-1.8c-3.9-0.6-7.9-1.1-11.9-1.7
				c-3.3-0.5-6.6-1.2-9.9-1.3c-3.6-0.1-6.4-1.8-9.2-3.7c-7.5-5.1-15.2-9.8-23.1-14.3c-5.9-3.4-11.9-6.7-18.3-9.2
				c-2.8-1.1-5.7-1.8-8.7-1.8c-4,0-8.1-0.1-12.1-0.3c-5.4-0.3-10.8-0.3-16.2-0.5c-3.2-0.1-6.3,0-9.5-0.2c-3.6-0.2-7.2,0-10.8-0.2
				c-5.3-0.3-10.6,0-15.9-0.2c-6.2-0.2-12.3-0.1-18.5-0.1c-4.1,0-8.3,0-12.4,0.2c-4.7,0.2-9.3,0.2-13.9,1c-0.7,0.2-1.4,0.3-2,0.8
				c-4.1,3.2-8.1,6.4-12.2,9.6c-4.1,3.3-8.2,6.5-12.3,9.8c-3.4,2.7-6.7,5.5-10,8.2c-1,0.8-2,1.7-3.1,2.6c4.3,0,8.3,0,12.3,0
				c1.1,0,2,0.4,2.7,1.2c0.3,0.3,0.3,0.5,0.1,0.9c-2,3.2-4,6.3-6.3,9.3c-1.1,1.4-2.7,1.5-4.3,1.6c-1.3,0.1-2.7,0.1-4,0
				c-0.7,0-0.9,0.3-0.8,0.9c0.3,1.6,0.1,3.2,0.3,4.7c0.2,1.6-0.9,2.7-1.9,3.6C6.9,147.9,6.3,149,6.1,151.1z M98.9,167.7v-0.1
				c2.6-0.2,5.2-0.3,7.8-0.5c3.7-0.3,7.4-0.5,11.1-0.7c5.4-0.4,10.9-0.8,16.3-1.1c4.1-0.2,8.2-0.4,12.3-0.7
				c6.5-0.4,13.1-0.8,19.6-1.1c2.4-0.1,4.7-0.4,6.9-1.1c3.1-1,5.6-2.7,7-5.8c0.8-1.9,1.9-3.7,2.9-5.6c1.5-2.8,3-5.7,4.6-8.7
				c-16.3-0.6-32.3-1.3-48.4-1.9c0,0,0-0.1,0-0.2c19.6,0,39.3,0,59.1,0c-1.3,1-2.5,1.9-3.6,2.9c-6.8,6.4-9.6,14.5-10.5,23.5
				c-0.2,1.5-0.1,1.5-1.6,1.5c-16.1-0.1-32.3-0.1-48.5-0.2c-11.1,0-22.2-0.1-33.3-0.1C100,167.8,99.4,167.7,98.9,167.7z M82.7,119
				c0-6,0-12,0-18c0-1.9,0-1.9,2-2c0.5,0,1-0.1,1.5-0.1c5.3-0.1,10.7-0.3,16-0.4c7-0.2,13.9-0.1,20.8-0.2c5.2-0.1,10.4,0.1,15.6,0.1
				c6,0.1,12.1,0.3,18.1,0.4c4.5,0.1,8.6,1.5,12.5,3.6c10.6,5.6,19.6,13.4,29.7,19.7c0.7,0.5,0.6,1.1-0.1,1.3
				c-1.2,0.4-2.2,1.4-3.8,1c-1.6-0.3-3-1-4.4-1.5c-0.8-0.3-1-0.8-1.1-1.6c-0.1-0.6,0-1.3-0.6-1.7c-1.5-0.9-3.1-1.8-4.9-2
				c-3.4-0.3-6.8-0.8-10.3-0.7c-2.9,0.1-3.6,0.8-3.7,3.7c0,0.7,0.2,1.1,0.9,1.3c1.2,0.4,2.4,0.9,3.6,1.4c-1,0.4-1.8,0.2-2.7,0.2
				c-6.1-0.3-12.2-0.5-18.3-0.7c-6.1-0.3-12.3-0.5-18.4-0.7c-6-0.3-12-0.5-18-0.7c-5.9-0.3-11.9-0.5-17.8-0.7
				c-5.2-0.2-10.5-0.4-15.7-0.5C82.7,120.2,82.5,119.9,82.7,119z M46.8,116.2c3.4-4.6,7.2-8.8,11.5-12.6c1.6-1.3,3.1-2.8,5.4-3.1
				c5.1-0.8,10.2-1.1,15.4-1.3c0.8,0,1,0.3,1,1c0,3.1,0,6.3,0,9.4s-0.1,6.3,0,9.4c0.1,0.8-0.2,1.1-1,1c-0.3,0-0.5,0-0.8,0
				c-6.4-0.3-12.7-0.5-19.1-0.8c-3.7-0.2-7.5-0.3-11.3-0.5c-0.7-0.1-1.7,0.2-2-0.4C45.6,117.6,46.4,116.9,46.8,116.2z"/>
			<path d="M23.6,174.3c0,15.2,12.1,27.2,27.3,27.2c15.2,0,27.2-12.4,27.1-27.5c-0.1-14.7-12.3-27.1-27.2-26.9
				C35.9,146.9,23.4,159.2,23.6,174.3z M31.4,174c0-10.4,8.2-19.3,19.4-19.4c10.7-0.1,19.5,8.7,19.4,19.4
				c-0.1,11-8.8,19.3-19.3,19.4C40.1,193.4,31.4,184.8,31.4,174z"/>
			<path d="M209,174.5c0.1,15,12.1,27,27.3,27c15.5,0,27.2-12.5,27.2-27.3s-12.3-27.3-27.2-27.1C221.5,146.8,208.8,159.1,209,174.5z
				 M216.7,174.1c0-10.7,8.7-19.5,19.4-19.5c10.8,0,19.4,8.5,19.5,19.4c0.1,10.7-8.7,19.4-19.4,19.4
				C225.6,193.4,216.8,184.7,216.7,174.1z"/>
			<path d="M39.9,174.4c1,0,2.1,0,3.3-0.1c0.7,0,1.5-0.3,2.1,0.1c0.4,0.3,0.4,1.1,0.6,1.6c0,0.2,0.1,0.3,0.2,0.5
				c0.2,0.3,0.1,0.5-0.2,0.7c-2.6,2-5.3,4-8,6c-0.4,0.3-0.6,0.3-0.8-0.1c-1.5-2.4-2.5-5-2.7-7.9c0-0.6,0.2-0.8,0.8-0.8
				C36.8,174.4,38.3,174.4,39.9,174.4L39.9,174.4z"/>
			<path d="M37.9,163.8c1.8-2.3,4.1-4,6.8-5.1c0.5-0.2,0.6,0,0.8,0.5c1,3.1,2.1,6.2,3.1,9.2c0.1,0.5,0,0.8-0.4,1
				c-0.5,0.3-0.9,0.6-1.3,1c-0.3,0.2-0.4,0.4-0.8,0.1c-2.7-2-5.5-3.9-8.2-5.8c-0.1-0.1-0.3-0.2-0.4-0.3
				C37.6,164.1,37.7,164,37.9,163.8z"/>
			<path d="M52.6,168.4c1-3.1,2-6.3,3-9.5c0.2-0.6,0.5-0.5,0.9-0.3c2.7,1.1,5,2.6,6.8,4.8c0.4,0.4,0.3,0.6-0.1,0.9
				c-2.2,1.7-4.4,3.3-6.6,5c-1.1,0.8-2,1.4-3.1,0.1c-0.2-0.2-0.4-0.2-0.6-0.3c-0.2-0.1-0.3-0.2-0.3-0.4
				C52.6,168.6,52.7,168.6,52.6,168.4z"/>
			<path d="M64.2,174.1c0.7,0,1.4,0.1,2.1,0c0.7,0,1,0.2,0.9,1c-0.3,2.7-1,5.3-2.4,7.6c-0.4,0.5-0.6,0.6-1.2,0.2
				c-2.1-1.5-4.2-3-6.3-4.5c-0.6-0.4-1.3-0.7-1.7-1.3c-0.5-0.7,0.5-1.4,0.4-2.1c0-0.7,0.3-0.8,0.9-0.8
				C59.3,174.2,61.8,174.2,64.2,174.1C64.2,174.1,64.2,174,64.2,174.1z"/>
			<path d="M47,190c-0.7-0.1-0.8-0.4-0.6-1.1c0.8-2.6,1.6-5.2,2.4-7.8c0.3-1.1,0.5-2.3,2.2-1.8c0.1,0,0.3-0.1,0.5-0.1
				c0.5-0.1,0.8,0.1,1,0.6c1,3.1,2,6.2,3.1,9.2c0.2,0.5,0.1,0.7-0.4,0.8c-1.4,0.4-2.9,0.7-4.4,0.6C49.5,190.4,48.3,190.2,47,190z"/>
			<path d="M54.5,178c0.3-0.4,0.5-0.1,0.7,0.1c2.4,2.1,4.8,4.3,7.3,6.4c0.5,0.4,0.4,0.7,0,1.1c-1.2,1.1-2.5,2.1-3.9,2.9
				c-0.5,0.3-0.8,0.2-1.1-0.4c-1.3-2.8-2.6-5.7-3.9-8.5c-0.1-0.2-0.2-0.4-0.3-0.7C53.5,178.4,54.1,178.3,54.5,178z"/>
			<path d="M48.2,179.4c-1.3,3-2.6,6.1-3.9,9.1c-0.1,0.4-0.3,0.5-0.7,0.3c-1.6-0.8-3.1-1.7-4.4-3c-0.4-0.5-0.3-0.6,0.1-1
				c2.4-2.1,4.8-4.3,7.1-6.5c0.2-0.2,0.4-0.3,0.5-0.4C47.4,177.9,48.5,179,48.2,179.4z"/>
			<path d="M35,172.5c-0.5-0.1-0.7-0.2-0.6-0.7c0.3-1.7,0.7-3.3,1.4-4.8c0.3-0.7,0.7-0.8,1.3-0.4c2.7,1.5,5.3,3,8,4.5
				c0.4,0.2,1,0.4,0.6,1.1c-0.3,0.5-0.1,1.4-1.1,1.1C41.4,173,38.2,172.7,35,172.5z"/>
			<path d="M53,157.6c0.8,0.1,0.8,0.4,0.7,1c-0.6,3.1-1.2,6.1-1.8,9.2c-0.2,0.8-0.6,0.9-1.2,0.9c-0.7,0-1.1-0.2-1.2-0.9
				c-0.4-2.3-1-4.6-1.5-6.9c-0.8-3.3-0.8-3.3,2.7-3.3C51.4,157.6,52.2,157.7,53,157.6z"/>
			<path d="M55.8,172c-0.3-0.4-0.3-0.7,0.2-1c2.8-1.7,5.7-3.4,8.5-5.1c0.5-0.3,0.6-0.1,0.8,0.3c0.8,1.5,1.3,3.1,1.7,4.8
				c0.1,0.6-0.1,0.8-0.7,0.9c-3.2,0.4-6.3,0.8-9.4,1.1C55.8,173.4,56,172.5,55.8,172z"/>
			<path d="M238.3,168.3c1-3.2,2-6.4,3-9.6c0.1-0.4,0.3-0.4,0.7-0.3c2.7,1,5,2.6,6.9,4.8c0.4,0.4,0.4,0.6-0.1,1
				c-2.1,1.6-4.2,3.1-6.3,4.7c-0.6,0.5-1.1,1.1-1.8,1.3c-0.8,0.2-1.1-0.8-1.8-1c-0.2,0-0.3-0.1-0.5-0.2c-0.2-0.1-0.3-0.2-0.2-0.4
				C238.2,168.6,238.2,168.6,238.3,168.3z"/>
			<path d="M220.9,174.5c2.8,0,5.5,0,8.3-0.1c1.2,0,2.1,0,2.1,1.5c0,0.2,0.2,0.4,0.3,0.6c0.3,0.4,0.2,0.7-0.2,1
				c-2.6,1.9-5.2,3.9-7.8,5.8c-0.4,0.3-0.7,0.3-1-0.2c-1.5-2.3-2.4-4.9-2.7-7.8C219.7,174.6,220.1,174.4,220.9,174.5z"/>
			<path d="M230.9,159.4c1,3.1,2,6.2,3.1,9.2c0.2,0.4,0.1,0.6-0.3,0.8c-0.5,0.2-1,0.5-1.4,1c-0.2,0.3-0.5,0.3-0.8,0.1
				c-2.7-1.9-5.4-3.8-8.1-5.7c-0.4-0.3-0.4-0.5-0.1-0.9c0.9-1.3,2.1-2.3,3.3-3.2c1.1-0.8,2.4-1.5,3.8-2
				C230.8,158.6,230.9,159,230.9,159.4z"/>
			<path d="M232.5,190.1c-0.8-0.1-0.8-0.5-0.6-1.1c0.9-2.7,1.7-5.3,2.5-8c0.3-1.1,0.5-2.1,2-1.6c0.1,0,0.3-0.1,0.5-0.1
				c0.6-0.1,0.9,0.1,1.1,0.7c1,3,2,6,3.1,9c0.2,0.5,0.1,0.7-0.4,0.8c-1.4,0.4-2.9,0.7-4.4,0.6C235,190.4,233.8,190.2,232.5,190.1z"
				/>
			<path d="M249.9,174c0.5,0,1.1,0.1,1.7,0c0.9-0.1,1.3,0.2,1.2,1.2c-0.3,2.6-1,5-2.3,7.2c-0.4,0.7-0.7,0.8-1.4,0.3
				c-2.2-1.6-4.3-3.1-6.5-4.6c-0.6-0.4-1.3-0.7-1.6-1.3c-0.2-0.4,0.3-1.1,0.5-1.6c0-0.1,0-0.1,0-0.2c-0.1-0.6,0.3-0.8,0.9-0.8
				c2.4,0,4.9,0,7.3,0C249.7,174.1,249.7,174,249.9,174z"/>
			<path d="M242.9,188c-1.4-2.9-2.7-5.7-4-8.6c-0.2-0.4-0.4-0.8,0.2-1c0.5-0.2,0.8-1.1,1.6-0.3c2.4,2.2,4.9,4.3,7.3,6.4
				c0.4,0.3,0.4,0.5,0.1,0.8c-1.3,1.3-2.7,2.4-4.3,3.2c-0.1,0.1-0.2,0.1-0.4,0.2C243.2,188.6,243.1,188.3,242.9,188z"/>
			<path d="M224.9,184.8c2.5-2.2,4.9-4.5,7.3-6.7c0.7-0.6,0.9,0.4,1.4,0.5c0.4,0.1,0.5,0.4,0.3,0.8c-1.3,3-2.6,6.1-3.9,9.1
				c-0.2,0.4-0.4,0.5-0.8,0.3c-1.6-0.8-3-1.8-4.3-3c-0.2-0.2-0.4-0.3-0.4-0.6C224.6,185.1,224.7,185,224.9,184.8z"/>
			<path d="M241.3,171.9c-0.2-0.3-0.1-0.6,0.3-0.8c2.8-1.7,5.6-3.3,8.4-5c0.3-0.2,0.5-0.5,0.8,0.1c0.8,1.6,1.4,3.2,1.7,5
				c0.1,0.5-0.1,0.7-0.6,0.8c-3.2,0.4-6.4,0.7-9.6,1.1C241.2,173.4,241.5,172.4,241.3,171.9z"/>
			<path d="M237.4,168c-0.2,0.8-0.7,0.7-1.2,0.7c-0.6,0.1-1,0-1.1-0.7c-0.7-3.1-1.4-6.2-2.1-9.3c-0.2-0.6-0.1-0.8,0.5-0.9
				c1.9-0.3,3.8-0.4,5.8,0.1C238.6,161.3,237.9,164.6,237.4,168z"/>
			<path d="M220.5,172.5c-0.5-0.1-0.6-0.2-0.5-0.7c0.3-1.7,0.7-3.3,1.4-4.8c0.3-0.6,0.6-0.8,1.2-0.4c2.7,1.5,5.4,3,8.1,4.5
				c0.5,0.4,0.8,0.6,0.5,1.3c-0.2,0.5-0.3,1.2-1.1,0.9C226.8,173,223.6,172.7,220.5,172.5z"/>
		</g>
	</g>
</g>
<g id="Layer_2_00000077311578292392896320000010021715886026991257_" class="st1">
	<g id="qP6VaO.tif" class="st2">
		<g>
			<path class="st3" d="M-109.8-29.1c176,0,352.1,0,528,0c0,128.1,0,256.1,0,384c-176.1,0-352,0-528,0
				C-109.8,226.9-109.8,98.9-109.8-29.1z M32.3,131.3c-8.3,7.8-16.6,15.5-24.7,23.4c-0.8,0.8-0.9,2.9-0.6,4.2c0.4,2,1.5,3.9,1.5,6.2
				c-6.1-7.3-12.4-14.4-18.4-21.8c-6.1-7.5-15.1-8.5-23.6-2.5c-7.7,5.5-10.3,16.3-4.9,23.6c5.1,6.9,11,13.1,17.1,20.3
				c-1.1,0.9-3,2.3-4.6,3.9c-25.8,25.7-51.5,51.5-77.6,76.9c-5.1,4.9-5.5,9.9-3.3,15.7c1.4,3.8,3.2,7.5,5.1,11.8
				c18.7-10.8,37.1-21.5,55.7-32.2c-1.4-2.5-2.6-4.7-4.5-8.1c6,4.7,8.3,12.1,17,12.6c-1-3.4-1.7-6.1-2.6-9.3
				c11-6.3,22.3-12.7,33.6-19.1c-0.9-1.9-1.7-3.6-3-6.3c5.2,4.9,9.6,8.9,14,13c0.6-0.4,1.1-0.7,1.7-1c-0.9-3.2-1.7-6.5-2.7-10.1
				c4.2-4.9,17.4-10.7,33.8-14.6c-0.6-1.4-1.2-2.8-2.2-5.2c5.3,4.7,9.7,8.5,14.1,12.4c0.6-0.4,1.2-0.9,1.8-1.3
				c-0.7-2.6-1.4-5.1-2.3-8.2c12.2-2.5,24.4-4.9,36.5-7.5c2.3-0.5,6.3,0.4,5.4-5c6.5,5.7,12,11.4,18.5,15.9
				c13.8,9.6,23.4,23.1,33.3,36c17,21.9,36.5,40.5,60.8,53.9c1.6,0.9,3,1.9,4.2,3.6c-3.8-1.6-7.7-2.9-11.4-4.7
				c-2.5-1.2-4.1-0.9-6,1.2c-9.6,10.3-19.3,20.5-28.8,31c-1.1,1.2-1.7,4.3-0.9,5.6c1.8,3,4.5,5.6,7,8.5
				c16.9-8.2,33.7-15.9,49.9-24.7c7.6-4.1,13.7-4.8,20.7,0.4c3.8,2.8,8.2,4.8,12.5,7c5.3,2.7,10.9-0.3,10.3-6.2
				c-0.5-5.2-2.5-10.3-4.5-15.3c-1.5-3.7-3.9-7.1-5.1-11.1c0.8,0.7,1.9,1.2,2.3,2.1c3.2,7.2,8.4,6.4,14.6,4.5
				c22.2-6.7,44.5-12.9,66.8-19.3c-3.4-8.6-8.1-11.4-16.8-10.3c-3.3,0.4-6.6,0.6-9.9,0.7c-17.6,0.4-35.2,0.8-52.8,1
				c-4.2,0-8.4-0.7-12.6-0.9c-2.7-0.2-3.2-1.6-3-4c0.9-8.4,1-16.9,2.5-25.2c1.4-7.3,0.2-13.1-4.7-18.7c-7.7-8.8-7.5-9-17.2-2.2
				c-1.7,1.2-3.5,2.5-5.4,3.8c1.4,3.6,2.8,7.1,4.6,11.8c-19.8-24.5-38.7-47.9-58.1-71.9c7.4-4.5,14.7-9,22.2-13.6
				c-0.9-2-1.8-4-3.1-6.7c5.5,3.7,6.9,11,15,12.5c-1.2-3.9-2.1-6.6-3-9.6c12.2-8,25.2-15.4,40-18.7c5.1-1.1,7.9-3,4.7-9.8
				c5.7,5.5,6.9,13,15.1,16.1c-0.9-4-1.5-7-2.3-10.8c17.9-5.3,36.4-10.9,55.2-16.5c-0.5-2-1-3.8-1.5-5.4c4.1,4.4,8.1,8.7,12.2,13
				c0.7-0.4,1.3-0.8,2-1.2c-0.7-2.6-1.3-5.3-2.2-8.8c32.3-9.3,65.2-18.8,98.3-28.3c-0.6-1.4-0.7-2.2-1-2.3
				c-13.1-5.5-24.5-14.6-40.8-11.4c-17.5,3.4-35.5,3.7-53.3,5.5c-20.8,2.2-41.5,4.6-62.3,6.9c-17.8,1.8-35.6,3.4-53.4,5.2
				c-12,1.2-24,2.6-36.2,4c0.6,3.7,1.1,7.2,1.6,10.4c-5.4-8.6-10.7-17.4-16.3-26c-4.6-6.9-10.4-11.7-19.5-9.4
				c-7.7,2-13.3,6.5-15.3,14.5c-0.5,2.3-0.4,4.9,0,7.2c0.5,2.7,1.6,5.3,2.7,8.6c-5.5,0.5-10.6,1.1-15.6,1.2c-1.2,0-2.6-1.9-3.6-3.1
				C84.7,74.3,64.7,49.4,44.2,24.8C34.3,12.9,23.8,1.2,12.7-9.6C3-19.1-9.4-23.7-23.2-24.2c-3.9-0.1-7.7-1.6-11.5-2.5
				c-7.2-1.7-14.1,1.5-14.4,10.3c-0.3,10.6,3.2,20.1,7,29.6c8,19.6,20.2,36.7,33.4,53.1c11.5,14.3,23.5,28.2,35.3,42.4
				c0.7,0.8,1.4,2,1.4,3c0.1,7.4,3.6,13.2,8.2,18.6c2.8,3.2,5.2,6.8,7.8,10.2c-0.3,0.2-0.5,0.5-0.7,0.7
				C39.4,137.7,35.4,134.1,32.3,131.3z"/>
			<path d="M91,126.7c-1.4-1.9-2.8-3.9-4.3-5.7c-2.5-3-4.4-6.2-4.5-10.3c-0.1-0.6-0.4-1.2-0.8-1.7c-6.5-7.8-13.1-15.5-19.5-23.4
				c-7.2-9.1-14-18.5-18.4-29.4c-2.2-5.2-4.1-10.5-3.9-16.3c0.1-4.9,3.9-6.6,7.9-5.7c2.2,0.5,4.3,1.3,6.4,1.4
				c7.7,0.3,14.5,2.9,19.9,8.1c6.1,6,11.9,12.4,17.4,19c11.4,13.6,22.4,27.4,33.6,41.1c0.6,0.7,1.3,1.7,2,1.7
				c2.7-0.1,5.5-0.4,8.6-0.7c-0.6-1.8-1.2-3.2-1.5-4.7c-0.2-1.3-0.3-2.7,0-4c1.1-4.4,4.2-6.9,8.5-8c5.1-1.3,8.3,1.4,10.8,5.2
				c3.1,4.8,6,9.6,9,14.4c-0.3-1.8-0.6-3.7-0.9-5.8c6.7-0.7,13.4-1.5,20-2.2c9.8-1,19.7-1.9,29.5-2.9c11.4-1.2,22.8-2.5,34.3-3.7
				c9.8-1.1,19.8-1.2,29.4-3.1c9-1.8,15.3,3.3,22.5,6.3c0.1,0.1,0.2,0.5,0.5,1.3c-18.3,5.2-36.5,10.5-54.3,15.6
				c0.5,2,0.8,3.4,1.2,4.9c-0.4,0.3-0.7,0.5-1.1,0.7c-2.3-2.4-4.5-4.8-6.8-7.2c0.2,0.9,0.5,1.9,0.8,3c-10.4,3.1-20.6,6.1-30.5,9.1
				c0.5,2.1,0.8,3.8,1.3,6c-4.5-1.7-5.2-5.9-8.3-8.9c1.8,3.8,0.3,4.8-2.6,5.4c-8.2,1.9-15.4,5.9-22.1,10.4c0.5,1.7,0.9,3.2,1.6,5.3
				c-4.5-0.8-5.3-4.9-8.3-6.9c0.7,1.5,1.2,2.6,1.7,3.7c-4.2,2.5-8.2,5-12.3,7.5c10.7,13.3,21.2,26.3,32.1,39.8
				c-1.1-2.6-1.8-4.5-2.6-6.5c1.1-0.7,2-1.4,3-2.1c5.4-3.8,5.3-3.7,9.5,1.2c2.7,3.1,3.3,6.3,2.6,10.3c-0.9,4.5-0.9,9.3-1.4,13.9
				c-0.2,1.3,0.1,2.1,1.6,2.2c2.4,0.1,4.7,0.5,7,0.5c9.7-0.2,19.5-0.4,29.2-0.6c1.8-0.1,3.7-0.2,5.5-0.4c4.8-0.6,7.4,1,9.3,5.7
				c-12.3,3.5-24.6,6.9-36.9,10.6c-3.5,1-6.3,1.5-8.1-2.5c-0.2-0.5-0.8-0.8-1.2-1.2c0.7,2.2,2,4,2.8,6.1c1.1,2.8,2.2,5.6,2.5,8.5
				c0.3,3.3-2.8,5-5.7,3.5c-2.3-1.2-4.8-2.3-6.9-3.9c-3.8-2.9-7.2-2.5-11.4-0.2c-9,4.9-18.3,9.1-27.6,13.7c-1.4-1.6-2.9-3-3.9-4.7
				c-0.4-0.7-0.1-2.4,0.5-3.1c5.2-5.8,10.6-11.5,15.9-17.2c1-1.2,1.9-1.4,3.3-0.7c2,1,4.2,1.8,6.3,2.6c-0.7-0.9-1.4-1.5-2.3-2
				c-13.5-7.4-24.2-17.7-33.6-29.8c-5.5-7.1-10.8-14.6-18.4-19.9c-3.5-2.5-6.6-5.7-10.2-8.8c0.5,3-1.7,2.5-3,2.8
				c-6.6,1.4-13.4,2.7-20.1,4.1c0.5,1.7,0.9,3.1,1.3,4.5c-0.3,0.2-0.7,0.5-1,0.7c-2.5-2.1-4.9-4.2-7.8-6.8c0.6,1.4,0.9,2.1,1.2,2.9
				c-9.1,2.2-16.3,5.4-18.7,8.1c0.5,2,1,3.8,1.5,5.6c-0.3,0.1-0.6,0.3-0.9,0.5c-2.5-2.3-4.9-4.5-7.8-7.2c0.7,1.5,1.1,2.5,1.6,3.5
				c-6.2,3.5-12.4,7.1-18.5,10.5c0.5,1.7,0.9,3.2,1.4,5.1c-4.8-0.3-6.1-4.4-9.4-7c1.1,1.9,1.7,3.1,2.5,4.5
				c-10.3,5.9-20.5,11.8-30.8,17.8c-1-2.3-2-4.4-2.8-6.5c-1.2-3.3-1-6,1.8-8.7c14.4-14.1,28.6-28.3,42.9-42.5
				c0.9-0.9,1.9-1.7,2.5-2.2c-3.4-3.9-6.7-7.4-9.5-11.2c-3-4-1.6-10,2.7-13c4.7-3.3,9.6-2.7,13,1.4c3.3,4,6.8,8,10.2,12
				c0-1.3-0.6-2.3-0.8-3.4c-0.2-0.7-0.2-1.9,0.3-2.3c4.4-4.3,9-8.6,13.6-12.9c1.7,1.5,3.8,3.5,6,5.4C90.2,126.7,90.3,126.6,91,126.7
				z M56.5,128.1c-1.6,4.9-5.3,7.1-10.1,8C52.1,136.7,56.1,133.6,56.5,128.1z M147.2,91.7c-1.1,1.5-2.2,4-4.1,5.2
				c-1.9,1.3-4.6,1.3-6.8,1.9C140.8,101,147.3,96.5,147.2,91.7z"/>
			<path class="st3" d="M139.2,86.9c3.4-2.2,5.4-6.7,7.5-9.5c0.2,8.8-11.6,16.9-19.8,12.9C131,89.3,135.8,89.2,139.2,86.9z"/>
		</g>
	</g>
</g>
</svg>
