<svg width="14" height="14" viewBox="0 0 14 14" fill="none" xmlns="http://www.w3.org/2000/svg">
<path d="M10.8958 8.48522C10.721 8.65256 10.6406 8.89456 10.6805 9.13189L11.2804 12.4119C11.3311 12.6899 11.2123 12.9712 10.9767 13.1319C10.7459 13.2986 10.4389 13.3186 10.1871 13.1852L7.19806 11.6452C7.09413 11.5906 6.97872 11.5612 6.86062 11.5579H6.67772C6.61428 11.5672 6.55219 11.5872 6.4955 11.6179L3.50576 13.1652C3.35796 13.2386 3.19059 13.2646 3.02659 13.2386C2.62706 13.1639 2.36048 12.7879 2.42595 12.3912L3.02659 9.11122C3.06641 8.87189 2.9861 8.62856 2.81131 8.45856L0.374297 6.12522C0.170482 5.92989 0.0996189 5.63656 0.192753 5.37189C0.283188 5.10789 0.513998 4.91522 0.792726 4.87189L4.1469 4.39122C4.40201 4.36522 4.62607 4.21189 4.7408 3.98522L6.2188 0.991891C6.25389 0.925225 6.29911 0.863891 6.35378 0.811891L6.41452 0.765225C6.44624 0.730558 6.48268 0.701891 6.52317 0.678558L6.59674 0.651891L6.71147 0.605225H6.99559C7.24935 0.631225 7.47274 0.781225 7.58949 1.00522L9.08706 3.98522C9.19504 4.20322 9.40493 4.35456 9.64721 4.39122L13.0014 4.87189C13.2848 4.91189 13.5217 5.10522 13.6155 5.37189C13.7039 5.63922 13.6277 5.93256 13.4198 6.12522L10.8958 8.48522Z" fill="#2DD3EB"/>
</svg>
